<?xml version="1.0" encoding="UTF-8"?>
<svg width="916px" height="530px" viewBox="0 0 916 530" version="1.1" xmlns="http://www.w3.org/2000/svg" xmlns:xlink="http://www.w3.org/1999/xlink">
    <title>000</title>
    <g id="000" stroke="none" stroke-width="1" fill="none" fill-rule="evenodd" opacity="0.398530506" stroke-linecap="round" stroke-linejoin="round">
        <polyline id="Path-2-Copy-7" stroke="#000000" stroke-width="2" transform="translate(625.284180, 162.810872) scale(-1, -1) rotate(110.000000) translate(-625.284180, -162.810872) " points="619.587288 150.813426 624.293498 154.574337 622.817426 160.561191 627.90386 164.457325 626.049238 170.323972 630.981071 174.808319"></polyline>
        <polyline id="Path-2-Copy-8" stroke="#000000" stroke-width="2" transform="translate(671.284180, 138.810872) scale(-1, -1) rotate(110.000000) translate(-671.284180, -138.810872) " points="665.587288 126.813426 670.293498 130.574337 668.817426 136.561191 673.90386 140.457325 672.049238 146.323972 676.981071 150.808319"></polyline>
        <polyline id="Path-2-Copy-5" stroke="#000000" stroke-width="2" transform="translate(129.784180, 138.810872) scale(-1, -1) rotate(110.000000) translate(-129.784180, -138.810872) " points="124.087288 126.813426 128.793498 130.574337 127.317426 136.561191 132.40386 140.457325 130.549238 146.323972 135.481071 150.808319"></polyline>
        <polyline id="Path-2-Copy-5" stroke="#000000" stroke-width="2" transform="translate(59.784180, 161.810872) scale(-1, -1) rotate(110.000000) translate(-59.784180, -161.810872) " points="54.0872883 149.813426 58.7934985 153.574337 57.317426 159.561191 62.4038602 163.457325 60.5492377 169.323972 65.4810711 173.808319"></polyline>
    </g>
</svg>