<?xml version="1.0" encoding="UTF-8"?>
<svg width="916px" height="530px" viewBox="0 0 916 530" version="1.1" xmlns="http://www.w3.org/2000/svg" xmlns:xlink="http://www.w3.org/1999/xlink">
    <title>001</title>
    <g id="001" stroke="none" stroke-width="1" fill="none" fill-rule="evenodd">
        <rect id="Rectangle-Copy-61" stroke="#905FDF" fill="#AE7DFD" x="649.5" y="127.5" width="219" height="21" rx="8"></rect>
        <rect id="Rectangle-Copy-68" stroke="#905FDF" fill="#AE7DFD" x="599.5" y="151.5" width="201.909091" height="21" rx="8"></rect>
        <rect id="Rectangle" fill="#FFFFFF" opacity="0.197149368" x="528.5" y="138" width="121" height="1"></rect>
        <rect id="Rectangle-Copy-70" fill="#FFFFFF" opacity="0.5" x="107" y="127" width="421" height="22" rx="8"></rect>
        <rect id="Rectangle-Copy-71" fill="#FFFFFF" opacity="0.5" x="33" y="151" width="412" height="22" rx="8"></rect>
        <rect id="Rectangle-Copy-70" stroke="#767676" x="107.5" y="127.5" width="420" height="21" rx="8"></rect>
        <rect id="Rectangle-Copy-71" stroke="#767676" x="33.5" y="151.5" width="411" height="21" rx="8"></rect>
        <path d="M664.852539,469.5 L664.852539,465.621094 L667.922852,465.621094 L667.922852,464.109375 L664.852539,464.109375 L664.852539,462.134766 L668.790039,462.134766 L668.790039,460.617188 L663.282227,460.617188 L663.282227,469.5 L664.852539,469.5 Z M676.956055,469.5 L677.676758,467.601562 L681.50293,467.601562 L682.235352,469.5 L683.94043,469.5 L680.401367,460.617188 L678.801758,460.617188 L675.250977,469.5 L676.956055,469.5 Z M680.94043,466.101562 L678.239258,466.101562 L679.592773,462.574219 L680.94043,466.101562 Z M695.639648,469.658203 C696.249023,469.658203 696.824219,469.541016 697.365234,469.306641 C697.90625,469.072266 698.391602,468.748047 698.821289,468.333984 L698.821289,468.333984 L697.895508,467.232422 C697.610352,467.525391 697.265625,467.762695 696.861328,467.944336 C696.457031,468.125977 696.049805,468.216797 695.639648,468.216797 C695.081055,468.216797 694.56543,468.077148 694.092773,467.797852 C693.620117,467.518555 693.246094,467.138672 692.970703,466.658203 C692.695312,466.177734 692.557617,465.652344 692.557617,465.082031 C692.557617,464.515625 692.691406,463.989258 692.958984,463.50293 C693.226562,463.016602 693.59668,462.628906 694.069336,462.339844 C694.541992,462.050781 695.061523,461.90625 695.62793,461.90625 C696.577148,461.90625 697.356445,462.261719 697.96582,462.972656 L697.96582,462.972656 L698.950195,461.865234 C698.520508,461.423828 698.021484,461.080078 697.453125,460.833984 C696.884766,460.587891 696.276367,460.464844 695.62793,460.464844 C694.979492,460.464844 694.367188,460.586914 693.791016,460.831055 C693.214844,461.075195 692.722656,461.40332 692.314453,461.81543 C691.90625,462.227539 691.583984,462.716797 691.347656,463.283203 C691.111328,463.849609 690.993164,464.445312 690.993164,465.070312 C690.993164,465.917969 691.202148,466.694336 691.620117,467.399414 C692.038086,468.104492 692.602539,468.657227 693.313477,469.057617 C694.024414,469.458008 694.799805,469.658203 695.639648,469.658203 Z M710.918945,469.5 L710.918945,462.134766 L713.760742,462.134766 L713.760742,460.617188 L706.489258,460.617188 L706.489258,462.134766 L709.348633,462.134766 L709.348633,469.5 L710.918945,469.5 Z M736.057617,469.658203 C736.666992,469.658203 737.242188,469.541016 737.783203,469.306641 C738.324219,469.072266 738.80957,468.748047 739.239258,468.333984 L739.239258,468.333984 L738.313477,467.232422 C738.02832,467.525391 737.683594,467.762695 737.279297,467.944336 C736.875,468.125977 736.467773,468.216797 736.057617,468.216797 C735.499023,468.216797 734.983398,468.077148 734.510742,467.797852 C734.038086,467.518555 733.664062,467.138672 733.388672,466.658203 C733.113281,466.177734 732.975586,465.652344 732.975586,465.082031 C732.975586,464.515625 733.109375,463.989258 733.376953,463.50293 C733.644531,463.016602 734.014648,462.628906 734.487305,462.339844 C734.959961,462.050781 735.479492,461.90625 736.045898,461.90625 C736.995117,461.90625 737.774414,462.261719 738.383789,462.972656 L738.383789,462.972656 L739.368164,461.865234 C738.938477,461.423828 738.439453,461.080078 737.871094,460.833984 C737.302734,460.587891 736.694336,460.464844 736.045898,460.464844 C735.397461,460.464844 734.785156,460.586914 734.208984,460.831055 C733.632812,461.075195 733.140625,461.40332 732.732422,461.81543 C732.324219,462.227539 732.001953,462.716797 731.765625,463.283203 C731.529297,463.849609 731.411133,464.445312 731.411133,465.070312 C731.411133,465.917969 731.620117,466.694336 732.038086,467.399414 C732.456055,468.104492 733.020508,468.657227 733.731445,469.057617 C734.442383,469.458008 735.217773,469.658203 736.057617,469.658203 Z M749.139648,469.5 L749.139648,465.574219 L753.411133,465.574219 L753.411133,469.5 L754.987305,469.5 L754.987305,460.617188 L753.411133,460.617188 L753.411133,464.0625 L749.139648,464.0625 L749.139648,460.617188 L747.569336,460.617188 L747.569336,469.5 L749.139648,469.5 Z M769.52832,469.5 L769.52832,467.988281 L765.473633,467.988281 L765.473633,465.621094 L768.666992,465.621094 L768.666992,464.109375 L765.473633,464.109375 L765.473633,462.134766 L769.52832,462.134766 L769.52832,460.617188 L763.90332,460.617188 L763.90332,469.5 L769.52832,469.5 Z M781.948242,469.658203 C782.557617,469.658203 783.132812,469.541016 783.673828,469.306641 C784.214844,469.072266 784.700195,468.748047 785.129883,468.333984 L785.129883,468.333984 L784.204102,467.232422 C783.918945,467.525391 783.574219,467.762695 783.169922,467.944336 C782.765625,468.125977 782.358398,468.216797 781.948242,468.216797 C781.389648,468.216797 780.874023,468.077148 780.401367,467.797852 C779.928711,467.518555 779.554688,467.138672 779.279297,466.658203 C779.003906,466.177734 778.866211,465.652344 778.866211,465.082031 C778.866211,464.515625 779,463.989258 779.267578,463.50293 C779.535156,463.016602 779.905273,462.628906 780.37793,462.339844 C780.850586,462.050781 781.370117,461.90625 781.936523,461.90625 C782.885742,461.90625 783.665039,462.261719 784.274414,462.972656 L784.274414,462.972656 L785.258789,461.865234 C784.829102,461.423828 784.330078,461.080078 783.761719,460.833984 C783.193359,460.587891 782.584961,460.464844 781.936523,460.464844 C781.288086,460.464844 780.675781,460.586914 780.099609,460.831055 C779.523438,461.075195 779.03125,461.40332 778.623047,461.81543 C778.214844,462.227539 777.892578,462.716797 777.65625,463.283203 C777.419922,463.849609 777.301758,464.445312 777.301758,465.070312 C777.301758,465.917969 777.510742,466.694336 777.928711,467.399414 C778.34668,468.104492 778.911133,468.657227 779.62207,469.057617 C780.333008,469.458008 781.108398,469.658203 781.948242,469.658203 Z M795.030273,469.5 L795.030273,465.732422 L798.592773,469.5 L800.68457,469.5 L796.401367,465.058594 L800.368164,460.617188 L798.393555,460.617188 L795.030273,464.542969 L795.030273,460.617188 L793.459961,460.617188 L793.459961,469.5 L795.030273,469.5 Z" id="FACTCHECK" fill="#414053" fill-rule="nonzero"></path>
        <polyline id="Path-2-Copy-9" stroke-opacity="0.40272618" stroke="#FFFFFF" stroke-width="2" stroke-linecap="round" stroke-linejoin="round" transform="translate(625.284180, 300.810872) scale(-1, -1) rotate(110.000000) translate(-625.284180, -300.810872) " points="619.587288 288.813426 624.293498 292.574337 622.817426 298.561191 627.90386 302.457325 626.049238 308.323972 630.981071 312.808319"></polyline>
        <polyline id="Path-2-Copy-10" stroke-opacity="0.40272618" stroke="#FFFFFF" stroke-width="2" stroke-linecap="round" stroke-linejoin="round" transform="translate(625.696891, 417.997447) scale(-1, -1) rotate(110.000000) translate(-625.696891, -417.997447) " points="620 406 624.70621 409.760911 623.230138 415.747765 628.316572 419.6439 626.461949 425.510546 631.393783 429.994894"></polyline>
        <polyline id="Path-2-Copy-9" stroke-opacity="0.40272618" stroke="#FFFFFF" stroke-width="2" stroke-linecap="round" stroke-linejoin="round" transform="translate(625.284180, 244.810872) scale(-1, -1) rotate(110.000000) translate(-625.284180, -244.810872) " points="619.587288 232.813426 624.293498 236.574337 622.817426 242.561191 627.90386 246.457325 626.049238 252.323972 630.981071 256.808319"></polyline>
        <polyline id="Path-2-Copy-9" stroke-opacity="0.40272618" stroke="#FFFFFF" stroke-width="2" stroke-linecap="round" stroke-linejoin="round" transform="translate(611.078736, 359.624973) scale(-1, -1) rotate(110.000000) translate(-611.078736, -359.624973) " points="610 358 612.157472 359.253904 611.480795 361.249947"></polyline>
        <polyline id="Path-2-Copy-10" stroke-opacity="0.40272618" stroke="#FFFFFF" stroke-width="2" stroke-linecap="round" stroke-linejoin="round" transform="translate(639.078736, 359.624973) scale(-1, -1) rotate(110.000000) translate(-639.078736, -359.624973) " points="638 358 640.157472 359.253904 639.480795 361.249947"></polyline>
        <polyline id="Path-2-Copy-11" stroke-opacity="0.40272618" stroke="#FFFFFF" stroke-width="2" stroke-linecap="round" stroke-linejoin="round" transform="translate(667.078736, 359.624973) scale(-1, -1) rotate(110.000000) translate(-667.078736, -359.624973) " points="666 358 668.157472 359.253904 667.480795 361.249947"></polyline>
        <polyline id="Path-2-Copy-12" stroke-opacity="0.40272618" stroke="#FFFFFF" stroke-width="2" stroke-linecap="round" stroke-linejoin="round" transform="translate(695.078736, 359.624973) scale(-1, -1) rotate(110.000000) translate(-695.078736, -359.624973) " points="694 358 696.157472 359.253904 695.480795 361.249947"></polyline>
        <polyline id="Path-2-Copy-13" stroke-opacity="0.40272618" stroke="#FFFFFF" stroke-width="2" stroke-linecap="round" stroke-linejoin="round" transform="translate(723.078736, 359.624973) scale(-1, -1) rotate(110.000000) translate(-723.078736, -359.624973) " points="722 358 724.157472 359.253904 723.480795 361.249947"></polyline>
        <polyline id="Path-2-Copy-14" stroke-opacity="0.40272618" stroke="#FFFFFF" stroke-width="2" stroke-linecap="round" stroke-linejoin="round" transform="translate(751.078736, 359.624973) scale(-1, -1) rotate(110.000000) translate(-751.078736, -359.624973) " points="750 358 752.157472 359.253904 751.480795 361.249947"></polyline>
        <polyline id="Path-2-Copy-15" stroke-opacity="0.40272618" stroke="#FFFFFF" stroke-width="2" stroke-linecap="round" stroke-linejoin="round" transform="translate(779.078736, 359.624973) scale(-1, -1) rotate(110.000000) translate(-779.078736, -359.624973) " points="778 358 780.157472 359.253904 779.480795 361.249947"></polyline>
        <polyline id="Path-2-Copy-16" stroke-opacity="0.40272618" stroke="#FFFFFF" stroke-width="2" stroke-linecap="round" stroke-linejoin="round" transform="translate(807.078736, 359.624973) scale(-1, -1) rotate(110.000000) translate(-807.078736, -359.624973) " points="806 358 808.157472 359.253904 807.480795 361.249947"></polyline>
        <polyline id="Path-2-Copy-17" stroke-opacity="0.40272618" stroke="#FFFFFF" stroke-width="2" stroke-linecap="round" stroke-linejoin="round" transform="translate(835.078736, 359.624973) scale(-1, -1) rotate(110.000000) translate(-835.078736, -359.624973) " points="834 358 836.157472 359.253904 835.480795 361.249947"></polyline>
    </g>
</svg>