<?xml version="1.0" encoding="UTF-8"?>
<svg width="916px" height="530px" viewBox="0 0 916 530" version="1.1" xmlns="http://www.w3.org/2000/svg" xmlns:xlink="http://www.w3.org/1999/xlink">
    <title>002</title>
    <g id="002" stroke="none" stroke-width="1" fill="none" fill-rule="evenodd">
        <path d="M604.003906,92.6582031 C605.230469,92.6582031 606.298828,92.2167969 607.208984,91.3339844 L607.208984,91.3339844 L606.40625,90.53125 C606.089844,90.8398438 605.723633,91.0849609 605.307617,91.2666016 C604.891602,91.4482422 604.457031,91.5390625 604.003906,91.5390625 C603.554688,91.5390625 603.121094,91.4462891 602.703125,91.2607422 C602.285156,91.0751953 601.922852,90.8271484 601.616211,90.5166016 C601.30957,90.2060547 601.064453,89.8359375 600.880859,89.40625 C600.697266,88.9765625 600.605469,88.53125 600.605469,88.0703125 C600.605469,87.6171875 600.695312,87.1777344 600.875,86.7519531 C601.054688,86.3261719 601.295898,85.9550781 601.598633,85.6386719 C601.901367,85.3222656 602.266602,85.0683594 602.694336,84.8769531 C603.12207,84.6855469 603.570312,84.5898438 604.039062,84.5898438 C604.5,84.5898438 604.939453,84.6806641 605.357422,84.8623047 C605.775391,85.0439453 606.144531,85.3027344 606.464844,85.6386719 L606.464844,85.6386719 L607.337891,84.8652344 C606.908203,84.4199219 606.40918,84.0771484 605.84082,83.8369141 C605.272461,83.5966797 604.664062,83.4765625 604.015625,83.4765625 C603.375,83.4765625 602.768555,83.5966797 602.196289,83.8369141 C601.624023,84.0771484 601.132812,84.4013672 600.722656,84.8095703 C600.3125,85.2177734 599.987305,85.7050781 599.74707,86.2714844 C599.506836,86.8378906 599.386719,87.4335938 599.386719,88.0585938 C599.386719,88.90625 599.595703,89.6835938 600.013672,90.390625 C600.431641,91.0976562 600.994141,91.6523438 601.701172,92.0546875 C602.408203,92.4570312 603.175781,92.6582031 604.003906,92.6582031 Z M610.050781,92.6582031 C610.230469,92.6582031 610.441406,92.6289062 610.683594,92.5703125 L610.683594,92.5703125 L610.683594,91.5625 C610.613281,91.5703125 610.517578,91.5742188 610.396484,91.5742188 C610.123047,91.5742188 609.936523,91.5058594 609.836914,91.3691406 C609.737305,91.2324219 609.6875,91.0058594 609.6875,90.6894531 L609.6875,90.6894531 L609.6875,83.6171875 L608.539062,83.6171875 L608.539062,91.046875 C608.539062,91.5625 608.672852,91.9599609 608.94043,92.2392578 C609.208008,92.5185547 609.578125,92.6582031 610.050781,92.6582031 Z M614.304688,92.6582031 C615.105469,92.6582031 615.742188,92.3808594 616.214844,91.8261719 L616.214844,91.8261719 L616.214844,92.5 L617.363281,92.5 L617.363281,86.7988281 L616.214844,86.7988281 L616.214844,87.53125 C615.726562,86.9726562 615.089844,86.6933594 614.304688,86.6933594 C613.894531,86.6933594 613.503906,86.7705078 613.132812,86.9248047 C612.761719,87.0791016 612.441406,87.2880859 612.171875,87.5517578 C611.902344,87.8154297 611.688477,88.1328125 611.530273,88.5039062 C611.37207,88.875 611.292969,89.2675781 611.292969,89.6816406 C611.292969,90.0917969 611.371094,90.4814453 611.527344,90.8505859 C611.683594,91.2197266 611.895508,91.5361328 612.163086,91.7998047 C612.430664,92.0634766 612.75,92.2724609 613.121094,92.4267578 C613.492188,92.5810547 613.886719,92.6582031 614.304688,92.6582031 Z M614.304688,91.5742188 C613.773438,91.5742188 613.328125,91.3925781 612.96875,91.0292969 C612.609375,90.6660156 612.429688,90.2167969 612.429688,89.6816406 C612.429688,89.1503906 612.609375,88.7011719 612.96875,88.3339844 C613.328125,87.9667969 613.773438,87.7832031 614.304688,87.7832031 C614.835938,87.7832031 615.283203,87.96875 615.646484,88.3398438 C616.009766,88.7109375 616.191406,89.1582031 616.191406,89.6816406 C616.191406,90.2050781 616.011719,90.6513672 615.652344,91.0205078 C615.292969,91.3896484 614.84375,91.5742188 614.304688,91.5742188 Z M619.871094,85.6738281 C620.082031,85.6738281 620.256836,85.6025391 620.395508,85.4599609 C620.53418,85.3173828 620.603516,85.140625 620.603516,84.9296875 C620.603516,84.71875 620.53418,84.5419922 620.395508,84.3994141 C620.256836,84.2568359 620.082031,84.1855469 619.871094,84.1855469 C619.660156,84.1855469 619.483398,84.2568359 619.34082,84.3994141 C619.198242,84.5419922 619.126953,84.71875 619.126953,84.9296875 C619.126953,85.140625 619.197266,85.3183594 619.337891,85.4628906 C619.482422,85.6035156 619.660156,85.6738281 619.871094,85.6738281 Z M620.445312,92.5 L620.445312,86.7988281 L619.285156,86.7988281 L619.285156,92.5 L620.445312,92.5 Z M623.515625,92.5 L623.515625,89.59375 C623.515625,88.3867188 623.972656,87.7832031 624.886719,87.7832031 C625.316406,87.7832031 625.620117,87.9228516 625.797852,88.2021484 C625.975586,88.4814453 626.064453,88.9179688 626.064453,89.5117188 L626.064453,89.5117188 L626.064453,92.5 L627.224609,92.5 L627.224609,89.59375 C627.224609,88.3867188 627.681641,87.7832031 628.595703,87.7832031 C629.025391,87.7832031 629.328125,87.9238281 629.503906,88.2050781 C629.679688,88.4863281 629.767578,88.921875 629.767578,89.5117188 L629.767578,89.5117188 L629.767578,92.5 L630.921875,92.5 L630.921875,89.2714844 C630.921875,88.4082031 630.733398,87.7626953 630.356445,87.3349609 C629.979492,86.9072266 629.460938,86.6933594 628.800781,86.6933594 C627.996094,86.6933594 627.363281,87.0449219 626.902344,87.7480469 C626.738281,87.3925781 626.496094,87.1279297 626.175781,86.9541016 C625.855469,86.7802734 625.490234,86.6933594 625.080078,86.6933594 C624.748047,86.6933594 624.459961,86.7509766 624.21582,86.8662109 C623.97168,86.9814453 623.738281,87.1640625 623.515625,87.4140625 L623.515625,87.4140625 L623.515625,86.7988281 L622.367188,86.7988281 L622.367188,92.5 L623.515625,92.5 Z M633.705078,88.2871094 C633.916016,88.2871094 634.09082,88.2158203 634.229492,88.0732422 C634.368164,87.9306641 634.4375,87.7539062 634.4375,87.5429688 C634.4375,87.3320312 634.368164,87.1552734 634.229492,87.0126953 C634.09082,86.8701172 633.916016,86.7988281 633.705078,86.7988281 C633.494141,86.7988281 633.317383,86.8701172 633.174805,87.0126953 C633.032227,87.1552734 632.960938,87.3320312 632.960938,87.5429688 C632.960938,87.7539062 633.03125,87.9316406 633.171875,88.0761719 C633.316406,88.2167969 633.494141,88.2871094 633.705078,88.2871094 Z M633.705078,92.5703125 C633.916016,92.5703125 634.09082,92.4990234 634.229492,92.3564453 C634.368164,92.2138672 634.4375,92.0371094 634.4375,91.8261719 C634.4375,91.6152344 634.368164,91.4404297 634.229492,91.3017578 C634.09082,91.1630859 633.916016,91.09375 633.705078,91.09375 C633.494141,91.09375 633.317383,91.1630859 633.174805,91.3017578 C633.032227,91.4404297 632.960938,91.6152344 632.960938,91.8261719 C632.960938,92.0371094 633.03125,92.2148438 633.171875,92.359375 C633.316406,92.5 633.494141,92.5703125 633.705078,92.5703125 Z" id="Claim:" fill="#FFFFFF" fill-rule="nonzero"></path>
        <rect id="Rectangle-Copy-60" stroke="#919191" fill="#C8DCE3" opacity="0.1820359" x="599.5" y="103.5" width="269" height="21" rx="10.5"></rect>
        <rect id="Rectangle-Copy-67" stroke="#919191" fill="#C8DCE3" opacity="0.1820359" x="599.5" y="127.5" width="269" height="21" rx="10.5"></rect>
        <rect id="Rectangle-Copy-62" stroke="#919191" fill="#C8DCE3" opacity="0.1820359" x="599.5" y="151.5" width="269" height="21" rx="10.5"></rect>
        <path d="M601.244141,396.5 L601.244141,392.638672 L602.767578,392.638672 L605.023438,396.5 L606.429688,396.5 L604.109375,392.5625 C604.792969,392.457031 605.316406,392.200195 605.679688,391.791992 C606.042969,391.383789 606.224609,390.830078 606.224609,390.130859 C606.224609,389.279297 605.962891,388.647461 605.439453,388.235352 C604.916016,387.823242 604.197266,387.617188 603.283203,387.617188 L603.283203,387.617188 L600.019531,387.617188 L600.019531,396.5 L601.244141,396.5 Z M603.271484,391.472656 L601.244141,391.472656 L601.244141,388.783203 L603.271484,388.783203 C603.849609,388.783203 604.282227,388.892578 604.569336,389.111328 C604.856445,389.330078 605,389.673828 605,390.142578 C605,390.400391 604.958008,390.618164 604.874023,390.795898 C604.790039,390.973633 604.667969,391.110352 604.507812,391.206055 C604.347656,391.301758 604.167969,391.370117 603.96875,391.411133 C603.769531,391.452148 603.537109,391.472656 603.271484,391.472656 L603.271484,391.472656 Z M609.892578,396.658203 C610.384766,396.658203 610.84375,396.551758 611.269531,396.338867 C611.695312,396.125977 612.041016,395.832031 612.306641,395.457031 L612.306641,395.457031 L611.486328,394.830078 C611.310547,395.076172 611.080078,395.267578 610.794922,395.404297 C610.509766,395.541016 610.208984,395.609375 609.892578,395.609375 C609.416016,395.609375 609.008789,395.463867 608.670898,395.172852 C608.333008,394.881836 608.123047,394.511719 608.041016,394.0625 L608.041016,394.0625 L612.710938,394.0625 C612.726562,393.90625 612.734375,393.775391 612.734375,393.669922 C612.734375,393.275391 612.661133,392.896484 612.514648,392.533203 C612.368164,392.169922 612.167969,391.853516 611.914062,391.583984 C611.660156,391.314453 611.351562,391.098633 610.988281,390.936523 C610.625,390.774414 610.236328,390.693359 609.822266,390.693359 C609.267578,390.693359 608.765625,390.831055 608.316406,391.106445 C607.867188,391.381836 607.519531,391.74707 607.273438,392.202148 C607.027344,392.657227 606.904297,393.150391 606.904297,393.681641 C606.904297,394.517578 607.194336,395.222656 607.774414,395.796875 C608.354492,396.371094 609.060547,396.658203 609.892578,396.658203 Z M611.5625,393.154297 L608.082031,393.154297 C608.1875,392.740234 608.397461,392.402344 608.711914,392.140625 C609.026367,391.878906 609.400391,391.748047 609.833984,391.748047 C610.279297,391.748047 610.661133,391.881836 610.979492,392.149414 C611.297852,392.416992 611.492188,392.751953 611.5625,393.154297 L611.5625,393.154297 Z M616.601562,396.5 L618.03125,392.398438 L619.466797,396.5 L620.667969,396.5 L622.818359,390.798828 L621.535156,390.798828 L620.058594,395 L618.558594,390.798828 L617.486328,390.798828 L615.986328,395 L614.515625,390.798828 L613.238281,390.798828 L615.376953,396.5 L616.601562,396.5 Z M626.369141,396.658203 C627.169922,396.658203 627.806641,396.380859 628.279297,395.826172 L628.279297,395.826172 L628.279297,396.5 L629.427734,396.5 L629.427734,390.798828 L628.279297,390.798828 L628.279297,391.53125 C627.791016,390.972656 627.154297,390.693359 626.369141,390.693359 C625.958984,390.693359 625.568359,390.770508 625.197266,390.924805 C624.826172,391.079102 624.505859,391.288086 624.236328,391.551758 C623.966797,391.81543 623.75293,392.132812 623.594727,392.503906 C623.436523,392.875 623.357422,393.267578 623.357422,393.681641 C623.357422,394.091797 623.435547,394.481445 623.591797,394.850586 C623.748047,395.219727 623.959961,395.536133 624.227539,395.799805 C624.495117,396.063477 624.814453,396.272461 625.185547,396.426758 C625.556641,396.581055 625.951172,396.658203 626.369141,396.658203 Z M626.369141,395.574219 C625.837891,395.574219 625.392578,395.392578 625.033203,395.029297 C624.673828,394.666016 624.494141,394.216797 624.494141,393.681641 C624.494141,393.150391 624.673828,392.701172 625.033203,392.333984 C625.392578,391.966797 625.837891,391.783203 626.369141,391.783203 C626.900391,391.783203 627.347656,391.96875 627.710938,392.339844 C628.074219,392.710938 628.255859,393.158203 628.255859,393.681641 C628.255859,394.205078 628.076172,394.651367 627.716797,395.020508 C627.357422,395.389648 626.908203,395.574219 626.369141,395.574219 Z M632.498047,396.5 L632.498047,393.546875 C632.498047,393.277344 632.526367,393.045898 632.583008,392.852539 C632.639648,392.65918 632.744141,392.477539 632.896484,392.307617 C633.048828,392.137695 633.276367,392.009766 633.579102,391.923828 C633.881836,391.837891 634.261719,391.794922 634.71875,391.794922 L634.71875,391.794922 L634.71875,390.693359 C634.136719,390.693359 633.6875,390.746094 633.371094,390.851562 C633.054688,390.957031 632.763672,391.167969 632.498047,391.484375 L632.498047,391.484375 L632.498047,390.798828 L631.349609,390.798828 L631.349609,396.5 L632.498047,396.5 Z M638.175781,396.658203 C638.976562,396.658203 639.613281,396.380859 640.085938,395.826172 L640.085938,395.826172 L640.085938,396.5 L641.234375,396.5 L641.234375,387.617188 L640.085938,387.617188 L640.085938,391.53125 C639.597656,390.972656 638.960938,390.693359 638.175781,390.693359 C637.765625,390.693359 637.375,390.770508 637.003906,390.924805 C636.632812,391.079102 636.3125,391.288086 636.042969,391.551758 C635.773438,391.81543 635.55957,392.132812 635.401367,392.503906 C635.243164,392.875 635.164062,393.267578 635.164062,393.681641 C635.164062,394.091797 635.242188,394.481445 635.398438,394.850586 C635.554688,395.219727 635.766602,395.536133 636.03418,395.799805 C636.301758,396.063477 636.621094,396.272461 636.992188,396.426758 C637.363281,396.581055 637.757812,396.658203 638.175781,396.658203 Z M638.175781,395.574219 C637.644531,395.574219 637.199219,395.392578 636.839844,395.029297 C636.480469,394.666016 636.300781,394.216797 636.300781,393.681641 C636.300781,393.150391 636.480469,392.701172 636.839844,392.333984 C637.199219,391.966797 637.644531,391.783203 638.175781,391.783203 C638.707031,391.783203 639.154297,391.96875 639.517578,392.339844 C639.880859,392.710938 640.0625,393.158203 640.0625,393.681641 C640.0625,394.205078 639.882812,394.651367 639.523438,395.020508 C639.164062,395.389648 638.714844,395.574219 638.175781,395.574219 Z M644.140625,392.287109 C644.351562,392.287109 644.526367,392.21582 644.665039,392.073242 C644.803711,391.930664 644.873047,391.753906 644.873047,391.542969 C644.873047,391.332031 644.803711,391.155273 644.665039,391.012695 C644.526367,390.870117 644.351562,390.798828 644.140625,390.798828 C643.929688,390.798828 643.75293,390.870117 643.610352,391.012695 C643.467773,391.155273 643.396484,391.332031 643.396484,391.542969 C643.396484,391.753906 643.466797,391.931641 643.607422,392.076172 C643.751953,392.216797 643.929688,392.287109 644.140625,392.287109 Z M644.140625,396.570312 C644.351562,396.570312 644.526367,396.499023 644.665039,396.356445 C644.803711,396.213867 644.873047,396.037109 644.873047,395.826172 C644.873047,395.615234 644.803711,395.44043 644.665039,395.301758 C644.526367,395.163086 644.351562,395.09375 644.140625,395.09375 C643.929688,395.09375 643.75293,395.163086 643.610352,395.301758 C643.467773,395.44043 643.396484,395.615234 643.396484,395.826172 C643.396484,396.037109 643.466797,396.214844 643.607422,396.359375 C643.751953,396.5 643.929688,396.570312 644.140625,396.570312 Z" id="Reward:" fill="#FFFFFF" fill-rule="nonzero"></path>
        <path d="M601.244141,336.5 L601.244141,332.638672 L602.767578,332.638672 L605.023438,336.5 L606.429688,336.5 L604.109375,332.5625 C604.792969,332.457031 605.316406,332.200195 605.679688,331.791992 C606.042969,331.383789 606.224609,330.830078 606.224609,330.130859 C606.224609,329.279297 605.962891,328.647461 605.439453,328.235352 C604.916016,327.823242 604.197266,327.617188 603.283203,327.617188 L603.283203,327.617188 L600.019531,327.617188 L600.019531,336.5 L601.244141,336.5 Z M603.271484,331.472656 L601.244141,331.472656 L601.244141,328.783203 L603.271484,328.783203 C603.849609,328.783203 604.282227,328.892578 604.569336,329.111328 C604.856445,329.330078 605,329.673828 605,330.142578 C605,330.400391 604.958008,330.618164 604.874023,330.795898 C604.790039,330.973633 604.667969,331.110352 604.507812,331.206055 C604.347656,331.301758 604.167969,331.370117 603.96875,331.411133 C603.769531,331.452148 603.537109,331.472656 603.271484,331.472656 L603.271484,331.472656 Z M609.892578,336.658203 C610.384766,336.658203 610.84375,336.551758 611.269531,336.338867 C611.695312,336.125977 612.041016,335.832031 612.306641,335.457031 L612.306641,335.457031 L611.486328,334.830078 C611.310547,335.076172 611.080078,335.267578 610.794922,335.404297 C610.509766,335.541016 610.208984,335.609375 609.892578,335.609375 C609.416016,335.609375 609.008789,335.463867 608.670898,335.172852 C608.333008,334.881836 608.123047,334.511719 608.041016,334.0625 L608.041016,334.0625 L612.710938,334.0625 C612.726562,333.90625 612.734375,333.775391 612.734375,333.669922 C612.734375,333.275391 612.661133,332.896484 612.514648,332.533203 C612.368164,332.169922 612.167969,331.853516 611.914062,331.583984 C611.660156,331.314453 611.351562,331.098633 610.988281,330.936523 C610.625,330.774414 610.236328,330.693359 609.822266,330.693359 C609.267578,330.693359 608.765625,330.831055 608.316406,331.106445 C607.867188,331.381836 607.519531,331.74707 607.273438,332.202148 C607.027344,332.657227 606.904297,333.150391 606.904297,333.681641 C606.904297,334.517578 607.194336,335.222656 607.774414,335.796875 C608.354492,336.371094 609.060547,336.658203 609.892578,336.658203 Z M611.5625,333.154297 L608.082031,333.154297 C608.1875,332.740234 608.397461,332.402344 608.711914,332.140625 C609.026367,331.878906 609.400391,331.748047 609.833984,331.748047 C610.279297,331.748047 610.661133,331.881836 610.979492,332.149414 C611.297852,332.416992 611.492188,332.751953 611.5625,333.154297 L611.5625,333.154297 Z M616.830078,336.5 L619.167969,330.798828 L617.919922,330.798828 L616.191406,335.058594 L614.486328,330.798828 L613.238281,330.798828 L615.59375,336.5 L616.830078,336.5 Z M620.832031,329.673828 C621.042969,329.673828 621.217773,329.602539 621.356445,329.459961 C621.495117,329.317383 621.564453,329.140625 621.564453,328.929688 C621.564453,328.71875 621.495117,328.541992 621.356445,328.399414 C621.217773,328.256836 621.042969,328.185547 620.832031,328.185547 C620.621094,328.185547 620.444336,328.256836 620.301758,328.399414 C620.15918,328.541992 620.087891,328.71875 620.087891,328.929688 C620.087891,329.140625 620.158203,329.318359 620.298828,329.462891 C620.443359,329.603516 620.621094,329.673828 620.832031,329.673828 Z M621.40625,336.5 L621.40625,330.798828 L620.246094,330.798828 L620.246094,336.5 L621.40625,336.5 Z M625.835938,336.658203 C626.328125,336.658203 626.787109,336.551758 627.212891,336.338867 C627.638672,336.125977 627.984375,335.832031 628.25,335.457031 L628.25,335.457031 L627.429688,334.830078 C627.253906,335.076172 627.023438,335.267578 626.738281,335.404297 C626.453125,335.541016 626.152344,335.609375 625.835938,335.609375 C625.359375,335.609375 624.952148,335.463867 624.614258,335.172852 C624.276367,334.881836 624.066406,334.511719 623.984375,334.0625 L623.984375,334.0625 L628.654297,334.0625 C628.669922,333.90625 628.677734,333.775391 628.677734,333.669922 C628.677734,333.275391 628.604492,332.896484 628.458008,332.533203 C628.311523,332.169922 628.111328,331.853516 627.857422,331.583984 C627.603516,331.314453 627.294922,331.098633 626.931641,330.936523 C626.568359,330.774414 626.179688,330.693359 625.765625,330.693359 C625.210938,330.693359 624.708984,330.831055 624.259766,331.106445 C623.810547,331.381836 623.462891,331.74707 623.216797,332.202148 C622.970703,332.657227 622.847656,333.150391 622.847656,333.681641 C622.847656,334.517578 623.137695,335.222656 623.717773,335.796875 C624.297852,336.371094 625.003906,336.658203 625.835938,336.658203 Z M627.505859,333.154297 L624.025391,333.154297 C624.130859,332.740234 624.34082,332.402344 624.655273,332.140625 C624.969727,331.878906 625.34375,331.748047 625.777344,331.748047 C626.222656,331.748047 626.604492,331.881836 626.922852,332.149414 C627.241211,332.416992 627.435547,332.751953 627.505859,333.154297 L627.505859,333.154297 Z M632.544922,336.5 L633.974609,332.398438 L635.410156,336.5 L636.611328,336.5 L638.761719,330.798828 L637.478516,330.798828 L636.001953,335 L634.501953,330.798828 L633.429688,330.798828 L631.929688,335 L630.458984,330.798828 L629.181641,330.798828 L631.320312,336.5 L632.544922,336.5 Z M641.515625,336.658203 C642.160156,336.658203 642.673828,336.5 643.056641,336.183594 C643.439453,335.867188 643.630859,335.4375 643.630859,334.894531 C643.630859,334.617188 643.576172,334.375 643.466797,334.167969 C643.357422,333.960938 643.216797,333.797852 643.044922,333.678711 C642.873047,333.55957 642.681641,333.457031 642.470703,333.371094 C642.259766,333.285156 642.048828,333.211914 641.837891,333.151367 C641.626953,333.09082 641.435547,333.02832 641.263672,332.963867 C641.091797,332.899414 640.951172,332.816406 640.841797,332.714844 C640.732422,332.613281 640.677734,332.490234 640.677734,332.345703 C640.677734,332.177734 640.748047,332.036133 640.888672,331.920898 C641.029297,331.805664 641.234375,331.748047 641.503906,331.748047 C641.972656,331.748047 642.410156,331.896484 642.816406,332.193359 L642.816406,332.193359 L643.425781,331.337891 C642.894531,330.908203 642.25,330.693359 641.492188,330.693359 C640.902344,330.693359 640.428711,330.859375 640.071289,331.191406 C639.713867,331.523438 639.535156,331.953125 639.535156,332.480469 C639.535156,332.757812 639.589844,332.998047 639.699219,333.201172 C639.808594,333.404297 639.950195,333.561523 640.124023,333.672852 C640.297852,333.78418 640.490234,333.879883 640.701172,333.959961 C640.912109,334.040039 641.123047,334.107422 641.333984,334.162109 C641.544922,334.216797 641.737305,334.274414 641.911133,334.334961 C642.084961,334.395508 642.226562,334.477539 642.335938,334.581055 C642.445312,334.68457 642.5,334.8125 642.5,334.964844 C642.5,335.160156 642.416992,335.316406 642.250977,335.433594 C642.084961,335.550781 641.851562,335.609375 641.550781,335.609375 C640.964844,335.609375 640.433594,335.414062 639.957031,335.023438 L639.957031,335.023438 L639.335938,335.914062 C639.988281,336.410156 640.714844,336.658203 641.515625,336.658203 Z M646.074219,332.287109 C646.285156,332.287109 646.459961,332.21582 646.598633,332.073242 C646.737305,331.930664 646.806641,331.753906 646.806641,331.542969 C646.806641,331.332031 646.737305,331.155273 646.598633,331.012695 C646.459961,330.870117 646.285156,330.798828 646.074219,330.798828 C645.863281,330.798828 645.686523,330.870117 645.543945,331.012695 C645.401367,331.155273 645.330078,331.332031 645.330078,331.542969 C645.330078,331.753906 645.400391,331.931641 645.541016,332.076172 C645.685547,332.216797 645.863281,332.287109 646.074219,332.287109 Z M646.074219,336.570312 C646.285156,336.570312 646.459961,336.499023 646.598633,336.356445 C646.737305,336.213867 646.806641,336.037109 646.806641,335.826172 C646.806641,335.615234 646.737305,335.44043 646.598633,335.301758 C646.459961,335.163086 646.285156,335.09375 646.074219,335.09375 C645.863281,335.09375 645.686523,335.163086 645.543945,335.301758 C645.401367,335.44043 645.330078,335.615234 645.330078,335.826172 C645.330078,336.037109 645.400391,336.214844 645.541016,336.359375 C645.685547,336.5 645.863281,336.570312 646.074219,336.570312 Z" id="Reviews:" fill="#FFFFFF" fill-rule="nonzero"></path>
        <path d="M607.802425,221.511181 C608.881686,221.509865 610.234654,221.506138 611.861328,221.5 L611.861328,221.5 L611.861328,220.345703 L609.910156,220.345703 C610.496094,219.958984 610.93457,219.482422 611.225586,218.916016 C611.516602,218.349609 611.662109,217.722656 611.662109,217.035156 C611.662109,216.394531 611.541016,215.791016 611.298828,215.224609 C611.056641,214.658203 610.729492,214.173828 610.317383,213.771484 C609.905273,213.369141 609.413086,213.050781 608.84082,212.816406 C608.268555,212.582031 607.664062,212.464844 607.027344,212.464844 C606.375,212.464844 605.760742,212.584961 605.18457,212.825195 C604.608398,213.06543 604.116211,213.389648 603.708008,213.797852 C603.299805,214.206055 602.977539,214.691406 602.741211,215.253906 C602.504883,215.816406 602.386719,216.410156 602.386719,217.035156 C602.386719,217.667969 602.508789,218.263672 602.75293,218.822266 C602.99707,219.380859 603.325195,219.855469 603.737305,220.246094 C604.149414,220.636719 604.637695,220.945312 605.202148,221.171875 C605.766602,221.398438 606.359375,221.511719 606.980469,221.511719 L606.980469,221.511719 L607.802425,221.511181 Z M607.027344,220.386719 C606.394531,220.386719 605.818359,220.245117 605.298828,219.961914 C604.779297,219.678711 604.367188,219.28125 604.0625,218.769531 C603.757812,218.257812 603.605469,217.683594 603.605469,217.046875 C603.605469,216.578125 603.692383,216.131836 603.866211,215.708008 C604.040039,215.28418 604.276367,214.916992 604.575195,214.606445 C604.874023,214.295898 605.237305,214.048828 605.665039,213.865234 C606.092773,213.681641 606.546875,213.589844 607.027344,213.589844 C607.660156,213.589844 608.238281,213.741211 608.761719,214.043945 C609.285156,214.34668 609.695312,214.760742 609.992188,215.286133 C610.289062,215.811523 610.4375,216.394531 610.4375,217.035156 C610.4375,217.671875 610.287109,218.24707 609.986328,218.760742 C609.685547,219.274414 609.275391,219.673828 608.755859,219.958984 C608.236328,220.244141 607.660156,220.386719 607.027344,220.386719 Z M615.412109,221.658203 C617.138672,221.658203 618.001953,220.833984 618.001953,219.185547 L618.001953,219.185547 L618.001953,215.798828 L616.853516,215.798828 L616.853516,218.857422 C616.853516,219.142578 616.833984,219.383789 616.794922,219.581055 C616.755859,219.77832 616.68457,219.955078 616.581055,220.111328 C616.477539,220.267578 616.329102,220.383789 616.135742,220.459961 C615.942383,220.536133 615.701172,220.574219 615.412109,220.574219 C615.123047,220.574219 614.882812,220.536133 614.691406,220.459961 C614.5,220.383789 614.353516,220.267578 614.251953,220.111328 C614.150391,219.955078 614.080078,219.77832 614.041016,219.581055 C614.001953,219.383789 613.982422,219.142578 613.982422,218.857422 L613.982422,218.857422 L613.982422,215.798828 L612.816406,215.798828 L612.816406,219.185547 C612.816406,220.833984 613.681641,221.658203 615.412109,221.658203 Z M622.332031,221.658203 C622.824219,221.658203 623.283203,221.551758 623.708984,221.338867 C624.134766,221.125977 624.480469,220.832031 624.746094,220.457031 L624.746094,220.457031 L623.925781,219.830078 C623.75,220.076172 623.519531,220.267578 623.234375,220.404297 C622.949219,220.541016 622.648438,220.609375 622.332031,220.609375 C621.855469,220.609375 621.448242,220.463867 621.110352,220.172852 C620.772461,219.881836 620.5625,219.511719 620.480469,219.0625 L620.480469,219.0625 L625.150391,219.0625 C625.166016,218.90625 625.173828,218.775391 625.173828,218.669922 C625.173828,218.275391 625.100586,217.896484 624.954102,217.533203 C624.807617,217.169922 624.607422,216.853516 624.353516,216.583984 C624.099609,216.314453 623.791016,216.098633 623.427734,215.936523 C623.064453,215.774414 622.675781,215.693359 622.261719,215.693359 C621.707031,215.693359 621.205078,215.831055 620.755859,216.106445 C620.306641,216.381836 619.958984,216.74707 619.712891,217.202148 C619.466797,217.657227 619.34375,218.150391 619.34375,218.681641 C619.34375,219.517578 619.633789,220.222656 620.213867,220.796875 C620.793945,221.371094 621.5,221.658203 622.332031,221.658203 Z M624.001953,218.154297 L620.521484,218.154297 C620.626953,217.740234 620.836914,217.402344 621.151367,217.140625 C621.46582,216.878906 621.839844,216.748047 622.273438,216.748047 C622.71875,216.748047 623.100586,216.881836 623.418945,217.149414 C623.737305,217.416992 623.931641,217.751953 624.001953,218.154297 L624.001953,218.154297 Z M628.197266,221.658203 C628.841797,221.658203 629.355469,221.5 629.738281,221.183594 C630.121094,220.867188 630.3125,220.4375 630.3125,219.894531 C630.3125,219.617188 630.257812,219.375 630.148438,219.167969 C630.039062,218.960938 629.898438,218.797852 629.726562,218.678711 C629.554688,218.55957 629.363281,218.457031 629.152344,218.371094 C628.941406,218.285156 628.730469,218.211914 628.519531,218.151367 C628.308594,218.09082 628.117188,218.02832 627.945312,217.963867 C627.773438,217.899414 627.632812,217.816406 627.523438,217.714844 C627.414062,217.613281 627.359375,217.490234 627.359375,217.345703 C627.359375,217.177734 627.429688,217.036133 627.570312,216.920898 C627.710938,216.805664 627.916016,216.748047 628.185547,216.748047 C628.654297,216.748047 629.091797,216.896484 629.498047,217.193359 L629.498047,217.193359 L630.107422,216.337891 C629.576172,215.908203 628.931641,215.693359 628.173828,215.693359 C627.583984,215.693359 627.110352,215.859375 626.75293,216.191406 C626.395508,216.523438 626.216797,216.953125 626.216797,217.480469 C626.216797,217.757812 626.271484,217.998047 626.380859,218.201172 C626.490234,218.404297 626.631836,218.561523 626.805664,218.672852 C626.979492,218.78418 627.171875,218.879883 627.382812,218.959961 C627.59375,219.040039 627.804688,219.107422 628.015625,219.162109 C628.226562,219.216797 628.418945,219.274414 628.592773,219.334961 C628.766602,219.395508 628.908203,219.477539 629.017578,219.581055 C629.126953,219.68457 629.181641,219.8125 629.181641,219.964844 C629.181641,220.160156 629.098633,220.316406 628.932617,220.433594 C628.766602,220.550781 628.533203,220.609375 628.232422,220.609375 C627.646484,220.609375 627.115234,220.414062 626.638672,220.023438 L626.638672,220.023438 L626.017578,220.914062 C626.669922,221.410156 627.396484,221.658203 628.197266,221.658203 Z M633.511719,221.658203 C633.890625,221.658203 634.191406,221.613281 634.414062,221.523438 L634.414062,221.523438 L634.414062,220.492188 C634.277344,220.546875 634.064453,220.574219 633.775391,220.574219 C633.482422,220.574219 633.283203,220.5 633.177734,220.351562 C633.072266,220.203125 633.019531,219.957031 633.019531,219.613281 L633.019531,219.613281 L633.019531,216.894531 L634.566406,216.894531 L634.566406,215.798828 L633.019531,215.798828 L633.019531,213.865234 L631.853516,213.865234 L631.853516,215.798828 L630.957031,215.798828 L630.957031,216.894531 L631.853516,216.894531 L631.853516,219.748047 C631.853516,219.962891 631.865234,220.15625 631.888672,220.328125 C631.912109,220.5 631.959961,220.671875 632.032227,220.84375 C632.104492,221.015625 632.200195,221.158203 632.319336,221.271484 C632.438477,221.384766 632.598633,221.477539 632.799805,221.549805 C633.000977,221.62207 633.238281,221.658203 633.511719,221.658203 Z M636.494141,214.673828 C636.705078,214.673828 636.879883,214.602539 637.018555,214.459961 C637.157227,214.317383 637.226562,214.140625 637.226562,213.929688 C637.226562,213.71875 637.157227,213.541992 637.018555,213.399414 C636.879883,213.256836 636.705078,213.185547 636.494141,213.185547 C636.283203,213.185547 636.106445,213.256836 635.963867,213.399414 C635.821289,213.541992 635.75,213.71875 635.75,213.929688 C635.75,214.140625 635.820312,214.318359 635.960938,214.462891 C636.105469,214.603516 636.283203,214.673828 636.494141,214.673828 Z M637.068359,221.5 L637.068359,215.798828 L635.908203,215.798828 L635.908203,221.5 L637.068359,221.5 Z M641.498047,221.658203 C642.041016,221.658203 642.543945,221.524414 643.006836,221.256836 C643.469727,220.989258 643.835938,220.626953 644.105469,220.169922 C644.375,219.712891 644.509766,219.216797 644.509766,218.681641 C644.509766,218.142578 644.375,217.643555 644.105469,217.18457 C643.835938,216.725586 643.469727,216.362305 643.006836,216.094727 C642.543945,215.827148 642.041016,215.693359 641.498047,215.693359 C640.951172,215.693359 640.448242,215.828125 639.989258,216.097656 C639.530273,216.367188 639.168945,216.730469 638.905273,217.1875 C638.641602,217.644531 638.509766,218.142578 638.509766,218.681641 C638.509766,219.220703 638.642578,219.71875 638.908203,220.175781 C639.177734,220.632812 639.541992,220.994141 640.000977,221.259766 C640.459961,221.525391 640.958984,221.658203 641.498047,221.658203 Z M641.509766,220.574219 C640.990234,220.574219 640.549805,220.388672 640.188477,220.017578 C639.827148,219.646484 639.646484,219.205078 639.646484,218.693359 C639.646484,218.177734 639.826172,217.730469 640.185547,217.351562 C640.544922,216.972656 640.986328,216.783203 641.509766,216.783203 C642.025391,216.783203 642.463867,216.96875 642.825195,217.339844 C643.186523,217.710938 643.367188,218.154297 643.367188,218.669922 C643.367188,219.185547 643.1875,219.631836 642.828125,220.008789 C642.46875,220.385742 642.029297,220.574219 641.509766,220.574219 Z M647.09375,221.5 L647.09375,218.59375 C647.09375,217.386719 647.578125,216.783203 648.546875,216.783203 C649.476562,216.783203 649.941406,217.359375 649.941406,218.511719 L649.941406,218.511719 L649.941406,221.5 L651.101562,221.5 L651.101562,218.271484 C651.101562,217.412109 650.887695,216.767578 650.459961,216.337891 C650.032227,215.908203 649.462891,215.693359 648.751953,215.693359 C648.373047,215.693359 648.054688,215.754883 647.796875,215.87793 C647.539062,216.000977 647.304688,216.179688 647.09375,216.414062 L647.09375,216.414062 L647.09375,215.798828 L645.945312,215.798828 L645.945312,221.5 L647.09375,221.5 Z M653.884766,217.287109 C654.095703,217.287109 654.270508,217.21582 654.40918,217.073242 C654.547852,216.930664 654.617188,216.753906 654.617188,216.542969 C654.617188,216.332031 654.547852,216.155273 654.40918,216.012695 C654.270508,215.870117 654.095703,215.798828 653.884766,215.798828 C653.673828,215.798828 653.49707,215.870117 653.354492,216.012695 C653.211914,216.155273 653.140625,216.332031 653.140625,216.542969 C653.140625,216.753906 653.210938,216.931641 653.351562,217.076172 C653.496094,217.216797 653.673828,217.287109 653.884766,217.287109 Z M653.884766,221.570312 C654.095703,221.570312 654.270508,221.499023 654.40918,221.356445 C654.547852,221.213867 654.617188,221.037109 654.617188,220.826172 C654.617188,220.615234 654.547852,220.44043 654.40918,220.301758 C654.270508,220.163086 654.095703,220.09375 653.884766,220.09375 C653.673828,220.09375 653.49707,220.163086 653.354492,220.301758 C653.211914,220.44043 653.140625,220.615234 653.140625,220.826172 C653.140625,221.037109 653.210938,221.214844 653.351562,221.359375 C653.496094,221.5 653.673828,221.570312 653.884766,221.570312 Z" id="Question:" fill="#FFFFFF" fill-rule="nonzero"></path>
        <text id="Evidence:" font-family="F37Ginger, F37 Ginger" font-size="12" font-weight="normal" line-spacing="22.5" fill="#FFFFFF">
            <tspan x="600" y="271">Evidence:</tspan>
        </text>
        <rect id="Rectangle-Copy-63" stroke="#919191" fill="#C8DCE3" opacity="0.1820359" x="599.5" y="175.5" width="269" height="21" rx="10.5"></rect>
        <rect id="Rectangle-Copy-65" stroke="#919191" fill="#C8DCE3" opacity="0.1820359" x="599.5" y="290.5" width="269" height="21" rx="10.5"></rect>
        <rect id="Rectangle-Copy-64" stroke="#919191" fill="#C8DCE3" opacity="0.1820359" x="599.5" y="233.5" width="269" height="21" rx="10.5"></rect>
        <rect id="Rectangle-Copy-88" stroke="#919191" fill="#C8DCE3" opacity="0.1820359" x="599.5" y="407.5" width="269" height="21" rx="10.5"></rect>
        <rect id="Rectangle-Copy-80" stroke-opacity="0.360494974" stroke="#FFFFFF" stroke-width="0.5" fill="#FFFFFF" opacity="0.3" x="599.25" y="445.25" width="269.5" height="39.5" rx="19.75"></rect>
        <rect id="Rectangle-Copy-66" stroke="#919191" fill="#C8DCE3" opacity="0.1820359" x="599.5" y="348.5" width="23" height="23" rx="11"></rect>
        <rect id="Rectangle-Copy-79" stroke="#919191" fill="#C8DCE3" opacity="0.1820359" x="627.5" y="348" width="23" height="23" rx="11"></rect>
        <rect id="Rectangle-Copy-81" stroke="#919191" fill="#C8DCE3" opacity="0.1820359" x="655.5" y="348" width="23" height="23" rx="11"></rect>
        <rect id="Rectangle-Copy-83" stroke="#919191" fill="#C8DCE3" opacity="0.1820359" x="683.5" y="348" width="23" height="23" rx="11"></rect>
        <rect id="Rectangle-Copy-84" stroke="#919191" fill="#C8DCE3" opacity="0.1820359" x="711.5" y="348" width="23" height="23" rx="11"></rect>
        <rect id="Rectangle-Copy-85" stroke="#919191" fill="#C8DCE3" opacity="0.1820359" x="739.5" y="348" width="23" height="23" rx="11"></rect>
        <rect id="Rectangle-Copy-86" stroke="#919191" fill="#C8DCE3" opacity="0.1820359" x="767.5" y="348" width="23" height="23" rx="11"></rect>
        <rect id="Rectangle-Copy-87" stroke="#919191" fill="#C8DCE3" opacity="0.1820359" x="795.5" y="348" width="23" height="23" rx="11"></rect>
        <rect id="Rectangle-Copy-89" stroke="#919191" fill="#C8DCE3" opacity="0.1820359" x="823.5" y="348.5" width="23" height="23" rx="11"></rect>
    </g>
</svg>