<?xml version="1.0" encoding="UTF-8"?>
<svg width="916px" height="530px" viewBox="0 0 916 530" version="1.1" xmlns="http://www.w3.org/2000/svg" xmlns:xlink="http://www.w3.org/1999/xlink">
    <title>003</title>
    <defs>
        <rect id="path-1" x="569" y="52" width="329" height="448" rx="32"></rect>
        <filter x="-2.1%" y="-1.1%" width="104.3%" height="103.1%" filterUnits="objectBoundingBox" id="filter-2">
            <feOffset dx="0" dy="2" in="SourceAlpha" result="shadowOffsetOuter1"></feOffset>
            <feGaussianBlur stdDeviation="2" in="shadowOffsetOuter1" result="shadowBlurOuter1"></feGaussianBlur>
            <feComposite in="shadowBlurOuter1" in2="SourceAlpha" operator="out" result="shadowBlurOuter1"></feComposite>
            <feColorMatrix values="0 0 0 0 0   0 0 0 0 0   0 0 0 0 0  0 0 0 0.212139423 0" type="matrix" in="shadowBlurOuter1"></feColorMatrix>
        </filter>
    </defs>
    <g id="003" stroke="none" stroke-width="1" fill="none" fill-rule="evenodd">
        <g id="Rectangle-Copy-60" opacity="0.2">
            <use fill="black" fill-opacity="1" filter="url(#filter-2)" xlink:href="#path-1"></use>
            <rect stroke-opacity="0.370602054" stroke="#E1E1E1" stroke-width="1" stroke-linejoin="square" fill="#FFFFFF" fill-rule="evenodd" x="569.5" y="52.5" width="328" height="447" rx="32"></rect>
        </g>
        <path d="M605.205078,31.5 L605.205078,30.3457031 L601.244141,30.3457031 L601.244141,27.4453125 L604.53125,27.4453125 L604.53125,26.2910156 L601.244141,26.2910156 L601.244141,23.7832031 L605.205078,23.7832031 L605.205078,22.6171875 L600.019531,22.6171875 L600.019531,31.5 L605.205078,31.5 Z M607.244141,31.5 L608.632812,29.4375 L610.027344,31.5 L611.310547,31.5 L609.283203,28.5 L611.128906,25.7988281 L609.833984,25.7988281 L608.632812,27.5625 L607.431641,25.7988281 L606.136719,25.7988281 L607.988281,28.5 L605.955078,31.5 L607.244141,31.5 Z M614.304688,31.6582031 C614.683594,31.6582031 614.984375,31.6132812 615.207031,31.5234375 L615.207031,31.5234375 L615.207031,30.4921875 C615.070312,30.546875 614.857422,30.5742188 614.568359,30.5742188 C614.275391,30.5742188 614.076172,30.5 613.970703,30.3515625 C613.865234,30.203125 613.8125,29.9570312 613.8125,29.6132812 L613.8125,29.6132812 L613.8125,26.8945312 L615.359375,26.8945312 L615.359375,25.7988281 L613.8125,25.7988281 L613.8125,23.8652344 L612.646484,23.8652344 L612.646484,25.7988281 L611.75,25.7988281 L611.75,26.8945312 L612.646484,26.8945312 L612.646484,29.7480469 C612.646484,29.9628906 612.658203,30.15625 612.681641,30.328125 C612.705078,30.5 612.75293,30.671875 612.825195,30.84375 C612.897461,31.015625 612.993164,31.1582031 613.112305,31.2714844 C613.231445,31.3847656 613.391602,31.4775391 613.592773,31.5498047 C613.793945,31.6220703 614.03125,31.6582031 614.304688,31.6582031 Z M619.027344,31.6582031 C619.519531,31.6582031 619.978516,31.5517578 620.404297,31.3388672 C620.830078,31.1259766 621.175781,30.8320312 621.441406,30.4570312 L621.441406,30.4570312 L620.621094,29.8300781 C620.445312,30.0761719 620.214844,30.2675781 619.929688,30.4042969 C619.644531,30.5410156 619.34375,30.609375 619.027344,30.609375 C618.550781,30.609375 618.143555,30.4638672 617.805664,30.1728516 C617.467773,29.8818359 617.257812,29.5117188 617.175781,29.0625 L617.175781,29.0625 L621.845703,29.0625 C621.861328,28.90625 621.869141,28.7753906 621.869141,28.6699219 C621.869141,28.2753906 621.795898,27.8964844 621.649414,27.5332031 C621.50293,27.1699219 621.302734,26.8535156 621.048828,26.5839844 C620.794922,26.3144531 620.486328,26.0986328 620.123047,25.9365234 C619.759766,25.7744141 619.371094,25.6933594 618.957031,25.6933594 C618.402344,25.6933594 617.900391,25.8310547 617.451172,26.1064453 C617.001953,26.3818359 616.654297,26.7470703 616.408203,27.2021484 C616.162109,27.6572266 616.039062,28.1503906 616.039062,28.6816406 C616.039062,29.5175781 616.329102,30.2226562 616.90918,30.796875 C617.489258,31.3710938 618.195312,31.6582031 619.027344,31.6582031 Z M620.697266,28.1542969 L617.216797,28.1542969 C617.322266,27.7402344 617.532227,27.4023438 617.84668,27.140625 C618.161133,26.8789062 618.535156,26.7480469 618.96875,26.7480469 C619.414062,26.7480469 619.795898,26.8818359 620.114258,27.1494141 C620.432617,27.4169922 620.626953,27.7519531 620.697266,28.1542969 L620.697266,28.1542969 Z M624.423828,31.5 L624.423828,28.59375 C624.423828,27.3867188 624.908203,26.7832031 625.876953,26.7832031 C626.806641,26.7832031 627.271484,27.359375 627.271484,28.5117188 L627.271484,28.5117188 L627.271484,31.5 L628.431641,31.5 L628.431641,28.2714844 C628.431641,27.4121094 628.217773,26.7675781 627.790039,26.3378906 C627.362305,25.9082031 626.792969,25.6933594 626.082031,25.6933594 C625.703125,25.6933594 625.384766,25.7548828 625.126953,25.8779297 C624.869141,26.0009766 624.634766,26.1796875 624.423828,26.4140625 L624.423828,26.4140625 L624.423828,25.7988281 L623.275391,25.7988281 L623.275391,31.5 L624.423828,31.5 Z M631.847656,31.6582031 C632.492188,31.6582031 633.005859,31.5 633.388672,31.1835938 C633.771484,30.8671875 633.962891,30.4375 633.962891,29.8945312 C633.962891,29.6171875 633.908203,29.375 633.798828,29.1679688 C633.689453,28.9609375 633.548828,28.7978516 633.376953,28.6787109 C633.205078,28.5595703 633.013672,28.4570312 632.802734,28.3710938 C632.591797,28.2851562 632.380859,28.2119141 632.169922,28.1513672 C631.958984,28.0908203 631.767578,28.0283203 631.595703,27.9638672 C631.423828,27.8994141 631.283203,27.8164062 631.173828,27.7148438 C631.064453,27.6132812 631.009766,27.4902344 631.009766,27.3457031 C631.009766,27.1777344 631.080078,27.0361328 631.220703,26.9208984 C631.361328,26.8056641 631.566406,26.7480469 631.835938,26.7480469 C632.304688,26.7480469 632.742188,26.8964844 633.148438,27.1933594 L633.148438,27.1933594 L633.757812,26.3378906 C633.226562,25.9082031 632.582031,25.6933594 631.824219,25.6933594 C631.234375,25.6933594 630.760742,25.859375 630.40332,26.1914062 C630.045898,26.5234375 629.867188,26.953125 629.867188,27.4804688 C629.867188,27.7578125 629.921875,27.9980469 630.03125,28.2011719 C630.140625,28.4042969 630.282227,28.5615234 630.456055,28.6728516 C630.629883,28.7841797 630.822266,28.8798828 631.033203,28.9599609 C631.244141,29.0400391 631.455078,29.1074219 631.666016,29.1621094 C631.876953,29.2167969 632.069336,29.2744141 632.243164,29.3349609 C632.416992,29.3955078 632.558594,29.4775391 632.667969,29.5810547 C632.777344,29.6845703 632.832031,29.8125 632.832031,29.9648438 C632.832031,30.1601562 632.749023,30.3164062 632.583008,30.4335938 C632.416992,30.5507812 632.183594,30.609375 631.882812,30.609375 C631.296875,30.609375 630.765625,30.4140625 630.289062,30.0234375 L630.289062,30.0234375 L629.667969,30.9140625 C630.320312,31.4101562 631.046875,31.6582031 631.847656,31.6582031 Z M636.007812,24.6738281 C636.21875,24.6738281 636.393555,24.6025391 636.532227,24.4599609 C636.670898,24.3173828 636.740234,24.140625 636.740234,23.9296875 C636.740234,23.71875 636.670898,23.5419922 636.532227,23.3994141 C636.393555,23.2568359 636.21875,23.1855469 636.007812,23.1855469 C635.796875,23.1855469 635.620117,23.2568359 635.477539,23.3994141 C635.334961,23.5419922 635.263672,23.71875 635.263672,23.9296875 C635.263672,24.140625 635.333984,24.3183594 635.474609,24.4628906 C635.619141,24.6035156 635.796875,24.6738281 636.007812,24.6738281 Z M636.582031,31.5 L636.582031,25.7988281 L635.421875,25.7988281 L635.421875,31.5 L636.582031,31.5 Z M641.011719,31.6582031 C641.554688,31.6582031 642.057617,31.5244141 642.520508,31.2568359 C642.983398,30.9892578 643.349609,30.6269531 643.619141,30.1699219 C643.888672,29.7128906 644.023438,29.2167969 644.023438,28.6816406 C644.023438,28.1425781 643.888672,27.6435547 643.619141,27.1845703 C643.349609,26.7255859 642.983398,26.3623047 642.520508,26.0947266 C642.057617,25.8271484 641.554688,25.6933594 641.011719,25.6933594 C640.464844,25.6933594 639.961914,25.828125 639.50293,26.0976562 C639.043945,26.3671875 638.682617,26.7304688 638.418945,27.1875 C638.155273,27.6445312 638.023438,28.1425781 638.023438,28.6816406 C638.023438,29.2207031 638.15625,29.71875 638.421875,30.1757812 C638.691406,30.6328125 639.055664,30.9941406 639.514648,31.2597656 C639.973633,31.5253906 640.472656,31.6582031 641.011719,31.6582031 Z M641.023438,30.5742188 C640.503906,30.5742188 640.063477,30.3886719 639.702148,30.0175781 C639.34082,29.6464844 639.160156,29.2050781 639.160156,28.6933594 C639.160156,28.1777344 639.339844,27.7304688 639.699219,27.3515625 C640.058594,26.9726562 640.5,26.7832031 641.023438,26.7832031 C641.539062,26.7832031 641.977539,26.96875 642.338867,27.3398438 C642.700195,27.7109375 642.880859,28.1542969 642.880859,28.6699219 C642.880859,29.1855469 642.701172,29.6318359 642.341797,30.0087891 C641.982422,30.3857422 641.542969,30.5742188 641.023438,30.5742188 Z M646.607422,31.5 L646.607422,28.59375 C646.607422,27.3867188 647.091797,26.7832031 648.060547,26.7832031 C648.990234,26.7832031 649.455078,27.359375 649.455078,28.5117188 L649.455078,28.5117188 L649.455078,31.5 L650.615234,31.5 L650.615234,28.2714844 C650.615234,27.4121094 650.401367,26.7675781 649.973633,26.3378906 C649.545898,25.9082031 648.976562,25.6933594 648.265625,25.6933594 C647.886719,25.6933594 647.568359,25.7548828 647.310547,25.8779297 C647.052734,26.0009766 646.818359,26.1796875 646.607422,26.4140625 L646.607422,26.4140625 L646.607422,25.7988281 L645.458984,25.7988281 L645.458984,31.5 L646.607422,31.5 Z M653.398438,27.2871094 C653.609375,27.2871094 653.78418,27.2158203 653.922852,27.0732422 C654.061523,26.9306641 654.130859,26.7539062 654.130859,26.5429688 C654.130859,26.3320312 654.061523,26.1552734 653.922852,26.0126953 C653.78418,25.8701172 653.609375,25.7988281 653.398438,25.7988281 C653.1875,25.7988281 653.010742,25.8701172 652.868164,26.0126953 C652.725586,26.1552734 652.654297,26.3320312 652.654297,26.5429688 C652.654297,26.7539062 652.724609,26.9316406 652.865234,27.0761719 C653.009766,27.2167969 653.1875,27.2871094 653.398438,27.2871094 Z M653.398438,31.5703125 C653.609375,31.5703125 653.78418,31.4990234 653.922852,31.3564453 C654.061523,31.2138672 654.130859,31.0371094 654.130859,30.8261719 C654.130859,30.6152344 654.061523,30.4404297 653.922852,30.3017578 C653.78418,30.1630859 653.609375,30.09375 653.398438,30.09375 C653.1875,30.09375 653.010742,30.1630859 652.868164,30.3017578 C652.725586,30.4404297 652.654297,30.6152344 652.654297,30.8261719 C652.654297,31.0371094 652.724609,31.2148438 652.865234,31.359375 C653.009766,31.5 653.1875,31.5703125 653.398438,31.5703125 Z" id="Extension:" fill="#FFFFFF" fill-rule="nonzero"></path>
    </g>
</svg>