<?xml version="1.0" encoding="UTF-8"?>
<svg width="916px" height="530px" viewBox="0 0 916 530" version="1.1" xmlns="http://www.w3.org/2000/svg" xmlns:xlink="http://www.w3.org/1999/xlink">
    <title>005</title>
    <g id="005" stroke="none" stroke-width="1" fill="none" fill-rule="evenodd">
        <rect id="Rectangle-Copy-69" stroke="#D2D2D2" fill="#E8E8E8" opacity="0.1" x="33.5" y="103.5" width="494" height="21" rx="8"></rect>
        <rect id="Rectangle-Copy-73" stroke="#D2D2D2" fill="#E8E8E8" opacity="0.1" x="33.5" y="199.5" width="461" height="21" rx="8"></rect>
        <rect id="Rectangle-Copy-74" stroke="#D2D2D2" fill="#E8E8E8" opacity="0.1" x="33.5" y="223.5" width="484" height="21" rx="8"></rect>
        <rect id="Rectangle-Copy-92" stroke="#979797" fill="#E8E8E8" opacity="0.1" x="33.5" y="314.5" width="461" height="21" rx="8"></rect>
        <rect id="Rectangle-Copy-95" stroke="#979797" fill="#E8E8E8" opacity="0.1" x="33.5" y="405.5" width="461" height="21" rx="8"></rect>
        <rect id="Rectangle-Copy-91" stroke="#D2D2D2" fill="#E8E8E8" opacity="0.1" x="33.5" y="151.5" width="494" height="21" rx="8"></rect>
        <rect id="Rectangle-Copy-75" stroke="#D2D2D2" fill="#E8E8E8" opacity="0.1" x="33.5" y="247.5" width="476" height="21" rx="8"></rect>
        <rect id="Rectangle-Copy-93" stroke="#979797" fill="#E8E8E8" opacity="0.1" x="33.5" y="338.5" width="453" height="21" rx="8"></rect>
        <rect id="Rectangle-Copy-96" stroke="#979797" fill="#E8E8E8" opacity="0.1" x="33.5" y="429.5" width="453" height="21" rx="8"></rect>
        <rect id="Rectangle-Copy-72" stroke="#D2D2D2" fill="#E8E8E8" opacity="0.1" x="33.5" y="175.5" width="494" height="21" rx="8"></rect>
        <rect id="Rectangle-Copy-90" stroke="#D2D2D2" fill="#E8E8E8" opacity="0.1" x="33.5" y="127.5" width="494" height="21" rx="8"></rect>
        <rect id="Rectangle-Copy-76" stroke="#D2D2D2" fill="#E8E8E8" opacity="0.1" x="33.5" y="271.5" width="397" height="21" rx="8"></rect>
        <rect id="Rectangle-Copy-94" stroke="#979797" fill="#E8E8E8" opacity="0.1" x="33.5" y="362.5" width="378" height="21" rx="8"></rect>
        <rect id="Rectangle-Copy-97" stroke="#979797" fill="#E8E8E8" opacity="0.1" x="33.5" y="453.5" width="378" height="21" rx="8"></rect>
        <path d="M50.3066406,87.5 L50.3066406,79.7832031 L53.1308594,79.7832031 L53.1308594,78.6171875 L46.2402344,78.6171875 L46.2402344,79.7832031 L49.0703125,79.7832031 L49.0703125,87.5 L50.3066406,87.5 Z M55.9960938,87.6582031 C56.4882812,87.6582031 56.9472656,87.5517578 57.3730469,87.3388672 C57.7988281,87.1259766 58.1445312,86.8320312 58.4101562,86.4570312 L58.4101562,86.4570312 L57.5898438,85.8300781 C57.4140625,86.0761719 57.1835938,86.2675781 56.8984375,86.4042969 C56.6132812,86.5410156 56.3125,86.609375 55.9960938,86.609375 C55.5195312,86.609375 55.1123047,86.4638672 54.7744141,86.1728516 C54.4365234,85.8818359 54.2265625,85.5117188 54.1445312,85.0625 L54.1445312,85.0625 L58.8144531,85.0625 C58.8300781,84.90625 58.8378906,84.7753906 58.8378906,84.6699219 C58.8378906,84.2753906 58.7646484,83.8964844 58.6181641,83.5332031 C58.4716797,83.1699219 58.2714844,82.8535156 58.0175781,82.5839844 C57.7636719,82.3144531 57.4550781,82.0986328 57.0917969,81.9365234 C56.7285156,81.7744141 56.3398438,81.6933594 55.9257812,81.6933594 C55.3710938,81.6933594 54.8691406,81.8310547 54.4199219,82.1064453 C53.9707031,82.3818359 53.6230469,82.7470703 53.3769531,83.2021484 C53.1308594,83.6572266 53.0078125,84.1503906 53.0078125,84.6816406 C53.0078125,85.5175781 53.2978516,86.2226562 53.8779297,86.796875 C54.4580078,87.3710938 55.1640625,87.6582031 55.9960938,87.6582031 Z M57.6660156,84.1542969 L54.1855469,84.1542969 C54.2910156,83.7402344 54.5009766,83.4023438 54.8154297,83.140625 C55.1298828,82.8789062 55.5039062,82.7480469 55.9375,82.7480469 C56.3828125,82.7480469 56.7646484,82.8818359 57.0830078,83.1494141 C57.4013672,83.4169922 57.5957031,83.7519531 57.6660156,84.1542969 L57.6660156,84.1542969 Z M60.5722656,87.5 L61.9609375,85.4375 L63.3554688,87.5 L64.6386719,87.5 L62.6113281,84.5 L64.4570312,81.7988281 L63.1621094,81.7988281 L61.9609375,83.5625 L60.7597656,81.7988281 L59.4648438,81.7988281 L61.3164062,84.5 L59.2832031,87.5 L60.5722656,87.5 Z M67.6328125,87.6582031 C68.0117188,87.6582031 68.3125,87.6132812 68.5351562,87.5234375 L68.5351562,87.5234375 L68.5351562,86.4921875 C68.3984375,86.546875 68.1855469,86.5742188 67.8964844,86.5742188 C67.6035156,86.5742188 67.4042969,86.5 67.2988281,86.3515625 C67.1933594,86.203125 67.140625,85.9570312 67.140625,85.6132812 L67.140625,85.6132812 L67.140625,82.8945312 L68.6875,82.8945312 L68.6875,81.7988281 L67.140625,81.7988281 L67.140625,79.8652344 L65.9746094,79.8652344 L65.9746094,81.7988281 L65.078125,81.7988281 L65.078125,82.8945312 L65.9746094,82.8945312 L65.9746094,85.7480469 C65.9746094,85.9628906 65.9863281,86.15625 66.0097656,86.328125 C66.0332031,86.5 66.0810547,86.671875 66.1533203,86.84375 C66.2255859,87.015625 66.3212891,87.1582031 66.4404297,87.2714844 C66.5595703,87.3847656 66.7197266,87.4775391 66.9208984,87.5498047 C67.1220703,87.6220703 67.359375,87.6582031 67.6328125,87.6582031 Z M71.0136719,83.2871094 C71.2246094,83.2871094 71.3994141,83.2158203 71.5380859,83.0732422 C71.6767578,82.9306641 71.7460938,82.7539062 71.7460938,82.5429688 C71.7460938,82.3320312 71.6767578,82.1552734 71.5380859,82.0126953 C71.3994141,81.8701172 71.2246094,81.7988281 71.0136719,81.7988281 C70.8027344,81.7988281 70.6259766,81.8701172 70.4833984,82.0126953 C70.3408203,82.1552734 70.2695312,82.3320312 70.2695312,82.5429688 C70.2695312,82.7539062 70.3398438,82.9316406 70.4804688,83.0761719 C70.625,83.2167969 70.8027344,83.2871094 71.0136719,83.2871094 Z M71.0136719,87.5703125 C71.2246094,87.5703125 71.3994141,87.4990234 71.5380859,87.3564453 C71.6767578,87.2138672 71.7460938,87.0371094 71.7460938,86.8261719 C71.7460938,86.6152344 71.6767578,86.4404297 71.5380859,86.3017578 C71.3994141,86.1630859 71.2246094,86.09375 71.0136719,86.09375 C70.8027344,86.09375 70.6259766,86.1630859 70.4833984,86.3017578 C70.3408203,86.4404297 70.2695312,86.6152344 70.2695312,86.8261719 C70.2695312,87.0371094 70.3398438,87.2148438 70.4804688,87.359375 C70.625,87.5 70.8027344,87.5703125 71.0136719,87.5703125 Z" id="Text:" fill="#FFFFFF" fill-rule="nonzero"></path>
    </g>
</svg>