<?xml version="1.0" encoding="UTF-8"?>
<svg width="916px" height="530px" viewBox="0 0 916 530" version="1.1" xmlns="http://www.w3.org/2000/svg" xmlns:xlink="http://www.w3.org/1999/xlink">
    <title>006</title>
    <g id="006" stroke="none" stroke-width="1" fill="none" fill-rule="evenodd">
        <rect id="Rectangle" fill="#FFFFFF" opacity="0.2" x="0" y="34" width="916" height="489" rx="40"></rect>
        <path d="M49.5742187,20.5 C49.9375,20.5 50.2763672,20.4697266 50.5908203,20.4091797 C50.9052734,20.3486328 51.1962891,20.2539062 51.4638672,20.125 C51.7314453,19.9960938 51.9619141,19.8359375 52.1552734,19.6445312 C52.3486328,19.453125 52.4990234,19.21875 52.6064453,18.9414062 C52.7138672,18.6640625 52.7675781,18.3554688 52.7675781,18.015625 C52.7675781,17.4648438 52.6308594,16.9931641 52.3574219,16.6005859 C52.0839844,16.2080078 51.6816406,15.9472656 51.1503906,15.8183594 C51.9980469,15.5058594 52.421875,14.8828125 52.421875,13.9492188 C52.421875,13.203125 52.1669922,12.6279297 51.6572266,12.2236328 C51.1474609,11.8193359 50.421875,11.6171875 49.4804687,11.6171875 L49.4804687,11.6171875 L47.0195312,11.6171875 L47.0195312,20.5 L49.5742187,20.5 Z M49.6503906,15.2792969 L48.2441406,15.2792969 L48.2441406,12.7714844 L49.5273437,12.7714844 C50.0703125,12.7714844 50.484375,12.8769531 50.7695312,13.0878906 C51.0546875,13.2988281 51.1972656,13.6171875 51.1972656,14.0429688 C51.1972656,14.8671875 50.6816406,15.2792969 49.6503906,15.2792969 L49.6503906,15.2792969 Z M49.5390625,19.3457031 L48.2441406,19.3457031 L48.2441406,16.4335938 L49.515625,16.4335938 C50.1640625,16.4335938 50.6640625,16.5566406 51.015625,16.8027344 C51.3671875,17.0488281 51.5429687,17.4179688 51.5429687,17.9101562 C51.5429687,18.4140625 51.3632812,18.7792969 51.0039062,19.0058594 C50.6445312,19.2324219 50.15625,19.3457031 49.5390625,19.3457031 L49.5390625,19.3457031 Z M55.2929687,20.5 L55.2929687,17.546875 C55.2929687,17.2773438 55.3212891,17.0458984 55.3779297,16.8525391 C55.4345703,16.6591797 55.5390625,16.4775391 55.6914062,16.3076172 C55.84375,16.1376953 56.0712891,16.0097656 56.3740234,15.9238281 C56.6767578,15.8378906 57.0566406,15.7949219 57.5136719,15.7949219 L57.5136719,15.7949219 L57.5136719,14.6933594 C56.9316406,14.6933594 56.4824219,14.7460938 56.1660156,14.8515625 C55.8496094,14.9570312 55.5585937,15.1679688 55.2929687,15.484375 L55.2929687,15.484375 L55.2929687,14.7988281 L54.1445312,14.7988281 L54.1445312,20.5 L55.2929687,20.5 Z M60.9472656,20.6582031 C61.4902344,20.6582031 61.9931641,20.5244141 62.4560547,20.2568359 C62.9189453,19.9892578 63.2851562,19.6269531 63.5546875,19.1699219 C63.8242187,18.7128906 63.9589844,18.2167969 63.9589844,17.6816406 C63.9589844,17.1425781 63.8242187,16.6435547 63.5546875,16.1845703 C63.2851562,15.7255859 62.9189453,15.3623047 62.4560547,15.0947266 C61.9931641,14.8271484 61.4902344,14.6933594 60.9472656,14.6933594 C60.4003906,14.6933594 59.8974609,14.828125 59.4384766,15.0976562 C58.9794922,15.3671875 58.6181641,15.7304688 58.3544922,16.1875 C58.0908203,16.6445312 57.9589844,17.1425781 57.9589844,17.6816406 C57.9589844,18.2207031 58.0917969,18.71875 58.3574219,19.1757812 C58.6269531,19.6328125 58.9912109,19.9941406 59.4501953,20.2597656 C59.9091797,20.5253906 60.4082031,20.6582031 60.9472656,20.6582031 Z M60.9589844,19.5742188 C60.4394531,19.5742188 59.9990234,19.3886719 59.6376953,19.0175781 C59.2763672,18.6464844 59.0957031,18.2050781 59.0957031,17.6933594 C59.0957031,17.1777344 59.2753906,16.7304688 59.6347656,16.3515625 C59.9941406,15.9726562 60.4355469,15.7832031 60.9589844,15.7832031 C61.4746094,15.7832031 61.9130859,15.96875 62.2744141,16.3398438 C62.6357422,16.7109375 62.8164062,17.1542969 62.8164062,17.6699219 C62.8164062,18.1855469 62.6367187,18.6318359 62.2773437,19.0087891 C61.9179687,19.3857422 61.4785156,19.5742188 60.9589844,19.5742188 Z M67.8554687,20.5 L69.2851562,16.3984375 L70.7207031,20.5 L71.921875,20.5 L74.0722656,14.7988281 L72.7890625,14.7988281 L71.3125,19 L69.8125,14.7988281 L68.7402344,14.7988281 L67.2402344,19 L65.7695312,14.7988281 L64.4921875,14.7988281 L66.6308594,20.5 L67.8554687,20.5 Z M76.8261719,20.6582031 C77.4707031,20.6582031 77.984375,20.5 78.3671875,20.1835938 C78.75,19.8671875 78.9414062,19.4375 78.9414062,18.8945312 C78.9414062,18.6171875 78.8867187,18.375 78.7773437,18.1679688 C78.6679687,17.9609375 78.5273437,17.7978516 78.3554687,17.6787109 C78.1835937,17.5595703 77.9921875,17.4570312 77.78125,17.3710938 C77.5703125,17.2851562 77.359375,17.2119141 77.1484375,17.1513672 C76.9375,17.0908203 76.7460937,17.0283203 76.5742187,16.9638672 C76.4023437,16.8994141 76.2617187,16.8164062 76.1523437,16.7148438 C76.0429687,16.6132812 75.9882812,16.4902344 75.9882812,16.3457031 C75.9882812,16.1777344 76.0585937,16.0361328 76.1992187,15.9208984 C76.3398437,15.8056641 76.5449219,15.7480469 76.8144531,15.7480469 C77.2832031,15.7480469 77.7207031,15.8964844 78.1269531,16.1933594 L78.1269531,16.1933594 L78.7363281,15.3378906 C78.2050781,14.9082031 77.5605469,14.6933594 76.8027344,14.6933594 C76.2128906,14.6933594 75.7392578,14.859375 75.3818359,15.1914062 C75.0244141,15.5234375 74.8457031,15.953125 74.8457031,16.4804688 C74.8457031,16.7578125 74.9003906,16.9980469 75.0097656,17.2011719 C75.1191406,17.4042969 75.2607422,17.5615234 75.4345703,17.6728516 C75.6083984,17.7841797 75.8007812,17.8798828 76.0117187,17.9599609 C76.2226562,18.0400391 76.4335937,18.1074219 76.6445312,18.1621094 C76.8554687,18.2167969 77.0478516,18.2744141 77.2216797,18.3349609 C77.3955078,18.3955078 77.5371094,18.4775391 77.6464844,18.5810547 C77.7558594,18.6845703 77.8105469,18.8125 77.8105469,18.9648438 C77.8105469,19.1601562 77.7275391,19.3164062 77.5615234,19.4335938 C77.3955078,19.5507812 77.1621094,19.609375 76.8613281,19.609375 C76.2753906,19.609375 75.7441406,19.4140625 75.2675781,19.0234375 L75.2675781,19.0234375 L74.6464844,19.9140625 C75.2988281,20.4101562 76.0253906,20.6582031 76.8261719,20.6582031 Z M82.9082031,20.6582031 C83.4003906,20.6582031 83.859375,20.5517578 84.2851562,20.3388672 C84.7109375,20.1259766 85.0566406,19.8320312 85.3222656,19.4570312 L85.3222656,19.4570312 L84.5019531,18.8300781 C84.3261719,19.0761719 84.0957031,19.2675781 83.8105469,19.4042969 C83.5253906,19.5410156 83.2246094,19.609375 82.9082031,19.609375 C82.4316406,19.609375 82.0244141,19.4638672 81.6865234,19.1728516 C81.3486328,18.8818359 81.1386719,18.5117188 81.0566406,18.0625 L81.0566406,18.0625 L85.7265625,18.0625 C85.7421875,17.90625 85.75,17.7753906 85.75,17.6699219 C85.75,17.2753906 85.6767578,16.8964844 85.5302734,16.5332031 C85.3837891,16.1699219 85.1835937,15.8535156 84.9296875,15.5839844 C84.6757812,15.3144531 84.3671875,15.0986328 84.0039062,14.9365234 C83.640625,14.7744141 83.2519531,14.6933594 82.8378906,14.6933594 C82.2832031,14.6933594 81.78125,14.8310547 81.3320312,15.1064453 C80.8828125,15.3818359 80.5351562,15.7470703 80.2890625,16.2021484 C80.0429687,16.6572266 79.9199219,17.1503906 79.9199219,17.6816406 C79.9199219,18.5175781 80.2099609,19.2226562 80.7900391,19.796875 C81.3701172,20.3710938 82.0761719,20.6582031 82.9082031,20.6582031 Z M84.578125,17.1542969 L81.0976562,17.1542969 C81.203125,16.7402344 81.4130859,16.4023438 81.7275391,16.140625 C82.0419922,15.8789062 82.4160156,15.7480469 82.8496094,15.7480469 C83.2949219,15.7480469 83.6767578,15.8818359 83.9951172,16.1494141 C84.3134766,16.4169922 84.5078125,16.7519531 84.578125,17.1542969 L84.578125,17.1542969 Z M88.3046875,20.5 L88.3046875,17.546875 C88.3046875,17.2773438 88.3330078,17.0458984 88.3896484,16.8525391 C88.4462891,16.6591797 88.5507812,16.4775391 88.703125,16.3076172 C88.8554687,16.1376953 89.0830078,16.0097656 89.3857422,15.9238281 C89.6884766,15.8378906 90.0683594,15.7949219 90.5253906,15.7949219 L90.5253906,15.7949219 L90.5253906,14.6933594 C89.9433594,14.6933594 89.4941406,14.7460938 89.1777344,14.8515625 C88.8613281,14.9570312 88.5703125,15.1679688 88.3046875,15.484375 L88.3046875,15.484375 L88.3046875,14.7988281 L87.15625,14.7988281 L87.15625,20.5 L88.3046875,20.5 Z M92.6757812,16.2871094 C92.8867187,16.2871094 93.0615234,16.2158203 93.2001953,16.0732422 C93.3388672,15.9306641 93.4082031,15.7539062 93.4082031,15.5429688 C93.4082031,15.3320312 93.3388672,15.1552734 93.2001953,15.0126953 C93.0615234,14.8701172 92.8867187,14.7988281 92.6757812,14.7988281 C92.4648437,14.7988281 92.2880859,14.8701172 92.1455078,15.0126953 C92.0029297,15.1552734 91.9316406,15.3320312 91.9316406,15.5429688 C91.9316406,15.7539062 92.0019531,15.9316406 92.1425781,16.0761719 C92.2871094,16.2167969 92.4648437,16.2871094 92.6757812,16.2871094 Z M92.6757812,20.5703125 C92.8867187,20.5703125 93.0615234,20.4990234 93.2001953,20.3564453 C93.3388672,20.2138672 93.4082031,20.0371094 93.4082031,19.8261719 C93.4082031,19.6152344 93.3388672,19.4404297 93.2001953,19.3017578 C93.0615234,19.1630859 92.8867187,19.09375 92.6757812,19.09375 C92.4648437,19.09375 92.2880859,19.1630859 92.1455078,19.3017578 C92.0029297,19.4404297 91.9316406,19.6152344 91.9316406,19.8261719 C91.9316406,20.0371094 92.0019531,20.2148438 92.1425781,20.359375 C92.2871094,20.5 92.4648437,20.5703125 92.6757812,20.5703125 Z" id="Browser:" fill="#FFFFFF" fill-rule="nonzero"></path>
    </g>
</svg>