<svg width="917" height="530" viewBox="0 0 917 530" fill="none" xmlns="http://www.w3.org/2000/svg">
<rect opacity="0.2" x="17.5" y="55.5" width="332" height="458" rx="31.5" stroke="white" stroke-opacity="0.5"/>
<rect x="33.875" y="71.375" width="299.25" height="39.25" rx="19.625" stroke="white" stroke-opacity="0.3" stroke-width="0.75"/>
<path d="M314.333 95.8337L311.833 93.3337M304.667 90.3337C304.667 88.0325 306.532 86.167 308.833 86.167C311.135 86.167 313 88.0325 313 90.3337C313 92.6348 311.135 94.5003 308.833 94.5003C306.532 94.5003 304.667 92.6348 304.667 90.3337Z" stroke="white" stroke-opacity="0.5" stroke-width="1.5" stroke-linecap="round" stroke-linejoin="round"/>
<path d="M50.768 145.896H53.588V147H49.4V138.66H50.768V145.896ZM57.6 147.108C56.976 147.108 56.412 146.968 55.908 146.688C55.404 146.4 55.008 146 54.72 145.488C54.432 144.968 54.288 144.368 54.288 143.688C54.288 143.016 54.436 142.42 54.732 141.9C55.028 141.38 55.432 140.98 55.944 140.7C56.456 140.42 57.028 140.28 57.66 140.28C58.292 140.28 58.864 140.42 59.376 140.7C59.888 140.98 60.292 141.38 60.588 141.9C60.884 142.42 61.032 143.016 61.032 143.688C61.032 144.36 60.88 144.956 60.576 145.476C60.272 145.996 59.856 146.4 59.328 146.688C58.808 146.968 58.232 147.108 57.6 147.108ZM57.6 145.92C57.952 145.92 58.28 145.836 58.584 145.668C58.896 145.5 59.148 145.248 59.34 144.912C59.532 144.576 59.628 144.168 59.628 143.688C59.628 143.208 59.536 142.804 59.352 142.476C59.168 142.14 58.924 141.888 58.62 141.72C58.316 141.552 57.988 141.468 57.636 141.468C57.284 141.468 56.956 141.552 56.652 141.72C56.356 141.888 56.12 142.14 55.944 142.476C55.768 142.804 55.68 143.208 55.68 143.688C55.68 144.4 55.86 144.952 56.22 145.344C56.588 145.728 57.048 145.92 57.6 145.92ZM61.9284 143.688C61.9284 143.008 62.0644 142.412 62.3364 141.9C62.6164 141.38 63.0004 140.98 63.4884 140.7C63.9764 140.42 64.5364 140.28 65.1684 140.28C65.9684 140.28 66.6284 140.472 67.1484 140.856C67.6764 141.232 68.0324 141.772 68.2164 142.476H66.7404C66.6204 142.148 66.4284 141.892 66.1644 141.708C65.9004 141.524 65.5684 141.432 65.1684 141.432C64.6084 141.432 64.1604 141.632 63.8244 142.032C63.4964 142.424 63.3324 142.976 63.3324 143.688C63.3324 144.4 63.4964 144.956 63.8244 145.356C64.1604 145.756 64.6084 145.956 65.1684 145.956C65.9604 145.956 66.4844 145.608 66.7404 144.912H68.2164C68.0244 145.584 67.6644 146.12 67.1364 146.52C66.6084 146.912 65.9524 147.108 65.1684 147.108C64.5364 147.108 63.9764 146.968 63.4884 146.688C63.0004 146.4 62.6164 146 62.3364 145.488C62.0644 144.968 61.9284 144.368 61.9284 143.688ZM69.1237 143.664C69.1237 143 69.2597 142.412 69.5317 141.9C69.8117 141.388 70.1877 140.992 70.6597 140.712C71.1397 140.424 71.6677 140.28 72.2437 140.28C72.7637 140.28 73.2157 140.384 73.5997 140.592C73.9917 140.792 74.3037 141.044 74.5357 141.348V140.388H75.9157V147H74.5357V146.016C74.3037 146.328 73.9877 146.588 73.5877 146.796C73.1877 147.004 72.7317 147.108 72.2197 147.108C71.6517 147.108 71.1317 146.964 70.6597 146.676C70.1877 146.38 69.8117 145.972 69.5317 145.452C69.2597 144.924 69.1237 144.328 69.1237 143.664ZM74.5357 143.688C74.5357 143.232 74.4397 142.836 74.2477 142.5C74.0637 142.164 73.8197 141.908 73.5157 141.732C73.2117 141.556 72.8837 141.468 72.5317 141.468C72.1797 141.468 71.8517 141.556 71.5477 141.732C71.2437 141.9 70.9957 142.152 70.8037 142.488C70.6197 142.816 70.5277 143.208 70.5277 143.664C70.5277 144.12 70.6197 144.52 70.8037 144.864C70.9957 145.208 71.2437 145.472 71.5477 145.656C71.8597 145.832 72.1877 145.92 72.5317 145.92C72.8837 145.92 73.2117 145.832 73.5157 145.656C73.8197 145.48 74.0637 145.224 74.2477 144.888C74.4397 144.544 74.5357 144.144 74.5357 143.688ZM79.0805 138.12V147H77.7125V138.12H79.0805ZM86.7178 138.66C87.6058 138.66 88.3818 138.832 89.0458 139.176C89.7178 139.512 90.2338 140 90.5938 140.64C90.9618 141.272 91.1458 142.012 91.1458 142.86C91.1458 143.708 90.9618 144.444 90.5938 145.068C90.2338 145.692 89.7178 146.172 89.0458 146.508C88.3818 146.836 87.6058 147 86.7178 147H83.9938V138.66H86.7178ZM86.7178 145.884C87.6938 145.884 88.4418 145.62 88.9618 145.092C89.4818 144.564 89.7418 143.82 89.7418 142.86C89.7418 141.892 89.4818 141.136 88.9618 140.592C88.4418 140.048 87.6938 139.776 86.7178 139.776H85.3618V145.884H86.7178ZM92.0456 143.664C92.0456 143 92.1816 142.412 92.4536 141.9C92.7336 141.388 93.1096 140.992 93.5816 140.712C94.0616 140.424 94.5896 140.28 95.1656 140.28C95.6856 140.28 96.1376 140.384 96.5216 140.592C96.9136 140.792 97.2256 141.044 97.4576 141.348V140.388H98.8376V147H97.4576V146.016C97.2256 146.328 96.9096 146.588 96.5096 146.796C96.1096 147.004 95.6536 147.108 95.1416 147.108C94.5736 147.108 94.0536 146.964 93.5816 146.676C93.1096 146.38 92.7336 145.972 92.4536 145.452C92.1816 144.924 92.0456 144.328 92.0456 143.664ZM97.4576 143.688C97.4576 143.232 97.3616 142.836 97.1696 142.5C96.9856 142.164 96.7416 141.908 96.4376 141.732C96.1336 141.556 95.8056 141.468 95.4536 141.468C95.1016 141.468 94.7736 141.556 94.4696 141.732C94.1656 141.9 93.9176 142.152 93.7256 142.488C93.5416 142.816 93.4496 143.208 93.4496 143.664C93.4496 144.12 93.5416 144.52 93.7256 144.864C93.9176 145.208 94.1656 145.472 94.4696 145.656C94.7816 145.832 95.1096 145.92 95.4536 145.92C95.8056 145.92 96.1336 145.832 96.4376 145.656C96.7416 145.48 96.9856 145.224 97.1696 144.888C97.3616 144.544 97.4576 144.144 97.4576 143.688ZM102.23 141.504V145.164C102.23 145.412 102.286 145.592 102.398 145.704C102.518 145.808 102.718 145.86 102.998 145.86H103.838V147H102.758C102.142 147 101.67 146.856 101.342 146.568C101.014 146.28 100.85 145.812 100.85 145.164V141.504H100.07V140.388H100.85V138.744H102.23V140.388H103.838V141.504H102.23ZM104.643 143.664C104.643 143 104.779 142.412 105.051 141.9C105.331 141.388 105.707 140.992 106.179 140.712C106.659 140.424 107.187 140.28 107.763 140.28C108.283 140.28 108.735 140.384 109.119 140.592C109.511 140.792 109.823 141.044 110.055 141.348V140.388H111.435V147H110.055V146.016C109.823 146.328 109.507 146.588 109.107 146.796C108.707 147.004 108.251 147.108 107.739 147.108C107.171 147.108 106.651 146.964 106.179 146.676C105.707 146.38 105.331 145.972 105.051 145.452C104.779 144.924 104.643 144.328 104.643 143.664ZM110.055 143.688C110.055 143.232 109.959 142.836 109.767 142.5C109.583 142.164 109.339 141.908 109.035 141.732C108.731 141.556 108.403 141.468 108.051 141.468C107.699 141.468 107.371 141.556 107.067 141.732C106.763 141.9 106.515 142.152 106.323 142.488C106.139 142.816 106.047 143.208 106.047 143.664C106.047 144.12 106.139 144.52 106.323 144.864C106.515 145.208 106.763 145.472 107.067 145.656C107.379 145.832 107.707 145.92 108.051 145.92C108.403 145.92 108.731 145.832 109.035 145.656C109.339 145.48 109.583 145.224 109.767 144.888C109.959 144.544 110.055 144.144 110.055 143.688ZM114.6 141.372C114.832 141.052 115.148 140.792 115.548 140.592C115.956 140.384 116.408 140.28 116.904 140.28C117.488 140.28 118.016 140.42 118.488 140.7C118.96 140.98 119.332 141.38 119.604 141.9C119.876 142.412 120.012 143 120.012 143.664C120.012 144.328 119.876 144.924 119.604 145.452C119.332 145.972 118.956 146.38 118.476 146.676C118.004 146.964 117.48 147.108 116.904 147.108C116.392 147.108 115.936 147.008 115.536 146.808C115.144 146.608 114.832 146.352 114.6 146.04V147H113.232V138.12H114.6V141.372ZM118.62 143.664C118.62 143.208 118.524 142.816 118.332 142.488C118.148 142.152 117.9 141.9 117.588 141.732C117.284 141.556 116.956 141.468 116.604 141.468C116.26 141.468 115.932 141.556 115.62 141.732C115.316 141.908 115.068 142.164 114.876 142.5C114.692 142.836 114.6 143.232 114.6 143.688C114.6 144.144 114.692 144.544 114.876 144.888C115.068 145.224 115.316 145.48 115.62 145.656C115.932 145.832 116.26 145.92 116.604 145.92C116.956 145.92 117.284 145.832 117.588 145.656C117.9 145.472 118.148 145.208 118.332 144.864C118.524 144.52 118.62 144.12 118.62 143.664ZM120.909 143.664C120.909 143 121.045 142.412 121.317 141.9C121.597 141.388 121.973 140.992 122.445 140.712C122.925 140.424 123.453 140.28 124.029 140.28C124.549 140.28 125.001 140.384 125.385 140.592C125.777 140.792 126.089 141.044 126.321 141.348V140.388H127.701V147H126.321V146.016C126.089 146.328 125.773 146.588 125.373 146.796C124.973 147.004 124.517 147.108 124.005 147.108C123.437 147.108 122.917 146.964 122.445 146.676C121.973 146.38 121.597 145.972 121.317 145.452C121.045 144.924 120.909 144.328 120.909 143.664ZM126.321 143.688C126.321 143.232 126.225 142.836 126.033 142.5C125.849 142.164 125.605 141.908 125.301 141.732C124.997 141.556 124.669 141.468 124.317 141.468C123.965 141.468 123.637 141.556 123.333 141.732C123.029 141.9 122.781 142.152 122.589 142.488C122.405 142.816 122.313 143.208 122.313 143.664C122.313 144.12 122.405 144.52 122.589 144.864C122.781 145.208 123.029 145.472 123.333 145.656C123.645 145.832 123.973 145.92 124.317 145.92C124.669 145.92 124.997 145.832 125.301 145.656C125.605 145.48 125.849 145.224 126.033 144.888C126.225 144.544 126.321 144.144 126.321 143.688ZM131.898 147.108C131.378 147.108 130.91 147.016 130.494 146.832C130.086 146.64 129.762 146.384 129.522 146.064C129.282 145.736 129.154 145.372 129.138 144.972H130.554C130.578 145.252 130.71 145.488 130.95 145.68C131.198 145.864 131.506 145.956 131.874 145.956C132.258 145.956 132.554 145.884 132.762 145.74C132.978 145.588 133.086 145.396 133.086 145.164C133.086 144.916 132.966 144.732 132.726 144.612C132.494 144.492 132.122 144.36 131.61 144.216C131.114 144.08 130.71 143.948 130.398 143.82C130.086 143.692 129.814 143.496 129.582 143.232C129.358 142.968 129.246 142.62 129.246 142.188C129.246 141.836 129.35 141.516 129.558 141.228C129.766 140.932 130.062 140.7 130.446 140.532C130.838 140.364 131.286 140.28 131.79 140.28C132.542 140.28 133.146 140.472 133.602 140.856C134.066 141.232 134.314 141.748 134.346 142.404H132.978C132.954 142.108 132.834 141.872 132.618 141.696C132.402 141.52 132.11 141.432 131.742 141.432C131.382 141.432 131.106 141.5 130.914 141.636C130.722 141.772 130.626 141.952 130.626 142.176C130.626 142.352 130.69 142.5 130.818 142.62C130.946 142.74 131.102 142.836 131.286 142.908C131.47 142.972 131.742 143.056 132.102 143.16C132.582 143.288 132.974 143.42 133.278 143.556C133.59 143.684 133.858 143.876 134.082 144.132C134.306 144.388 134.422 144.728 134.43 145.152C134.43 145.528 134.326 145.864 134.118 146.16C133.91 146.456 133.614 146.688 133.23 146.856C132.854 147.024 132.41 147.108 131.898 147.108ZM141.968 143.532C141.968 143.78 141.952 144.004 141.92 144.204H136.868C136.908 144.732 137.104 145.156 137.456 145.476C137.808 145.796 138.24 145.956 138.752 145.956C139.488 145.956 140.008 145.648 140.312 145.032H141.788C141.588 145.64 141.224 146.14 140.696 146.532C140.176 146.916 139.528 147.108 138.752 147.108C138.12 147.108 137.552 146.968 137.048 146.688C136.552 146.4 136.16 146 135.872 145.488C135.592 144.968 135.452 144.368 135.452 143.688C135.452 143.008 135.588 142.412 135.86 141.9C136.14 141.38 136.528 140.98 137.024 140.7C137.528 140.42 138.104 140.28 138.752 140.28C139.376 140.28 139.932 140.416 140.42 140.688C140.908 140.96 141.288 141.344 141.56 141.84C141.832 142.328 141.968 142.892 141.968 143.532ZM140.54 143.1C140.532 142.596 140.352 142.192 140 141.888C139.648 141.584 139.212 141.432 138.692 141.432C138.22 141.432 137.816 141.584 137.48 141.888C137.144 142.184 136.944 142.588 136.88 143.1H140.54Z" fill="white"/>
<g opacity="0.18">
<rect x="48.5" y="161" width="270" height="22" rx="11" fill="white" fill-opacity="0.18"/>
</g>
<rect x="48.5" y="185" width="270" height="22" rx="11" fill="white" fill-opacity="0.18"/>
<path d="M50.768 237.896H53.588V239H49.4V230.66H50.768V237.896ZM55.428 231.512C55.18 231.512 54.972 231.428 54.804 231.26C54.636 231.092 54.552 230.884 54.552 230.636C54.552 230.388 54.636 230.18 54.804 230.012C54.972 229.844 55.18 229.76 55.428 229.76C55.668 229.76 55.872 229.844 56.04 230.012C56.208 230.18 56.292 230.388 56.292 230.636C56.292 230.884 56.208 231.092 56.04 231.26C55.872 231.428 55.668 231.512 55.428 231.512ZM56.1 232.388V239H54.732V232.388H56.1ZM59.4921 233.504V237.164C59.4921 237.412 59.5481 237.592 59.6601 237.704C59.7801 237.808 59.9801 237.86 60.2601 237.86H61.1001V239H60.0201C59.4041 239 58.9321 238.856 58.6041 238.568C58.2761 238.28 58.1121 237.812 58.1121 237.164V233.504H57.3321V232.388H58.1121V230.744H59.4921V232.388H61.1001V233.504H59.4921ZM63.9569 233.504V237.164C63.9569 237.412 64.0129 237.592 64.1249 237.704C64.2449 237.808 64.4449 237.86 64.7249 237.86H65.5649V239H64.4849C63.8689 239 63.3969 238.856 63.0689 238.568C62.7409 238.28 62.5769 237.812 62.5769 237.164V233.504H61.7969V232.388H62.5769V230.744H63.9569V232.388H65.5649V233.504H63.9569ZM68.1938 230.12V239H66.8258V230.12H68.1938ZM76.0498 235.532C76.0498 235.78 76.0338 236.004 76.0018 236.204H70.9498C70.9898 236.732 71.1858 237.156 71.5378 237.476C71.8898 237.796 72.3218 237.956 72.8338 237.956C73.5698 237.956 74.0898 237.648 74.3938 237.032H75.8698C75.6698 237.64 75.3058 238.14 74.7778 238.532C74.2578 238.916 73.6098 239.108 72.8338 239.108C72.2018 239.108 71.6338 238.968 71.1298 238.688C70.6338 238.4 70.2418 238 69.9538 237.488C69.6738 236.968 69.5338 236.368 69.5338 235.688C69.5338 235.008 69.6698 234.412 69.9418 233.9C70.2218 233.38 70.6098 232.98 71.1058 232.7C71.6098 232.42 72.1858 232.28 72.8338 232.28C73.4578 232.28 74.0138 232.416 74.5018 232.688C74.9898 232.96 75.3698 233.344 75.6418 233.84C75.9138 234.328 76.0498 234.892 76.0498 235.532ZM74.6218 235.1C74.6138 234.596 74.4338 234.192 74.0818 233.888C73.7298 233.584 73.2938 233.432 72.7738 233.432C72.3018 233.432 71.8978 233.584 71.5618 233.888C71.2258 234.184 71.0258 234.588 70.9618 235.1H74.6218ZM83.2613 239.084C82.7013 239.084 82.1973 238.988 81.7493 238.796C81.3013 238.596 80.9493 238.316 80.6933 237.956C80.4373 237.596 80.3093 237.176 80.3093 236.696H81.7733C81.8053 237.056 81.9453 237.352 82.1933 237.584C82.4493 237.816 82.8053 237.932 83.2613 237.932C83.7333 237.932 84.1013 237.82 84.3653 237.596C84.6293 237.364 84.7613 237.068 84.7613 236.708C84.7613 236.428 84.6773 236.2 84.5093 236.024C84.3493 235.848 84.1453 235.712 83.8973 235.616C83.6573 235.52 83.3213 235.416 82.8893 235.304C82.3453 235.16 81.9013 235.016 81.5573 234.872C81.2213 234.72 80.9333 234.488 80.6933 234.176C80.4533 233.864 80.3333 233.448 80.3333 232.928C80.3333 232.448 80.4533 232.028 80.6933 231.668C80.9333 231.308 81.2693 231.032 81.7013 230.84C82.1333 230.648 82.6333 230.552 83.2013 230.552C84.0093 230.552 84.6693 230.756 85.1813 231.164C85.7013 231.564 85.9893 232.116 86.0453 232.82H84.5333C84.5093 232.516 84.3653 232.256 84.1013 232.04C83.8373 231.824 83.4893 231.716 83.0573 231.716C82.6653 231.716 82.3453 231.816 82.0973 232.016C81.8493 232.216 81.7253 232.504 81.7253 232.88C81.7253 233.136 81.8013 233.348 81.9533 233.516C82.1133 233.676 82.3133 233.804 82.5533 233.9C82.7933 233.996 83.1213 234.1 83.5373 234.212C84.0893 234.364 84.5373 234.516 84.8813 234.668C85.2333 234.82 85.5293 235.056 85.7693 235.376C86.0173 235.688 86.1413 236.108 86.1413 236.636C86.1413 237.06 86.0253 237.46 85.7933 237.836C85.5693 238.212 85.2373 238.516 84.7973 238.748C84.3653 238.972 83.8533 239.084 83.2613 239.084ZM88.4515 231.512C88.2035 231.512 87.9955 231.428 87.8275 231.26C87.6595 231.092 87.5755 230.884 87.5755 230.636C87.5755 230.388 87.6595 230.18 87.8275 230.012C87.9955 229.844 88.2035 229.76 88.4515 229.76C88.6915 229.76 88.8955 229.844 89.0635 230.012C89.2315 230.18 89.3155 230.388 89.3155 230.636C89.3155 230.884 89.2315 231.092 89.0635 231.26C88.8955 231.428 88.6915 231.512 88.4515 231.512ZM89.1235 232.388V239H87.7555V232.388H89.1235ZM93.3195 239.108C92.7995 239.108 92.3315 239.016 91.9155 238.832C91.5075 238.64 91.1835 238.384 90.9435 238.064C90.7035 237.736 90.5755 237.372 90.5595 236.972H91.9755C91.9995 237.252 92.1315 237.488 92.3715 237.68C92.6195 237.864 92.9275 237.956 93.2955 237.956C93.6795 237.956 93.9755 237.884 94.1835 237.74C94.3995 237.588 94.5075 237.396 94.5075 237.164C94.5075 236.916 94.3875 236.732 94.1475 236.612C93.9155 236.492 93.5435 236.36 93.0315 236.216C92.5355 236.08 92.1315 235.948 91.8195 235.82C91.5075 235.692 91.2355 235.496 91.0035 235.232C90.7795 234.968 90.6675 234.62 90.6675 234.188C90.6675 233.836 90.7715 233.516 90.9795 233.228C91.1875 232.932 91.4835 232.7 91.8675 232.532C92.2595 232.364 92.7075 232.28 93.2115 232.28C93.9635 232.28 94.5675 232.472 95.0235 232.856C95.4875 233.232 95.7355 233.748 95.7675 234.404H94.3995C94.3755 234.108 94.2555 233.872 94.0395 233.696C93.8235 233.52 93.5315 233.432 93.1635 233.432C92.8035 233.432 92.5275 233.5 92.3355 233.636C92.1435 233.772 92.0475 233.952 92.0475 234.176C92.0475 234.352 92.1115 234.5 92.2395 234.62C92.3675 234.74 92.5235 234.836 92.7075 234.908C92.8915 234.972 93.1635 235.056 93.5235 235.16C94.0035 235.288 94.3955 235.42 94.6995 235.556C95.0115 235.684 95.2795 235.876 95.5035 236.132C95.7275 236.388 95.8435 236.728 95.8515 237.152C95.8515 237.528 95.7475 237.864 95.5395 238.16C95.3315 238.456 95.0355 238.688 94.6515 238.856C94.2755 239.024 93.8315 239.108 93.3195 239.108Z" fill="white"/>
<rect x="48.5" y="253" width="270" height="22" rx="11" fill="white" fill-opacity="0.18"/>
<rect x="48.5" y="277" width="270" height="22" rx="11" fill="white" fill-opacity="0.18"/>
<path d="M60.26 322.66L57.788 331H56.24L54.488 324.688L52.628 331L51.092 331.012L48.728 322.66H50.18L51.908 329.452L53.78 322.66H55.316L57.056 329.416L58.796 322.66H60.26ZM62.0843 323.512C61.8363 323.512 61.6283 323.428 61.4603 323.26C61.2923 323.092 61.2083 322.884 61.2083 322.636C61.2083 322.388 61.2923 322.18 61.4603 322.012C61.6283 321.844 61.8363 321.76 62.0843 321.76C62.3243 321.76 62.5283 321.844 62.6963 322.012C62.8643 322.18 62.9483 322.388 62.9483 322.636C62.9483 322.884 62.8643 323.092 62.6963 323.26C62.5283 323.428 62.3243 323.512 62.0843 323.512ZM62.7563 324.388V331H61.3883V324.388H62.7563ZM67.1683 327.7L70.2163 331H68.3683L65.9203 328.156V331H64.5523V322.12H65.9203V327.28L68.3203 324.388H70.2163L67.1683 327.7ZM71.8929 323.512C71.6449 323.512 71.4369 323.428 71.2689 323.26C71.1009 323.092 71.0169 322.884 71.0169 322.636C71.0169 322.388 71.1009 322.18 71.2689 322.012C71.4369 321.844 71.6449 321.76 71.8929 321.76C72.1329 321.76 72.3369 321.844 72.5049 322.012C72.6729 322.18 72.7569 322.388 72.7569 322.636C72.7569 322.884 72.6729 323.092 72.5049 323.26C72.3369 323.428 72.1329 323.512 71.8929 323.512ZM72.5649 324.388V331H71.1969V324.388H72.5649ZM75.7289 325.36C75.9609 325.056 76.2769 324.8 76.6769 324.592C77.0769 324.384 77.5289 324.28 78.0329 324.28C78.6089 324.28 79.1329 324.424 79.6049 324.712C80.0849 324.992 80.4609 325.388 80.7329 325.9C81.0049 326.412 81.1409 327 81.1409 327.664C81.1409 328.328 81.0049 328.924 80.7329 329.452C80.4609 329.972 80.0849 330.38 79.6049 330.676C79.1329 330.964 78.6089 331.108 78.0329 331.108C77.5289 331.108 77.0809 331.008 76.6889 330.808C76.2969 330.6 75.9769 330.344 75.7289 330.04V334.144H74.3609V324.388H75.7289V325.36ZM79.7489 327.664C79.7489 327.208 79.6529 326.816 79.4609 326.488C79.2769 326.152 79.0289 325.9 78.7169 325.732C78.4129 325.556 78.0849 325.468 77.7329 325.468C77.3889 325.468 77.0609 325.556 76.7489 325.732C76.4449 325.908 76.1969 326.164 76.0049 326.5C75.8209 326.836 75.7289 327.232 75.7289 327.688C75.7289 328.144 75.8209 328.544 76.0049 328.888C76.1969 329.224 76.4449 329.48 76.7489 329.656C77.0609 329.832 77.3889 329.92 77.7329 329.92C78.0849 329.92 78.4129 329.832 78.7169 329.656C79.0289 329.472 79.2769 329.208 79.4609 328.864C79.6529 328.52 79.7489 328.12 79.7489 327.664ZM88.5538 327.532C88.5538 327.78 88.5378 328.004 88.5058 328.204H83.4538C83.4938 328.732 83.6898 329.156 84.0418 329.476C84.3938 329.796 84.8258 329.956 85.3378 329.956C86.0738 329.956 86.5938 329.648 86.8978 329.032H88.3737C88.1738 329.64 87.8098 330.14 87.2818 330.532C86.7618 330.916 86.1138 331.108 85.3378 331.108C84.7058 331.108 84.1378 330.968 83.6338 330.688C83.1378 330.4 82.7458 330 82.4578 329.488C82.1778 328.968 82.0378 328.368 82.0378 327.688C82.0378 327.008 82.1738 326.412 82.4458 325.9C82.7258 325.38 83.1138 324.98 83.6098 324.7C84.1138 324.42 84.6898 324.28 85.3378 324.28C85.9618 324.28 86.5178 324.416 87.0058 324.688C87.4938 324.96 87.8738 325.344 88.1458 325.84C88.4178 326.328 88.5538 326.892 88.5538 327.532ZM87.1258 327.1C87.1178 326.596 86.9378 326.192 86.5858 325.888C86.2338 325.584 85.7978 325.432 85.2778 325.432C84.8058 325.432 84.4018 325.584 84.0658 325.888C83.7298 326.184 83.5298 326.588 83.4658 327.1H87.1258ZM89.444 327.664C89.444 327 89.58 326.412 89.852 325.9C90.132 325.388 90.508 324.992 90.98 324.712C91.46 324.424 91.992 324.28 92.576 324.28C93.008 324.28 93.432 324.376 93.848 324.568C94.272 324.752 94.608 325 94.856 325.312V322.12H96.236V331H94.856V330.004C94.632 330.324 94.32 330.588 93.92 330.796C93.528 331.004 93.076 331.108 92.564 331.108C91.988 331.108 91.46 330.964 90.98 330.676C90.508 330.38 90.132 329.972 89.852 329.452C89.58 328.924 89.444 328.328 89.444 327.664ZM94.856 327.688C94.856 327.232 94.76 326.836 94.568 326.5C94.384 326.164 94.14 325.908 93.836 325.732C93.532 325.556 93.204 325.468 92.852 325.468C92.5 325.468 92.172 325.556 91.868 325.732C91.564 325.9 91.316 326.152 91.124 326.488C90.94 326.816 90.848 327.208 90.848 327.664C90.848 328.12 90.94 328.52 91.124 328.864C91.316 329.208 91.564 329.472 91.868 329.656C92.18 329.832 92.508 329.92 92.852 329.92C93.204 329.92 93.532 329.832 93.836 329.656C94.14 329.48 94.384 329.224 94.568 328.888C94.76 328.544 94.856 328.144 94.856 327.688ZM98.7288 323.512C98.4808 323.512 98.2728 323.428 98.1048 323.26C97.9368 323.092 97.8528 322.884 97.8528 322.636C97.8528 322.388 97.9368 322.18 98.1048 322.012C98.2728 321.844 98.4808 321.76 98.7288 321.76C98.9688 321.76 99.1728 321.844 99.3408 322.012C99.5088 322.18 99.5928 322.388 99.5928 322.636C99.5928 322.884 99.5088 323.092 99.3408 323.26C99.1728 323.428 98.9688 323.512 98.7288 323.512ZM99.4008 324.388V331H98.0328V324.388H99.4008ZM100.741 327.664C100.741 327 100.877 326.412 101.149 325.9C101.429 325.388 101.805 324.992 102.277 324.712C102.757 324.424 103.285 324.28 103.861 324.28C104.381 324.28 104.833 324.384 105.217 324.592C105.609 324.792 105.921 325.044 106.153 325.348V324.388H107.533V331H106.153V330.016C105.921 330.328 105.605 330.588 105.205 330.796C104.805 331.004 104.349 331.108 103.837 331.108C103.269 331.108 102.749 330.964 102.277 330.676C101.805 330.38 101.429 329.972 101.149 329.452C100.877 328.924 100.741 328.328 100.741 327.664ZM106.153 327.688C106.153 327.232 106.057 326.836 105.865 326.5C105.681 326.164 105.437 325.908 105.133 325.732C104.829 325.556 104.501 325.468 104.149 325.468C103.797 325.468 103.469 325.556 103.165 325.732C102.861 325.9 102.613 326.152 102.421 326.488C102.237 326.816 102.145 327.208 102.145 327.664C102.145 328.12 102.237 328.52 102.421 328.864C102.613 329.208 102.861 329.472 103.165 329.656C103.477 329.832 103.805 329.92 104.149 329.92C104.501 329.92 104.829 329.832 105.133 329.656C105.437 329.48 105.681 329.224 105.865 328.888C106.057 328.544 106.153 328.144 106.153 327.688Z" fill="white"/>
<rect x="48.5" y="345" width="270" height="22" rx="11" fill="white" fill-opacity="0.18"/>
<rect x="48.5" y="369" width="270" height="22" rx="11" fill="white" fill-opacity="0.18"/>
<rect x="48.5" y="393" width="211.5" height="22" rx="11" fill="white" fill-opacity="0.18"/>
<path fill-rule="evenodd" clip-rule="evenodd" d="M33 478C33 466.954 41.9543 458 53 458H314C325.046 458 334 466.954 334 478C334 489.046 325.046 498 314 498H53C41.9543 498 33 489.046 33 478ZM133.833 473.917C131.946 473.917 130.417 475.447 130.417 477.334C130.417 479.221 131.946 480.75 133.833 480.75C135.72 480.75 137.25 479.221 137.25 477.334C137.25 475.447 135.72 473.917 133.833 473.917ZM128.917 477.334C128.917 474.618 131.118 472.417 133.833 472.417C136.549 472.417 138.75 474.618 138.75 477.334C138.75 478.421 138.397 479.425 137.8 480.239L139.864 482.303C140.157 482.596 140.157 483.071 139.864 483.364C139.571 483.657 139.096 483.657 138.803 483.364L136.739 481.3C135.925 481.898 134.921 482.25 133.833 482.25C131.118 482.25 128.917 480.049 128.917 477.334ZM156.156 480.562L155.172 481.582C155.465 481.984 155.789 482.307 156.145 482.549C156.5 482.791 156.838 482.953 157.158 483.035C157.483 483.117 157.834 483.158 158.213 483.158C159.174 483.158 159.912 482.914 160.428 482.426C160.944 481.938 161.201 481.285 161.201 480.469C161.201 480.043 161.127 479.672 160.979 479.355C160.83 479.035 160.637 478.781 160.399 478.594C160.164 478.406 159.904 478.244 159.619 478.107C159.334 477.967 159.047 477.844 158.758 477.738C158.473 477.633 158.211 477.525 157.973 477.416C157.738 477.303 157.547 477.158 157.399 476.982C157.25 476.807 157.176 476.6 157.176 476.361C157.176 476.061 157.283 475.826 157.498 475.658C157.717 475.49 158.022 475.406 158.412 475.406C159.041 475.406 159.59 475.613 160.059 476.027L160.873 474.803C160.108 474.244 159.313 473.965 158.488 473.965C157.641 473.965 156.949 474.193 156.414 474.65C155.883 475.107 155.617 475.73 155.617 476.52C155.617 476.832 155.662 477.115 155.752 477.369C155.846 477.623 155.969 477.836 156.121 478.008C156.278 478.176 156.455 478.33 156.654 478.471C156.858 478.607 157.069 478.727 157.287 478.828C157.51 478.926 157.731 479.02 157.949 479.109C158.172 479.195 158.383 479.283 158.582 479.373C158.785 479.463 158.963 479.561 159.115 479.666C159.272 479.768 159.395 479.893 159.485 480.041C159.578 480.189 159.625 480.355 159.625 480.539C159.625 480.852 159.508 481.127 159.274 481.365C159.039 481.6 158.69 481.717 158.225 481.717C157.99 481.717 157.77 481.686 157.563 481.623C157.36 481.561 157.17 481.469 156.994 481.348C156.822 481.223 156.676 481.104 156.555 480.99C156.438 480.877 156.305 480.734 156.156 480.562ZM169.578 474.117V483H175.203V481.488H171.149V479.121H174.342V477.609H171.149V475.635H175.203V474.117H169.578ZM186.715 474.117L183.164 483H184.869L185.59 481.102H189.416L190.149 483H191.854L188.315 474.117H186.715ZM188.854 479.602H186.153L187.506 476.074L188.854 479.602ZM199.809 474.117V483H201.379V479.314H202.445L204.596 483H206.36L204.151 479.232C204.807 479.119 205.313 478.842 205.668 478.4C206.024 477.955 206.201 477.396 206.201 476.725C206.201 475.928 205.957 475.295 205.469 474.826C204.981 474.354 204.293 474.117 203.406 474.117H199.809ZM203.43 477.803H201.379V475.635H203.43C203.797 475.635 204.088 475.734 204.303 475.934C204.522 476.129 204.631 476.396 204.631 476.736C204.631 477.072 204.524 477.334 204.309 477.521C204.094 477.709 203.801 477.803 203.43 477.803ZM214.373 476.783C214.139 477.35 214.022 477.945 214.022 478.57C214.022 479.418 214.231 480.195 214.649 480.902C215.067 481.605 215.631 482.158 216.342 482.561C217.053 482.959 217.828 483.158 218.668 483.158C219.278 483.158 219.852 483.041 220.391 482.807C220.934 482.572 221.42 482.248 221.85 481.834L220.924 480.732C220.639 481.025 220.293 481.264 219.887 481.447C219.485 481.627 219.078 481.717 218.668 481.717C218.11 481.717 217.594 481.578 217.121 481.301C216.649 481.02 216.274 480.639 215.996 480.158C215.723 479.678 215.586 479.152 215.586 478.582C215.586 478.016 215.719 477.49 215.985 477.006C216.254 476.518 216.625 476.129 217.098 475.84C217.57 475.551 218.09 475.406 218.656 475.406C219.606 475.406 220.385 475.762 220.994 476.473L221.979 475.365C221.549 474.924 221.049 474.58 220.479 474.334C219.912 474.088 219.305 473.965 218.656 473.965C218.008 473.965 217.395 474.088 216.817 474.334C216.242 474.576 215.75 474.904 215.34 475.318C214.934 475.729 214.612 476.217 214.373 476.783ZM230.18 474.117V483H231.75V479.074H236.022V483H237.598V474.117H236.022V477.562H231.75V474.117H230.18Z" fill="white"/>
<circle cx="464.534" cy="173" r="11.5" stroke="white" stroke-opacity="0.3"/>
<circle cx="687.75" cy="173" r="11.5" stroke="white" stroke-opacity="0.3"/>
<circle cx="575.023" cy="257" r="11.5" stroke="white" stroke-opacity="0.3"/>
<circle cx="575.023" cy="299" r="11.5" stroke="white" stroke-opacity="0.3"/>
<circle cx="687.75" cy="387" r="11.5" stroke="white" stroke-opacity="0.3"/>
</svg>
