<svg width="916" height="530" viewBox="0 0 916 530" fill="none" xmlns="http://www.w3.org/2000/svg">
<rect x="32.375" y="71.375" width="299.25" height="39.25" rx="19.625" stroke="white" stroke-opacity="0.2" stroke-width="0.75"/>
<path d="M56.8008 94.5V87.0977H59.418C59.8444 87.0977 60.222 87.1628 60.5508 87.293C60.8828 87.4232 61.1497 87.6022 61.3516 87.8301C61.5534 88.0579 61.7048 88.3184 61.8057 88.6113C61.9098 88.901 61.9619 89.2168 61.9619 89.5586C61.9619 89.9004 61.9098 90.2178 61.8057 90.5107C61.7048 90.8037 61.5534 91.0658 61.3516 91.2969C61.1497 91.5247 60.8828 91.7038 60.5508 91.834C60.222 91.9642 59.8444 92.0293 59.418 92.0293H58.1094V94.5H56.8008ZM58.1094 90.7695H59.418C59.8314 90.7695 60.1406 90.6572 60.3457 90.4326C60.554 90.208 60.6582 89.9199 60.6582 89.5684C60.6582 89.2135 60.554 88.9238 60.3457 88.6992C60.1406 88.4746 59.8314 88.3623 59.418 88.3623H58.1094V90.7695ZM69.9629 94.5V87.0977H74.6504V88.3623H71.2715V90.0078H73.9326V91.2676H71.2715V93.2402H74.6504V94.5H69.9629ZM82.9492 94.5V87.0977H85.9473C86.6862 87.0977 87.2591 87.2946 87.666 87.6885C88.0729 88.0791 88.2764 88.6064 88.2764 89.2705C88.2764 89.8304 88.1283 90.2959 87.832 90.667C87.5358 91.0348 87.1143 91.266 86.5674 91.3604L88.4082 94.5H86.9385L85.1465 91.4287H84.2578V94.5H82.9492ZM84.2578 90.1689H85.9668C86.276 90.1689 86.5202 90.0908 86.6992 89.9346C86.8783 89.7783 86.9678 89.5602 86.9678 89.2803C86.9678 88.9971 86.8766 88.7741 86.6943 88.6113C86.5153 88.4453 86.2728 88.3623 85.9668 88.3623H84.2578V90.1689ZM95.916 93.3184L96.7363 92.4688C96.86 92.612 96.9707 92.7308 97.0684 92.8252C97.1693 92.9196 97.2913 93.0189 97.4346 93.123C97.5811 93.224 97.7389 93.3005 97.9082 93.3525C98.0807 93.4046 98.2646 93.4307 98.46 93.4307C98.8473 93.4307 99.1387 93.333 99.334 93.1377C99.5293 92.9391 99.627 92.7096 99.627 92.4492C99.627 92.2962 99.5879 92.1579 99.5098 92.0342C99.4349 91.9105 99.3324 91.8063 99.2021 91.7217C99.0752 91.6338 98.9271 91.5524 98.7578 91.4775C98.5918 91.4027 98.416 91.3294 98.2305 91.2578C98.0482 91.1829 97.8643 91.1048 97.6787 91.0234C97.4964 90.9388 97.3206 90.8395 97.1514 90.7256C96.9854 90.6084 96.8372 90.4798 96.707 90.3398C96.5801 90.1966 96.4775 90.0192 96.3994 89.8076C96.3245 89.596 96.2871 89.36 96.2871 89.0996C96.2871 88.4421 96.5085 87.9229 96.9512 87.542C97.3971 87.1611 97.9733 86.9707 98.6797 86.9707C99.3665 86.9707 100.029 87.2035 100.667 87.6689L99.9883 88.6895C99.5977 88.3444 99.1403 88.1719 98.6162 88.1719C98.2907 88.1719 98.0368 88.2419 97.8545 88.3818C97.6755 88.5218 97.5859 88.7171 97.5859 88.9678C97.5859 89.1663 97.6478 89.3389 97.7715 89.4854C97.8952 89.6318 98.0547 89.7523 98.25 89.8467C98.4486 89.9378 98.6667 90.0273 98.9043 90.1152C99.1452 90.2031 99.3844 90.3057 99.6221 90.4229C99.8597 90.5368 100.076 90.6719 100.271 90.8281C100.47 90.9844 100.631 91.196 100.755 91.4629C100.879 91.7266 100.94 92.0358 100.94 92.3906C100.94 93.071 100.726 93.6146 100.296 94.0215C99.8662 94.4284 99.251 94.6318 98.4502 94.6318C98.1344 94.6318 97.8415 94.5977 97.5713 94.5293C97.3044 94.4609 97.0228 94.3258 96.7266 94.124C96.4303 93.9222 96.1602 93.6536 95.916 93.3184ZM108.683 90.8086C108.683 90.2878 108.78 89.7913 108.976 89.3193C109.174 88.8473 109.443 88.4404 109.781 88.0986C110.123 87.7536 110.533 87.4801 111.012 87.2783C111.493 87.0732 112.005 86.9707 112.545 86.9707C113.079 86.9707 113.585 87.0716 114.063 87.2734C114.542 87.472 114.952 87.7422 115.294 88.084C115.639 88.4225 115.912 88.8278 116.114 89.2998C116.316 89.7718 116.417 90.2715 116.417 90.7988C116.417 91.3229 116.316 91.8226 116.114 92.2979C115.912 92.7731 115.639 93.1816 115.294 93.5234C114.949 93.862 114.537 94.1322 114.059 94.334C113.583 94.5326 113.082 94.6318 112.555 94.6318C111.855 94.6318 111.209 94.4658 110.616 94.1338C110.024 93.7985 109.553 93.3379 109.205 92.752C108.857 92.1628 108.683 91.515 108.683 90.8086ZM109.986 90.8184C109.986 91.2936 110.1 91.7314 110.328 92.1318C110.559 92.5322 110.872 92.8496 111.266 93.084C111.66 93.3151 112.089 93.4307 112.555 93.4307C113.02 93.4307 113.448 93.3135 113.839 93.0791C114.229 92.8447 114.537 92.5273 114.762 92.127C114.99 91.7233 115.104 91.2839 115.104 90.8086C115.104 90.3301 114.991 89.889 114.767 89.4854C114.542 89.0817 114.233 88.7627 113.839 88.5283C113.448 88.2907 113.017 88.1719 112.545 88.1719C112.073 88.1719 111.64 88.2923 111.246 88.5332C110.852 88.7741 110.543 89.098 110.318 89.5049C110.097 89.9085 109.986 90.3464 109.986 90.8184ZM124.516 94.5V87.0977H126.166L129.975 92.3613V87.0977H131.273V94.5H129.896L125.824 88.8701V94.5H124.516ZM139.172 93.3184L139.992 92.4688C140.116 92.612 140.227 92.7308 140.324 92.8252C140.425 92.9196 140.547 93.0189 140.69 93.123C140.837 93.224 140.995 93.3005 141.164 93.3525C141.337 93.4046 141.521 93.4307 141.716 93.4307C142.103 93.4307 142.395 93.333 142.59 93.1377C142.785 92.9391 142.883 92.7096 142.883 92.4492C142.883 92.2962 142.844 92.1579 142.766 92.0342C142.691 91.9105 142.588 91.8063 142.458 91.7217C142.331 91.6338 142.183 91.5524 142.014 91.4775C141.848 91.4027 141.672 91.3294 141.486 91.2578C141.304 91.1829 141.12 91.1048 140.935 91.0234C140.752 90.9388 140.576 90.8395 140.407 90.7256C140.241 90.6084 140.093 90.4798 139.963 90.3398C139.836 90.1966 139.733 90.0192 139.655 89.8076C139.58 89.596 139.543 89.36 139.543 89.0996C139.543 88.4421 139.764 87.9229 140.207 87.542C140.653 87.1611 141.229 86.9707 141.936 86.9707C142.622 86.9707 143.285 87.2035 143.923 87.6689L143.244 88.6895C142.854 88.3444 142.396 88.1719 141.872 88.1719C141.547 88.1719 141.293 88.2419 141.11 88.3818C140.931 88.5218 140.842 88.7171 140.842 88.9678C140.842 89.1663 140.904 89.3389 141.027 89.4854C141.151 89.6318 141.311 89.7523 141.506 89.8467C141.704 89.9378 141.923 90.0273 142.16 90.1152C142.401 90.2031 142.64 90.3057 142.878 90.4229C143.116 90.5368 143.332 90.6719 143.527 90.8281C143.726 90.9844 143.887 91.196 144.011 91.4629C144.134 91.7266 144.196 92.0358 144.196 92.3906C144.196 93.071 143.981 93.6146 143.552 94.0215C143.122 94.4284 142.507 94.6318 141.706 94.6318C141.39 94.6318 141.097 94.5977 140.827 94.5293C140.56 94.4609 140.279 94.3258 139.982 94.124C139.686 93.9222 139.416 93.6536 139.172 93.3184ZM162.039 94.5V87.0977H163.689L167.498 92.3613V87.0977H168.797V94.5H167.42L163.348 88.8701V94.5H162.039ZM176.598 94.5L179.557 87.0977H180.89L183.839 94.5H182.418L181.808 92.918H178.619L178.019 94.5H176.598ZM179.088 91.668H181.339L180.216 88.7285L179.088 91.668ZM191.635 94.5V87.0977H193.324L195.365 90.3594L197.436 87.0977H199.125V94.5H197.816V88.8896L195.985 91.751H194.745L192.943 88.8896V94.5H191.635ZM207.727 94.5V87.0977H212.414V88.3623H209.035V90.0078H211.696V91.2676H209.035V93.2402H212.414V94.5H207.727Z" fill="white" fill-opacity="0.7"/>
<rect x="47" y="161.188" width="223.5" height="22" rx="11" fill="white"/>
<rect x="47.25" y="161.438" width="223" height="21.5" rx="10.75" stroke="black" stroke-opacity="0.3" stroke-width="0.5"/>
<circle cx="58" cy="196.188" r="10.5" stroke="white" stroke-opacity="0.3"/>
<path d="M77.5 200.954L82.5572 197.306L87.5921 201.301L92.9021 197.291L97.6985 201.653L103.5 198.046" stroke="white" stroke-opacity="0.5" stroke-width="2" stroke-linecap="round" stroke-linejoin="round"/>
<rect x="47" y="256.875" width="270" height="22" rx="11" fill="white" fill-opacity="0.18"/>
<circle cx="58" cy="291.875" r="10.5" stroke="white" stroke-opacity="0.3"/>
<path d="M77.5 294.579L82.5572 290.931L87.5921 294.926L92.9021 290.916L97.6985 295.278L103.5 291.671" stroke="white" stroke-opacity="0.5" stroke-width="2" stroke-linecap="round" stroke-linejoin="round"/>
<rect x="47" y="350.5" width="270" height="22" rx="11" fill="white" fill-opacity="0.18"/>
<circle cx="58" cy="385.5" r="10.5" stroke="white" stroke-opacity="0.3"/>
<circle cx="58" cy="410.25" r="10.5" stroke="white" stroke-opacity="0.3"/>
<path d="M77.5 389.079L82.5572 385.431L87.5921 389.426L92.9021 385.416L97.6985 389.778L103.5 386.171" stroke="white" stroke-opacity="0.5" stroke-width="2" stroke-linecap="round" stroke-linejoin="round"/>
<path d="M77.5 415.079L82.5572 411.431L87.5921 415.426L92.9021 411.416L97.6985 415.778L103.5 412.171" stroke="white" stroke-opacity="0.5" stroke-width="2" stroke-linecap="round" stroke-linejoin="round"/>
<path d="M138.527 481.334L136.027 478.834M128.86 475.834C128.86 473.532 130.725 471.667 133.027 471.667C135.328 471.667 137.193 473.532 137.193 475.834C137.193 478.135 135.328 480 133.027 480C130.725 480 128.86 478.135 128.86 475.834Z" stroke="white" stroke-width="1.5" stroke-linecap="round" stroke-linejoin="round"/>
<path d="M154.365 480.082L155.35 479.062C155.498 479.234 155.631 479.377 155.748 479.49C155.869 479.604 156.016 479.723 156.188 479.848C156.363 479.969 156.553 480.061 156.756 480.123C156.963 480.186 157.184 480.217 157.418 480.217C157.883 480.217 158.232 480.1 158.467 479.865C158.701 479.627 158.818 479.352 158.818 479.039C158.818 478.855 158.771 478.689 158.678 478.541C158.588 478.393 158.465 478.268 158.309 478.166C158.156 478.061 157.979 477.963 157.775 477.873C157.576 477.783 157.365 477.695 157.143 477.609C156.924 477.52 156.703 477.426 156.48 477.328C156.262 477.227 156.051 477.107 155.848 476.971C155.648 476.83 155.471 476.676 155.314 476.508C155.162 476.336 155.039 476.123 154.945 475.869C154.855 475.615 154.811 475.332 154.811 475.02C154.811 474.23 155.076 473.607 155.607 473.15C156.143 472.693 156.834 472.465 157.682 472.465C158.506 472.465 159.301 472.744 160.066 473.303L159.252 474.527C158.783 474.113 158.234 473.906 157.605 473.906C157.215 473.906 156.91 473.99 156.691 474.158C156.477 474.326 156.369 474.561 156.369 474.861C156.369 475.1 156.443 475.307 156.592 475.482C156.74 475.658 156.932 475.803 157.166 475.916C157.404 476.025 157.666 476.133 157.951 476.238C158.24 476.344 158.527 476.467 158.812 476.607C159.098 476.744 159.357 476.906 159.592 477.094C159.83 477.281 160.023 477.535 160.172 477.855C160.32 478.172 160.395 478.543 160.395 478.969C160.395 479.785 160.137 480.438 159.621 480.926C159.105 481.414 158.367 481.658 157.406 481.658C157.027 481.658 156.676 481.617 156.352 481.535C156.031 481.453 155.693 481.291 155.338 481.049C154.982 480.807 154.658 480.484 154.365 480.082ZM168.771 481.5V472.617H174.396V474.135H170.342V476.109H173.535V477.621H170.342V479.988H174.396V481.5H168.771ZM182.357 481.5L185.908 472.617H187.508L191.047 481.5H189.342L188.609 479.602H184.783L184.062 481.5H182.357ZM185.346 478.102H188.047L186.699 474.574L185.346 478.102ZM199.002 481.5V472.617H202.6C203.486 472.617 204.174 472.854 204.662 473.326C205.15 473.795 205.395 474.428 205.395 475.225C205.395 475.896 205.217 476.455 204.861 476.9C204.506 477.342 204 477.619 203.344 477.732L205.553 481.5H203.789L201.639 477.814H200.572V481.5H199.002ZM200.572 476.303H202.623C202.994 476.303 203.287 476.209 203.502 476.021C203.717 475.834 203.824 475.572 203.824 475.236C203.824 474.896 203.715 474.629 203.496 474.434C203.281 474.234 202.99 474.135 202.623 474.135H200.572V476.303ZM213.215 477.07C213.215 476.445 213.332 475.85 213.566 475.283C213.805 474.717 214.127 474.229 214.533 473.818C214.943 473.404 215.436 473.076 216.01 472.834C216.588 472.588 217.201 472.465 217.85 472.465C218.498 472.465 219.105 472.588 219.672 472.834C220.242 473.08 220.742 473.424 221.172 473.865L220.188 474.973C219.578 474.262 218.799 473.906 217.85 473.906C217.283 473.906 216.764 474.051 216.291 474.34C215.818 474.629 215.447 475.018 215.178 475.506C214.912 475.99 214.779 476.516 214.779 477.082C214.779 477.652 214.916 478.178 215.189 478.658C215.467 479.139 215.842 479.52 216.314 479.801C216.787 480.078 217.303 480.217 217.861 480.217C218.271 480.217 218.678 480.127 219.08 479.947C219.486 479.764 219.832 479.525 220.117 479.232L221.043 480.334C220.613 480.748 220.127 481.072 219.584 481.307C219.045 481.541 218.471 481.658 217.861 481.658C217.021 481.658 216.246 481.459 215.535 481.061C214.824 480.658 214.26 480.105 213.842 479.402C213.424 478.695 213.215 477.918 213.215 477.07ZM229.373 481.5V472.617H230.943V476.062H235.215V472.617H236.791V481.5H235.215V477.574H230.943V481.5H229.373Z" fill="white"/>
<rect x="32.5" y="458.5" width="300" height="39" rx="19.5" stroke="white" stroke-opacity="0.2"/>
<rect x="451.534" y="161" width="120" height="24" rx="12" fill="white"/>
<rect x="674.75" y="161" width="120" height="24" rx="12" fill="white" fill-opacity="0.15"/>
<rect x="562.023" y="245" width="120" height="24" rx="12" fill="white" fill-opacity="0.15"/>
<rect x="562.023" y="287" width="120" height="24" rx="12" fill="white" fill-opacity="0.15"/>
<rect x="674.75" y="375" width="120" height="24" rx="12" fill="white" fill-opacity="0.15"/>
<path opacity="0.5" d="M451.887 172.854C452.083 172.658 452.083 172.342 451.887 172.146L448.705 168.964C448.51 168.769 448.194 168.769 447.998 168.964C447.803 169.16 447.803 169.476 447.998 169.672L450.827 172.5L447.998 175.328C447.803 175.524 447.803 175.84 447.998 176.036C448.194 176.231 448.51 176.231 448.705 176.036L451.887 172.854ZM273.167 172.5C273.167 171.027 271.973 169.833 270.5 169.833C269.027 169.833 267.833 171.027 267.833 172.5C267.833 173.973 269.027 175.167 270.5 175.167C271.973 175.167 273.167 173.973 273.167 172.5ZM451.534 172L450.025 172L450.025 173L451.534 173L451.534 172ZM447.008 172L443.991 172L443.991 173L447.008 173L447.008 172ZM440.974 172L437.956 172L437.956 173L440.974 173L440.974 172ZM434.939 172L431.922 172L431.922 173L434.939 173L434.939 172ZM428.905 172L425.887 172L425.887 173L428.905 173L428.905 172ZM422.87 172L419.853 172L419.853 173L422.87 173L422.87 172ZM416.836 172L413.818 172L413.818 173L416.836 173L416.836 172ZM410.801 172L407.784 172L407.784 173L410.801 173L410.801 172ZM404.767 172L401.75 172L401.75 173L404.767 173L404.767 172ZM398.732 172L395.715 172L395.715 173L398.732 173L398.732 172ZM392.698 172L389.681 172L389.681 173L392.698 173L392.698 172ZM386.663 172L383.646 172L383.646 173L386.663 173L386.663 172ZM380.629 172L377.612 172L377.612 173L380.629 173L380.629 172ZM374.594 172L371.577 172L371.577 173L374.594 173L374.594 172ZM368.56 172L365.543 172L365.543 173L368.56 173L368.56 172ZM362.526 172L359.508 172L359.508 173L362.526 173L362.526 172ZM356.491 172L353.474 172L353.474 173L356.491 173L356.491 172ZM350.457 172L347.439 172L347.439 173L350.457 173L350.457 172ZM344.422 172L341.405 172L341.405 173L344.422 173L344.422 172ZM338.388 172L335.37 172L335.37 173L338.388 173L338.388 172ZM332.353 172L329.336 172L329.336 173L332.353 173L332.353 172ZM326.319 172L323.302 172L323.302 173L326.319 173L326.319 172ZM320.284 172L317.267 172L317.267 173L320.284 173L320.284 172ZM314.25 172L311.233 172L311.233 173L314.25 173L314.25 172ZM308.215 172L305.198 172L305.198 173L308.215 173L308.215 172ZM302.181 172L299.164 172L299.164 173L302.181 173L302.181 172ZM296.147 172L293.129 172L293.129 173L296.147 173L296.147 172ZM290.112 172L287.095 172L287.095 173L290.112 173L290.112 172ZM284.078 172L281.06 172L281.06 173L284.078 173L284.078 172ZM278.043 172L275.026 172L275.026 173L278.043 173L278.043 172ZM272.009 172L270.5 172L270.5 173L272.009 173L272.009 172Z" fill="white"/>
</svg>
