<svg width="917" height="530" viewBox="0 0 917 530" fill="none" xmlns="http://www.w3.org/2000/svg">
<rect opacity="0.2" x="17.5" y="55.5" width="332" height="458" rx="31.5" stroke="white" stroke-opacity="0.5"/>
<rect x="33.875" y="71.375" width="299.25" height="39.25" rx="19.625" stroke="white" stroke-opacity="0.3" stroke-width="0.75"/>
<path d="M314.333 95.8337L311.833 93.3337M304.667 90.3337C304.667 88.0325 306.532 86.167 308.833 86.167C311.135 86.167 313 88.0325 313 90.3337C313 92.6348 311.135 94.5003 308.833 94.5003C306.532 94.5003 304.667 92.6348 304.667 90.3337Z" stroke="white" stroke-opacity="0.5" stroke-width="1.5" stroke-linecap="round" stroke-linejoin="round"/>
<path d="M50.768 145.896H53.588V147H49.4V138.66H50.768V145.896ZM57.6 147.108C56.976 147.108 56.412 146.968 55.908 146.688C55.404 146.4 55.008 146 54.72 145.488C54.432 144.968 54.288 144.368 54.288 143.688C54.288 143.016 54.436 142.42 54.732 141.9C55.028 141.38 55.432 140.98 55.944 140.7C56.456 140.42 57.028 140.28 57.66 140.28C58.292 140.28 58.864 140.42 59.376 140.7C59.888 140.98 60.292 141.38 60.588 141.9C60.884 142.42 61.032 143.016 61.032 143.688C61.032 144.36 60.88 144.956 60.576 145.476C60.272 145.996 59.856 146.4 59.328 146.688C58.808 146.968 58.232 147.108 57.6 147.108ZM57.6 145.92C57.952 145.92 58.28 145.836 58.584 145.668C58.896 145.5 59.148 145.248 59.34 144.912C59.532 144.576 59.628 144.168 59.628 143.688C59.628 143.208 59.536 142.804 59.352 142.476C59.168 142.14 58.924 141.888 58.62 141.72C58.316 141.552 57.988 141.468 57.636 141.468C57.284 141.468 56.956 141.552 56.652 141.72C56.356 141.888 56.12 142.14 55.944 142.476C55.768 142.804 55.68 143.208 55.68 143.688C55.68 144.4 55.86 144.952 56.22 145.344C56.588 145.728 57.048 145.92 57.6 145.92ZM61.9284 143.688C61.9284 143.008 62.0644 142.412 62.3364 141.9C62.6164 141.38 63.0004 140.98 63.4884 140.7C63.9764 140.42 64.5364 140.28 65.1684 140.28C65.9684 140.28 66.6284 140.472 67.1484 140.856C67.6764 141.232 68.0324 141.772 68.2164 142.476H66.7404C66.6204 142.148 66.4284 141.892 66.1644 141.708C65.9004 141.524 65.5684 141.432 65.1684 141.432C64.6084 141.432 64.1604 141.632 63.8244 142.032C63.4964 142.424 63.3324 142.976 63.3324 143.688C63.3324 144.4 63.4964 144.956 63.8244 145.356C64.1604 145.756 64.6084 145.956 65.1684 145.956C65.9604 145.956 66.4844 145.608 66.7404 144.912H68.2164C68.0244 145.584 67.6644 146.12 67.1364 146.52C66.6084 146.912 65.9524 147.108 65.1684 147.108C64.5364 147.108 63.9764 146.968 63.4884 146.688C63.0004 146.4 62.6164 146 62.3364 145.488C62.0644 144.968 61.9284 144.368 61.9284 143.688ZM69.1237 143.664C69.1237 143 69.2597 142.412 69.5317 141.9C69.8117 141.388 70.1877 140.992 70.6597 140.712C71.1397 140.424 71.6677 140.28 72.2437 140.28C72.7637 140.28 73.2157 140.384 73.5997 140.592C73.9917 140.792 74.3037 141.044 74.5357 141.348V140.388H75.9157V147H74.5357V146.016C74.3037 146.328 73.9877 146.588 73.5877 146.796C73.1877 147.004 72.7317 147.108 72.2197 147.108C71.6517 147.108 71.1317 146.964 70.6597 146.676C70.1877 146.38 69.8117 145.972 69.5317 145.452C69.2597 144.924 69.1237 144.328 69.1237 143.664ZM74.5357 143.688C74.5357 143.232 74.4397 142.836 74.2477 142.5C74.0637 142.164 73.8197 141.908 73.5157 141.732C73.2117 141.556 72.8837 141.468 72.5317 141.468C72.1797 141.468 71.8517 141.556 71.5477 141.732C71.2437 141.9 70.9957 142.152 70.8037 142.488C70.6197 142.816 70.5277 143.208 70.5277 143.664C70.5277 144.12 70.6197 144.52 70.8037 144.864C70.9957 145.208 71.2437 145.472 71.5477 145.656C71.8597 145.832 72.1877 145.92 72.5317 145.92C72.8837 145.92 73.2117 145.832 73.5157 145.656C73.8197 145.48 74.0637 145.224 74.2477 144.888C74.4397 144.544 74.5357 144.144 74.5357 143.688ZM79.0805 138.12V147H77.7125V138.12H79.0805ZM86.7178 138.66C87.6058 138.66 88.3818 138.832 89.0458 139.176C89.7178 139.512 90.2338 140 90.5938 140.64C90.9618 141.272 91.1458 142.012 91.1458 142.86C91.1458 143.708 90.9618 144.444 90.5938 145.068C90.2338 145.692 89.7178 146.172 89.0458 146.508C88.3818 146.836 87.6058 147 86.7178 147H83.9938V138.66H86.7178ZM86.7178 145.884C87.6938 145.884 88.4418 145.62 88.9618 145.092C89.4818 144.564 89.7418 143.82 89.7418 142.86C89.7418 141.892 89.4818 141.136 88.9618 140.592C88.4418 140.048 87.6938 139.776 86.7178 139.776H85.3618V145.884H86.7178ZM92.0456 143.664C92.0456 143 92.1816 142.412 92.4536 141.9C92.7336 141.388 93.1096 140.992 93.5816 140.712C94.0616 140.424 94.5896 140.28 95.1656 140.28C95.6856 140.28 96.1376 140.384 96.5216 140.592C96.9136 140.792 97.2256 141.044 97.4576 141.348V140.388H98.8376V147H97.4576V146.016C97.2256 146.328 96.9096 146.588 96.5096 146.796C96.1096 147.004 95.6536 147.108 95.1416 147.108C94.5736 147.108 94.0536 146.964 93.5816 146.676C93.1096 146.38 92.7336 145.972 92.4536 145.452C92.1816 144.924 92.0456 144.328 92.0456 143.664ZM97.4576 143.688C97.4576 143.232 97.3616 142.836 97.1696 142.5C96.9856 142.164 96.7416 141.908 96.4376 141.732C96.1336 141.556 95.8056 141.468 95.4536 141.468C95.1016 141.468 94.7736 141.556 94.4696 141.732C94.1656 141.9 93.9176 142.152 93.7256 142.488C93.5416 142.816 93.4496 143.208 93.4496 143.664C93.4496 144.12 93.5416 144.52 93.7256 144.864C93.9176 145.208 94.1656 145.472 94.4696 145.656C94.7816 145.832 95.1096 145.92 95.4536 145.92C95.8056 145.92 96.1336 145.832 96.4376 145.656C96.7416 145.48 96.9856 145.224 97.1696 144.888C97.3616 144.544 97.4576 144.144 97.4576 143.688ZM102.23 141.504V145.164C102.23 145.412 102.286 145.592 102.398 145.704C102.518 145.808 102.718 145.86 102.998 145.86H103.838V147H102.758C102.142 147 101.67 146.856 101.342 146.568C101.014 146.28 100.85 145.812 100.85 145.164V141.504H100.07V140.388H100.85V138.744H102.23V140.388H103.838V141.504H102.23ZM104.643 143.664C104.643 143 104.779 142.412 105.051 141.9C105.331 141.388 105.707 140.992 106.179 140.712C106.659 140.424 107.187 140.28 107.763 140.28C108.283 140.28 108.735 140.384 109.119 140.592C109.511 140.792 109.823 141.044 110.055 141.348V140.388H111.435V147H110.055V146.016C109.823 146.328 109.507 146.588 109.107 146.796C108.707 147.004 108.251 147.108 107.739 147.108C107.171 147.108 106.651 146.964 106.179 146.676C105.707 146.38 105.331 145.972 105.051 145.452C104.779 144.924 104.643 144.328 104.643 143.664ZM110.055 143.688C110.055 143.232 109.959 142.836 109.767 142.5C109.583 142.164 109.339 141.908 109.035 141.732C108.731 141.556 108.403 141.468 108.051 141.468C107.699 141.468 107.371 141.556 107.067 141.732C106.763 141.9 106.515 142.152 106.323 142.488C106.139 142.816 106.047 143.208 106.047 143.664C106.047 144.12 106.139 144.52 106.323 144.864C106.515 145.208 106.763 145.472 107.067 145.656C107.379 145.832 107.707 145.92 108.051 145.92C108.403 145.92 108.731 145.832 109.035 145.656C109.339 145.48 109.583 145.224 109.767 144.888C109.959 144.544 110.055 144.144 110.055 143.688ZM114.6 141.372C114.832 141.052 115.148 140.792 115.548 140.592C115.956 140.384 116.408 140.28 116.904 140.28C117.488 140.28 118.016 140.42 118.488 140.7C118.96 140.98 119.332 141.38 119.604 141.9C119.876 142.412 120.012 143 120.012 143.664C120.012 144.328 119.876 144.924 119.604 145.452C119.332 145.972 118.956 146.38 118.476 146.676C118.004 146.964 117.48 147.108 116.904 147.108C116.392 147.108 115.936 147.008 115.536 146.808C115.144 146.608 114.832 146.352 114.6 146.04V147H113.232V138.12H114.6V141.372ZM118.62 143.664C118.62 143.208 118.524 142.816 118.332 142.488C118.148 142.152 117.9 141.9 117.588 141.732C117.284 141.556 116.956 141.468 116.604 141.468C116.26 141.468 115.932 141.556 115.62 141.732C115.316 141.908 115.068 142.164 114.876 142.5C114.692 142.836 114.6 143.232 114.6 143.688C114.6 144.144 114.692 144.544 114.876 144.888C115.068 145.224 115.316 145.48 115.62 145.656C115.932 145.832 116.26 145.92 116.604 145.92C116.956 145.92 117.284 145.832 117.588 145.656C117.9 145.472 118.148 145.208 118.332 144.864C118.524 144.52 118.62 144.12 118.62 143.664ZM120.909 143.664C120.909 143 121.045 142.412 121.317 141.9C121.597 141.388 121.973 140.992 122.445 140.712C122.925 140.424 123.453 140.28 124.029 140.28C124.549 140.28 125.001 140.384 125.385 140.592C125.777 140.792 126.089 141.044 126.321 141.348V140.388H127.701V147H126.321V146.016C126.089 146.328 125.773 146.588 125.373 146.796C124.973 147.004 124.517 147.108 124.005 147.108C123.437 147.108 122.917 146.964 122.445 146.676C121.973 146.38 121.597 145.972 121.317 145.452C121.045 144.924 120.909 144.328 120.909 143.664ZM126.321 143.688C126.321 143.232 126.225 142.836 126.033 142.5C125.849 142.164 125.605 141.908 125.301 141.732C124.997 141.556 124.669 141.468 124.317 141.468C123.965 141.468 123.637 141.556 123.333 141.732C123.029 141.9 122.781 142.152 122.589 142.488C122.405 142.816 122.313 143.208 122.313 143.664C122.313 144.12 122.405 144.52 122.589 144.864C122.781 145.208 123.029 145.472 123.333 145.656C123.645 145.832 123.973 145.92 124.317 145.92C124.669 145.92 124.997 145.832 125.301 145.656C125.605 145.48 125.849 145.224 126.033 144.888C126.225 144.544 126.321 144.144 126.321 143.688ZM131.898 147.108C131.378 147.108 130.91 147.016 130.494 146.832C130.086 146.64 129.762 146.384 129.522 146.064C129.282 145.736 129.154 145.372 129.138 144.972H130.554C130.578 145.252 130.71 145.488 130.95 145.68C131.198 145.864 131.506 145.956 131.874 145.956C132.258 145.956 132.554 145.884 132.762 145.74C132.978 145.588 133.086 145.396 133.086 145.164C133.086 144.916 132.966 144.732 132.726 144.612C132.494 144.492 132.122 144.36 131.61 144.216C131.114 144.08 130.71 143.948 130.398 143.82C130.086 143.692 129.814 143.496 129.582 143.232C129.358 142.968 129.246 142.62 129.246 142.188C129.246 141.836 129.35 141.516 129.558 141.228C129.766 140.932 130.062 140.7 130.446 140.532C130.838 140.364 131.286 140.28 131.79 140.28C132.542 140.28 133.146 140.472 133.602 140.856C134.066 141.232 134.314 141.748 134.346 142.404H132.978C132.954 142.108 132.834 141.872 132.618 141.696C132.402 141.52 132.11 141.432 131.742 141.432C131.382 141.432 131.106 141.5 130.914 141.636C130.722 141.772 130.626 141.952 130.626 142.176C130.626 142.352 130.69 142.5 130.818 142.62C130.946 142.74 131.102 142.836 131.286 142.908C131.47 142.972 131.742 143.056 132.102 143.16C132.582 143.288 132.974 143.42 133.278 143.556C133.59 143.684 133.858 143.876 134.082 144.132C134.306 144.388 134.422 144.728 134.43 145.152C134.43 145.528 134.326 145.864 134.118 146.16C133.91 146.456 133.614 146.688 133.23 146.856C132.854 147.024 132.41 147.108 131.898 147.108ZM141.968 143.532C141.968 143.78 141.952 144.004 141.92 144.204H136.868C136.908 144.732 137.104 145.156 137.456 145.476C137.808 145.796 138.24 145.956 138.752 145.956C139.488 145.956 140.008 145.648 140.312 145.032H141.788C141.588 145.64 141.224 146.14 140.696 146.532C140.176 146.916 139.528 147.108 138.752 147.108C138.12 147.108 137.552 146.968 137.048 146.688C136.552 146.4 136.16 146 135.872 145.488C135.592 144.968 135.452 144.368 135.452 143.688C135.452 143.008 135.588 142.412 135.86 141.9C136.14 141.38 136.528 140.98 137.024 140.7C137.528 140.42 138.104 140.28 138.752 140.28C139.376 140.28 139.932 140.416 140.42 140.688C140.908 140.96 141.288 141.344 141.56 141.84C141.832 142.328 141.968 142.892 141.968 143.532ZM140.54 143.1C140.532 142.596 140.352 142.192 140 141.888C139.648 141.584 139.212 141.432 138.692 141.432C138.22 141.432 137.816 141.584 137.48 141.888C137.144 142.184 136.944 142.588 136.88 143.1H140.54Z" fill="white"/>
<g opacity="0.18">
<rect x="49" y="161.688" width="222.5" height="21" rx="10.5" stroke="white"/>
<circle cx="59.5" cy="172" r="10.5" stroke="black" stroke-opacity="0.3"/>
</g>
<rect x="48.5" y="185.938" width="270" height="22" rx="11" fill="white" fill-opacity="0.18"/>
<path d="M50.768 238.833H53.588V239.938H49.4V231.597H50.768V238.833ZM55.428 232.449C55.18 232.449 54.972 232.365 54.804 232.197C54.636 232.029 54.552 231.821 54.552 231.573C54.552 231.325 54.636 231.117 54.804 230.949C54.972 230.781 55.18 230.697 55.428 230.697C55.668 230.697 55.872 230.781 56.04 230.949C56.208 231.117 56.292 231.325 56.292 231.573C56.292 231.821 56.208 232.029 56.04 232.197C55.872 232.365 55.668 232.449 55.428 232.449ZM56.1 233.326V239.938H54.732V233.326H56.1ZM59.4921 234.441V238.101C59.4921 238.349 59.5481 238.529 59.6601 238.641C59.7801 238.745 59.9801 238.797 60.2601 238.797H61.1001V239.938H60.0201C59.4041 239.938 58.9321 239.793 58.6041 239.505C58.2761 239.217 58.1121 238.749 58.1121 238.101V234.441H57.3321V233.326H58.1121V231.681H59.4921V233.326H61.1001V234.441H59.4921ZM63.9569 234.441V238.101C63.9569 238.349 64.0129 238.529 64.1249 238.641C64.2449 238.745 64.4449 238.797 64.7249 238.797H65.5649V239.938H64.4849C63.8689 239.938 63.3969 239.793 63.0689 239.505C62.7409 239.217 62.5769 238.749 62.5769 238.101V234.441H61.7969V233.326H62.5769V231.681H63.9569V233.326H65.5649V234.441H63.9569ZM68.1938 231.057V239.938H66.8258V231.057H68.1938ZM76.0498 236.469C76.0498 236.717 76.0338 236.941 76.0018 237.141H70.9498C70.9898 237.669 71.1858 238.093 71.5378 238.413C71.8898 238.733 72.3218 238.893 72.8338 238.893C73.5698 238.893 74.0898 238.585 74.3938 237.969H75.8698C75.6698 238.577 75.3058 239.077 74.7778 239.469C74.2578 239.854 73.6098 240.046 72.8338 240.046C72.2018 240.046 71.6338 239.906 71.1298 239.625C70.6338 239.337 70.2418 238.937 69.9538 238.425C69.6738 237.905 69.5338 237.305 69.5338 236.625C69.5338 235.945 69.6698 235.349 69.9418 234.837C70.2218 234.317 70.6098 233.917 71.1058 233.637C71.6098 233.357 72.1858 233.217 72.8338 233.217C73.4578 233.217 74.0138 233.353 74.5018 233.625C74.9898 233.897 75.3698 234.281 75.6418 234.777C75.9138 235.265 76.0498 235.829 76.0498 236.469ZM74.6218 236.037C74.6138 235.533 74.4338 235.129 74.0818 234.825C73.7298 234.521 73.2938 234.369 72.7738 234.369C72.3018 234.369 71.8978 234.521 71.5618 234.825C71.2258 235.121 71.0258 235.525 70.9618 236.037H74.6218ZM83.2613 240.022C82.7013 240.022 82.1973 239.925 81.7493 239.733C81.3013 239.533 80.9493 239.253 80.6933 238.893C80.4373 238.533 80.3093 238.113 80.3093 237.633H81.7733C81.8053 237.993 81.9453 238.289 82.1933 238.521C82.4493 238.753 82.8053 238.869 83.2613 238.869C83.7333 238.869 84.1013 238.757 84.3653 238.533C84.6293 238.301 84.7613 238.005 84.7613 237.645C84.7613 237.365 84.6773 237.137 84.5093 236.961C84.3493 236.785 84.1453 236.649 83.8973 236.553C83.6573 236.457 83.3213 236.353 82.8893 236.241C82.3453 236.097 81.9013 235.953 81.5573 235.809C81.2213 235.657 80.9333 235.425 80.6933 235.113C80.4533 234.801 80.3333 234.385 80.3333 233.865C80.3333 233.385 80.4533 232.965 80.6933 232.605C80.9333 232.245 81.2693 231.969 81.7013 231.777C82.1333 231.585 82.6333 231.489 83.2013 231.489C84.0093 231.489 84.6693 231.693 85.1813 232.101C85.7013 232.501 85.9893 233.053 86.0453 233.757H84.5333C84.5093 233.453 84.3653 233.193 84.1013 232.977C83.8373 232.761 83.4893 232.653 83.0573 232.653C82.6653 232.653 82.3453 232.753 82.0973 232.953C81.8493 233.153 81.7253 233.441 81.7253 233.817C81.7253 234.073 81.8013 234.285 81.9533 234.453C82.1133 234.613 82.3133 234.741 82.5533 234.837C82.7933 234.933 83.1213 235.037 83.5373 235.149C84.0893 235.301 84.5373 235.453 84.8813 235.605C85.2333 235.757 85.5293 235.993 85.7693 236.313C86.0173 236.625 86.1413 237.045 86.1413 237.573C86.1413 237.997 86.0253 238.397 85.7933 238.773C85.5693 239.149 85.2373 239.453 84.7973 239.685C84.3653 239.909 83.8533 240.022 83.2613 240.022ZM88.4515 232.449C88.2035 232.449 87.9955 232.365 87.8275 232.197C87.6595 232.029 87.5755 231.821 87.5755 231.573C87.5755 231.325 87.6595 231.117 87.8275 230.949C87.9955 230.781 88.2035 230.697 88.4515 230.697C88.6915 230.697 88.8955 230.781 89.0635 230.949C89.2315 231.117 89.3155 231.325 89.3155 231.573C89.3155 231.821 89.2315 232.029 89.0635 232.197C88.8955 232.365 88.6915 232.449 88.4515 232.449ZM89.1235 233.326V239.938H87.7555V233.326H89.1235ZM93.3195 240.046C92.7995 240.046 92.3315 239.954 91.9155 239.769C91.5075 239.577 91.1835 239.321 90.9435 239.001C90.7035 238.673 90.5755 238.309 90.5595 237.909H91.9755C91.9995 238.189 92.1315 238.425 92.3715 238.617C92.6195 238.801 92.9275 238.893 93.2955 238.893C93.6795 238.893 93.9755 238.821 94.1835 238.677C94.3995 238.525 94.5075 238.333 94.5075 238.101C94.5075 237.853 94.3875 237.669 94.1475 237.549C93.9155 237.429 93.5435 237.297 93.0315 237.153C92.5355 237.017 92.1315 236.885 91.8195 236.757C91.5075 236.629 91.2355 236.433 91.0035 236.169C90.7795 235.905 90.6675 235.557 90.6675 235.125C90.6675 234.773 90.7715 234.453 90.9795 234.165C91.1875 233.869 91.4835 233.637 91.8675 233.469C92.2595 233.301 92.7075 233.217 93.2115 233.217C93.9635 233.217 94.5675 233.409 95.0235 233.793C95.4875 234.169 95.7355 234.685 95.7675 235.341H94.3995C94.3755 235.045 94.2555 234.809 94.0395 234.633C93.8235 234.457 93.5315 234.369 93.1635 234.369C92.8035 234.369 92.5275 234.437 92.3355 234.573C92.1435 234.709 92.0475 234.889 92.0475 235.113C92.0475 235.289 92.1115 235.437 92.2395 235.557C92.3675 235.677 92.5235 235.773 92.7075 235.845C92.8915 235.909 93.1635 235.993 93.5235 236.097C94.0035 236.225 94.3955 236.357 94.6995 236.493C95.0115 236.621 95.2795 236.813 95.5035 237.069C95.7275 237.325 95.8435 237.665 95.8515 238.089C95.8515 238.465 95.7475 238.801 95.5395 239.097C95.3315 239.394 95.0355 239.626 94.6515 239.793C94.2755 239.962 93.8315 240.046 93.3195 240.046Z" fill="white"/>
<rect x="48.5" y="254.312" width="270" height="22" rx="11" fill="white" fill-opacity="0.18"/>
<rect x="48.5" y="278.562" width="226.5" height="22" rx="11" fill="white" fill-opacity="0.18"/>
<path d="M60.26 325.222L57.788 333.562H56.24L54.488 327.25L52.628 333.562L51.092 333.575L48.728 325.222H50.18L51.908 332.014L53.78 325.222H55.316L57.056 331.979L58.796 325.222H60.26ZM62.0843 326.074C61.8363 326.074 61.6283 325.99 61.4603 325.822C61.2923 325.654 61.2083 325.446 61.2083 325.198C61.2083 324.95 61.2923 324.742 61.4603 324.574C61.6283 324.406 61.8363 324.322 62.0843 324.322C62.3243 324.322 62.5283 324.406 62.6963 324.574C62.8643 324.742 62.9483 324.95 62.9483 325.198C62.9483 325.446 62.8643 325.654 62.6963 325.822C62.5283 325.99 62.3243 326.074 62.0843 326.074ZM62.7563 326.951V333.562H61.3883V326.951H62.7563ZM67.1683 330.262L70.2163 333.562H68.3683L65.9203 330.718V333.562H64.5523V324.682H65.9203V329.842L68.3203 326.951H70.2163L67.1683 330.262ZM71.8929 326.074C71.6449 326.074 71.4369 325.99 71.2689 325.822C71.1009 325.654 71.0169 325.446 71.0169 325.198C71.0169 324.95 71.1009 324.742 71.2689 324.574C71.4369 324.406 71.6449 324.322 71.8929 324.322C72.1329 324.322 72.3369 324.406 72.5049 324.574C72.6729 324.742 72.7569 324.95 72.7569 325.198C72.7569 325.446 72.6729 325.654 72.5049 325.822C72.3369 325.99 72.1329 326.074 71.8929 326.074ZM72.5649 326.951V333.562H71.1969V326.951H72.5649ZM75.7289 327.922C75.9609 327.618 76.2769 327.362 76.6769 327.154C77.0769 326.946 77.5289 326.842 78.0329 326.842C78.6089 326.842 79.1329 326.986 79.6049 327.274C80.0849 327.554 80.4609 327.95 80.7329 328.462C81.0049 328.974 81.1409 329.562 81.1409 330.226C81.1409 330.89 81.0049 331.486 80.7329 332.014C80.4609 332.534 80.0849 332.942 79.6049 333.238C79.1329 333.527 78.6089 333.671 78.0329 333.671C77.5289 333.671 77.0809 333.571 76.6889 333.37C76.2969 333.162 75.9769 332.906 75.7289 332.602V336.707H74.3609V326.951H75.7289V327.922ZM79.7489 330.226C79.7489 329.77 79.6529 329.378 79.4609 329.05C79.2769 328.714 79.0289 328.462 78.7169 328.294C78.4129 328.118 78.0849 328.03 77.7329 328.03C77.3889 328.03 77.0609 328.118 76.7489 328.294C76.4449 328.47 76.1969 328.726 76.0049 329.062C75.8209 329.398 75.7289 329.794 75.7289 330.25C75.7289 330.706 75.8209 331.106 76.0049 331.45C76.1969 331.786 76.4449 332.042 76.7489 332.218C77.0609 332.394 77.3889 332.482 77.7329 332.482C78.0849 332.482 78.4129 332.394 78.7169 332.218C79.0289 332.034 79.2769 331.77 79.4609 331.426C79.6529 331.082 79.7489 330.682 79.7489 330.226ZM88.5538 330.094C88.5538 330.342 88.5378 330.566 88.5058 330.766H83.4538C83.4938 331.294 83.6898 331.718 84.0418 332.038C84.3938 332.358 84.8258 332.518 85.3378 332.518C86.0738 332.518 86.5938 332.21 86.8978 331.594H88.3737C88.1738 332.202 87.8098 332.702 87.2818 333.094C86.7618 333.479 86.1138 333.671 85.3378 333.671C84.7058 333.671 84.1378 333.531 83.6338 333.25C83.1378 332.962 82.7458 332.562 82.4578 332.05C82.1778 331.53 82.0378 330.93 82.0378 330.25C82.0378 329.57 82.1738 328.974 82.4458 328.462C82.7258 327.942 83.1138 327.542 83.6098 327.262C84.1138 326.982 84.6898 326.842 85.3378 326.842C85.9618 326.842 86.5178 326.978 87.0058 327.25C87.4938 327.522 87.8738 327.906 88.1458 328.402C88.4178 328.89 88.5538 329.454 88.5538 330.094ZM87.1258 329.662C87.1178 329.158 86.9378 328.754 86.5858 328.45C86.2338 328.146 85.7978 327.994 85.2778 327.994C84.8058 327.994 84.4018 328.146 84.0658 328.45C83.7298 328.746 83.5298 329.15 83.4658 329.662H87.1258ZM89.444 330.226C89.444 329.562 89.58 328.974 89.852 328.462C90.132 327.95 90.508 327.554 90.98 327.274C91.46 326.986 91.992 326.842 92.576 326.842C93.008 326.842 93.432 326.938 93.848 327.13C94.272 327.314 94.608 327.562 94.856 327.874V324.682H96.236V333.562H94.856V332.566C94.632 332.886 94.32 333.15 93.92 333.358C93.528 333.567 93.076 333.671 92.564 333.671C91.988 333.671 91.46 333.527 90.98 333.238C90.508 332.942 90.132 332.534 89.852 332.014C89.58 331.486 89.444 330.89 89.444 330.226ZM94.856 330.25C94.856 329.794 94.76 329.398 94.568 329.062C94.384 328.726 94.14 328.47 93.836 328.294C93.532 328.118 93.204 328.03 92.852 328.03C92.5 328.03 92.172 328.118 91.868 328.294C91.564 328.462 91.316 328.714 91.124 329.05C90.94 329.378 90.848 329.77 90.848 330.226C90.848 330.682 90.94 331.082 91.124 331.426C91.316 331.77 91.564 332.034 91.868 332.218C92.18 332.394 92.508 332.482 92.852 332.482C93.204 332.482 93.532 332.394 93.836 332.218C94.14 332.042 94.384 331.786 94.568 331.45C94.76 331.106 94.856 330.706 94.856 330.25ZM98.7288 326.074C98.4808 326.074 98.2728 325.99 98.1048 325.822C97.9368 325.654 97.8528 325.446 97.8528 325.198C97.8528 324.95 97.9368 324.742 98.1048 324.574C98.2728 324.406 98.4808 324.322 98.7288 324.322C98.9688 324.322 99.1728 324.406 99.3408 324.574C99.5088 324.742 99.5928 324.95 99.5928 325.198C99.5928 325.446 99.5088 325.654 99.3408 325.822C99.1728 325.99 98.9688 326.074 98.7288 326.074ZM99.4008 326.951V333.562H98.0328V326.951H99.4008ZM100.741 330.226C100.741 329.562 100.877 328.974 101.149 328.462C101.429 327.95 101.805 327.554 102.277 327.274C102.757 326.986 103.285 326.842 103.861 326.842C104.381 326.842 104.833 326.946 105.217 327.154C105.609 327.354 105.921 327.606 106.153 327.91V326.951H107.533V333.562H106.153V332.578C105.921 332.89 105.605 333.15 105.205 333.358C104.805 333.567 104.349 333.671 103.837 333.671C103.269 333.671 102.749 333.527 102.277 333.238C101.805 332.942 101.429 332.534 101.149 332.014C100.877 331.486 100.741 330.89 100.741 330.226ZM106.153 330.25C106.153 329.794 106.057 329.398 105.865 329.062C105.681 328.726 105.437 328.47 105.133 328.294C104.829 328.118 104.501 328.03 104.149 328.03C103.797 328.03 103.469 328.118 103.165 328.294C102.861 328.462 102.613 328.714 102.421 329.05C102.237 329.378 102.145 329.77 102.145 330.226C102.145 330.682 102.237 331.082 102.421 331.426C102.613 331.77 102.861 332.034 103.165 332.218C103.477 332.394 103.805 332.482 104.149 332.482C104.501 332.482 104.829 332.394 105.133 332.218C105.437 332.042 105.681 331.786 105.865 331.45C106.057 331.106 106.153 330.706 106.153 330.25Z" fill="white"/>
<rect x="48.5" y="347.938" width="270" height="22" rx="11" fill="white" fill-opacity="0.18"/>
<rect x="48.5" y="372.688" width="239.5" height="22" rx="11" fill="white" fill-opacity="0.18"/>
<rect x="48.5" y="398.188" width="195.5" height="22" rx="11" fill="white" fill-opacity="0.18"/>
<path opacity="0.1" d="M33 478C33 466.954 41.9543 458 53 458H314C325.046 458 334 466.954 334 478C334 489.046 325.046 498 314 498H53C41.9543 498 33 489.046 33 478Z" fill="white"/>
<circle cx="464.534" cy="173" r="11.5" stroke="white" stroke-opacity="0.3"/>
<circle cx="687.75" cy="173" r="11.5" stroke="white" stroke-opacity="0.3"/>
<circle cx="575.023" cy="257" r="11.5" stroke="white" stroke-opacity="0.3"/>
<circle cx="575.023" cy="299" r="11.5" stroke="white" stroke-opacity="0.3"/>
<circle cx="687.75" cy="387" r="11.5" stroke="white" stroke-opacity="0.3"/>
</svg>
