<svg width="917" height="530" viewBox="0 0 917 530" fill="none" xmlns="http://www.w3.org/2000/svg">
<rect x="17" y="55" width="333" height="459" rx="32" fill="white" fill-opacity="0.1"/>
<path d="M59.5166 15.66L57.0446 24H55.4966L53.7446 17.688L51.8846 24L50.3486 24.012L47.9846 15.66H49.4366L51.1646 22.452L53.0366 15.66H54.5726L56.3126 22.416L58.0526 15.66H59.5166ZM66.7049 20.532C66.7049 20.78 66.6889 21.004 66.6569 21.204H61.6049C61.6449 21.732 61.8409 22.156 62.1929 22.476C62.5449 22.796 62.9769 22.956 63.4889 22.956C64.2249 22.956 64.7449 22.648 65.0489 22.032H66.5249C66.3249 22.64 65.9609 23.14 65.4329 23.532C64.9129 23.916 64.2649 24.108 63.4889 24.108C62.8569 24.108 62.2889 23.968 61.7849 23.688C61.2889 23.4 60.8969 23 60.6089 22.488C60.3289 21.968 60.1889 21.368 60.1889 20.688C60.1889 20.008 60.3249 19.412 60.5969 18.9C60.8769 18.38 61.2649 17.98 61.7609 17.7C62.2649 17.42 62.8409 17.28 63.4889 17.28C64.1129 17.28 64.6689 17.416 65.1569 17.688C65.6449 17.96 66.0249 18.344 66.2969 18.84C66.5689 19.328 66.7049 19.892 66.7049 20.532ZM65.2769 20.1C65.2689 19.596 65.0889 19.192 64.7369 18.888C64.3849 18.584 63.9489 18.432 63.4289 18.432C62.9569 18.432 62.5529 18.584 62.2169 18.888C61.8809 19.184 61.6809 19.588 61.6169 20.1H65.2769ZM69.4191 18.372C69.6511 18.052 69.9671 17.792 70.3671 17.592C70.7751 17.384 71.2271 17.28 71.7231 17.28C72.3071 17.28 72.8351 17.42 73.3071 17.7C73.7791 17.98 74.1511 18.38 74.4231 18.9C74.6951 19.412 74.8311 20 74.8311 20.664C74.8311 21.328 74.6951 21.924 74.4231 22.452C74.1511 22.972 73.7751 23.38 73.2951 23.676C72.8231 23.964 72.2991 24.108 71.7231 24.108C71.2111 24.108 70.7551 24.008 70.3551 23.808C69.9631 23.608 69.6511 23.352 69.4191 23.04V24H68.0511V15.12H69.4191V18.372ZM73.4391 20.664C73.4391 20.208 73.3431 19.816 73.1511 19.488C72.9671 19.152 72.7191 18.9 72.4071 18.732C72.1031 18.556 71.7751 18.468 71.4231 18.468C71.0791 18.468 70.7511 18.556 70.4391 18.732C70.1351 18.908 69.8871 19.164 69.6951 19.5C69.5111 19.836 69.4191 20.232 69.4191 20.688C69.4191 21.144 69.5111 21.544 69.6951 21.888C69.8871 22.224 70.1351 22.48 70.4391 22.656C70.7511 22.832 71.0791 22.92 71.4231 22.92C71.7751 22.92 72.1031 22.832 72.4071 22.656C72.7191 22.472 72.9671 22.208 73.1511 21.864C73.3431 21.52 73.4391 21.12 73.4391 20.664ZM85.7451 24L84.7131 22.968C84.3131 23.368 83.8771 23.668 83.4051 23.868C82.9331 24.06 82.4051 24.156 81.8211 24.156C81.2291 24.156 80.7051 24.052 80.2491 23.844C79.7931 23.636 79.4411 23.34 79.1931 22.956C78.9451 22.564 78.8211 22.112 78.8211 21.6C78.8211 21.024 78.9851 20.512 79.3131 20.064C79.6411 19.608 80.1291 19.248 80.7771 18.984C80.5451 18.704 80.3811 18.444 80.2851 18.204C80.1891 17.956 80.1411 17.684 80.1411 17.388C80.1411 17.02 80.2331 16.692 80.4171 16.404C80.6091 16.116 80.8811 15.888 81.2331 15.72C81.5851 15.552 81.9931 15.468 82.4571 15.468C82.9291 15.468 83.3291 15.56 83.6571 15.744C83.9931 15.92 84.2411 16.164 84.4011 16.476C84.5691 16.788 84.6371 17.136 84.6051 17.52H83.2371C83.2451 17.224 83.1731 16.996 83.0211 16.836C82.8691 16.668 82.6611 16.584 82.3971 16.584C82.1331 16.584 81.9171 16.664 81.7491 16.824C81.5891 16.976 81.5091 17.164 81.5091 17.388C81.5091 17.604 81.5691 17.82 81.6891 18.036C81.8171 18.244 82.0371 18.516 82.3491 18.852L84.5571 21.048L85.4091 19.644H86.8851L85.8051 21.492L85.5051 21.984L87.5331 24H85.7451ZM81.8211 22.992C82.5731 22.992 83.2371 22.684 83.8131 22.068L81.6051 19.848C80.6611 20.224 80.1891 20.792 80.1891 21.552C80.1891 21.96 80.3411 22.304 80.6451 22.584C80.9491 22.856 81.3411 22.992 81.8211 22.992ZM94.2712 15.66C95.1592 15.66 95.9352 15.832 96.5992 16.176C97.2712 16.512 97.7872 17 98.1472 17.64C98.5152 18.272 98.6992 19.012 98.6992 19.86C98.6992 20.708 98.5152 21.444 98.1472 22.068C97.7872 22.692 97.2712 23.172 96.5992 23.508C95.9352 23.836 95.1592 24 94.2712 24H91.5472V15.66H94.2712ZM94.2712 22.884C95.2472 22.884 95.9952 22.62 96.5152 22.092C97.0352 21.564 97.2952 20.82 97.2952 19.86C97.2952 18.892 97.0352 18.136 96.5152 17.592C95.9952 17.048 95.2472 16.776 94.2712 16.776H92.9152V22.884H94.2712ZM99.599 20.664C99.599 20 99.735 19.412 100.007 18.9C100.287 18.388 100.663 17.992 101.135 17.712C101.615 17.424 102.143 17.28 102.719 17.28C103.239 17.28 103.691 17.384 104.075 17.592C104.467 17.792 104.779 18.044 105.011 18.348V17.388H106.391V24H105.011V23.016C104.779 23.328 104.463 23.588 104.063 23.796C103.663 24.004 103.207 24.108 102.695 24.108C102.127 24.108 101.607 23.964 101.135 23.676C100.663 23.38 100.287 22.972 100.007 22.452C99.735 21.924 99.599 21.328 99.599 20.664ZM105.011 20.688C105.011 20.232 104.915 19.836 104.723 19.5C104.539 19.164 104.295 18.908 103.991 18.732C103.687 18.556 103.359 18.468 103.007 18.468C102.655 18.468 102.327 18.556 102.023 18.732C101.719 18.9 101.471 19.152 101.279 19.488C101.095 19.816 101.003 20.208 101.003 20.664C101.003 21.12 101.095 21.52 101.279 21.864C101.471 22.208 101.719 22.472 102.023 22.656C102.335 22.832 102.663 22.92 103.007 22.92C103.359 22.92 103.687 22.832 103.991 22.656C104.295 22.48 104.539 22.224 104.723 21.888C104.915 21.544 105.011 21.144 105.011 20.688ZM109.784 18.504V22.164C109.784 22.412 109.84 22.592 109.952 22.704C110.072 22.808 110.272 22.86 110.552 22.86H111.392V24H110.312C109.696 24 109.224 23.856 108.896 23.568C108.568 23.28 108.404 22.812 108.404 22.164V18.504H107.624V17.388H108.404V15.744H109.784V17.388H111.392V18.504H109.784ZM112.197 20.664C112.197 20 112.333 19.412 112.605 18.9C112.885 18.388 113.261 17.992 113.733 17.712C114.213 17.424 114.741 17.28 115.317 17.28C115.837 17.28 116.289 17.384 116.673 17.592C117.065 17.792 117.377 18.044 117.609 18.348V17.388H118.989V24H117.609V23.016C117.377 23.328 117.061 23.588 116.661 23.796C116.261 24.004 115.805 24.108 115.293 24.108C114.725 24.108 114.205 23.964 113.733 23.676C113.261 23.38 112.885 22.972 112.605 22.452C112.333 21.924 112.197 21.328 112.197 20.664ZM117.609 20.688C117.609 20.232 117.513 19.836 117.321 19.5C117.137 19.164 116.893 18.908 116.589 18.732C116.285 18.556 115.957 18.468 115.605 18.468C115.253 18.468 114.925 18.556 114.621 18.732C114.317 18.9 114.069 19.152 113.877 19.488C113.693 19.816 113.601 20.208 113.601 20.664C113.601 21.12 113.693 21.52 113.877 21.864C114.069 22.208 114.317 22.472 114.621 22.656C114.933 22.832 115.261 22.92 115.605 22.92C115.957 22.92 116.285 22.832 116.589 22.656C116.893 22.48 117.137 22.224 117.321 21.888C117.513 21.544 117.609 21.144 117.609 20.688ZM122.153 18.372C122.385 18.052 122.701 17.792 123.101 17.592C123.509 17.384 123.961 17.28 124.457 17.28C125.041 17.28 125.569 17.42 126.041 17.7C126.513 17.98 126.885 18.38 127.157 18.9C127.429 19.412 127.565 20 127.565 20.664C127.565 21.328 127.429 21.924 127.157 22.452C126.885 22.972 126.509 23.38 126.029 23.676C125.557 23.964 125.033 24.108 124.457 24.108C123.945 24.108 123.489 24.008 123.089 23.808C122.697 23.608 122.385 23.352 122.153 23.04V24H120.785V15.12H122.153V18.372ZM126.173 20.664C126.173 20.208 126.077 19.816 125.885 19.488C125.701 19.152 125.453 18.9 125.141 18.732C124.837 18.556 124.509 18.468 124.157 18.468C123.813 18.468 123.485 18.556 123.173 18.732C122.869 18.908 122.621 19.164 122.429 19.5C122.245 19.836 122.153 20.232 122.153 20.688C122.153 21.144 122.245 21.544 122.429 21.888C122.621 22.224 122.869 22.48 123.173 22.656C123.485 22.832 123.813 22.92 124.157 22.92C124.509 22.92 124.837 22.832 125.141 22.656C125.453 22.472 125.701 22.208 125.885 21.864C126.077 21.52 126.173 21.12 126.173 20.664ZM128.462 20.664C128.462 20 128.598 19.412 128.87 18.9C129.15 18.388 129.526 17.992 129.998 17.712C130.478 17.424 131.006 17.28 131.582 17.28C132.102 17.28 132.554 17.384 132.938 17.592C133.33 17.792 133.642 18.044 133.874 18.348V17.388H135.254V24H133.874V23.016C133.642 23.328 133.326 23.588 132.926 23.796C132.526 24.004 132.07 24.108 131.558 24.108C130.99 24.108 130.47 23.964 129.998 23.676C129.526 23.38 129.15 22.972 128.87 22.452C128.598 21.924 128.462 21.328 128.462 20.664ZM133.874 20.688C133.874 20.232 133.778 19.836 133.586 19.5C133.402 19.164 133.158 18.908 132.854 18.732C132.55 18.556 132.222 18.468 131.87 18.468C131.518 18.468 131.19 18.556 130.886 18.732C130.582 18.9 130.334 19.152 130.142 19.488C129.958 19.816 129.866 20.208 129.866 20.664C129.866 21.12 129.958 21.52 130.142 21.864C130.334 22.208 130.582 22.472 130.886 22.656C131.198 22.832 131.526 22.92 131.87 22.92C132.222 22.92 132.55 22.832 132.854 22.656C133.158 22.48 133.402 22.224 133.586 21.888C133.778 21.544 133.874 21.144 133.874 20.688ZM139.451 24.108C138.931 24.108 138.463 24.016 138.047 23.832C137.639 23.64 137.315 23.384 137.075 23.064C136.835 22.736 136.707 22.372 136.691 21.972H138.107C138.131 22.252 138.263 22.488 138.503 22.68C138.751 22.864 139.059 22.956 139.427 22.956C139.811 22.956 140.107 22.884 140.315 22.74C140.531 22.588 140.639 22.396 140.639 22.164C140.639 21.916 140.519 21.732 140.279 21.612C140.047 21.492 139.675 21.36 139.163 21.216C138.667 21.08 138.263 20.948 137.951 20.82C137.639 20.692 137.367 20.496 137.135 20.232C136.911 19.968 136.799 19.62 136.799 19.188C136.799 18.836 136.903 18.516 137.111 18.228C137.319 17.932 137.615 17.7 137.999 17.532C138.391 17.364 138.839 17.28 139.343 17.28C140.095 17.28 140.699 17.472 141.155 17.856C141.619 18.232 141.867 18.748 141.899 19.404H140.531C140.507 19.108 140.387 18.872 140.171 18.696C139.955 18.52 139.663 18.432 139.295 18.432C138.935 18.432 138.659 18.5 138.467 18.636C138.275 18.772 138.179 18.952 138.179 19.176C138.179 19.352 138.243 19.5 138.371 19.62C138.499 19.74 138.655 19.836 138.839 19.908C139.023 19.972 139.295 20.056 139.655 20.16C140.135 20.288 140.527 20.42 140.831 20.556C141.143 20.684 141.411 20.876 141.635 21.132C141.859 21.388 141.975 21.728 141.983 22.152C141.983 22.528 141.879 22.864 141.671 23.16C141.463 23.456 141.167 23.688 140.783 23.856C140.407 24.024 139.963 24.108 139.451 24.108ZM149.521 20.532C149.521 20.78 149.505 21.004 149.473 21.204H144.421C144.461 21.732 144.657 22.156 145.009 22.476C145.361 22.796 145.793 22.956 146.305 22.956C147.041 22.956 147.561 22.648 147.865 22.032H149.341C149.141 22.64 148.777 23.14 148.249 23.532C147.729 23.916 147.081 24.108 146.305 24.108C145.673 24.108 145.105 23.968 144.601 23.688C144.105 23.4 143.713 23 143.425 22.488C143.145 21.968 143.005 21.368 143.005 20.688C143.005 20.008 143.141 19.412 143.413 18.9C143.693 18.38 144.081 17.98 144.577 17.7C145.081 17.42 145.657 17.28 146.305 17.28C146.929 17.28 147.485 17.416 147.973 17.688C148.461 17.96 148.841 18.344 149.113 18.84C149.385 19.328 149.521 19.892 149.521 20.532ZM148.093 20.1C148.085 19.596 147.905 19.192 147.553 18.888C147.201 18.584 146.765 18.432 146.245 18.432C145.773 18.432 145.369 18.584 145.033 18.888C144.697 19.184 144.497 19.588 144.433 20.1H148.093ZM156.733 24.084C156.173 24.084 155.669 23.988 155.221 23.796C154.773 23.596 154.421 23.316 154.165 22.956C153.909 22.596 153.781 22.176 153.781 21.696H155.245C155.277 22.056 155.417 22.352 155.665 22.584C155.921 22.816 156.277 22.932 156.733 22.932C157.205 22.932 157.573 22.82 157.837 22.596C158.101 22.364 158.233 22.068 158.233 21.708C158.233 21.428 158.149 21.2 157.981 21.024C157.821 20.848 157.617 20.712 157.369 20.616C157.129 20.52 156.793 20.416 156.361 20.304C155.817 20.16 155.373 20.016 155.029 19.872C154.693 19.72 154.405 19.488 154.165 19.176C153.925 18.864 153.805 18.448 153.805 17.928C153.805 17.448 153.925 17.028 154.165 16.668C154.405 16.308 154.741 16.032 155.173 15.84C155.605 15.648 156.105 15.552 156.673 15.552C157.481 15.552 158.141 15.756 158.653 16.164C159.173 16.564 159.461 17.116 159.517 17.82H158.005C157.981 17.516 157.837 17.256 157.573 17.04C157.309 16.824 156.961 16.716 156.529 16.716C156.137 16.716 155.817 16.816 155.569 17.016C155.321 17.216 155.197 17.504 155.197 17.88C155.197 18.136 155.273 18.348 155.425 18.516C155.585 18.676 155.785 18.804 156.025 18.9C156.265 18.996 156.593 19.1 157.009 19.212C157.561 19.364 158.009 19.516 158.353 19.668C158.705 19.82 159.001 20.056 159.241 20.376C159.489 20.688 159.613 21.108 159.613 21.636C159.613 22.06 159.497 22.46 159.265 22.836C159.041 23.212 158.709 23.516 158.269 23.748C157.837 23.972 157.325 24.084 156.733 24.084ZM167.287 20.532C167.287 20.78 167.271 21.004 167.239 21.204H162.187C162.227 21.732 162.423 22.156 162.775 22.476C163.127 22.796 163.559 22.956 164.071 22.956C164.807 22.956 165.327 22.648 165.631 22.032H167.107C166.907 22.64 166.543 23.14 166.015 23.532C165.495 23.916 164.847 24.108 164.071 24.108C163.439 24.108 162.871 23.968 162.367 23.688C161.871 23.4 161.479 23 161.191 22.488C160.911 21.968 160.771 21.368 160.771 20.688C160.771 20.008 160.907 19.412 161.179 18.9C161.459 18.38 161.847 17.98 162.343 17.7C162.847 17.42 163.423 17.28 164.071 17.28C164.695 17.28 165.251 17.416 165.739 17.688C166.227 17.96 166.607 18.344 166.879 18.84C167.151 19.328 167.287 19.892 167.287 20.532ZM165.859 20.1C165.851 19.596 165.671 19.192 165.319 18.888C164.967 18.584 164.531 18.432 164.011 18.432C163.539 18.432 163.135 18.584 162.799 18.888C162.463 19.184 162.263 19.588 162.199 20.1H165.859ZM168.177 20.664C168.177 20 168.313 19.412 168.585 18.9C168.865 18.388 169.241 17.992 169.713 17.712C170.193 17.424 170.721 17.28 171.297 17.28C171.817 17.28 172.269 17.384 172.653 17.592C173.045 17.792 173.357 18.044 173.589 18.348V17.388H174.969V24H173.589V23.016C173.357 23.328 173.041 23.588 172.641 23.796C172.241 24.004 171.785 24.108 171.273 24.108C170.705 24.108 170.185 23.964 169.713 23.676C169.241 23.38 168.865 22.972 168.585 22.452C168.313 21.924 168.177 21.328 168.177 20.664ZM173.589 20.688C173.589 20.232 173.493 19.836 173.301 19.5C173.117 19.164 172.873 18.908 172.569 18.732C172.265 18.556 171.937 18.468 171.585 18.468C171.233 18.468 170.905 18.556 170.601 18.732C170.297 18.9 170.049 19.152 169.857 19.488C169.673 19.816 169.581 20.208 169.581 20.664C169.581 21.12 169.673 21.52 169.857 21.864C170.049 22.208 170.297 22.472 170.601 22.656C170.913 22.832 171.241 22.92 171.585 22.92C171.937 22.92 172.265 22.832 172.569 22.656C172.873 22.48 173.117 22.224 173.301 21.888C173.493 21.544 173.589 21.144 173.589 20.688ZM178.134 18.348C178.334 18.012 178.598 17.752 178.926 17.568C179.262 17.376 179.658 17.28 180.114 17.28V18.696H179.766C179.23 18.696 178.822 18.832 178.542 19.104C178.27 19.376 178.134 19.848 178.134 20.52V24H176.766V17.388H178.134V18.348ZM180.915 20.688C180.915 20.008 181.051 19.412 181.323 18.9C181.603 18.38 181.987 17.98 182.475 17.7C182.963 17.42 183.523 17.28 184.155 17.28C184.955 17.28 185.615 17.472 186.135 17.856C186.663 18.232 187.019 18.772 187.203 19.476H185.727C185.607 19.148 185.415 18.892 185.151 18.708C184.887 18.524 184.555 18.432 184.155 18.432C183.595 18.432 183.147 18.632 182.811 19.032C182.483 19.424 182.319 19.976 182.319 20.688C182.319 21.4 182.483 21.956 182.811 22.356C183.147 22.756 183.595 22.956 184.155 22.956C184.947 22.956 185.471 22.608 185.727 21.912H187.203C187.011 22.584 186.651 23.12 186.123 23.52C185.595 23.912 184.939 24.108 184.155 24.108C183.523 24.108 182.963 23.968 182.475 23.688C181.987 23.4 181.603 23 181.323 22.488C181.051 21.968 180.915 21.368 180.915 20.688ZM191.987 17.28C192.491 17.28 192.939 17.388 193.331 17.604C193.731 17.82 194.043 18.14 194.267 18.564C194.499 18.988 194.615 19.5 194.615 20.1V24H193.259V20.304C193.259 19.712 193.111 19.26 192.815 18.948C192.519 18.628 192.115 18.468 191.603 18.468C191.091 18.468 190.683 18.628 190.379 18.948C190.083 19.26 189.935 19.712 189.935 20.304V24H188.567V15.12H189.935V18.156C190.167 17.876 190.459 17.66 190.811 17.508C191.171 17.356 191.563 17.28 191.987 17.28Z" fill="white"/>
<g opacity="0.5">
<circle cx="464.534" cy="173" r="11.5" stroke="white"/>
<circle cx="687.75" cy="173" r="11.5" stroke="white"/>
<path d="M687.534 185.5C683.2 193.167 669.134 208.5 647.534 208.5C625.934 208.5 613.867 208.5 610.534 208.5C599.2 209.833 576.534 218.9 576.534 244.5" stroke="white" stroke-dasharray="3 3"/>
<path d="M465.534 185.5C469.867 193.167 483.934 208.5 505.534 208.5C527.134 208.5 539.2 208.5 542.534 208.5C553.867 209.833 576.534 218.9 576.534 244.5" stroke="white" stroke-dasharray="3 3"/>
<path d="M573.75 314.5C578.083 322.167 592.15 337.5 613.75 337.5C635.35 337.5 647.417 337.5 650.75 337.5C662.083 338.833 684.75 347.9 684.75 373.5" stroke="white" stroke-dasharray="3 3"/>
<circle cx="575.023" cy="257" r="11.5" stroke="white"/>
<path d="M575.023 270V286" stroke="white" stroke-dasharray="3 3"/>
<circle cx="575.023" cy="299" r="11.5" stroke="white"/>
<circle opacity="0.3" cx="687.75" cy="387" r="11.5" stroke="white"/>
</g>
</svg>
