<svg width="917" height="530" viewBox="0 0 917 530" fill="none" xmlns="http://www.w3.org/2000/svg">
<circle opacity="0.2" cx="59" cy="172" r="11" fill="black"/>
<path d="M85.232 170.644C85.232 171.068 85.132 171.468 84.932 171.844C84.732 172.22 84.412 172.528 83.972 172.768C83.532 173 82.968 173.116 82.28 173.116H80.768V176.5H79.4V168.16H82.28C82.92 168.16 83.46 168.272 83.9 168.496C84.348 168.712 84.68 169.008 84.896 169.384C85.12 169.76 85.232 170.18 85.232 170.644ZM82.28 172C82.8 172 83.188 171.884 83.444 171.652C83.7 171.412 83.828 171.076 83.828 170.644C83.828 169.732 83.312 169.276 82.28 169.276H80.768V172H82.28ZM92.5967 173.032C92.5967 173.28 92.5807 173.504 92.5487 173.704H87.4967C87.5367 174.232 87.7327 174.656 88.0847 174.976C88.4367 175.296 88.8687 175.456 89.3807 175.456C90.1167 175.456 90.6367 175.148 90.9407 174.532H92.4167C92.2167 175.14 91.8527 175.64 91.3247 176.032C90.8047 176.416 90.1567 176.608 89.3807 176.608C88.7487 176.608 88.1807 176.468 87.6767 176.188C87.1807 175.9 86.7887 175.5 86.5007 174.988C86.2207 174.468 86.0807 173.868 86.0807 173.188C86.0807 172.508 86.2167 171.912 86.4887 171.4C86.7687 170.88 87.1567 170.48 87.6527 170.2C88.1567 169.92 88.7327 169.78 89.3807 169.78C90.0047 169.78 90.5607 169.916 91.0487 170.188C91.5367 170.46 91.9167 170.844 92.1887 171.34C92.4607 171.828 92.5967 172.392 92.5967 173.032ZM91.1687 172.6C91.1607 172.096 90.9807 171.692 90.6287 171.388C90.2767 171.084 89.8407 170.932 89.3207 170.932C88.8487 170.932 88.4447 171.084 88.1087 171.388C87.7727 171.684 87.5727 172.088 87.5087 172.6H91.1687ZM95.311 170.848C95.511 170.512 95.775 170.252 96.103 170.068C96.439 169.876 96.835 169.78 97.291 169.78V171.196H96.943C96.407 171.196 95.999 171.332 95.719 171.604C95.447 171.876 95.311 172.348 95.311 173.02V176.5H93.943V169.888H95.311V170.848ZM100.948 176.608C100.428 176.608 99.9604 176.516 99.5444 176.332C99.1364 176.14 98.8124 175.884 98.5724 175.564C98.3324 175.236 98.2044 174.872 98.1884 174.472H99.6044C99.6284 174.752 99.7604 174.988 100 175.18C100.248 175.364 100.556 175.456 100.924 175.456C101.308 175.456 101.604 175.384 101.812 175.24C102.028 175.088 102.136 174.896 102.136 174.664C102.136 174.416 102.016 174.232 101.776 174.112C101.544 173.992 101.172 173.86 100.66 173.716C100.164 173.58 99.7604 173.448 99.4484 173.32C99.1364 173.192 98.8644 172.996 98.6324 172.732C98.4084 172.468 98.2964 172.12 98.2964 171.688C98.2964 171.336 98.4004 171.016 98.6084 170.728C98.8164 170.432 99.1124 170.2 99.4964 170.032C99.8884 169.864 100.336 169.78 100.84 169.78C101.592 169.78 102.196 169.972 102.652 170.356C103.116 170.732 103.364 171.248 103.396 171.904H102.028C102.004 171.608 101.884 171.372 101.668 171.196C101.452 171.02 101.16 170.932 100.792 170.932C100.432 170.932 100.156 171 99.9644 171.136C99.7724 171.272 99.6764 171.452 99.6764 171.676C99.6764 171.852 99.7404 172 99.8684 172.12C99.9964 172.24 100.152 172.336 100.336 172.408C100.52 172.472 100.792 172.556 101.152 172.66C101.632 172.788 102.024 172.92 102.328 173.056C102.64 173.184 102.908 173.376 103.132 173.632C103.356 173.888 103.472 174.228 103.48 174.652C103.48 175.028 103.376 175.364 103.168 175.66C102.96 175.956 102.664 176.188 102.28 176.356C101.904 176.524 101.46 176.608 100.948 176.608ZM107.827 176.608C107.203 176.608 106.639 176.468 106.135 176.188C105.631 175.9 105.235 175.5 104.947 174.988C104.659 174.468 104.515 173.868 104.515 173.188C104.515 172.516 104.663 171.92 104.959 171.4C105.255 170.88 105.659 170.48 106.171 170.2C106.683 169.92 107.255 169.78 107.887 169.78C108.519 169.78 109.091 169.92 109.603 170.2C110.115 170.48 110.519 170.88 110.815 171.4C111.111 171.92 111.259 172.516 111.259 173.188C111.259 173.86 111.107 174.456 110.803 174.976C110.499 175.496 110.083 175.9 109.555 176.188C109.035 176.468 108.459 176.608 107.827 176.608ZM107.827 175.42C108.179 175.42 108.507 175.336 108.811 175.168C109.123 175 109.375 174.748 109.567 174.412C109.759 174.076 109.855 173.668 109.855 173.188C109.855 172.708 109.763 172.304 109.579 171.976C109.395 171.64 109.151 171.388 108.847 171.22C108.543 171.052 108.215 170.968 107.863 170.968C107.511 170.968 107.183 171.052 106.879 171.22C106.583 171.388 106.347 171.64 106.171 171.976C105.995 172.304 105.907 172.708 105.907 173.188C105.907 173.9 106.087 174.452 106.447 174.844C106.815 175.228 107.275 175.42 107.827 175.42ZM115.947 169.78C116.467 169.78 116.931 169.888 117.339 170.104C117.755 170.32 118.079 170.64 118.311 171.064C118.543 171.488 118.659 172 118.659 172.6V176.5H117.303V172.804C117.303 172.212 117.155 171.76 116.859 171.448C116.563 171.128 116.159 170.968 115.647 170.968C115.135 170.968 114.727 171.128 114.423 171.448C114.127 171.76 113.979 172.212 113.979 172.804V176.5H112.611V169.888H113.979V170.644C114.203 170.372 114.487 170.16 114.831 170.008C115.183 169.856 115.555 169.78 115.947 169.78ZM125.48 171.58V172.732H120.548V171.58H125.48ZM127.063 169V167.752H129.559V176.5H128.179V169H127.063ZM132.171 176.584C131.923 176.584 131.715 176.5 131.547 176.332C131.379 176.164 131.295 175.956 131.295 175.708C131.295 175.46 131.379 175.252 131.547 175.084C131.715 174.916 131.923 174.832 132.171 174.832C132.411 174.832 132.615 174.916 132.783 175.084C132.951 175.252 133.035 175.46 133.035 175.708C133.035 175.956 132.951 176.164 132.783 176.332C132.615 176.5 132.411 176.584 132.171 176.584ZM132.171 171.544C131.923 171.544 131.715 171.46 131.547 171.292C131.379 171.124 131.295 170.916 131.295 170.668C131.295 170.42 131.379 170.212 131.547 170.044C131.715 169.876 131.923 169.792 132.171 169.792C132.411 169.792 132.615 169.876 132.783 170.044C132.951 170.212 133.035 170.42 133.035 170.668C133.035 170.916 132.951 171.124 132.783 171.292C132.615 171.46 132.411 171.544 132.171 171.544Z" fill="black" fill-opacity="0.5"/>
<circle cx="59" cy="267.5" r="10.5" stroke="white" stroke-opacity="0.5"/>
<path d="M78.5 269.079L83.5572 265.431L88.5921 269.426L93.9021 265.416L98.6985 269.778L104.5 266.171" stroke="white" stroke-opacity="0.5" stroke-width="2" stroke-linecap="round" stroke-linejoin="round"/>
<circle cx="59" cy="361.125" r="10.5" stroke="white" stroke-opacity="0.5"/>
<path d="M78.5 363.079L83.5572 359.431L88.5921 363.426L93.9021 359.416L98.6985 363.778L104.5 360.171" stroke="white" stroke-opacity="0.5" stroke-width="2" stroke-linecap="round" stroke-linejoin="round"/>
<circle cx="464.534" cy="176" r="12" fill="black" fill-opacity="0.2"/>
<path d="M491.266 173.644C491.266 174.068 491.166 174.468 490.966 174.844C490.766 175.22 490.446 175.528 490.006 175.768C489.566 176 489.002 176.116 488.314 176.116H486.802V179.5H485.434V171.16H488.314C488.954 171.16 489.494 171.272 489.934 171.496C490.382 171.712 490.714 172.008 490.93 172.384C491.154 172.76 491.266 173.18 491.266 173.644ZM488.314 175C488.834 175 489.222 174.884 489.478 174.652C489.734 174.412 489.862 174.076 489.862 173.644C489.862 172.732 489.346 172.276 488.314 172.276H486.802V175H488.314ZM498.631 176.032C498.631 176.28 498.615 176.504 498.583 176.704H493.531C493.571 177.232 493.767 177.656 494.119 177.976C494.471 178.296 494.903 178.456 495.415 178.456C496.151 178.456 496.671 178.148 496.975 177.532H498.451C498.251 178.14 497.887 178.64 497.359 179.032C496.839 179.416 496.191 179.608 495.415 179.608C494.783 179.608 494.215 179.468 493.711 179.188C493.215 178.9 492.823 178.5 492.535 177.988C492.255 177.468 492.115 176.868 492.115 176.188C492.115 175.508 492.251 174.912 492.523 174.4C492.803 173.88 493.191 173.48 493.687 173.2C494.191 172.92 494.767 172.78 495.415 172.78C496.039 172.78 496.595 172.916 497.083 173.188C497.571 173.46 497.951 173.844 498.223 174.34C498.495 174.828 498.631 175.392 498.631 176.032ZM497.203 175.6C497.195 175.096 497.015 174.692 496.663 174.388C496.311 174.084 495.875 173.932 495.355 173.932C494.883 173.932 494.479 174.084 494.143 174.388C493.807 174.684 493.607 175.088 493.543 175.6H497.203ZM501.345 173.848C501.545 173.512 501.809 173.252 502.137 173.068C502.473 172.876 502.869 172.78 503.325 172.78V174.196H502.977C502.441 174.196 502.033 174.332 501.753 174.604C501.481 174.876 501.345 175.348 501.345 176.02V179.5H499.977V172.888H501.345V173.848ZM506.982 179.608C506.462 179.608 505.994 179.516 505.578 179.332C505.17 179.14 504.846 178.884 504.606 178.564C504.366 178.236 504.238 177.872 504.222 177.472H505.638C505.662 177.752 505.794 177.988 506.034 178.18C506.282 178.364 506.59 178.456 506.958 178.456C507.342 178.456 507.638 178.384 507.846 178.24C508.062 178.088 508.17 177.896 508.17 177.664C508.17 177.416 508.05 177.232 507.81 177.112C507.578 176.992 507.206 176.86 506.694 176.716C506.198 176.58 505.794 176.448 505.482 176.32C505.17 176.192 504.898 175.996 504.666 175.732C504.442 175.468 504.33 175.12 504.33 174.688C504.33 174.336 504.434 174.016 504.642 173.728C504.85 173.432 505.146 173.2 505.53 173.032C505.922 172.864 506.37 172.78 506.874 172.78C507.626 172.78 508.23 172.972 508.686 173.356C509.15 173.732 509.398 174.248 509.43 174.904H508.062C508.038 174.608 507.918 174.372 507.702 174.196C507.486 174.02 507.194 173.932 506.826 173.932C506.466 173.932 506.19 174 505.998 174.136C505.806 174.272 505.71 174.452 505.71 174.676C505.71 174.852 505.774 175 505.902 175.12C506.03 175.24 506.186 175.336 506.37 175.408C506.554 175.472 506.826 175.556 507.186 175.66C507.666 175.788 508.058 175.92 508.362 176.056C508.674 176.184 508.942 176.376 509.166 176.632C509.39 176.888 509.506 177.228 509.514 177.652C509.514 178.028 509.41 178.364 509.202 178.66C508.994 178.956 508.698 179.188 508.314 179.356C507.938 179.524 507.494 179.608 506.982 179.608ZM513.86 179.608C513.236 179.608 512.672 179.468 512.168 179.188C511.664 178.9 511.268 178.5 510.98 177.988C510.692 177.468 510.548 176.868 510.548 176.188C510.548 175.516 510.696 174.92 510.992 174.4C511.288 173.88 511.692 173.48 512.204 173.2C512.716 172.92 513.288 172.78 513.92 172.78C514.552 172.78 515.124 172.92 515.636 173.2C516.148 173.48 516.552 173.88 516.848 174.4C517.144 174.92 517.292 175.516 517.292 176.188C517.292 176.86 517.14 177.456 516.836 177.976C516.532 178.496 516.116 178.9 515.588 179.188C515.068 179.468 514.492 179.608 513.86 179.608ZM513.86 178.42C514.212 178.42 514.54 178.336 514.844 178.168C515.156 178 515.408 177.748 515.6 177.412C515.792 177.076 515.888 176.668 515.888 176.188C515.888 175.708 515.796 175.304 515.612 174.976C515.428 174.64 515.184 174.388 514.88 174.22C514.576 174.052 514.248 173.968 513.896 173.968C513.544 173.968 513.216 174.052 512.912 174.22C512.616 174.388 512.38 174.64 512.204 174.976C512.028 175.304 511.94 175.708 511.94 176.188C511.94 176.9 512.12 177.452 512.48 177.844C512.848 178.228 513.308 178.42 513.86 178.42ZM521.981 172.78C522.501 172.78 522.965 172.888 523.373 173.104C523.789 173.32 524.113 173.64 524.345 174.064C524.577 174.488 524.693 175 524.693 175.6V179.5H523.337V175.804C523.337 175.212 523.189 174.76 522.893 174.448C522.597 174.128 522.193 173.968 521.681 173.968C521.169 173.968 520.761 174.128 520.457 174.448C520.161 174.76 520.013 175.212 520.013 175.804V179.5H518.645V172.888H520.013V173.644C520.237 173.372 520.521 173.16 520.865 173.008C521.217 172.856 521.589 172.78 521.981 172.78ZM531.514 174.58V175.732H526.582V174.58H531.514ZM533.097 172V170.752H535.593V179.5H534.213V172H533.097ZM538.205 179.584C537.957 179.584 537.749 179.5 537.581 179.332C537.413 179.164 537.329 178.956 537.329 178.708C537.329 178.46 537.413 178.252 537.581 178.084C537.749 177.916 537.957 177.832 538.205 177.832C538.445 177.832 538.649 177.916 538.817 178.084C538.985 178.252 539.069 178.46 539.069 178.708C539.069 178.956 538.985 179.164 538.817 179.332C538.649 179.5 538.445 179.584 538.205 179.584ZM538.205 174.544C537.957 174.544 537.749 174.46 537.581 174.292C537.413 174.124 537.329 173.916 537.329 173.668C537.329 173.42 537.413 173.212 537.581 173.044C537.749 172.876 537.957 172.792 538.205 172.792C538.445 172.792 538.649 172.876 538.817 173.044C538.985 173.212 539.069 173.42 539.069 173.668C539.069 173.916 538.985 174.124 538.817 174.292C538.649 174.46 538.445 174.544 538.205 174.544Z" fill="black" fill-opacity="0.5"/>
<circle cx="687.75" cy="176" r="12" fill="white" fill-opacity="0.3"/>
<path d="M714.482 173.644C714.482 174.068 714.382 174.468 714.182 174.844C713.982 175.22 713.662 175.528 713.222 175.768C712.782 176 712.218 176.116 711.53 176.116H710.018V179.5H708.65V171.16H711.53C712.17 171.16 712.71 171.272 713.15 171.496C713.598 171.712 713.93 172.008 714.146 172.384C714.37 172.76 714.482 173.18 714.482 173.644ZM711.53 175C712.05 175 712.438 174.884 712.694 174.652C712.95 174.412 713.078 174.076 713.078 173.644C713.078 172.732 712.562 172.276 711.53 172.276H710.018V175H711.53ZM721.847 176.032C721.847 176.28 721.831 176.504 721.799 176.704H716.747C716.787 177.232 716.983 177.656 717.335 177.976C717.687 178.296 718.119 178.456 718.631 178.456C719.367 178.456 719.887 178.148 720.191 177.532H721.667C721.467 178.14 721.103 178.64 720.575 179.032C720.055 179.416 719.407 179.608 718.631 179.608C717.999 179.608 717.431 179.468 716.927 179.188C716.431 178.9 716.039 178.5 715.751 177.988C715.471 177.468 715.331 176.868 715.331 176.188C715.331 175.508 715.467 174.912 715.739 174.4C716.019 173.88 716.407 173.48 716.903 173.2C717.407 172.92 717.983 172.78 718.631 172.78C719.255 172.78 719.811 172.916 720.299 173.188C720.787 173.46 721.167 173.844 721.439 174.34C721.711 174.828 721.847 175.392 721.847 176.032ZM720.419 175.6C720.411 175.096 720.231 174.692 719.879 174.388C719.527 174.084 719.091 173.932 718.571 173.932C718.099 173.932 717.695 174.084 717.359 174.388C717.023 174.684 716.823 175.088 716.759 175.6H720.419ZM724.561 173.848C724.761 173.512 725.025 173.252 725.353 173.068C725.689 172.876 726.085 172.78 726.541 172.78V174.196H726.193C725.657 174.196 725.249 174.332 724.969 174.604C724.697 174.876 724.561 175.348 724.561 176.02V179.5H723.193V172.888H724.561V173.848ZM730.198 179.608C729.678 179.608 729.21 179.516 728.794 179.332C728.386 179.14 728.062 178.884 727.822 178.564C727.582 178.236 727.454 177.872 727.438 177.472H728.854C728.878 177.752 729.01 177.988 729.25 178.18C729.498 178.364 729.806 178.456 730.174 178.456C730.558 178.456 730.854 178.384 731.062 178.24C731.278 178.088 731.386 177.896 731.386 177.664C731.386 177.416 731.266 177.232 731.026 177.112C730.794 176.992 730.422 176.86 729.91 176.716C729.414 176.58 729.01 176.448 728.698 176.32C728.386 176.192 728.114 175.996 727.882 175.732C727.658 175.468 727.546 175.12 727.546 174.688C727.546 174.336 727.65 174.016 727.858 173.728C728.066 173.432 728.362 173.2 728.746 173.032C729.138 172.864 729.586 172.78 730.09 172.78C730.842 172.78 731.446 172.972 731.902 173.356C732.366 173.732 732.614 174.248 732.646 174.904H731.278C731.254 174.608 731.134 174.372 730.918 174.196C730.702 174.02 730.41 173.932 730.042 173.932C729.682 173.932 729.406 174 729.214 174.136C729.022 174.272 728.926 174.452 728.926 174.676C728.926 174.852 728.99 175 729.118 175.12C729.246 175.24 729.402 175.336 729.586 175.408C729.77 175.472 730.042 175.556 730.402 175.66C730.882 175.788 731.274 175.92 731.578 176.056C731.89 176.184 732.158 176.376 732.382 176.632C732.606 176.888 732.722 177.228 732.73 177.652C732.73 178.028 732.626 178.364 732.418 178.66C732.21 178.956 731.914 179.188 731.53 179.356C731.154 179.524 730.71 179.608 730.198 179.608ZM737.076 179.608C736.452 179.608 735.888 179.468 735.384 179.188C734.88 178.9 734.484 178.5 734.196 177.988C733.908 177.468 733.764 176.868 733.764 176.188C733.764 175.516 733.912 174.92 734.208 174.4C734.504 173.88 734.908 173.48 735.42 173.2C735.932 172.92 736.504 172.78 737.136 172.78C737.768 172.78 738.34 172.92 738.852 173.2C739.364 173.48 739.768 173.88 740.064 174.4C740.36 174.92 740.508 175.516 740.508 176.188C740.508 176.86 740.356 177.456 740.052 177.976C739.748 178.496 739.332 178.9 738.804 179.188C738.284 179.468 737.708 179.608 737.076 179.608ZM737.076 178.42C737.428 178.42 737.756 178.336 738.06 178.168C738.372 178 738.624 177.748 738.816 177.412C739.008 177.076 739.104 176.668 739.104 176.188C739.104 175.708 739.012 175.304 738.828 174.976C738.644 174.64 738.4 174.388 738.096 174.22C737.792 174.052 737.464 173.968 737.112 173.968C736.76 173.968 736.432 174.052 736.128 174.22C735.832 174.388 735.596 174.64 735.42 174.976C735.244 175.304 735.156 175.708 735.156 176.188C735.156 176.9 735.336 177.452 735.696 177.844C736.064 178.228 736.524 178.42 737.076 178.42ZM745.197 172.78C745.717 172.78 746.181 172.888 746.589 173.104C747.005 173.32 747.329 173.64 747.561 174.064C747.793 174.488 747.909 175 747.909 175.6V179.5H746.553V175.804C746.553 175.212 746.405 174.76 746.109 174.448C745.813 174.128 745.409 173.968 744.897 173.968C744.385 173.968 743.977 174.128 743.673 174.448C743.377 174.76 743.229 175.212 743.229 175.804V179.5H741.861V172.888H743.229V173.644C743.453 173.372 743.737 173.16 744.081 173.008C744.433 172.856 744.805 172.78 745.197 172.78ZM754.73 174.58V175.732H749.798V174.58H754.73ZM757.249 177.64C758.017 176.976 758.621 176.432 759.061 176.008C759.509 175.576 759.881 175.128 760.177 174.664C760.473 174.2 760.621 173.736 760.621 173.272C760.621 172.792 760.505 172.416 760.273 172.144C760.049 171.872 759.693 171.736 759.205 171.736C758.733 171.736 758.365 171.888 758.101 172.192C757.845 172.488 757.709 172.888 757.693 173.392H756.373C756.397 172.48 756.669 171.784 757.189 171.304C757.717 170.816 758.385 170.572 759.193 170.572C760.065 170.572 760.745 170.812 761.233 171.292C761.729 171.772 761.977 172.412 761.977 173.212C761.977 173.788 761.829 174.344 761.533 174.88C761.245 175.408 760.897 175.884 760.489 176.308C760.089 176.724 759.577 177.208 758.953 177.76L758.413 178.24H762.217V179.38H756.385V178.384L757.249 177.64ZM764.151 179.584C763.903 179.584 763.695 179.5 763.527 179.332C763.359 179.164 763.275 178.956 763.275 178.708C763.275 178.46 763.359 178.252 763.527 178.084C763.695 177.916 763.903 177.832 764.151 177.832C764.391 177.832 764.595 177.916 764.763 178.084C764.931 178.252 765.015 178.46 765.015 178.708C765.015 178.956 764.931 179.164 764.763 179.332C764.595 179.5 764.391 179.584 764.151 179.584ZM764.151 174.544C763.903 174.544 763.695 174.46 763.527 174.292C763.359 174.124 763.275 173.916 763.275 173.668C763.275 173.42 763.359 173.212 763.527 173.044C763.695 172.876 763.903 172.792 764.151 172.792C764.391 172.792 764.595 172.876 764.763 173.044C764.931 173.212 765.015 173.42 765.015 173.668C765.015 173.916 764.931 174.124 764.763 174.292C764.595 174.46 764.391 174.544 764.151 174.544Z" fill="white"/>
<circle cx="575.023" cy="260" r="12" fill="white" fill-opacity="0.3"/>
<path d="M597.291 256.264V258.712H600.171V259.828H597.291V262.384H600.531V263.5H595.923V255.148H600.531V256.264H597.291ZM604.772 262.276L606.644 256.888H608.096L605.576 263.5H603.944L601.436 256.888H602.9L604.772 262.276ZM615.19 260.032C615.19 260.28 615.174 260.504 615.142 260.704H610.09C610.13 261.232 610.326 261.656 610.678 261.976C611.03 262.296 611.462 262.456 611.974 262.456C612.71 262.456 613.23 262.148 613.534 261.532H615.01C614.81 262.14 614.446 262.64 613.918 263.032C613.398 263.416 612.75 263.608 611.974 263.608C611.342 263.608 610.774 263.468 610.27 263.188C609.774 262.9 609.382 262.5 609.094 261.988C608.814 261.468 608.674 260.868 608.674 260.188C608.674 259.508 608.81 258.912 609.082 258.4C609.362 257.88 609.75 257.48 610.246 257.2C610.75 256.92 611.326 256.78 611.974 256.78C612.598 256.78 613.154 256.916 613.642 257.188C614.13 257.46 614.51 257.844 614.782 258.34C615.054 258.828 615.19 259.392 615.19 260.032ZM613.762 259.6C613.754 259.096 613.574 258.692 613.222 258.388C612.87 258.084 612.434 257.932 611.914 257.932C611.442 257.932 611.038 258.084 610.702 258.388C610.366 258.684 610.166 259.088 610.102 259.6H613.762ZM619.872 256.78C620.392 256.78 620.856 256.888 621.264 257.104C621.68 257.32 622.004 257.64 622.236 258.064C622.468 258.488 622.584 259 622.584 259.6V263.5H621.228V259.804C621.228 259.212 621.08 258.76 620.784 258.448C620.488 258.128 620.084 257.968 619.572 257.968C619.06 257.968 618.652 258.128 618.348 258.448C618.052 258.76 617.904 259.212 617.904 259.804V263.5H616.536V256.888H617.904V257.644C618.128 257.372 618.412 257.16 618.756 257.008C619.108 256.856 619.48 256.78 619.872 256.78ZM625.925 258.004V261.664C625.925 261.912 625.981 262.092 626.093 262.204C626.213 262.308 626.413 262.36 626.693 262.36H627.533V263.5H626.453C625.837 263.5 625.365 263.356 625.037 263.068C624.709 262.78 624.545 262.312 624.545 261.664V258.004H623.765V256.888H624.545V255.244H625.925V256.888H627.533V258.004H625.925ZM633.87 258.58V259.732H628.938V258.58H633.87ZM635.454 256V254.752H637.95V263.5H636.57V256H635.454ZM640.561 263.584C640.313 263.584 640.105 263.5 639.937 263.332C639.769 263.164 639.685 262.956 639.685 262.708C639.685 262.46 639.769 262.252 639.937 262.084C640.105 261.916 640.313 261.832 640.561 261.832C640.801 261.832 641.005 261.916 641.173 262.084C641.341 262.252 641.425 262.46 641.425 262.708C641.425 262.956 641.341 263.164 641.173 263.332C641.005 263.5 640.801 263.584 640.561 263.584ZM640.561 258.544C640.313 258.544 640.105 258.46 639.937 258.292C639.769 258.124 639.685 257.916 639.685 257.668C639.685 257.42 639.769 257.212 639.937 257.044C640.105 256.876 640.313 256.792 640.561 256.792C640.801 256.792 641.005 256.876 641.173 257.044C641.341 257.212 641.425 257.42 641.425 257.668C641.425 257.916 641.341 258.124 641.173 258.292C641.005 258.46 640.801 258.544 640.561 258.544Z" fill="white"/>
<circle cx="575.023" cy="302" r="12" fill="white" fill-opacity="0.3"/>
<path d="M597.291 298.264V300.712H600.171V301.828H597.291V304.384H600.531V305.5H595.923V297.148H600.531V298.264H597.291ZM604.772 304.276L606.644 298.888H608.096L605.576 305.5H603.944L601.436 298.888H602.9L604.772 304.276ZM615.19 302.032C615.19 302.28 615.174 302.504 615.142 302.704H610.09C610.13 303.232 610.326 303.656 610.678 303.976C611.03 304.296 611.462 304.456 611.974 304.456C612.71 304.456 613.23 304.148 613.534 303.532H615.01C614.81 304.14 614.446 304.64 613.918 305.032C613.398 305.416 612.75 305.608 611.974 305.608C611.342 305.608 610.774 305.468 610.27 305.188C609.774 304.9 609.382 304.5 609.094 303.988C608.814 303.468 608.674 302.868 608.674 302.188C608.674 301.508 608.81 300.912 609.082 300.4C609.362 299.88 609.75 299.48 610.246 299.2C610.75 298.92 611.326 298.78 611.974 298.78C612.598 298.78 613.154 298.916 613.642 299.188C614.13 299.46 614.51 299.844 614.782 300.34C615.054 300.828 615.19 301.392 615.19 302.032ZM613.762 301.6C613.754 301.096 613.574 300.692 613.222 300.388C612.87 300.084 612.434 299.932 611.914 299.932C611.442 299.932 611.038 300.084 610.702 300.388C610.366 300.684 610.166 301.088 610.102 301.6H613.762ZM619.872 298.78C620.392 298.78 620.856 298.888 621.264 299.104C621.68 299.32 622.004 299.64 622.236 300.064C622.468 300.488 622.584 301 622.584 301.6V305.5H621.228V301.804C621.228 301.212 621.08 300.76 620.784 300.448C620.488 300.128 620.084 299.968 619.572 299.968C619.06 299.968 618.652 300.128 618.348 300.448C618.052 300.76 617.904 301.212 617.904 301.804V305.5H616.536V298.888H617.904V299.644C618.128 299.372 618.412 299.16 618.756 299.008C619.108 298.856 619.48 298.78 619.872 298.78ZM625.925 300.004V303.664C625.925 303.912 625.981 304.092 626.093 304.204C626.213 304.308 626.413 304.36 626.693 304.36H627.533V305.5H626.453C625.837 305.5 625.365 305.356 625.037 305.068C624.709 304.78 624.545 304.312 624.545 303.664V300.004H623.765V298.888H624.545V297.244H625.925V298.888H627.533V300.004H625.925ZM633.87 300.58V301.732H628.938V300.58H633.87ZM636.39 303.64C637.158 302.976 637.762 302.432 638.202 302.008C638.65 301.576 639.022 301.128 639.318 300.664C639.614 300.2 639.762 299.736 639.762 299.272C639.762 298.792 639.646 298.416 639.414 298.144C639.19 297.872 638.834 297.736 638.346 297.736C637.874 297.736 637.506 297.888 637.242 298.192C636.986 298.488 636.85 298.888 636.834 299.392H635.514C635.538 298.48 635.81 297.784 636.33 297.304C636.858 296.816 637.526 296.572 638.334 296.572C639.206 296.572 639.886 296.812 640.374 297.292C640.87 297.772 641.118 298.412 641.118 299.212C641.118 299.788 640.97 300.344 640.674 300.88C640.386 301.408 640.038 301.884 639.63 302.308C639.23 302.724 638.718 303.208 638.094 303.76L637.554 304.24H641.358V305.38H635.526V304.384L636.39 303.64ZM643.292 305.584C643.044 305.584 642.836 305.5 642.668 305.332C642.5 305.164 642.416 304.956 642.416 304.708C642.416 304.46 642.5 304.252 642.668 304.084C642.836 303.916 643.044 303.832 643.292 303.832C643.532 303.832 643.736 303.916 643.904 304.084C644.072 304.252 644.156 304.46 644.156 304.708C644.156 304.956 644.072 305.164 643.904 305.332C643.736 305.5 643.532 305.584 643.292 305.584ZM643.292 300.544C643.044 300.544 642.836 300.46 642.668 300.292C642.5 300.124 642.416 299.916 642.416 299.668C642.416 299.42 642.5 299.212 642.668 299.044C642.836 298.876 643.044 298.792 643.292 298.792C643.532 298.792 643.736 298.876 643.904 299.044C644.072 299.212 644.156 299.42 644.156 299.668C644.156 299.916 644.072 300.124 643.904 300.292C643.736 300.46 643.532 300.544 643.292 300.544Z" fill="white"/>
<circle cx="687.75" cy="390" r="12" fill="white" fill-opacity="0.3"/>
<path d="M714.482 387.644C714.482 388.068 714.382 388.468 714.182 388.844C713.982 389.22 713.662 389.528 713.222 389.768C712.782 390 712.218 390.116 711.53 390.116H710.018V393.5H708.65V385.16H711.53C712.17 385.16 712.71 385.272 713.15 385.496C713.598 385.712 713.93 386.008 714.146 386.384C714.37 386.76 714.482 387.18 714.482 387.644ZM711.53 389C712.05 389 712.438 388.884 712.694 388.652C712.95 388.412 713.078 388.076 713.078 387.644C713.078 386.732 712.562 386.276 711.53 386.276H710.018V389H711.53ZM721.847 390.032C721.847 390.28 721.831 390.504 721.799 390.704H716.747C716.787 391.232 716.983 391.656 717.335 391.976C717.687 392.296 718.119 392.456 718.631 392.456C719.367 392.456 719.887 392.148 720.191 391.532H721.667C721.467 392.14 721.103 392.64 720.575 393.032C720.055 393.416 719.407 393.608 718.631 393.608C717.999 393.608 717.431 393.468 716.927 393.188C716.431 392.9 716.039 392.5 715.751 391.988C715.471 391.468 715.331 390.868 715.331 390.188C715.331 389.508 715.467 388.912 715.739 388.4C716.019 387.88 716.407 387.48 716.903 387.2C717.407 386.92 717.983 386.78 718.631 386.78C719.255 386.78 719.811 386.916 720.299 387.188C720.787 387.46 721.167 387.844 721.439 388.34C721.711 388.828 721.847 389.392 721.847 390.032ZM720.419 389.6C720.411 389.096 720.231 388.692 719.879 388.388C719.527 388.084 719.091 387.932 718.571 387.932C718.099 387.932 717.695 388.084 717.359 388.388C717.023 388.684 716.823 389.088 716.759 389.6H720.419ZM724.561 387.848C724.761 387.512 725.025 387.252 725.353 387.068C725.689 386.876 726.085 386.78 726.541 386.78V388.196H726.193C725.657 388.196 725.249 388.332 724.969 388.604C724.697 388.876 724.561 389.348 724.561 390.02V393.5H723.193V386.888H724.561V387.848ZM730.198 393.608C729.678 393.608 729.21 393.516 728.794 393.332C728.386 393.14 728.062 392.884 727.822 392.564C727.582 392.236 727.454 391.872 727.438 391.472H728.854C728.878 391.752 729.01 391.988 729.25 392.18C729.498 392.364 729.806 392.456 730.174 392.456C730.558 392.456 730.854 392.384 731.062 392.24C731.278 392.088 731.386 391.896 731.386 391.664C731.386 391.416 731.266 391.232 731.026 391.112C730.794 390.992 730.422 390.86 729.91 390.716C729.414 390.58 729.01 390.448 728.698 390.32C728.386 390.192 728.114 389.996 727.882 389.732C727.658 389.468 727.546 389.12 727.546 388.688C727.546 388.336 727.65 388.016 727.858 387.728C728.066 387.432 728.362 387.2 728.746 387.032C729.138 386.864 729.586 386.78 730.09 386.78C730.842 386.78 731.446 386.972 731.902 387.356C732.366 387.732 732.614 388.248 732.646 388.904H731.278C731.254 388.608 731.134 388.372 730.918 388.196C730.702 388.02 730.41 387.932 730.042 387.932C729.682 387.932 729.406 388 729.214 388.136C729.022 388.272 728.926 388.452 728.926 388.676C728.926 388.852 728.99 389 729.118 389.12C729.246 389.24 729.402 389.336 729.586 389.408C729.77 389.472 730.042 389.556 730.402 389.66C730.882 389.788 731.274 389.92 731.578 390.056C731.89 390.184 732.158 390.376 732.382 390.632C732.606 390.888 732.722 391.228 732.73 391.652C732.73 392.028 732.626 392.364 732.418 392.66C732.21 392.956 731.914 393.188 731.53 393.356C731.154 393.524 730.71 393.608 730.198 393.608ZM737.076 393.608C736.452 393.608 735.888 393.468 735.384 393.188C734.88 392.9 734.484 392.5 734.196 391.988C733.908 391.468 733.764 390.868 733.764 390.188C733.764 389.516 733.912 388.92 734.208 388.4C734.504 387.88 734.908 387.48 735.42 387.2C735.932 386.92 736.504 386.78 737.136 386.78C737.768 386.78 738.34 386.92 738.852 387.2C739.364 387.48 739.768 387.88 740.064 388.4C740.36 388.92 740.508 389.516 740.508 390.188C740.508 390.86 740.356 391.456 740.052 391.976C739.748 392.496 739.332 392.9 738.804 393.188C738.284 393.468 737.708 393.608 737.076 393.608ZM737.076 392.42C737.428 392.42 737.756 392.336 738.06 392.168C738.372 392 738.624 391.748 738.816 391.412C739.008 391.076 739.104 390.668 739.104 390.188C739.104 389.708 739.012 389.304 738.828 388.976C738.644 388.64 738.4 388.388 738.096 388.22C737.792 388.052 737.464 387.968 737.112 387.968C736.76 387.968 736.432 388.052 736.128 388.22C735.832 388.388 735.596 388.64 735.42 388.976C735.244 389.304 735.156 389.708 735.156 390.188C735.156 390.9 735.336 391.452 735.696 391.844C736.064 392.228 736.524 392.42 737.076 392.42ZM745.197 386.78C745.717 386.78 746.181 386.888 746.589 387.104C747.005 387.32 747.329 387.64 747.561 388.064C747.793 388.488 747.909 389 747.909 389.6V393.5H746.553V389.804C746.553 389.212 746.405 388.76 746.109 388.448C745.813 388.128 745.409 387.968 744.897 387.968C744.385 387.968 743.977 388.128 743.673 388.448C743.377 388.76 743.229 389.212 743.229 389.804V393.5H741.861V386.888H743.229V387.644C743.453 387.372 743.737 387.16 744.081 387.008C744.433 386.856 744.805 386.78 745.197 386.78ZM754.73 388.58V389.732H749.798V388.58H754.73ZM756.469 386.912C756.517 386.168 756.801 385.588 757.321 385.172C757.849 384.756 758.521 384.548 759.337 384.548C759.897 384.548 760.381 384.648 760.789 384.848C761.197 385.048 761.505 385.32 761.713 385.664C761.921 386.008 762.025 386.396 762.025 386.828C762.025 387.324 761.893 387.748 761.629 388.1C761.365 388.452 761.049 388.688 760.681 388.808V388.856C761.153 389 761.521 389.264 761.785 389.648C762.049 390.024 762.181 390.508 762.181 391.1C762.181 391.572 762.073 391.992 761.857 392.36C761.641 392.728 761.321 393.02 760.897 393.236C760.473 393.444 759.965 393.548 759.373 393.548C758.509 393.548 757.797 393.328 757.237 392.888C756.685 392.44 756.389 391.8 756.349 390.968H757.669C757.701 391.392 757.865 391.74 758.161 392.012C758.457 392.276 758.857 392.408 759.361 392.408C759.849 392.408 760.225 392.276 760.489 392.012C760.753 391.74 760.885 391.392 760.885 390.968C760.885 390.408 760.705 390.012 760.345 389.78C759.993 389.54 759.449 389.42 758.713 389.42H758.401V388.292H758.725C759.373 388.284 759.865 388.176 760.201 387.968C760.545 387.76 760.717 387.432 760.717 386.984C760.717 386.6 760.593 386.296 760.345 386.072C760.097 385.84 759.745 385.724 759.289 385.724C758.841 385.724 758.493 385.84 758.245 386.072C757.997 386.296 757.849 386.576 757.801 386.912H756.469Z" fill="white"/>
</svg>
