<svg width="917" height="530" viewBox="0 0 917 530" fill="none" xmlns="http://www.w3.org/2000/svg">
<circle cx="59" cy="172" r="10.5" stroke="black" stroke-opacity="0.5"/>
<path d="M85.732 170.144C85.732 170.568 85.632 170.968 85.432 171.344C85.232 171.72 84.912 172.028 84.472 172.268C84.032 172.5 83.468 172.616 82.78 172.616H81.268V176H79.9V167.66H82.78C83.42 167.66 83.96 167.772 84.4 167.996C84.848 168.212 85.18 168.508 85.396 168.884C85.62 169.26 85.732 169.68 85.732 170.144ZM82.78 171.5C83.3 171.5 83.688 171.384 83.944 171.152C84.2 170.912 84.328 170.576 84.328 170.144C84.328 169.232 83.812 168.776 82.78 168.776H81.268V171.5H82.78ZM93.0967 172.532C93.0967 172.78 93.0807 173.004 93.0487 173.204H87.9967C88.0367 173.732 88.2327 174.156 88.5847 174.476C88.9367 174.796 89.3687 174.956 89.8807 174.956C90.6167 174.956 91.1367 174.648 91.4407 174.032H92.9167C92.7167 174.64 92.3527 175.14 91.8247 175.532C91.3047 175.916 90.6567 176.108 89.8807 176.108C89.2487 176.108 88.6807 175.968 88.1767 175.688C87.6807 175.4 87.2887 175 87.0007 174.488C86.7207 173.968 86.5807 173.368 86.5807 172.688C86.5807 172.008 86.7167 171.412 86.9887 170.9C87.2687 170.38 87.6567 169.98 88.1527 169.7C88.6567 169.42 89.2327 169.28 89.8807 169.28C90.5047 169.28 91.0607 169.416 91.5487 169.688C92.0367 169.96 92.4167 170.344 92.6887 170.84C92.9607 171.328 93.0967 171.892 93.0967 172.532ZM91.6687 172.1C91.6607 171.596 91.4807 171.192 91.1287 170.888C90.7767 170.584 90.3407 170.432 89.8207 170.432C89.3487 170.432 88.9447 170.584 88.6087 170.888C88.2727 171.184 88.0727 171.588 88.0087 172.1H91.6687ZM95.811 170.348C96.011 170.012 96.275 169.752 96.603 169.568C96.939 169.376 97.335 169.28 97.791 169.28V170.696H97.443C96.907 170.696 96.499 170.832 96.219 171.104C95.947 171.376 95.811 171.848 95.811 172.52V176H94.443V169.388H95.811V170.348ZM101.448 176.108C100.928 176.108 100.46 176.016 100.044 175.832C99.6364 175.64 99.3124 175.384 99.0724 175.064C98.8324 174.736 98.7044 174.372 98.6884 173.972H100.104C100.128 174.252 100.26 174.488 100.5 174.68C100.748 174.864 101.056 174.956 101.424 174.956C101.808 174.956 102.104 174.884 102.312 174.74C102.528 174.588 102.636 174.396 102.636 174.164C102.636 173.916 102.516 173.732 102.276 173.612C102.044 173.492 101.672 173.36 101.16 173.216C100.664 173.08 100.26 172.948 99.9484 172.82C99.6364 172.692 99.3644 172.496 99.1324 172.232C98.9084 171.968 98.7964 171.62 98.7964 171.188C98.7964 170.836 98.9004 170.516 99.1084 170.228C99.3164 169.932 99.6124 169.7 99.9964 169.532C100.388 169.364 100.836 169.28 101.34 169.28C102.092 169.28 102.696 169.472 103.152 169.856C103.616 170.232 103.864 170.748 103.896 171.404H102.528C102.504 171.108 102.384 170.872 102.168 170.696C101.952 170.52 101.66 170.432 101.292 170.432C100.932 170.432 100.656 170.5 100.464 170.636C100.272 170.772 100.176 170.952 100.176 171.176C100.176 171.352 100.24 171.5 100.368 171.62C100.496 171.74 100.652 171.836 100.836 171.908C101.02 171.972 101.292 172.056 101.652 172.16C102.132 172.288 102.524 172.42 102.828 172.556C103.14 172.684 103.408 172.876 103.632 173.132C103.856 173.388 103.972 173.728 103.98 174.152C103.98 174.528 103.876 174.864 103.668 175.16C103.46 175.456 103.164 175.688 102.78 175.856C102.404 176.024 101.96 176.108 101.448 176.108ZM108.327 176.108C107.703 176.108 107.139 175.968 106.635 175.688C106.131 175.4 105.735 175 105.447 174.488C105.159 173.968 105.015 173.368 105.015 172.688C105.015 172.016 105.163 171.42 105.459 170.9C105.755 170.38 106.159 169.98 106.671 169.7C107.183 169.42 107.755 169.28 108.387 169.28C109.019 169.28 109.591 169.42 110.103 169.7C110.615 169.98 111.019 170.38 111.315 170.9C111.611 171.42 111.759 172.016 111.759 172.688C111.759 173.36 111.607 173.956 111.303 174.476C110.999 174.996 110.583 175.4 110.055 175.688C109.535 175.968 108.959 176.108 108.327 176.108ZM108.327 174.92C108.679 174.92 109.007 174.836 109.311 174.668C109.623 174.5 109.875 174.248 110.067 173.912C110.259 173.576 110.355 173.168 110.355 172.688C110.355 172.208 110.263 171.804 110.079 171.476C109.895 171.14 109.651 170.888 109.347 170.72C109.043 170.552 108.715 170.468 108.363 170.468C108.011 170.468 107.683 170.552 107.379 170.72C107.083 170.888 106.847 171.14 106.671 171.476C106.495 171.804 106.407 172.208 106.407 172.688C106.407 173.4 106.587 173.952 106.947 174.344C107.315 174.728 107.775 174.92 108.327 174.92ZM116.447 169.28C116.967 169.28 117.431 169.388 117.839 169.604C118.255 169.82 118.579 170.14 118.811 170.564C119.043 170.988 119.159 171.5 119.159 172.1V176H117.803V172.304C117.803 171.712 117.655 171.26 117.359 170.948C117.063 170.628 116.659 170.468 116.147 170.468C115.635 170.468 115.227 170.628 114.923 170.948C114.627 171.26 114.479 171.712 114.479 172.304V176H113.111V169.388H114.479V170.144C114.703 169.872 114.987 169.66 115.331 169.508C115.683 169.356 116.055 169.28 116.447 169.28ZM125.98 171.08V172.232H121.048V171.08H125.98ZM127.563 168.5V167.252H130.059V176H128.679V168.5H127.563ZM132.671 176.084C132.423 176.084 132.215 176 132.047 175.832C131.879 175.664 131.795 175.456 131.795 175.208C131.795 174.96 131.879 174.752 132.047 174.584C132.215 174.416 132.423 174.332 132.671 174.332C132.911 174.332 133.115 174.416 133.283 174.584C133.451 174.752 133.535 174.96 133.535 175.208C133.535 175.456 133.451 175.664 133.283 175.832C133.115 176 132.911 176.084 132.671 176.084ZM132.671 171.044C132.423 171.044 132.215 170.96 132.047 170.792C131.879 170.624 131.795 170.416 131.795 170.168C131.795 169.92 131.879 169.712 132.047 169.544C132.215 169.376 132.423 169.292 132.671 169.292C132.911 169.292 133.115 169.376 133.283 169.544C133.451 169.712 133.535 169.92 133.535 170.168C133.535 170.416 133.451 170.624 133.283 170.792C133.115 170.96 132.911 171.044 132.671 171.044Z" fill="black" fill-opacity="0.5"/>
<circle cx="59" cy="196" r="10.5" stroke="white" stroke-opacity="0.5"/>
<path d="M78 197.454L83.0572 193.806L88.0921 197.801L93.4021 193.791L98.1985 198.153L104 194.546" stroke="white" stroke-opacity="0.5" stroke-width="2" stroke-linecap="round" stroke-linejoin="round"/>
<circle cx="59" cy="264" r="10.5" stroke="white" stroke-opacity="0.5"/>
<path d="M79 265.454L84.0572 261.806L89.0921 265.801L94.4021 261.791L99.1985 266.153L105 262.546" stroke="white" stroke-opacity="0.5" stroke-width="2" stroke-linecap="round" stroke-linejoin="round"/>
<circle cx="59" cy="288" r="10.5" stroke="white" stroke-opacity="0.5"/>
<path d="M79 289.454L84.0572 285.806L89.0921 289.801L94.4021 285.791L99.1985 290.153L105 286.546" stroke="white" stroke-opacity="0.5" stroke-width="2" stroke-linecap="round" stroke-linejoin="round"/>
<circle cx="59" cy="356" r="10.5" stroke="white" stroke-opacity="0.5"/>
<path d="M79 357.454L84.0572 353.806L89.0921 357.801L94.4021 353.791L99.1985 358.153L105 354.546" stroke="white" stroke-opacity="0.5" stroke-width="2" stroke-linecap="round" stroke-linejoin="round"/>
<circle cx="59" cy="380" r="10.5" stroke="white" stroke-opacity="0.5"/>
<path d="M79 381.454L84.0572 377.806L89.0921 381.801L94.4021 377.791L99.1985 382.153L105 378.546" stroke="white" stroke-opacity="0.5" stroke-width="2" stroke-linecap="round" stroke-linejoin="round"/>
<circle cx="59" cy="404" r="10.5" stroke="white" stroke-opacity="0.5"/>
<path d="M78 405.454L83.0572 401.806L88.0921 405.801L93.4021 401.791L98.1985 406.153L104 402.546" stroke="white" stroke-opacity="0.5" stroke-width="2" stroke-linecap="round" stroke-linejoin="round"/>
<circle cx="464.534" cy="173" r="11.5" stroke="black" stroke-opacity="0.5"/>
<path d="M491.266 170.644C491.266 171.068 491.166 171.468 490.966 171.844C490.766 172.22 490.446 172.528 490.006 172.768C489.566 173 489.002 173.116 488.314 173.116H486.802V176.5H485.434V168.16H488.314C488.954 168.16 489.494 168.272 489.934 168.496C490.382 168.712 490.714 169.008 490.93 169.384C491.154 169.76 491.266 170.18 491.266 170.644ZM488.314 172C488.834 172 489.222 171.884 489.478 171.652C489.734 171.412 489.862 171.076 489.862 170.644C489.862 169.732 489.346 169.276 488.314 169.276H486.802V172H488.314ZM498.631 173.032C498.631 173.28 498.615 173.504 498.583 173.704H493.531C493.571 174.232 493.767 174.656 494.119 174.976C494.471 175.296 494.903 175.456 495.415 175.456C496.151 175.456 496.671 175.148 496.975 174.532H498.451C498.251 175.14 497.887 175.64 497.359 176.032C496.839 176.416 496.191 176.608 495.415 176.608C494.783 176.608 494.215 176.468 493.711 176.188C493.215 175.9 492.823 175.5 492.535 174.988C492.255 174.468 492.115 173.868 492.115 173.188C492.115 172.508 492.251 171.912 492.523 171.4C492.803 170.88 493.191 170.48 493.687 170.2C494.191 169.92 494.767 169.78 495.415 169.78C496.039 169.78 496.595 169.916 497.083 170.188C497.571 170.46 497.951 170.844 498.223 171.34C498.495 171.828 498.631 172.392 498.631 173.032ZM497.203 172.6C497.195 172.096 497.015 171.692 496.663 171.388C496.311 171.084 495.875 170.932 495.355 170.932C494.883 170.932 494.479 171.084 494.143 171.388C493.807 171.684 493.607 172.088 493.543 172.6H497.203ZM501.345 170.848C501.545 170.512 501.809 170.252 502.137 170.068C502.473 169.876 502.869 169.78 503.325 169.78V171.196H502.977C502.441 171.196 502.033 171.332 501.753 171.604C501.481 171.876 501.345 172.348 501.345 173.02V176.5H499.977V169.888H501.345V170.848ZM506.982 176.608C506.462 176.608 505.994 176.516 505.578 176.332C505.17 176.14 504.846 175.884 504.606 175.564C504.366 175.236 504.238 174.872 504.222 174.472H505.638C505.662 174.752 505.794 174.988 506.034 175.18C506.282 175.364 506.59 175.456 506.958 175.456C507.342 175.456 507.638 175.384 507.846 175.24C508.062 175.088 508.17 174.896 508.17 174.664C508.17 174.416 508.05 174.232 507.81 174.112C507.578 173.992 507.206 173.86 506.694 173.716C506.198 173.58 505.794 173.448 505.482 173.32C505.17 173.192 504.898 172.996 504.666 172.732C504.442 172.468 504.33 172.12 504.33 171.688C504.33 171.336 504.434 171.016 504.642 170.728C504.85 170.432 505.146 170.2 505.53 170.032C505.922 169.864 506.37 169.78 506.874 169.78C507.626 169.78 508.23 169.972 508.686 170.356C509.15 170.732 509.398 171.248 509.43 171.904H508.062C508.038 171.608 507.918 171.372 507.702 171.196C507.486 171.02 507.194 170.932 506.826 170.932C506.466 170.932 506.19 171 505.998 171.136C505.806 171.272 505.71 171.452 505.71 171.676C505.71 171.852 505.774 172 505.902 172.12C506.03 172.24 506.186 172.336 506.37 172.408C506.554 172.472 506.826 172.556 507.186 172.66C507.666 172.788 508.058 172.92 508.362 173.056C508.674 173.184 508.942 173.376 509.166 173.632C509.39 173.888 509.506 174.228 509.514 174.652C509.514 175.028 509.41 175.364 509.202 175.66C508.994 175.956 508.698 176.188 508.314 176.356C507.938 176.524 507.494 176.608 506.982 176.608ZM513.86 176.608C513.236 176.608 512.672 176.468 512.168 176.188C511.664 175.9 511.268 175.5 510.98 174.988C510.692 174.468 510.548 173.868 510.548 173.188C510.548 172.516 510.696 171.92 510.992 171.4C511.288 170.88 511.692 170.48 512.204 170.2C512.716 169.92 513.288 169.78 513.92 169.78C514.552 169.78 515.124 169.92 515.636 170.2C516.148 170.48 516.552 170.88 516.848 171.4C517.144 171.92 517.292 172.516 517.292 173.188C517.292 173.86 517.14 174.456 516.836 174.976C516.532 175.496 516.116 175.9 515.588 176.188C515.068 176.468 514.492 176.608 513.86 176.608ZM513.86 175.42C514.212 175.42 514.54 175.336 514.844 175.168C515.156 175 515.408 174.748 515.6 174.412C515.792 174.076 515.888 173.668 515.888 173.188C515.888 172.708 515.796 172.304 515.612 171.976C515.428 171.64 515.184 171.388 514.88 171.22C514.576 171.052 514.248 170.968 513.896 170.968C513.544 170.968 513.216 171.052 512.912 171.22C512.616 171.388 512.38 171.64 512.204 171.976C512.028 172.304 511.94 172.708 511.94 173.188C511.94 173.9 512.12 174.452 512.48 174.844C512.848 175.228 513.308 175.42 513.86 175.42ZM521.981 169.78C522.501 169.78 522.965 169.888 523.373 170.104C523.789 170.32 524.113 170.64 524.345 171.064C524.577 171.488 524.693 172 524.693 172.6V176.5H523.337V172.804C523.337 172.212 523.189 171.76 522.893 171.448C522.597 171.128 522.193 170.968 521.681 170.968C521.169 170.968 520.761 171.128 520.457 171.448C520.161 171.76 520.013 172.212 520.013 172.804V176.5H518.645V169.888H520.013V170.644C520.237 170.372 520.521 170.16 520.865 170.008C521.217 169.856 521.589 169.78 521.981 169.78ZM531.514 171.58V172.732H526.582V171.58H531.514ZM533.097 169V167.752H535.593V176.5H534.213V169H533.097ZM538.205 176.584C537.957 176.584 537.749 176.5 537.581 176.332C537.413 176.164 537.329 175.956 537.329 175.708C537.329 175.46 537.413 175.252 537.581 175.084C537.749 174.916 537.957 174.832 538.205 174.832C538.445 174.832 538.649 174.916 538.817 175.084C538.985 175.252 539.069 175.46 539.069 175.708C539.069 175.956 538.985 176.164 538.817 176.332C538.649 176.5 538.445 176.584 538.205 176.584ZM538.205 171.544C537.957 171.544 537.749 171.46 537.581 171.292C537.413 171.124 537.329 170.916 537.329 170.668C537.329 170.42 537.413 170.212 537.581 170.044C537.749 169.876 537.957 169.792 538.205 169.792C538.445 169.792 538.649 169.876 538.817 170.044C538.985 170.212 539.069 170.42 539.069 170.668C539.069 170.916 538.985 171.124 538.817 171.292C538.649 171.46 538.445 171.544 538.205 171.544Z" fill="black" fill-opacity="0.5"/>
<circle cx="687.75" cy="173" r="12" fill="white" fill-opacity="0.3"/>
<path d="M714.482 170.644C714.482 171.068 714.382 171.468 714.182 171.844C713.982 172.22 713.662 172.528 713.222 172.768C712.782 173 712.218 173.116 711.53 173.116H710.018V176.5H708.65V168.16H711.53C712.17 168.16 712.71 168.272 713.15 168.496C713.598 168.712 713.93 169.008 714.146 169.384C714.37 169.76 714.482 170.18 714.482 170.644ZM711.53 172C712.05 172 712.438 171.884 712.694 171.652C712.95 171.412 713.078 171.076 713.078 170.644C713.078 169.732 712.562 169.276 711.53 169.276H710.018V172H711.53ZM721.847 173.032C721.847 173.28 721.831 173.504 721.799 173.704H716.747C716.787 174.232 716.983 174.656 717.335 174.976C717.687 175.296 718.119 175.456 718.631 175.456C719.367 175.456 719.887 175.148 720.191 174.532H721.667C721.467 175.14 721.103 175.64 720.575 176.032C720.055 176.416 719.407 176.608 718.631 176.608C717.999 176.608 717.431 176.468 716.927 176.188C716.431 175.9 716.039 175.5 715.751 174.988C715.471 174.468 715.331 173.868 715.331 173.188C715.331 172.508 715.467 171.912 715.739 171.4C716.019 170.88 716.407 170.48 716.903 170.2C717.407 169.92 717.983 169.78 718.631 169.78C719.255 169.78 719.811 169.916 720.299 170.188C720.787 170.46 721.167 170.844 721.439 171.34C721.711 171.828 721.847 172.392 721.847 173.032ZM720.419 172.6C720.411 172.096 720.231 171.692 719.879 171.388C719.527 171.084 719.091 170.932 718.571 170.932C718.099 170.932 717.695 171.084 717.359 171.388C717.023 171.684 716.823 172.088 716.759 172.6H720.419ZM724.561 170.848C724.761 170.512 725.025 170.252 725.353 170.068C725.689 169.876 726.085 169.78 726.541 169.78V171.196H726.193C725.657 171.196 725.249 171.332 724.969 171.604C724.697 171.876 724.561 172.348 724.561 173.02V176.5H723.193V169.888H724.561V170.848ZM730.198 176.608C729.678 176.608 729.21 176.516 728.794 176.332C728.386 176.14 728.062 175.884 727.822 175.564C727.582 175.236 727.454 174.872 727.438 174.472H728.854C728.878 174.752 729.01 174.988 729.25 175.18C729.498 175.364 729.806 175.456 730.174 175.456C730.558 175.456 730.854 175.384 731.062 175.24C731.278 175.088 731.386 174.896 731.386 174.664C731.386 174.416 731.266 174.232 731.026 174.112C730.794 173.992 730.422 173.86 729.91 173.716C729.414 173.58 729.01 173.448 728.698 173.32C728.386 173.192 728.114 172.996 727.882 172.732C727.658 172.468 727.546 172.12 727.546 171.688C727.546 171.336 727.65 171.016 727.858 170.728C728.066 170.432 728.362 170.2 728.746 170.032C729.138 169.864 729.586 169.78 730.09 169.78C730.842 169.78 731.446 169.972 731.902 170.356C732.366 170.732 732.614 171.248 732.646 171.904H731.278C731.254 171.608 731.134 171.372 730.918 171.196C730.702 171.02 730.41 170.932 730.042 170.932C729.682 170.932 729.406 171 729.214 171.136C729.022 171.272 728.926 171.452 728.926 171.676C728.926 171.852 728.99 172 729.118 172.12C729.246 172.24 729.402 172.336 729.586 172.408C729.77 172.472 730.042 172.556 730.402 172.66C730.882 172.788 731.274 172.92 731.578 173.056C731.89 173.184 732.158 173.376 732.382 173.632C732.606 173.888 732.722 174.228 732.73 174.652C732.73 175.028 732.626 175.364 732.418 175.66C732.21 175.956 731.914 176.188 731.53 176.356C731.154 176.524 730.71 176.608 730.198 176.608ZM737.076 176.608C736.452 176.608 735.888 176.468 735.384 176.188C734.88 175.9 734.484 175.5 734.196 174.988C733.908 174.468 733.764 173.868 733.764 173.188C733.764 172.516 733.912 171.92 734.208 171.4C734.504 170.88 734.908 170.48 735.42 170.2C735.932 169.92 736.504 169.78 737.136 169.78C737.768 169.78 738.34 169.92 738.852 170.2C739.364 170.48 739.768 170.88 740.064 171.4C740.36 171.92 740.508 172.516 740.508 173.188C740.508 173.86 740.356 174.456 740.052 174.976C739.748 175.496 739.332 175.9 738.804 176.188C738.284 176.468 737.708 176.608 737.076 176.608ZM737.076 175.42C737.428 175.42 737.756 175.336 738.06 175.168C738.372 175 738.624 174.748 738.816 174.412C739.008 174.076 739.104 173.668 739.104 173.188C739.104 172.708 739.012 172.304 738.828 171.976C738.644 171.64 738.4 171.388 738.096 171.22C737.792 171.052 737.464 170.968 737.112 170.968C736.76 170.968 736.432 171.052 736.128 171.22C735.832 171.388 735.596 171.64 735.42 171.976C735.244 172.304 735.156 172.708 735.156 173.188C735.156 173.9 735.336 174.452 735.696 174.844C736.064 175.228 736.524 175.42 737.076 175.42ZM745.197 169.78C745.717 169.78 746.181 169.888 746.589 170.104C747.005 170.32 747.329 170.64 747.561 171.064C747.793 171.488 747.909 172 747.909 172.6V176.5H746.553V172.804C746.553 172.212 746.405 171.76 746.109 171.448C745.813 171.128 745.409 170.968 744.897 170.968C744.385 170.968 743.977 171.128 743.673 171.448C743.377 171.76 743.229 172.212 743.229 172.804V176.5H741.861V169.888H743.229V170.644C743.453 170.372 743.737 170.16 744.081 170.008C744.433 169.856 744.805 169.78 745.197 169.78ZM754.73 171.58V172.732H749.798V171.58H754.73ZM757.249 174.64C758.017 173.976 758.621 173.432 759.061 173.008C759.509 172.576 759.881 172.128 760.177 171.664C760.473 171.2 760.621 170.736 760.621 170.272C760.621 169.792 760.505 169.416 760.273 169.144C760.049 168.872 759.693 168.736 759.205 168.736C758.733 168.736 758.365 168.888 758.101 169.192C757.845 169.488 757.709 169.888 757.693 170.392H756.373C756.397 169.48 756.669 168.784 757.189 168.304C757.717 167.816 758.385 167.572 759.193 167.572C760.065 167.572 760.745 167.812 761.233 168.292C761.729 168.772 761.977 169.412 761.977 170.212C761.977 170.788 761.829 171.344 761.533 171.88C761.245 172.408 760.897 172.884 760.489 173.308C760.089 173.724 759.577 174.208 758.953 174.76L758.413 175.24H762.217V176.38H756.385V175.384L757.249 174.64ZM764.151 176.584C763.903 176.584 763.695 176.5 763.527 176.332C763.359 176.164 763.275 175.956 763.275 175.708C763.275 175.46 763.359 175.252 763.527 175.084C763.695 174.916 763.903 174.832 764.151 174.832C764.391 174.832 764.595 174.916 764.763 175.084C764.931 175.252 765.015 175.46 765.015 175.708C765.015 175.956 764.931 176.164 764.763 176.332C764.595 176.5 764.391 176.584 764.151 176.584ZM764.151 171.544C763.903 171.544 763.695 171.46 763.527 171.292C763.359 171.124 763.275 170.916 763.275 170.668C763.275 170.42 763.359 170.212 763.527 170.044C763.695 169.876 763.903 169.792 764.151 169.792C764.391 169.792 764.595 169.876 764.763 170.044C764.931 170.212 765.015 170.42 765.015 170.668C765.015 170.916 764.931 171.124 764.763 171.292C764.595 171.46 764.391 171.544 764.151 171.544Z" fill="white"/>
<circle cx="575.023" cy="257" r="12" fill="white" fill-opacity="0.3"/>
<path d="M597.291 253.264V255.712H600.171V256.828H597.291V259.384H600.531V260.5H595.923V252.148H600.531V253.264H597.291ZM604.772 259.276L606.644 253.888H608.096L605.576 260.5H603.944L601.436 253.888H602.9L604.772 259.276ZM615.19 257.032C615.19 257.28 615.174 257.504 615.142 257.704H610.09C610.13 258.232 610.326 258.656 610.678 258.976C611.03 259.296 611.462 259.456 611.974 259.456C612.71 259.456 613.23 259.148 613.534 258.532H615.01C614.81 259.14 614.446 259.64 613.918 260.032C613.398 260.416 612.75 260.608 611.974 260.608C611.342 260.608 610.774 260.468 610.27 260.188C609.774 259.9 609.382 259.5 609.094 258.988C608.814 258.468 608.674 257.868 608.674 257.188C608.674 256.508 608.81 255.912 609.082 255.4C609.362 254.88 609.75 254.48 610.246 254.2C610.75 253.92 611.326 253.78 611.974 253.78C612.598 253.78 613.154 253.916 613.642 254.188C614.13 254.46 614.51 254.844 614.782 255.34C615.054 255.828 615.19 256.392 615.19 257.032ZM613.762 256.6C613.754 256.096 613.574 255.692 613.222 255.388C612.87 255.084 612.434 254.932 611.914 254.932C611.442 254.932 611.038 255.084 610.702 255.388C610.366 255.684 610.166 256.088 610.102 256.6H613.762ZM619.872 253.78C620.392 253.78 620.856 253.888 621.264 254.104C621.68 254.32 622.004 254.64 622.236 255.064C622.468 255.488 622.584 256 622.584 256.6V260.5H621.228V256.804C621.228 256.212 621.08 255.76 620.784 255.448C620.488 255.128 620.084 254.968 619.572 254.968C619.06 254.968 618.652 255.128 618.348 255.448C618.052 255.76 617.904 256.212 617.904 256.804V260.5H616.536V253.888H617.904V254.644C618.128 254.372 618.412 254.16 618.756 254.008C619.108 253.856 619.48 253.78 619.872 253.78ZM625.925 255.004V258.664C625.925 258.912 625.981 259.092 626.093 259.204C626.213 259.308 626.413 259.36 626.693 259.36H627.533V260.5H626.453C625.837 260.5 625.365 260.356 625.037 260.068C624.709 259.78 624.545 259.312 624.545 258.664V255.004H623.765V253.888H624.545V252.244H625.925V253.888H627.533V255.004H625.925ZM633.87 255.58V256.732H628.938V255.58H633.87ZM635.454 253V251.752H637.95V260.5H636.57V253H635.454ZM640.561 260.584C640.313 260.584 640.105 260.5 639.937 260.332C639.769 260.164 639.685 259.956 639.685 259.708C639.685 259.46 639.769 259.252 639.937 259.084C640.105 258.916 640.313 258.832 640.561 258.832C640.801 258.832 641.005 258.916 641.173 259.084C641.341 259.252 641.425 259.46 641.425 259.708C641.425 259.956 641.341 260.164 641.173 260.332C641.005 260.5 640.801 260.584 640.561 260.584ZM640.561 255.544C640.313 255.544 640.105 255.46 639.937 255.292C639.769 255.124 639.685 254.916 639.685 254.668C639.685 254.42 639.769 254.212 639.937 254.044C640.105 253.876 640.313 253.792 640.561 253.792C640.801 253.792 641.005 253.876 641.173 254.044C641.341 254.212 641.425 254.42 641.425 254.668C641.425 254.916 641.341 255.124 641.173 255.292C641.005 255.46 640.801 255.544 640.561 255.544Z" fill="white"/>
<circle cx="575.023" cy="299" r="12" fill="white" fill-opacity="0.3"/>
<path d="M597.291 295.264V297.712H600.171V298.828H597.291V301.384H600.531V302.5H595.923V294.148H600.531V295.264H597.291ZM604.772 301.276L606.644 295.888H608.096L605.576 302.5H603.944L601.436 295.888H602.9L604.772 301.276ZM615.19 299.032C615.19 299.28 615.174 299.504 615.142 299.704H610.09C610.13 300.232 610.326 300.656 610.678 300.976C611.03 301.296 611.462 301.456 611.974 301.456C612.71 301.456 613.23 301.148 613.534 300.532H615.01C614.81 301.14 614.446 301.64 613.918 302.032C613.398 302.416 612.75 302.608 611.974 302.608C611.342 302.608 610.774 302.468 610.27 302.188C609.774 301.9 609.382 301.5 609.094 300.988C608.814 300.468 608.674 299.868 608.674 299.188C608.674 298.508 608.81 297.912 609.082 297.4C609.362 296.88 609.75 296.48 610.246 296.2C610.75 295.92 611.326 295.78 611.974 295.78C612.598 295.78 613.154 295.916 613.642 296.188C614.13 296.46 614.51 296.844 614.782 297.34C615.054 297.828 615.19 298.392 615.19 299.032ZM613.762 298.6C613.754 298.096 613.574 297.692 613.222 297.388C612.87 297.084 612.434 296.932 611.914 296.932C611.442 296.932 611.038 297.084 610.702 297.388C610.366 297.684 610.166 298.088 610.102 298.6H613.762ZM619.872 295.78C620.392 295.78 620.856 295.888 621.264 296.104C621.68 296.32 622.004 296.64 622.236 297.064C622.468 297.488 622.584 298 622.584 298.6V302.5H621.228V298.804C621.228 298.212 621.08 297.76 620.784 297.448C620.488 297.128 620.084 296.968 619.572 296.968C619.06 296.968 618.652 297.128 618.348 297.448C618.052 297.76 617.904 298.212 617.904 298.804V302.5H616.536V295.888H617.904V296.644C618.128 296.372 618.412 296.16 618.756 296.008C619.108 295.856 619.48 295.78 619.872 295.78ZM625.925 297.004V300.664C625.925 300.912 625.981 301.092 626.093 301.204C626.213 301.308 626.413 301.36 626.693 301.36H627.533V302.5H626.453C625.837 302.5 625.365 302.356 625.037 302.068C624.709 301.78 624.545 301.312 624.545 300.664V297.004H623.765V295.888H624.545V294.244H625.925V295.888H627.533V297.004H625.925ZM633.87 297.58V298.732H628.938V297.58H633.87ZM636.39 300.64C637.158 299.976 637.762 299.432 638.202 299.008C638.65 298.576 639.022 298.128 639.318 297.664C639.614 297.2 639.762 296.736 639.762 296.272C639.762 295.792 639.646 295.416 639.414 295.144C639.19 294.872 638.834 294.736 638.346 294.736C637.874 294.736 637.506 294.888 637.242 295.192C636.986 295.488 636.85 295.888 636.834 296.392H635.514C635.538 295.48 635.81 294.784 636.33 294.304C636.858 293.816 637.526 293.572 638.334 293.572C639.206 293.572 639.886 293.812 640.374 294.292C640.87 294.772 641.118 295.412 641.118 296.212C641.118 296.788 640.97 297.344 640.674 297.88C640.386 298.408 640.038 298.884 639.63 299.308C639.23 299.724 638.718 300.208 638.094 300.76L637.554 301.24H641.358V302.38H635.526V301.384L636.39 300.64ZM643.292 302.584C643.044 302.584 642.836 302.5 642.668 302.332C642.5 302.164 642.416 301.956 642.416 301.708C642.416 301.46 642.5 301.252 642.668 301.084C642.836 300.916 643.044 300.832 643.292 300.832C643.532 300.832 643.736 300.916 643.904 301.084C644.072 301.252 644.156 301.46 644.156 301.708C644.156 301.956 644.072 302.164 643.904 302.332C643.736 302.5 643.532 302.584 643.292 302.584ZM643.292 297.544C643.044 297.544 642.836 297.46 642.668 297.292C642.5 297.124 642.416 296.916 642.416 296.668C642.416 296.42 642.5 296.212 642.668 296.044C642.836 295.876 643.044 295.792 643.292 295.792C643.532 295.792 643.736 295.876 643.904 296.044C644.072 296.212 644.156 296.42 644.156 296.668C644.156 296.916 644.072 297.124 643.904 297.292C643.736 297.46 643.532 297.544 643.292 297.544Z" fill="white"/>
<circle cx="687.75" cy="387" r="12" fill="white" fill-opacity="0.3"/>
<path d="M714.482 384.644C714.482 385.068 714.382 385.468 714.182 385.844C713.982 386.22 713.662 386.528 713.222 386.768C712.782 387 712.218 387.116 711.53 387.116H710.018V390.5H708.65V382.16H711.53C712.17 382.16 712.71 382.272 713.15 382.496C713.598 382.712 713.93 383.008 714.146 383.384C714.37 383.76 714.482 384.18 714.482 384.644ZM711.53 386C712.05 386 712.438 385.884 712.694 385.652C712.95 385.412 713.078 385.076 713.078 384.644C713.078 383.732 712.562 383.276 711.53 383.276H710.018V386H711.53ZM721.847 387.032C721.847 387.28 721.831 387.504 721.799 387.704H716.747C716.787 388.232 716.983 388.656 717.335 388.976C717.687 389.296 718.119 389.456 718.631 389.456C719.367 389.456 719.887 389.148 720.191 388.532H721.667C721.467 389.14 721.103 389.64 720.575 390.032C720.055 390.416 719.407 390.608 718.631 390.608C717.999 390.608 717.431 390.468 716.927 390.188C716.431 389.9 716.039 389.5 715.751 388.988C715.471 388.468 715.331 387.868 715.331 387.188C715.331 386.508 715.467 385.912 715.739 385.4C716.019 384.88 716.407 384.48 716.903 384.2C717.407 383.92 717.983 383.78 718.631 383.78C719.255 383.78 719.811 383.916 720.299 384.188C720.787 384.46 721.167 384.844 721.439 385.34C721.711 385.828 721.847 386.392 721.847 387.032ZM720.419 386.6C720.411 386.096 720.231 385.692 719.879 385.388C719.527 385.084 719.091 384.932 718.571 384.932C718.099 384.932 717.695 385.084 717.359 385.388C717.023 385.684 716.823 386.088 716.759 386.6H720.419ZM724.561 384.848C724.761 384.512 725.025 384.252 725.353 384.068C725.689 383.876 726.085 383.78 726.541 383.78V385.196H726.193C725.657 385.196 725.249 385.332 724.969 385.604C724.697 385.876 724.561 386.348 724.561 387.02V390.5H723.193V383.888H724.561V384.848ZM730.198 390.608C729.678 390.608 729.21 390.516 728.794 390.332C728.386 390.14 728.062 389.884 727.822 389.564C727.582 389.236 727.454 388.872 727.438 388.472H728.854C728.878 388.752 729.01 388.988 729.25 389.18C729.498 389.364 729.806 389.456 730.174 389.456C730.558 389.456 730.854 389.384 731.062 389.24C731.278 389.088 731.386 388.896 731.386 388.664C731.386 388.416 731.266 388.232 731.026 388.112C730.794 387.992 730.422 387.86 729.91 387.716C729.414 387.58 729.01 387.448 728.698 387.32C728.386 387.192 728.114 386.996 727.882 386.732C727.658 386.468 727.546 386.12 727.546 385.688C727.546 385.336 727.65 385.016 727.858 384.728C728.066 384.432 728.362 384.2 728.746 384.032C729.138 383.864 729.586 383.78 730.09 383.78C730.842 383.78 731.446 383.972 731.902 384.356C732.366 384.732 732.614 385.248 732.646 385.904H731.278C731.254 385.608 731.134 385.372 730.918 385.196C730.702 385.02 730.41 384.932 730.042 384.932C729.682 384.932 729.406 385 729.214 385.136C729.022 385.272 728.926 385.452 728.926 385.676C728.926 385.852 728.99 386 729.118 386.12C729.246 386.24 729.402 386.336 729.586 386.408C729.77 386.472 730.042 386.556 730.402 386.66C730.882 386.788 731.274 386.92 731.578 387.056C731.89 387.184 732.158 387.376 732.382 387.632C732.606 387.888 732.722 388.228 732.73 388.652C732.73 389.028 732.626 389.364 732.418 389.66C732.21 389.956 731.914 390.188 731.53 390.356C731.154 390.524 730.71 390.608 730.198 390.608ZM737.076 390.608C736.452 390.608 735.888 390.468 735.384 390.188C734.88 389.9 734.484 389.5 734.196 388.988C733.908 388.468 733.764 387.868 733.764 387.188C733.764 386.516 733.912 385.92 734.208 385.4C734.504 384.88 734.908 384.48 735.42 384.2C735.932 383.92 736.504 383.78 737.136 383.78C737.768 383.78 738.34 383.92 738.852 384.2C739.364 384.48 739.768 384.88 740.064 385.4C740.36 385.92 740.508 386.516 740.508 387.188C740.508 387.86 740.356 388.456 740.052 388.976C739.748 389.496 739.332 389.9 738.804 390.188C738.284 390.468 737.708 390.608 737.076 390.608ZM737.076 389.42C737.428 389.42 737.756 389.336 738.06 389.168C738.372 389 738.624 388.748 738.816 388.412C739.008 388.076 739.104 387.668 739.104 387.188C739.104 386.708 739.012 386.304 738.828 385.976C738.644 385.64 738.4 385.388 738.096 385.22C737.792 385.052 737.464 384.968 737.112 384.968C736.76 384.968 736.432 385.052 736.128 385.22C735.832 385.388 735.596 385.64 735.42 385.976C735.244 386.304 735.156 386.708 735.156 387.188C735.156 387.9 735.336 388.452 735.696 388.844C736.064 389.228 736.524 389.42 737.076 389.42ZM745.197 383.78C745.717 383.78 746.181 383.888 746.589 384.104C747.005 384.32 747.329 384.64 747.561 385.064C747.793 385.488 747.909 386 747.909 386.6V390.5H746.553V386.804C746.553 386.212 746.405 385.76 746.109 385.448C745.813 385.128 745.409 384.968 744.897 384.968C744.385 384.968 743.977 385.128 743.673 385.448C743.377 385.76 743.229 386.212 743.229 386.804V390.5H741.861V383.888H743.229V384.644C743.453 384.372 743.737 384.16 744.081 384.008C744.433 383.856 744.805 383.78 745.197 383.78ZM754.73 385.58V386.732H749.798V385.58H754.73ZM756.469 383.912C756.517 383.168 756.801 382.588 757.321 382.172C757.849 381.756 758.521 381.548 759.337 381.548C759.897 381.548 760.381 381.648 760.789 381.848C761.197 382.048 761.505 382.32 761.713 382.664C761.921 383.008 762.025 383.396 762.025 383.828C762.025 384.324 761.893 384.748 761.629 385.1C761.365 385.452 761.049 385.688 760.681 385.808V385.856C761.153 386 761.521 386.264 761.785 386.648C762.049 387.024 762.181 387.508 762.181 388.1C762.181 388.572 762.073 388.992 761.857 389.36C761.641 389.728 761.321 390.02 760.897 390.236C760.473 390.444 759.965 390.548 759.373 390.548C758.509 390.548 757.797 390.328 757.237 389.888C756.685 389.44 756.389 388.8 756.349 387.968H757.669C757.701 388.392 757.865 388.74 758.161 389.012C758.457 389.276 758.857 389.408 759.361 389.408C759.849 389.408 760.225 389.276 760.489 389.012C760.753 388.74 760.885 388.392 760.885 387.968C760.885 387.408 760.705 387.012 760.345 386.78C759.993 386.54 759.449 386.42 758.713 386.42H758.401V385.292H758.725C759.373 385.284 759.865 385.176 760.201 384.968C760.545 384.76 760.717 384.432 760.717 383.984C760.717 383.6 760.593 383.296 760.345 383.072C760.097 382.84 759.745 382.724 759.289 382.724C758.841 382.724 758.493 382.84 758.245 383.072C757.997 383.296 757.849 383.576 757.801 383.912H756.469Z" fill="white"/>
</svg>
