<svg width="917" height="530" viewBox="0 0 917 530" fill="none" xmlns="http://www.w3.org/2000/svg">
<g clip-path="url(#clip0_28_227)">
<rect opacity="0.2" x="0.756592" y="40" width="916" height="490" rx="32" fill="white"/>
<path d="M378.302 15.41V23.75H376.934V15.41H378.302ZM383.434 17.03C383.954 17.03 384.418 17.138 384.826 17.354C385.242 17.57 385.566 17.89 385.798 18.314C386.03 18.738 386.146 19.25 386.146 19.85V23.75H384.79V20.054C384.79 19.462 384.642 19.01 384.346 18.698C384.05 18.378 383.646 18.218 383.134 18.218C382.622 18.218 382.214 18.378 381.91 18.698C381.614 19.01 381.466 19.462 381.466 20.054V23.75H380.098V17.138H381.466V17.894C381.69 17.622 381.974 17.41 382.318 17.258C382.67 17.106 383.042 17.03 383.434 17.03ZM390.447 22.526L392.319 17.138H393.771L391.251 23.75H389.619L387.111 17.138H388.575L390.447 22.526ZM400.865 20.282C400.865 20.53 400.849 20.754 400.817 20.954H395.765C395.805 21.482 396.001 21.906 396.353 22.226C396.705 22.546 397.137 22.706 397.649 22.706C398.385 22.706 398.905 22.398 399.209 21.782H400.685C400.485 22.39 400.121 22.89 399.593 23.282C399.073 23.666 398.425 23.858 397.649 23.858C397.017 23.858 396.449 23.718 395.945 23.438C395.449 23.15 395.057 22.75 394.769 22.238C394.489 21.718 394.349 21.118 394.349 20.438C394.349 19.758 394.485 19.162 394.757 18.65C395.037 18.13 395.425 17.73 395.921 17.45C396.425 17.17 397.001 17.03 397.649 17.03C398.273 17.03 398.829 17.166 399.317 17.438C399.805 17.71 400.185 18.094 400.457 18.59C400.729 19.078 400.865 19.642 400.865 20.282ZM399.437 19.85C399.429 19.346 399.249 18.942 398.897 18.638C398.545 18.334 398.109 18.182 397.589 18.182C397.117 18.182 396.713 18.334 396.377 18.638C396.041 18.934 395.841 19.338 395.777 19.85H399.437ZM404.611 23.858C404.091 23.858 403.623 23.766 403.207 23.582C402.799 23.39 402.475 23.134 402.235 22.814C401.995 22.486 401.867 22.122 401.851 21.722H403.267C403.291 22.002 403.423 22.238 403.663 22.43C403.911 22.614 404.219 22.706 404.587 22.706C404.971 22.706 405.267 22.634 405.475 22.49C405.691 22.338 405.799 22.146 405.799 21.914C405.799 21.666 405.679 21.482 405.439 21.362C405.207 21.242 404.835 21.11 404.323 20.966C403.827 20.83 403.423 20.698 403.111 20.57C402.799 20.442 402.527 20.246 402.295 19.982C402.071 19.718 401.959 19.37 401.959 18.938C401.959 18.586 402.063 18.266 402.271 17.978C402.479 17.682 402.775 17.45 403.159 17.282C403.551 17.114 403.999 17.03 404.503 17.03C405.255 17.03 405.859 17.222 406.315 17.606C406.779 17.982 407.027 18.498 407.059 19.154H405.691C405.667 18.858 405.547 18.622 405.331 18.446C405.115 18.27 404.823 18.182 404.455 18.182C404.095 18.182 403.819 18.25 403.627 18.386C403.435 18.522 403.339 18.702 403.339 18.926C403.339 19.102 403.403 19.25 403.531 19.37C403.659 19.49 403.815 19.586 403.999 19.658C404.183 19.722 404.455 19.806 404.815 19.91C405.295 20.038 405.687 20.17 405.991 20.306C406.303 20.434 406.571 20.626 406.795 20.882C407.019 21.138 407.135 21.478 407.143 21.902C407.143 22.278 407.039 22.614 406.831 22.91C406.623 23.206 406.327 23.438 405.943 23.606C405.567 23.774 405.123 23.858 404.611 23.858ZM410.217 18.254V21.914C410.217 22.162 410.273 22.342 410.385 22.454C410.505 22.558 410.705 22.61 410.985 22.61H411.825V23.75H410.745C410.129 23.75 409.657 23.606 409.329 23.318C409.001 23.03 408.837 22.562 408.837 21.914V18.254H408.057V17.138H408.837V15.494H410.217V17.138H411.825V18.254H410.217ZM413.782 16.262C413.534 16.262 413.326 16.178 413.158 16.01C412.99 15.842 412.906 15.634 412.906 15.386C412.906 15.138 412.99 14.93 413.158 14.762C413.326 14.594 413.534 14.51 413.782 14.51C414.022 14.51 414.226 14.594 414.394 14.762C414.562 14.93 414.646 15.138 414.646 15.386C414.646 15.634 414.562 15.842 414.394 16.01C414.226 16.178 414.022 16.262 413.782 16.262ZM414.454 17.138V23.75H413.086V17.138H414.454ZM418.914 17.03C419.426 17.03 419.878 17.134 420.27 17.342C420.67 17.542 420.982 17.794 421.206 18.098V17.138H422.586V23.858C422.586 24.466 422.458 25.006 422.202 25.478C421.946 25.958 421.574 26.334 421.086 26.606C420.606 26.878 420.03 27.014 419.358 27.014C418.462 27.014 417.718 26.802 417.126 26.378C416.534 25.962 416.198 25.394 416.118 24.674H417.474C417.578 25.018 417.798 25.294 418.134 25.502C418.478 25.718 418.886 25.826 419.358 25.826C419.91 25.826 420.354 25.658 420.69 25.322C421.034 24.986 421.206 24.498 421.206 23.858V22.754C420.974 23.066 420.658 23.33 420.258 23.546C419.866 23.754 419.418 23.858 418.914 23.858C418.338 23.858 417.81 23.714 417.33 23.426C416.858 23.13 416.482 22.722 416.202 22.202C415.93 21.674 415.794 21.078 415.794 20.414C415.794 19.75 415.93 19.162 416.202 18.65C416.482 18.138 416.858 17.742 417.33 17.462C417.81 17.174 418.338 17.03 418.914 17.03ZM421.206 20.438C421.206 19.982 421.11 19.586 420.918 19.25C420.734 18.914 420.49 18.658 420.186 18.482C419.882 18.306 419.554 18.218 419.202 18.218C418.85 18.218 418.522 18.306 418.218 18.482C417.914 18.65 417.666 18.902 417.474 19.238C417.29 19.566 417.198 19.958 417.198 20.414C417.198 20.87 417.29 21.27 417.474 21.614C417.666 21.958 417.914 22.222 418.218 22.406C418.53 22.582 418.858 22.67 419.202 22.67C419.554 22.67 419.882 22.582 420.186 22.406C420.49 22.23 420.734 21.974 420.918 21.638C421.11 21.294 421.206 20.894 421.206 20.438ZM423.927 20.414C423.927 19.75 424.063 19.162 424.335 18.65C424.615 18.138 424.991 17.742 425.463 17.462C425.943 17.174 426.471 17.03 427.047 17.03C427.567 17.03 428.019 17.134 428.403 17.342C428.795 17.542 429.107 17.794 429.339 18.098V17.138H430.719V23.75H429.339V22.766C429.107 23.078 428.791 23.338 428.391 23.546C427.991 23.754 427.535 23.858 427.023 23.858C426.455 23.858 425.935 23.714 425.463 23.426C424.991 23.13 424.615 22.722 424.335 22.202C424.063 21.674 423.927 21.078 423.927 20.414ZM429.339 20.438C429.339 19.982 429.243 19.586 429.051 19.25C428.867 18.914 428.623 18.658 428.319 18.482C428.015 18.306 427.687 18.218 427.335 18.218C426.983 18.218 426.655 18.306 426.351 18.482C426.047 18.65 425.799 18.902 425.607 19.238C425.423 19.566 425.331 19.958 425.331 20.414C425.331 20.87 425.423 21.27 425.607 21.614C425.799 21.958 426.047 22.222 426.351 22.406C426.663 22.582 426.991 22.67 427.335 22.67C427.687 22.67 428.015 22.582 428.319 22.406C428.623 22.23 428.867 21.974 429.051 21.638C429.243 21.294 429.339 20.894 429.339 20.438ZM434.112 18.254V21.914C434.112 22.162 434.168 22.342 434.28 22.454C434.4 22.558 434.6 22.61 434.88 22.61H435.72V23.75H434.64C434.024 23.75 433.552 23.606 433.224 23.318C432.896 23.03 432.732 22.562 432.732 21.914V18.254H431.952V17.138H432.732V15.494H434.112V17.138H435.72V18.254H434.112ZM437.677 16.262C437.429 16.262 437.221 16.178 437.053 16.01C436.885 15.842 436.801 15.634 436.801 15.386C436.801 15.138 436.885 14.93 437.053 14.762C437.221 14.594 437.429 14.51 437.677 14.51C437.917 14.51 438.121 14.594 438.289 14.762C438.457 14.93 438.541 15.138 438.541 15.386C438.541 15.634 438.457 15.842 438.289 16.01C438.121 16.178 437.917 16.262 437.677 16.262ZM438.349 17.138V23.75H436.981V17.138H438.349ZM443.013 23.858C442.389 23.858 441.825 23.718 441.321 23.438C440.817 23.15 440.421 22.75 440.133 22.238C439.845 21.718 439.701 21.118 439.701 20.438C439.701 19.766 439.849 19.17 440.145 18.65C440.441 18.13 440.845 17.73 441.357 17.45C441.869 17.17 442.441 17.03 443.073 17.03C443.705 17.03 444.277 17.17 444.789 17.45C445.301 17.73 445.705 18.13 446.001 18.65C446.297 19.17 446.445 19.766 446.445 20.438C446.445 21.11 446.293 21.706 445.989 22.226C445.685 22.746 445.269 23.15 444.741 23.438C444.221 23.718 443.645 23.858 443.013 23.858ZM443.013 22.67C443.365 22.67 443.693 22.586 443.997 22.418C444.309 22.25 444.561 21.998 444.753 21.662C444.945 21.326 445.041 20.918 445.041 20.438C445.041 19.958 444.949 19.554 444.765 19.226C444.581 18.89 444.337 18.638 444.033 18.47C443.729 18.302 443.401 18.218 443.049 18.218C442.697 18.218 442.369 18.302 442.065 18.47C441.769 18.638 441.533 18.89 441.357 19.226C441.181 19.554 441.093 19.958 441.093 20.438C441.093 21.15 441.273 21.702 441.633 22.094C442.001 22.478 442.461 22.67 443.013 22.67ZM451.133 17.03C451.653 17.03 452.117 17.138 452.525 17.354C452.941 17.57 453.265 17.89 453.497 18.314C453.729 18.738 453.845 19.25 453.845 19.85V23.75H452.489V20.054C452.489 19.462 452.341 19.01 452.045 18.698C451.749 18.378 451.345 18.218 450.833 18.218C450.321 18.218 449.913 18.378 449.609 18.698C449.313 19.01 449.165 19.462 449.165 20.054V23.75H447.797V17.138H449.165V17.894C449.389 17.622 449.673 17.41 450.017 17.258C450.369 17.106 450.741 17.03 451.133 17.03ZM458.251 19.562C458.251 18.746 458.439 18.014 458.815 17.366C459.199 16.718 459.715 16.214 460.363 15.854C461.019 15.486 461.735 15.302 462.511 15.302C463.399 15.302 464.187 15.522 464.875 15.962C465.571 16.394 466.075 17.01 466.387 17.81H464.743C464.527 17.37 464.227 17.042 463.843 16.826C463.459 16.61 463.015 16.502 462.511 16.502C461.959 16.502 461.467 16.626 461.035 16.874C460.603 17.122 460.263 17.478 460.015 17.942C459.775 18.406 459.655 18.946 459.655 19.562C459.655 20.178 459.775 20.718 460.015 21.182C460.263 21.646 460.603 22.006 461.035 22.262C461.467 22.51 461.959 22.634 462.511 22.634C463.015 22.634 463.459 22.526 463.843 22.31C464.227 22.094 464.527 21.766 464.743 21.326H466.387C466.075 22.126 465.571 22.742 464.875 23.174C464.187 23.606 463.399 23.822 462.511 23.822C461.727 23.822 461.011 23.642 460.363 23.282C459.715 22.914 459.199 22.406 458.815 21.758C458.439 21.11 458.251 20.378 458.251 19.562ZM467.533 20.414C467.533 19.75 467.669 19.162 467.941 18.65C468.221 18.138 468.597 17.742 469.069 17.462C469.549 17.174 470.077 17.03 470.653 17.03C471.173 17.03 471.625 17.134 472.009 17.342C472.401 17.542 472.713 17.794 472.945 18.098V17.138H474.325V23.75H472.945V22.766C472.713 23.078 472.397 23.338 471.997 23.546C471.597 23.754 471.141 23.858 470.629 23.858C470.061 23.858 469.541 23.714 469.069 23.426C468.597 23.13 468.221 22.722 467.941 22.202C467.669 21.674 467.533 21.078 467.533 20.414ZM472.945 20.438C472.945 19.982 472.849 19.586 472.657 19.25C472.473 18.914 472.229 18.658 471.925 18.482C471.621 18.306 471.293 18.218 470.941 18.218C470.589 18.218 470.261 18.306 469.957 18.482C469.653 18.65 469.405 18.902 469.213 19.238C469.029 19.566 468.937 19.958 468.937 20.414C468.937 20.87 469.029 21.27 469.213 21.614C469.405 21.958 469.653 22.222 469.957 22.406C470.269 22.582 470.597 22.67 470.941 22.67C471.293 22.67 471.621 22.582 471.925 22.406C472.229 22.23 472.473 21.974 472.657 21.638C472.849 21.294 472.945 20.894 472.945 20.438ZM479.457 17.03C479.977 17.03 480.441 17.138 480.849 17.354C481.265 17.57 481.589 17.89 481.821 18.314C482.053 18.738 482.169 19.25 482.169 19.85V23.75H480.813V20.054C480.813 19.462 480.665 19.01 480.369 18.698C480.073 18.378 479.669 18.218 479.157 18.218C478.645 18.218 478.237 18.378 477.933 18.698C477.637 19.01 477.489 19.462 477.489 20.054V23.75H476.121V17.138H477.489V17.894C477.713 17.622 477.997 17.41 478.341 17.258C478.693 17.106 479.065 17.03 479.457 17.03ZM486.47 22.526L488.342 17.138H489.794L487.274 23.75H485.642L483.134 17.138H484.598L486.47 22.526ZM490.372 20.414C490.372 19.75 490.508 19.162 490.78 18.65C491.06 18.138 491.436 17.742 491.908 17.462C492.388 17.174 492.916 17.03 493.492 17.03C494.012 17.03 494.464 17.134 494.848 17.342C495.24 17.542 495.552 17.794 495.784 18.098V17.138H497.164V23.75H495.784V22.766C495.552 23.078 495.236 23.338 494.836 23.546C494.436 23.754 493.98 23.858 493.468 23.858C492.9 23.858 492.38 23.714 491.908 23.426C491.436 23.13 491.06 22.722 490.78 22.202C490.508 21.674 490.372 21.078 490.372 20.414ZM495.784 20.438C495.784 19.982 495.688 19.586 495.496 19.25C495.312 18.914 495.068 18.658 494.764 18.482C494.46 18.306 494.132 18.218 493.78 18.218C493.428 18.218 493.1 18.306 492.796 18.482C492.492 18.65 492.244 18.902 492.052 19.238C491.868 19.566 491.776 19.958 491.776 20.414C491.776 20.87 491.868 21.27 492.052 21.614C492.244 21.958 492.492 22.222 492.796 22.406C493.108 22.582 493.436 22.67 493.78 22.67C494.132 22.67 494.46 22.582 494.764 22.406C495.068 22.23 495.312 21.974 495.496 21.638C495.688 21.294 495.784 20.894 495.784 20.438ZM501.361 23.858C500.841 23.858 500.373 23.766 499.957 23.582C499.549 23.39 499.225 23.134 498.985 22.814C498.745 22.486 498.617 22.122 498.601 21.722H500.017C500.041 22.002 500.173 22.238 500.413 22.43C500.661 22.614 500.969 22.706 501.337 22.706C501.721 22.706 502.017 22.634 502.225 22.49C502.441 22.338 502.549 22.146 502.549 21.914C502.549 21.666 502.429 21.482 502.189 21.362C501.957 21.242 501.585 21.11 501.073 20.966C500.577 20.83 500.173 20.698 499.861 20.57C499.549 20.442 499.277 20.246 499.045 19.982C498.821 19.718 498.709 19.37 498.709 18.938C498.709 18.586 498.813 18.266 499.021 17.978C499.229 17.682 499.525 17.45 499.909 17.282C500.301 17.114 500.749 17.03 501.253 17.03C502.005 17.03 502.609 17.222 503.065 17.606C503.529 17.982 503.777 18.498 503.809 19.154H502.441C502.417 18.858 502.297 18.622 502.081 18.446C501.865 18.27 501.573 18.182 501.205 18.182C500.845 18.182 500.569 18.25 500.377 18.386C500.185 18.522 500.089 18.702 500.089 18.926C500.089 19.102 500.153 19.25 500.281 19.37C500.409 19.49 500.565 19.586 500.749 19.658C500.933 19.722 501.205 19.806 501.565 19.91C502.045 20.038 502.437 20.17 502.741 20.306C503.053 20.434 503.321 20.626 503.545 20.882C503.769 21.138 503.885 21.478 503.893 21.902C503.893 22.278 503.789 22.614 503.581 22.91C503.373 23.206 503.077 23.438 502.693 23.606C502.317 23.774 501.873 23.858 501.361 23.858Z" fill="white"/>
</g>
<defs>
<clipPath id="clip0_28_227">
<rect x="0.756592" width="916" height="530" rx="32" fill="white"/>
</clipPath>
</defs>
</svg>
