<svg width="917" height="530" viewBox="0 0 917 530" fill="none" xmlns="http://www.w3.org/2000/svg">
<g clip-path="url(#clip0_116_51005)">
<rect opacity="0.2" x="0.756592" y="40" width="916" height="490" rx="32" fill="white"/>
<path d="M749.302 15.41V23.75H747.934V15.41H749.302ZM754.434 17.03C754.954 17.03 755.418 17.138 755.826 17.354C756.242 17.57 756.566 17.89 756.798 18.314C757.03 18.738 757.146 19.25 757.146 19.85V23.75H755.79V20.054C755.79 19.462 755.642 19.01 755.346 18.698C755.05 18.378 754.646 18.218 754.134 18.218C753.622 18.218 753.214 18.378 752.91 18.698C752.614 19.01 752.466 19.462 752.466 20.054V23.75H751.098V17.138H752.466V17.894C752.69 17.622 752.974 17.41 753.318 17.258C753.67 17.106 754.042 17.03 754.434 17.03ZM761.447 22.526L763.319 17.138H764.771L762.251 23.75H760.619L758.111 17.138H759.575L761.447 22.526ZM771.865 20.282C771.865 20.53 771.849 20.754 771.817 20.954H766.765C766.805 21.482 767.001 21.906 767.353 22.226C767.705 22.546 768.137 22.706 768.649 22.706C769.385 22.706 769.905 22.398 770.209 21.782H771.685C771.485 22.39 771.121 22.89 770.593 23.282C770.073 23.666 769.425 23.858 768.649 23.858C768.017 23.858 767.449 23.718 766.945 23.438C766.449 23.15 766.057 22.75 765.769 22.238C765.489 21.718 765.349 21.118 765.349 20.438C765.349 19.758 765.485 19.162 765.757 18.65C766.037 18.13 766.425 17.73 766.921 17.45C767.425 17.17 768.001 17.03 768.649 17.03C769.273 17.03 769.829 17.166 770.317 17.438C770.805 17.71 771.185 18.094 771.457 18.59C771.729 19.078 771.865 19.642 771.865 20.282ZM770.437 19.85C770.429 19.346 770.249 18.942 769.897 18.638C769.545 18.334 769.109 18.182 768.589 18.182C768.117 18.182 767.713 18.334 767.377 18.638C767.041 18.934 766.841 19.338 766.777 19.85H770.437ZM775.611 23.858C775.091 23.858 774.623 23.766 774.207 23.582C773.799 23.39 773.475 23.134 773.235 22.814C772.995 22.486 772.867 22.122 772.851 21.722H774.267C774.291 22.002 774.423 22.238 774.663 22.43C774.911 22.614 775.219 22.706 775.587 22.706C775.971 22.706 776.267 22.634 776.475 22.49C776.691 22.338 776.799 22.146 776.799 21.914C776.799 21.666 776.679 21.482 776.439 21.362C776.207 21.242 775.835 21.11 775.323 20.966C774.827 20.83 774.423 20.698 774.111 20.57C773.799 20.442 773.527 20.246 773.295 19.982C773.071 19.718 772.959 19.37 772.959 18.938C772.959 18.586 773.063 18.266 773.271 17.978C773.479 17.682 773.775 17.45 774.159 17.282C774.551 17.114 774.999 17.03 775.503 17.03C776.255 17.03 776.859 17.222 777.315 17.606C777.779 17.982 778.027 18.498 778.059 19.154H776.691C776.667 18.858 776.547 18.622 776.331 18.446C776.115 18.27 775.823 18.182 775.455 18.182C775.095 18.182 774.819 18.25 774.627 18.386C774.435 18.522 774.339 18.702 774.339 18.926C774.339 19.102 774.403 19.25 774.531 19.37C774.659 19.49 774.815 19.586 774.999 19.658C775.183 19.722 775.455 19.806 775.815 19.91C776.295 20.038 776.687 20.17 776.991 20.306C777.303 20.434 777.571 20.626 777.795 20.882C778.019 21.138 778.135 21.478 778.143 21.902C778.143 22.278 778.039 22.614 777.831 22.91C777.623 23.206 777.327 23.438 776.943 23.606C776.567 23.774 776.123 23.858 775.611 23.858ZM781.217 18.254V21.914C781.217 22.162 781.273 22.342 781.385 22.454C781.505 22.558 781.705 22.61 781.985 22.61H782.825V23.75H781.745C781.129 23.75 780.657 23.606 780.329 23.318C780.001 23.03 779.837 22.562 779.837 21.914V18.254H779.057V17.138H779.837V15.494H781.217V17.138H782.825V18.254H781.217ZM784.782 16.262C784.534 16.262 784.326 16.178 784.158 16.01C783.99 15.842 783.906 15.634 783.906 15.386C783.906 15.138 783.99 14.93 784.158 14.762C784.326 14.594 784.534 14.51 784.782 14.51C785.022 14.51 785.226 14.594 785.394 14.762C785.562 14.93 785.646 15.138 785.646 15.386C785.646 15.634 785.562 15.842 785.394 16.01C785.226 16.178 785.022 16.262 784.782 16.262ZM785.454 17.138V23.75H784.086V17.138H785.454ZM789.914 17.03C790.426 17.03 790.878 17.134 791.27 17.342C791.67 17.542 791.982 17.794 792.206 18.098V17.138H793.586V23.858C793.586 24.466 793.458 25.006 793.202 25.478C792.946 25.958 792.574 26.334 792.086 26.606C791.606 26.878 791.03 27.014 790.358 27.014C789.462 27.014 788.718 26.802 788.126 26.378C787.534 25.962 787.198 25.394 787.118 24.674H788.474C788.578 25.018 788.798 25.294 789.134 25.502C789.478 25.718 789.886 25.826 790.358 25.826C790.91 25.826 791.354 25.658 791.69 25.322C792.034 24.986 792.206 24.498 792.206 23.858V22.754C791.974 23.066 791.658 23.33 791.258 23.546C790.866 23.754 790.418 23.858 789.914 23.858C789.338 23.858 788.81 23.714 788.33 23.426C787.858 23.13 787.482 22.722 787.202 22.202C786.93 21.674 786.794 21.078 786.794 20.414C786.794 19.75 786.93 19.162 787.202 18.65C787.482 18.138 787.858 17.742 788.33 17.462C788.81 17.174 789.338 17.03 789.914 17.03ZM792.206 20.438C792.206 19.982 792.11 19.586 791.918 19.25C791.734 18.914 791.49 18.658 791.186 18.482C790.882 18.306 790.554 18.218 790.202 18.218C789.85 18.218 789.522 18.306 789.218 18.482C788.914 18.65 788.666 18.902 788.474 19.238C788.29 19.566 788.198 19.958 788.198 20.414C788.198 20.87 788.29 21.27 788.474 21.614C788.666 21.958 788.914 22.222 789.218 22.406C789.53 22.582 789.858 22.67 790.202 22.67C790.554 22.67 790.882 22.582 791.186 22.406C791.49 22.23 791.734 21.974 791.918 21.638C792.11 21.294 792.206 20.894 792.206 20.438ZM794.927 20.414C794.927 19.75 795.063 19.162 795.335 18.65C795.615 18.138 795.991 17.742 796.463 17.462C796.943 17.174 797.471 17.03 798.047 17.03C798.567 17.03 799.019 17.134 799.403 17.342C799.795 17.542 800.107 17.794 800.339 18.098V17.138H801.719V23.75H800.339V22.766C800.107 23.078 799.791 23.338 799.391 23.546C798.991 23.754 798.535 23.858 798.023 23.858C797.455 23.858 796.935 23.714 796.463 23.426C795.991 23.13 795.615 22.722 795.335 22.202C795.063 21.674 794.927 21.078 794.927 20.414ZM800.339 20.438C800.339 19.982 800.243 19.586 800.051 19.25C799.867 18.914 799.623 18.658 799.319 18.482C799.015 18.306 798.687 18.218 798.335 18.218C797.983 18.218 797.655 18.306 797.351 18.482C797.047 18.65 796.799 18.902 796.607 19.238C796.423 19.566 796.331 19.958 796.331 20.414C796.331 20.87 796.423 21.27 796.607 21.614C796.799 21.958 797.047 22.222 797.351 22.406C797.663 22.582 797.991 22.67 798.335 22.67C798.687 22.67 799.015 22.582 799.319 22.406C799.623 22.23 799.867 21.974 800.051 21.638C800.243 21.294 800.339 20.894 800.339 20.438ZM805.112 18.254V21.914C805.112 22.162 805.168 22.342 805.28 22.454C805.4 22.558 805.6 22.61 805.88 22.61H806.72V23.75H805.64C805.024 23.75 804.552 23.606 804.224 23.318C803.896 23.03 803.732 22.562 803.732 21.914V18.254H802.952V17.138H803.732V15.494H805.112V17.138H806.72V18.254H805.112ZM808.677 16.262C808.429 16.262 808.221 16.178 808.053 16.01C807.885 15.842 807.801 15.634 807.801 15.386C807.801 15.138 807.885 14.93 808.053 14.762C808.221 14.594 808.429 14.51 808.677 14.51C808.917 14.51 809.121 14.594 809.289 14.762C809.457 14.93 809.541 15.138 809.541 15.386C809.541 15.634 809.457 15.842 809.289 16.01C809.121 16.178 808.917 16.262 808.677 16.262ZM809.349 17.138V23.75H807.981V17.138H809.349ZM814.013 23.858C813.389 23.858 812.825 23.718 812.321 23.438C811.817 23.15 811.421 22.75 811.133 22.238C810.845 21.718 810.701 21.118 810.701 20.438C810.701 19.766 810.849 19.17 811.145 18.65C811.441 18.13 811.845 17.73 812.357 17.45C812.869 17.17 813.441 17.03 814.073 17.03C814.705 17.03 815.277 17.17 815.789 17.45C816.301 17.73 816.705 18.13 817.001 18.65C817.297 19.17 817.445 19.766 817.445 20.438C817.445 21.11 817.293 21.706 816.989 22.226C816.685 22.746 816.269 23.15 815.741 23.438C815.221 23.718 814.645 23.858 814.013 23.858ZM814.013 22.67C814.365 22.67 814.693 22.586 814.997 22.418C815.309 22.25 815.561 21.998 815.753 21.662C815.945 21.326 816.041 20.918 816.041 20.438C816.041 19.958 815.949 19.554 815.765 19.226C815.581 18.89 815.337 18.638 815.033 18.47C814.729 18.302 814.401 18.218 814.049 18.218C813.697 18.218 813.369 18.302 813.065 18.47C812.769 18.638 812.533 18.89 812.357 19.226C812.181 19.554 812.093 19.958 812.093 20.438C812.093 21.15 812.273 21.702 812.633 22.094C813.001 22.478 813.461 22.67 814.013 22.67ZM822.133 17.03C822.653 17.03 823.117 17.138 823.525 17.354C823.941 17.57 824.265 17.89 824.497 18.314C824.729 18.738 824.845 19.25 824.845 19.85V23.75H823.489V20.054C823.489 19.462 823.341 19.01 823.045 18.698C822.749 18.378 822.345 18.218 821.833 18.218C821.321 18.218 820.913 18.378 820.609 18.698C820.313 19.01 820.165 19.462 820.165 20.054V23.75H818.797V17.138H820.165V17.894C820.389 17.622 820.673 17.41 821.017 17.258C821.369 17.106 821.741 17.03 822.133 17.03ZM829.251 19.562C829.251 18.746 829.439 18.014 829.815 17.366C830.199 16.718 830.715 16.214 831.363 15.854C832.019 15.486 832.735 15.302 833.511 15.302C834.399 15.302 835.187 15.522 835.875 15.962C836.571 16.394 837.075 17.01 837.387 17.81H835.743C835.527 17.37 835.227 17.042 834.843 16.826C834.459 16.61 834.015 16.502 833.511 16.502C832.959 16.502 832.467 16.626 832.035 16.874C831.603 17.122 831.263 17.478 831.015 17.942C830.775 18.406 830.655 18.946 830.655 19.562C830.655 20.178 830.775 20.718 831.015 21.182C831.263 21.646 831.603 22.006 832.035 22.262C832.467 22.51 832.959 22.634 833.511 22.634C834.015 22.634 834.459 22.526 834.843 22.31C835.227 22.094 835.527 21.766 835.743 21.326H837.387C837.075 22.126 836.571 22.742 835.875 23.174C835.187 23.606 834.399 23.822 833.511 23.822C832.727 23.822 832.011 23.642 831.363 23.282C830.715 22.914 830.199 22.406 829.815 21.758C829.439 21.11 829.251 20.378 829.251 19.562ZM838.533 20.414C838.533 19.75 838.669 19.162 838.941 18.65C839.221 18.138 839.597 17.742 840.069 17.462C840.549 17.174 841.077 17.03 841.653 17.03C842.173 17.03 842.625 17.134 843.009 17.342C843.401 17.542 843.713 17.794 843.945 18.098V17.138H845.325V23.75H843.945V22.766C843.713 23.078 843.397 23.338 842.997 23.546C842.597 23.754 842.141 23.858 841.629 23.858C841.061 23.858 840.541 23.714 840.069 23.426C839.597 23.13 839.221 22.722 838.941 22.202C838.669 21.674 838.533 21.078 838.533 20.414ZM843.945 20.438C843.945 19.982 843.849 19.586 843.657 19.25C843.473 18.914 843.229 18.658 842.925 18.482C842.621 18.306 842.293 18.218 841.941 18.218C841.589 18.218 841.261 18.306 840.957 18.482C840.653 18.65 840.405 18.902 840.213 19.238C840.029 19.566 839.937 19.958 839.937 20.414C839.937 20.87 840.029 21.27 840.213 21.614C840.405 21.958 840.653 22.222 840.957 22.406C841.269 22.582 841.597 22.67 841.941 22.67C842.293 22.67 842.621 22.582 842.925 22.406C843.229 22.23 843.473 21.974 843.657 21.638C843.849 21.294 843.945 20.894 843.945 20.438ZM850.457 17.03C850.977 17.03 851.441 17.138 851.849 17.354C852.265 17.57 852.589 17.89 852.821 18.314C853.053 18.738 853.169 19.25 853.169 19.85V23.75H851.813V20.054C851.813 19.462 851.665 19.01 851.369 18.698C851.073 18.378 850.669 18.218 850.157 18.218C849.645 18.218 849.237 18.378 848.933 18.698C848.637 19.01 848.489 19.462 848.489 20.054V23.75H847.121V17.138H848.489V17.894C848.713 17.622 848.997 17.41 849.341 17.258C849.693 17.106 850.065 17.03 850.457 17.03ZM857.47 22.526L859.342 17.138H860.794L858.274 23.75H856.642L854.134 17.138H855.598L857.47 22.526ZM861.372 20.414C861.372 19.75 861.508 19.162 861.78 18.65C862.06 18.138 862.436 17.742 862.908 17.462C863.388 17.174 863.916 17.03 864.492 17.03C865.012 17.03 865.464 17.134 865.848 17.342C866.24 17.542 866.552 17.794 866.784 18.098V17.138H868.164V23.75H866.784V22.766C866.552 23.078 866.236 23.338 865.836 23.546C865.436 23.754 864.98 23.858 864.468 23.858C863.9 23.858 863.38 23.714 862.908 23.426C862.436 23.13 862.06 22.722 861.78 22.202C861.508 21.674 861.372 21.078 861.372 20.414ZM866.784 20.438C866.784 19.982 866.688 19.586 866.496 19.25C866.312 18.914 866.068 18.658 865.764 18.482C865.46 18.306 865.132 18.218 864.78 18.218C864.428 18.218 864.1 18.306 863.796 18.482C863.492 18.65 863.244 18.902 863.052 19.238C862.868 19.566 862.776 19.958 862.776 20.414C862.776 20.87 862.868 21.27 863.052 21.614C863.244 21.958 863.492 22.222 863.796 22.406C864.108 22.582 864.436 22.67 864.78 22.67C865.132 22.67 865.46 22.582 865.764 22.406C866.068 22.23 866.312 21.974 866.496 21.638C866.688 21.294 866.784 20.894 866.784 20.438ZM872.361 23.858C871.841 23.858 871.373 23.766 870.957 23.582C870.549 23.39 870.225 23.134 869.985 22.814C869.745 22.486 869.617 22.122 869.601 21.722H871.017C871.041 22.002 871.173 22.238 871.413 22.43C871.661 22.614 871.969 22.706 872.337 22.706C872.721 22.706 873.017 22.634 873.225 22.49C873.441 22.338 873.549 22.146 873.549 21.914C873.549 21.666 873.429 21.482 873.189 21.362C872.957 21.242 872.585 21.11 872.073 20.966C871.577 20.83 871.173 20.698 870.861 20.57C870.549 20.442 870.277 20.246 870.045 19.982C869.821 19.718 869.709 19.37 869.709 18.938C869.709 18.586 869.813 18.266 870.021 17.978C870.229 17.682 870.525 17.45 870.909 17.282C871.301 17.114 871.749 17.03 872.253 17.03C873.005 17.03 873.609 17.222 874.065 17.606C874.529 17.982 874.777 18.498 874.809 19.154H873.441C873.417 18.858 873.297 18.622 873.081 18.446C872.865 18.27 872.573 18.182 872.205 18.182C871.845 18.182 871.569 18.25 871.377 18.386C871.185 18.522 871.089 18.702 871.089 18.926C871.089 19.102 871.153 19.25 871.281 19.37C871.409 19.49 871.565 19.586 871.749 19.658C871.933 19.722 872.205 19.806 872.565 19.91C873.045 20.038 873.437 20.17 873.741 20.306C874.053 20.434 874.321 20.626 874.545 20.882C874.769 21.138 874.885 21.478 874.893 21.902C874.893 22.278 874.789 22.614 874.581 22.91C874.373 23.206 874.077 23.438 873.693 23.606C873.317 23.774 872.873 23.858 872.361 23.858Z" fill="white"/>
</g>
<defs>
<clipPath id="clip0_116_51005">
<rect x="0.756592" width="916" height="530" rx="32" fill="white"/>
</clipPath>
</defs>
</svg>
