<svg width="917" height="530" viewBox="0 0 917 530" fill="none" xmlns="http://www.w3.org/2000/svg">
<rect x="33.1316" y="71.375" width="299.25" height="39.25" rx="19.625" stroke="white" stroke-opacity="0.2" stroke-width="0.75"/>
<path d="M57.5574 94.5V87.0977H60.1746C60.601 87.0977 60.9786 87.1628 61.3074 87.293C61.6394 87.4232 61.9063 87.6022 62.1082 87.8301C62.31 88.0579 62.4613 88.3184 62.5623 88.6113C62.6664 88.901 62.7185 89.2168 62.7185 89.5586C62.7185 89.9004 62.6664 90.2178 62.5623 90.5107C62.4613 90.8037 62.31 91.0658 62.1082 91.2969C61.9063 91.5247 61.6394 91.7038 61.3074 91.834C60.9786 91.9642 60.601 92.0293 60.1746 92.0293H58.866V94.5H57.5574ZM58.866 90.7695H60.1746C60.588 90.7695 60.8972 90.6572 61.1023 90.4326C61.3106 90.208 61.4148 89.9199 61.4148 89.5684C61.4148 89.2135 61.3106 88.9238 61.1023 88.6992C60.8972 88.4746 60.588 88.3623 60.1746 88.3623H58.866V90.7695ZM70.7195 94.5V87.0977H75.407V88.3623H72.0281V90.0078H74.6892V91.2676H72.0281V93.2402H75.407V94.5H70.7195ZM83.7058 94.5V87.0977H86.7039C87.4428 87.0977 88.0157 87.2946 88.4226 87.6885C88.8295 88.0791 89.033 88.6064 89.033 89.2705C89.033 89.8304 88.8848 90.2959 88.5886 90.667C88.2924 91.0348 87.8708 91.266 87.324 91.3604L89.1648 94.5H87.6951L85.9031 91.4287H85.0144V94.5H83.7058ZM85.0144 90.1689H86.7234C87.0326 90.1689 87.2768 90.0908 87.4558 89.9346C87.6348 89.7783 87.7244 89.5602 87.7244 89.2803C87.7244 88.9971 87.6332 88.7741 87.4509 88.6113C87.2719 88.4453 87.0294 88.3623 86.7234 88.3623H85.0144V90.1689ZM96.6726 93.3184L97.4929 92.4688C97.6166 92.612 97.7273 92.7308 97.825 92.8252C97.9259 92.9196 98.0479 93.0189 98.1912 93.123C98.3376 93.224 98.4955 93.3005 98.6648 93.3525C98.8373 93.4046 99.0212 93.4307 99.2166 93.4307C99.6039 93.4307 99.8953 93.333 100.091 93.1377C100.286 92.9391 100.384 92.7096 100.384 92.4492C100.384 92.2962 100.344 92.1579 100.266 92.0342C100.191 91.9105 100.089 91.8063 99.9587 91.7217C99.8318 91.6338 99.6837 91.5524 99.5144 91.4775C99.3484 91.4027 99.1726 91.3294 98.9871 91.2578C98.8048 91.1829 98.6208 91.1048 98.4353 91.0234C98.253 90.9388 98.0772 90.8395 97.908 90.7256C97.7419 90.6084 97.5938 90.4798 97.4636 90.3398C97.3367 90.1966 97.2341 90.0192 97.156 89.8076C97.0811 89.596 97.0437 89.36 97.0437 89.0996C97.0437 88.4421 97.2651 87.9229 97.7078 87.542C98.1537 87.1611 98.7299 86.9707 99.4363 86.9707C100.123 86.9707 100.786 87.2035 101.424 87.6689L100.745 88.6895C100.354 88.3444 99.8969 88.1719 99.3728 88.1719C99.0473 88.1719 98.7934 88.2419 98.6111 88.3818C98.432 88.5218 98.3425 88.7171 98.3425 88.9678C98.3425 89.1663 98.4044 89.3389 98.5281 89.4854C98.6518 89.6318 98.8113 89.7523 99.0066 89.8467C99.2052 89.9378 99.4233 90.0273 99.6609 90.1152C99.9018 90.2031 100.141 90.3057 100.379 90.4229C100.616 90.5368 100.833 90.6719 101.028 90.8281C101.227 90.9844 101.388 91.196 101.511 91.4629C101.635 91.7266 101.697 92.0358 101.697 92.3906C101.697 93.071 101.482 93.6146 101.052 94.0215C100.623 94.4284 100.008 94.6318 99.2068 94.6318C98.891 94.6318 98.5981 94.5977 98.3279 94.5293C98.061 94.4609 97.7794 94.3258 97.4832 94.124C97.1869 93.9222 96.9167 93.6536 96.6726 93.3184ZM109.439 90.8086C109.439 90.2878 109.537 89.7913 109.732 89.3193C109.931 88.8473 110.199 88.4404 110.538 88.0986C110.88 87.7536 111.29 87.4801 111.768 87.2783C112.25 87.0732 112.761 86.9707 113.302 86.9707C113.835 86.9707 114.342 87.0716 114.82 87.2734C115.299 87.472 115.709 87.7422 116.051 88.084C116.396 88.4225 116.669 88.8278 116.871 89.2998C117.073 89.7718 117.174 90.2715 117.174 90.7988C117.174 91.3229 117.073 91.8226 116.871 92.2979C116.669 92.7731 116.396 93.1816 116.051 93.5234C115.705 93.862 115.294 94.1322 114.815 94.334C114.34 94.5326 113.839 94.6318 113.311 94.6318C112.611 94.6318 111.965 94.4658 111.373 94.1338C110.78 93.7985 110.31 93.3379 109.962 92.752C109.613 92.1628 109.439 91.515 109.439 90.8086ZM110.743 90.8184C110.743 91.2936 110.857 91.7314 111.085 92.1318C111.316 92.5322 111.628 92.8496 112.022 93.084C112.416 93.3151 112.846 93.4307 113.311 93.4307C113.777 93.4307 114.205 93.3135 114.595 93.0791C114.986 92.8447 115.294 92.5273 115.518 92.127C115.746 91.7233 115.86 91.2839 115.86 90.8086C115.86 90.3301 115.748 89.889 115.523 89.4854C115.299 89.0817 114.989 88.7627 114.595 88.5283C114.205 88.2907 113.774 88.1719 113.302 88.1719C112.83 88.1719 112.397 88.2923 112.003 88.5332C111.609 88.7741 111.3 89.098 111.075 89.5049C110.854 89.9085 110.743 90.3464 110.743 90.8184ZM125.272 94.5V87.0977H126.923L130.731 92.3613V87.0977H132.03V94.5H130.653L126.581 88.8701V94.5H125.272ZM139.928 93.3184L140.749 92.4688C140.872 92.612 140.983 92.7308 141.081 92.8252C141.182 92.9196 141.304 93.0189 141.447 93.123C141.594 93.224 141.751 93.3005 141.921 93.3525C142.093 93.4046 142.277 93.4307 142.472 93.4307C142.86 93.4307 143.151 93.333 143.346 93.1377C143.542 92.9391 143.639 92.7096 143.639 92.4492C143.639 92.2962 143.6 92.1579 143.522 92.0342C143.447 91.9105 143.345 91.8063 143.215 91.7217C143.088 91.6338 142.94 91.5524 142.77 91.4775C142.604 91.4027 142.428 91.3294 142.243 91.2578C142.061 91.1829 141.877 91.1048 141.691 91.0234C141.509 90.9388 141.333 90.8395 141.164 90.7256C140.998 90.6084 140.85 90.4798 140.719 90.3398C140.593 90.1966 140.49 90.0192 140.412 89.8076C140.337 89.596 140.3 89.36 140.3 89.0996C140.3 88.4421 140.521 87.9229 140.964 87.542C141.41 87.1611 141.986 86.9707 142.692 86.9707C143.379 86.9707 144.041 87.2035 144.679 87.6689L144.001 88.6895C143.61 88.3444 143.153 88.1719 142.629 88.1719C142.303 88.1719 142.049 88.2419 141.867 88.3818C141.688 88.5218 141.598 88.7171 141.598 88.9678C141.598 89.1663 141.66 89.3389 141.784 89.4854C141.908 89.6318 142.067 89.7523 142.262 89.8467C142.461 89.9378 142.679 90.0273 142.917 90.1152C143.158 90.2031 143.397 90.3057 143.635 90.4229C143.872 90.5368 144.089 90.6719 144.284 90.8281C144.483 90.9844 144.644 91.196 144.767 91.4629C144.891 91.7266 144.953 92.0358 144.953 92.3906C144.953 93.071 144.738 93.6146 144.308 94.0215C143.879 94.4284 143.263 94.6318 142.463 94.6318C142.147 94.6318 141.854 94.5977 141.584 94.5293C141.317 94.4609 141.035 94.3258 140.739 94.124C140.443 93.9222 140.173 93.6536 139.928 93.3184ZM162.796 94.5V87.0977H164.446L168.255 92.3613V87.0977H169.553V94.5H168.177L164.104 88.8701V94.5H162.796ZM177.354 94.5L180.313 87.0977H181.646L184.595 94.5H183.175L182.564 92.918H179.376L178.775 94.5H177.354ZM179.844 91.668H182.095L180.972 88.7285L179.844 91.668ZM192.391 94.5V87.0977H194.081L196.122 90.3594L198.192 87.0977H199.882V94.5H198.573V88.8896L196.742 91.751H195.502L193.7 88.8896V94.5H192.391ZM208.483 94.5V87.0977H213.171V88.3623H209.792V90.0078H212.453V91.2676H209.792V93.2402H213.171V94.5H208.483Z" fill="white" fill-opacity="0.7"/>
<rect x="47.7566" y="161" width="270" height="22" rx="11" fill="white"/>
<rect x="47.7566" y="185" width="270" height="22" rx="11" fill="white" fill-opacity="0.18"/>
<rect x="47.7566" y="253" width="270" height="22" rx="11" fill="white" fill-opacity="0.18"/>
<rect x="47.7566" y="277" width="270" height="22" rx="11" fill="white" fill-opacity="0.18"/>
<rect x="47.7566" y="345" width="270" height="22" rx="11" fill="white" fill-opacity="0.18"/>
<rect x="47.7566" y="369" width="270" height="22" rx="11" fill="white" fill-opacity="0.18"/>
<rect x="47.7566" y="393" width="211.5" height="22" rx="11" fill="white" fill-opacity="0.18"/>
<rect x="33.2566" y="458.5" width="300" height="39" rx="19.5" stroke="white" stroke-opacity="0.2"/>
<rect x="452.29" y="161" width="120" height="24" rx="12" fill="white"/>
<rect x="675.506" y="161" width="120" height="24" rx="12" fill="white" fill-opacity="0.15"/>
<rect x="562.78" y="245" width="120" height="24" rx="12" fill="white" fill-opacity="0.15"/>
<rect x="562.78" y="287" width="120" height="24" rx="12" fill="white" fill-opacity="0.15"/>
<rect x="675.506" y="375" width="120" height="24" rx="12" fill="white" fill-opacity="0.15"/>
<path opacity="0.5" d="M452.644 172.854C452.839 172.658 452.839 172.342 452.644 172.146L449.462 168.964C449.267 168.769 448.95 168.769 448.755 168.964C448.56 169.16 448.56 169.476 448.755 169.672L451.583 172.5L448.755 175.328C448.56 175.524 448.56 175.84 448.755 176.036C448.95 176.231 449.267 176.231 449.462 176.036L452.644 172.854ZM320.423 172.5C320.423 171.027 319.229 169.833 317.757 169.833C316.284 169.833 315.09 171.027 315.09 172.5C315.09 173.973 316.284 175.167 317.757 175.167C319.229 175.167 320.423 173.973 320.423 172.5ZM452.29 172L450.762 172L450.762 173L452.29 173L452.29 172ZM447.704 172L444.646 172L444.646 173L447.704 173L447.704 172ZM441.589 172L438.531 172L438.531 173L441.589 173L441.589 172ZM435.474 172L432.416 172L432.416 173L435.474 173L435.474 172ZM429.359 172L426.301 172L426.301 173L429.359 173L429.359 172ZM423.243 172L420.186 172L420.186 173L423.243 173L423.243 172ZM417.128 172L414.071 172L414.071 173L417.128 173L417.128 172ZM411.013 172L407.955 172L407.955 173L411.013 173L411.013 172ZM404.898 172L401.84 172L401.84 173L404.898 173L404.898 172ZM398.783 172L395.725 172L395.725 173L398.783 173L398.783 172ZM392.667 172L389.61 172L389.61 173L392.667 173L392.667 172ZM386.552 172L383.495 172L383.495 173L386.552 173L386.552 172ZM380.437 172L377.38 172L377.38 173L380.437 173L380.437 172ZM374.322 172L371.264 172L371.264 173L374.322 173L374.322 172ZM368.207 172L365.149 172L365.149 173L368.207 173L368.207 172ZM362.092 172L359.034 172L359.034 173L362.092 173L362.092 172ZM355.976 172L352.919 172L352.919 173L355.976 173L355.976 172ZM349.861 172L346.804 172L346.804 173L349.861 173L349.861 172ZM343.746 172L340.688 172L340.688 173L343.746 173L343.746 172ZM337.631 172L334.573 172L334.573 173L337.631 173L337.631 172ZM331.516 172L328.458 172L328.458 173L331.516 173L331.516 172ZM325.401 172L322.343 172L322.343 173L325.401 173L325.401 172ZM319.285 172L317.757 172L317.757 173L319.285 173L319.285 172Z" fill="white"/>
</svg>
