<svg width="916" height="531" viewBox="0 0 916 531" fill="none" xmlns="http://www.w3.org/2000/svg">
<g clip-path="url(#clip0_122_34789)">
<path d="M32.2402 80.5254V79.3594H39.1309V80.5254H36.3066V88.2422H35.0703V80.5254H32.2402ZM39.0078 85.4238C39.0078 84.8926 39.1309 84.4004 39.377 83.9473C39.623 83.4902 39.9707 83.125 40.4199 82.8516C40.8691 82.5742 41.3711 82.4355 41.9258 82.4355C42.3398 82.4355 42.7285 82.5176 43.0918 82.6816C43.4551 82.8418 43.7637 83.0566 44.0176 83.3262C44.2715 83.5957 44.4707 83.9121 44.6152 84.2754C44.7637 84.6387 44.8379 85.0176 44.8379 85.4121C44.8379 85.5176 44.8301 85.6484 44.8145 85.8047H40.1445C40.2266 86.2539 40.4355 86.625 40.7715 86.918C41.1113 87.207 41.5195 87.3516 41.9961 87.3516C42.3125 87.3516 42.6133 87.2832 42.8984 87.1465C43.1836 87.0098 43.4141 86.8184 43.5898 86.5723L44.4102 87.1992C44.1445 87.5742 43.7988 87.8691 43.373 88.084C42.9473 88.2949 42.4883 88.4004 41.9961 88.4004C41.1641 88.4004 40.457 88.1133 39.875 87.5391C39.2969 86.9648 39.0078 86.2598 39.0078 85.4238ZM40.1855 84.8965H43.666C43.5957 84.4941 43.4004 84.1602 43.0801 83.8945C42.7637 83.625 42.3828 83.4902 41.9375 83.4902C41.5039 83.4902 41.1289 83.6211 40.8125 83.8828C40.5 84.1445 40.291 84.4824 40.1855 84.8965ZM45.2891 88.2422L47.3223 85.2422L45.4707 82.541H46.7656L47.9668 84.3047L49.168 82.541H50.4629L48.6172 85.2422L50.6445 88.2422H49.3613L47.9668 86.1797L46.5781 88.2422H45.2891ZM51.084 83.6367V82.541H51.9805V80.6074H53.1465V82.541H54.6934V83.6367H53.1465V86.3555C53.1465 86.6992 53.1992 86.9453 53.3047 87.0938C53.4102 87.2422 53.6094 87.3164 53.9023 87.3164C54.1914 87.3164 54.4043 87.2891 54.541 87.2344V88.2656C54.3184 88.3555 54.0176 88.4004 53.6387 88.4004C53.3652 88.4004 53.127 88.3633 52.9238 88.2891C52.7246 88.2188 52.5645 88.127 52.4434 88.0137C52.3262 87.9004 52.2305 87.7578 52.1562 87.5859C52.0859 87.4141 52.0391 87.2422 52.0156 87.0703C51.9922 86.8984 51.9805 86.7051 51.9805 86.4902V83.6367H51.084ZM56.4863 88.1016C56.3457 87.957 56.2754 87.7793 56.2754 87.5684C56.2754 87.3574 56.3457 87.1836 56.4863 87.0469C56.6309 86.9062 56.8086 86.8359 57.0195 86.8359C57.2305 86.8359 57.4043 86.9062 57.541 87.0469C57.6816 87.1836 57.752 87.3574 57.752 87.5684C57.752 87.7793 57.6816 87.957 57.541 88.1016C57.4043 88.2422 57.2305 88.3125 57.0195 88.3125C56.8086 88.3125 56.6309 88.2422 56.4863 88.1016ZM56.4863 83.8184C56.3457 83.6738 56.2754 83.4961 56.2754 83.2852C56.2754 83.0742 56.3457 82.8984 56.4863 82.7578C56.6309 82.6133 56.8086 82.541 57.0195 82.541C57.2305 82.541 57.4043 82.6133 57.541 82.7578C57.6816 82.8984 57.752 83.0742 57.752 83.2852C57.752 83.4961 57.6816 83.6738 57.541 83.8184C57.4043 83.959 57.2305 84.0293 57.0195 84.0293C56.8086 84.0293 56.6309 83.959 56.4863 83.8184Z" fill="white"/>
<path opacity="0.1" d="M518 105.242H40C35.5817 105.242 32 108.653 32 112.861V117.623C32 121.831 35.5817 125.242 40 125.242H518C522.418 125.242 526 121.831 526 117.623V112.861C526 108.653 522.418 105.242 518 105.242Z" fill="white"/>
<path opacity="0.1" d="M518 129.242H40C35.5817 129.242 32 132.653 32 136.861V141.623C32 145.831 35.5817 149.242 40 149.242H518C522.418 149.242 526 145.831 526 141.623V136.861C526 132.653 522.418 129.242 518 129.242Z" fill="white"/>
<path opacity="0.1" d="M518 153.242H40C35.5817 153.242 32 156.653 32 160.861V165.623C32 169.831 35.5817 173.242 40 173.242H518C522.418 173.242 526 169.831 526 165.623V160.861C526 156.653 522.418 153.242 518 153.242Z" fill="white"/>
<path opacity="0.1" d="M518 177.242H40C35.5817 177.242 32 180.653 32 184.861V189.623C32 193.831 35.5817 197.242 40 197.242H518C522.418 197.242 526 193.831 526 189.623V184.861C526 180.653 522.418 177.242 518 177.242Z" fill="white"/>
<path opacity="0.1" d="M485 201.242H40C35.5817 201.242 32 204.653 32 208.861V213.623C32 217.831 35.5817 221.242 40 221.242H485C489.418 221.242 493 217.831 493 213.623V208.861C493 204.653 489.418 201.242 485 201.242Z" fill="white"/>
<path opacity="0.1" d="M508 225.242H40C35.5817 225.242 32 228.653 32 232.861V237.623C32 241.831 35.5817 245.242 40 245.242H508C512.418 245.242 516 241.831 516 237.623V232.861C516 228.653 512.418 225.242 508 225.242Z" fill="white"/>
<path opacity="0.1" d="M500 249.242H40C35.5817 249.242 32 252.653 32 256.861V261.623C32 265.831 35.5817 269.242 40 269.242H500C504.418 269.242 508 265.831 508 261.623V256.861C508 252.653 504.418 249.242 500 249.242Z" fill="white"/>
<path opacity="0.1" d="M421 273.242H40C35.5817 273.242 32 276.653 32 280.861V285.623C32 289.831 35.5817 293.242 40 293.242H421C425.418 293.242 429 289.831 429 285.623V280.861C429 276.653 425.418 273.242 421 273.242Z" fill="white"/>
<path opacity="0.1" d="M485 309.242H40C35.5817 309.242 32 312.653 32 316.861V321.623C32 325.831 35.5817 329.242 40 329.242H485C489.418 329.242 493 325.831 493 321.623V316.861C493 312.653 489.418 309.242 485 309.242Z" fill="white"/>
<path opacity="0.1" d="M477 332.242H40C35.5817 332.242 32 335.653 32 339.861V344.623C32 348.831 35.5817 352.242 40 352.242H477C481.418 352.242 485 348.831 485 344.623V339.861C485 335.653 481.418 332.242 477 332.242Z" fill="white"/>
<path opacity="0.1" d="M402 355.242H40C35.5817 355.242 32 358.653 32 362.861V367.623C32 371.831 35.5817 375.242 40 375.242H402C406.418 375.242 410 371.831 410 367.623V362.861C410 358.653 406.418 355.242 402 355.242Z" fill="white"/>
<path opacity="0.1" d="M485 391.242H40C35.5817 391.242 32 394.653 32 398.861V403.623C32 407.831 35.5817 411.242 40 411.242H485C489.418 411.242 493 407.831 493 403.623V398.861C493 394.653 489.418 391.242 485 391.242Z" fill="white"/>
<path opacity="0.1" d="M477 414.242H40C35.5817 414.242 32 417.653 32 421.861V426.623C32 430.831 35.5817 434.242 40 434.242H477C481.418 434.242 485 430.831 485 426.623V421.861C485 417.653 481.418 414.242 477 414.242Z" fill="white"/>
<path opacity="0.1" d="M402 437.242H40C35.5817 437.242 32 440.653 32 444.861V449.623C32 453.831 35.5817 457.242 40 457.242H402C406.418 457.242 410 453.831 410 449.623V444.861C410 440.653 406.418 437.242 402 437.242Z" fill="white"/>
<g clip-path="url(#clip1_122_34789)">
<rect opacity="0.2" x="-0.243408" y="40.625" width="916.243" height="490" rx="32" fill="white"/>
<path d="M46.7695 24.625V15.7422H49.2305C50.1719 15.7422 50.8965 15.9453 51.4043 16.3516C51.916 16.7539 52.1719 17.3281 52.1719 18.0742C52.1719 19.0078 51.748 19.6309 50.9004 19.9434C51.4316 20.0723 51.834 20.334 52.1074 20.7285C52.3809 21.1191 52.5176 21.5898 52.5176 22.1406C52.5176 22.4805 52.4629 22.7891 52.3535 23.0664C52.248 23.3438 52.0977 23.5781 51.9023 23.7695C51.7109 23.9609 51.4805 24.1211 51.2109 24.25C50.9453 24.3789 50.6543 24.4746 50.3379 24.5371C50.0254 24.5957 49.6875 24.625 49.3242 24.625H46.7695ZM47.9941 23.4707H49.2891C49.9062 23.4707 50.3945 23.3574 50.7539 23.1309C51.1133 22.9043 51.293 22.5391 51.293 22.0352C51.293 21.543 51.1172 21.1738 50.7656 20.9277C50.4141 20.6816 49.9141 20.5586 49.2656 20.5586H47.9941V23.4707ZM47.9941 19.4043H49.4004C50.4316 19.4043 50.9473 18.9922 50.9473 18.168C50.9473 17.7422 50.8047 17.4238 50.5195 17.2129C50.2344 17.002 49.8203 16.8965 49.2773 16.8965H47.9941V19.4043ZM53.8945 24.625V18.9238H55.043V19.6094C55.3086 19.293 55.5996 19.082 55.916 18.9766C56.2324 18.8711 56.6816 18.8184 57.2637 18.8184V19.9199C56.8066 19.9199 56.4258 19.9629 56.1211 20.0488C55.8203 20.1348 55.5938 20.2637 55.4414 20.4355C55.2891 20.6035 55.1836 20.7852 55.125 20.9805C55.0703 21.1719 55.043 21.4023 55.043 21.6719V24.625H53.8945ZM58.1016 23.3008C57.8359 22.8438 57.7031 22.3457 57.7031 21.8066C57.7031 21.2676 57.834 20.7695 58.0957 20.3125C58.3613 19.8555 58.7227 19.4922 59.1797 19.2227C59.6406 18.9531 60.1445 18.8184 60.6914 18.8184C61.2344 18.8184 61.7363 18.9531 62.1973 19.2227C62.6621 19.4883 63.0293 19.8516 63.2988 20.3125C63.5684 20.7695 63.7031 21.2676 63.7031 21.8066C63.7031 22.3418 63.5684 22.8379 63.2988 23.2949C63.0293 23.752 62.6621 24.1152 62.1973 24.3848C61.7363 24.6504 61.2344 24.7832 60.6914 24.7832C60.1523 24.7832 59.6523 24.6504 59.1914 24.3848C58.7344 24.1191 58.3711 23.7578 58.1016 23.3008ZM58.8398 21.8184C58.8398 22.3301 59.0195 22.7715 59.3789 23.1426C59.7422 23.5137 60.1836 23.6992 60.7031 23.6992C61.2227 23.6992 61.6621 23.5117 62.0215 23.1367C62.3809 22.7578 62.5605 22.3105 62.5605 21.7949C62.5605 21.2793 62.3789 20.8359 62.0156 20.4648C61.6562 20.0938 61.2188 19.9082 60.7031 19.9082C60.1797 19.9082 59.7383 20.0977 59.3789 20.4766C59.0195 20.8555 58.8398 21.3027 58.8398 21.8184ZM64.2422 18.9238H65.5195L66.9902 23.125L68.4902 18.9238H69.5625L71.0625 23.125L72.5391 18.9238H73.8223L71.6719 24.625H70.4707L69.0352 20.5234L67.6055 24.625H66.3809L64.2422 18.9238ZM74.4023 24.0391L75.0234 23.1484C75.5 23.5391 76.0312 23.7344 76.6172 23.7344C76.918 23.7344 77.1504 23.6758 77.3145 23.5586C77.4824 23.4414 77.5664 23.2852 77.5664 23.0898C77.5664 22.9375 77.5117 22.8105 77.4023 22.709C77.293 22.6035 77.1504 22.5215 76.9746 22.4629C76.8027 22.4004 76.6113 22.3418 76.4004 22.2871C76.1895 22.2324 75.9785 22.166 75.7676 22.0879C75.5566 22.0059 75.3633 21.9102 75.1875 21.8008C75.0156 21.6875 74.875 21.5293 74.7656 21.3262C74.6562 21.123 74.6016 20.8828 74.6016 20.6055C74.6016 20.0781 74.7793 19.6484 75.1348 19.3164C75.4941 18.9844 75.9688 18.8184 76.5586 18.8184C77.3164 18.8184 77.9609 19.0332 78.4922 19.4629L77.8828 20.3184C77.4766 20.0215 77.0391 19.873 76.5703 19.873C76.3008 19.873 76.0957 19.9316 75.9551 20.0488C75.8145 20.1621 75.7441 20.3027 75.7441 20.4707C75.7441 20.6152 75.7988 20.7383 75.9082 20.8398C76.0176 20.9414 76.1582 21.0254 76.3301 21.0918C76.502 21.1543 76.6934 21.2168 76.9043 21.2793C77.1152 21.3379 77.3262 21.4102 77.5371 21.4961C77.748 21.582 77.9395 21.6855 78.1113 21.8066C78.2832 21.9238 78.4238 22.0859 78.5332 22.293C78.6426 22.5 78.6973 22.7422 78.6973 23.0195C78.6973 23.5625 78.5059 23.9922 78.123 24.3086C77.7402 24.625 77.2266 24.7832 76.582 24.7832C75.7812 24.7832 75.0547 24.5352 74.4023 24.0391ZM79.6758 21.8066C79.6758 21.2754 79.7988 20.7832 80.0449 20.3301C80.291 19.873 80.6387 19.5078 81.0879 19.2344C81.5371 18.957 82.0391 18.8184 82.5938 18.8184C83.0078 18.8184 83.3965 18.9004 83.7598 19.0645C84.123 19.2246 84.4316 19.4395 84.6855 19.709C84.9395 19.9785 85.1387 20.2949 85.2832 20.6582C85.4316 21.0215 85.5059 21.4004 85.5059 21.7949C85.5059 21.9004 85.498 22.0312 85.4824 22.1875H80.8125C80.8945 22.6367 81.1035 23.0078 81.4395 23.3008C81.7793 23.5898 82.1875 23.7344 82.6641 23.7344C82.9805 23.7344 83.2812 23.666 83.5664 23.5293C83.8516 23.3926 84.082 23.2012 84.2578 22.9551L85.0781 23.582C84.8125 23.957 84.4668 24.252 84.041 24.4668C83.6152 24.6777 83.1562 24.7832 82.6641 24.7832C81.832 24.7832 81.125 24.4961 80.543 23.9219C79.9648 23.3477 79.6758 22.6426 79.6758 21.8066ZM80.8535 21.2793H84.334C84.2637 20.877 84.0684 20.543 83.748 20.2773C83.4316 20.0078 83.0508 19.873 82.6055 19.873C82.1719 19.873 81.7969 20.0039 81.4805 20.2656C81.168 20.5273 80.959 20.8652 80.8535 21.2793ZM86.918 24.625V18.9238H88.0664V19.6094C88.332 19.293 88.623 19.082 88.9395 18.9766C89.2559 18.8711 89.7051 18.8184 90.2871 18.8184V19.9199C89.8301 19.9199 89.4492 19.9629 89.1445 20.0488C88.8438 20.1348 88.6172 20.2637 88.4648 20.4355C88.3125 20.6035 88.207 20.7852 88.1484 20.9805C88.0938 21.1719 88.0664 21.4023 88.0664 21.6719V24.625H86.918ZM91.9043 24.4844C91.7637 24.3398 91.6934 24.1621 91.6934 23.9512C91.6934 23.7402 91.7637 23.5664 91.9043 23.4297C92.0488 23.2891 92.2266 23.2188 92.4375 23.2188C92.6484 23.2188 92.8223 23.2891 92.959 23.4297C93.0996 23.5664 93.1699 23.7402 93.1699 23.9512C93.1699 24.1621 93.0996 24.3398 92.959 24.4844C92.8223 24.625 92.6484 24.6953 92.4375 24.6953C92.2266 24.6953 92.0488 24.625 91.9043 24.4844ZM91.9043 20.2012C91.7637 20.0566 91.6934 19.8789 91.6934 19.668C91.6934 19.457 91.7637 19.2812 91.9043 19.1406C92.0488 18.9961 92.2266 18.9238 92.4375 18.9238C92.6484 18.9238 92.8223 18.9961 92.959 19.1406C93.0996 19.2812 93.1699 19.457 93.1699 19.668C93.1699 19.8789 93.0996 20.0566 92.959 20.2012C92.8223 20.3418 92.6484 20.4121 92.4375 20.4121C92.2266 20.4121 92.0488 20.3418 91.9043 20.2012Z" fill="white"/>
</g>
<path opacity="0.1" d="M518 104.625H40C35.5817 104.625 32 108.036 32 112.244V117.006C32 121.214 35.5817 124.625 40 124.625H518C522.418 124.625 526 121.214 526 117.006V112.244C526 108.036 522.418 104.625 518 104.625Z" fill="white"/>
<path opacity="0.1" d="M518 128.625H40C35.5817 128.625 32 132.036 32 136.244V141.006C32 145.214 35.5817 148.625 40 148.625H518C522.418 148.625 526 145.214 526 141.006V136.244C526 132.036 522.418 128.625 518 128.625Z" fill="white"/>
<path opacity="0.1" d="M518 152.625H40C35.5817 152.625 32 156.036 32 160.244V165.006C32 169.214 35.5817 172.625 40 172.625H518C522.418 172.625 526 169.214 526 165.006V160.244C526 156.036 522.418 152.625 518 152.625Z" fill="white"/>
<path opacity="0.1" d="M518 176.625H40C35.5817 176.625 32 180.036 32 184.244V189.006C32 193.214 35.5817 196.625 40 196.625H518C522.418 196.625 526 193.214 526 189.006V184.244C526 180.036 522.418 176.625 518 176.625Z" fill="white"/>
<path d="M599.387 89.1836C599.387 88.5586 599.506 87.9629 599.744 87.3965C599.986 86.8301 600.312 86.3438 600.723 85.9375C601.133 85.5273 601.623 85.2031 602.193 84.9648C602.768 84.7227 603.375 84.6016 604.016 84.6016C604.664 84.6016 605.271 84.7227 605.838 84.9648C606.408 85.2031 606.908 85.5449 607.338 85.9902L606.465 86.7637C606.145 86.4277 605.775 86.1699 605.357 85.9902C604.939 85.8066 604.5 85.7148 604.039 85.7148C603.57 85.7148 603.121 85.8105 602.691 86.002C602.266 86.1934 601.9 86.4473 601.596 86.7637C601.295 87.0801 601.055 87.4512 600.875 87.877C600.695 88.3027 600.605 88.7422 600.605 89.1953C600.605 89.6562 600.697 90.1016 600.881 90.5312C601.064 90.9609 601.309 91.332 601.613 91.6445C601.922 91.9531 602.285 92.2012 602.703 92.3887C603.121 92.5723 603.555 92.6641 604.004 92.6641C604.457 92.6641 604.891 92.5742 605.305 92.3945C605.723 92.2109 606.09 91.9648 606.406 91.6562L607.209 92.459C606.299 93.3418 605.23 93.7832 604.004 93.7832C603.176 93.7832 602.408 93.582 601.701 93.1797C600.994 92.7773 600.432 92.2227 600.014 91.5156C599.596 90.8086 599.387 90.0312 599.387 89.1836ZM608.539 92.1719V84.7422H609.688V91.8145C609.688 92.1309 609.736 92.3574 609.834 92.4941C609.936 92.6309 610.123 92.6992 610.396 92.6992C610.518 92.6992 610.613 92.6953 610.684 92.6875V93.6953C610.441 93.7539 610.23 93.7832 610.051 93.7832C609.578 93.7832 609.207 93.6445 608.938 93.3672C608.672 93.0859 608.539 92.6875 608.539 92.1719ZM611.293 90.8066C611.293 90.3926 611.371 90 611.527 89.6289C611.688 89.2578 611.902 88.9414 612.172 88.6797C612.441 88.4141 612.762 88.2051 613.133 88.0527C613.504 87.8965 613.895 87.8184 614.305 87.8184C615.09 87.8184 615.727 88.0977 616.215 88.6562V87.9238H617.363V93.625H616.215V92.9512C615.742 93.5059 615.105 93.7832 614.305 93.7832C613.887 93.7832 613.492 93.707 613.121 93.5547C612.75 93.3984 612.43 93.1895 612.16 92.9277C611.895 92.6621 611.684 92.3457 611.527 91.9785C611.371 91.6074 611.293 91.2168 611.293 90.8066ZM612.43 90.8066C612.43 91.3418 612.609 91.791 612.969 92.1543C613.328 92.5176 613.773 92.6992 614.305 92.6992C614.844 92.6992 615.293 92.5156 615.652 92.1484C616.012 91.7773 616.191 91.3301 616.191 90.8066C616.191 90.2832 616.01 89.8359 615.646 89.4648C615.283 89.0938 614.836 88.9082 614.305 88.9082C613.773 88.9082 613.328 89.0918 612.969 89.459C612.609 89.8262 612.43 90.2754 612.43 90.8066ZM619.338 86.5879C619.197 86.4434 619.127 86.2656 619.127 86.0547C619.127 85.8438 619.197 85.668 619.338 85.5273C619.482 85.3828 619.66 85.3105 619.871 85.3105C620.082 85.3105 620.256 85.3828 620.393 85.5273C620.533 85.668 620.604 85.8438 620.604 86.0547C620.604 86.2656 620.533 86.4434 620.393 86.5879C620.256 86.7285 620.082 86.7988 619.871 86.7988C619.66 86.7988 619.482 86.7285 619.338 86.5879ZM619.285 93.625V87.9238H620.445V93.625H619.285ZM622.367 93.625V87.9238H623.516V88.5391C623.738 88.2891 623.971 88.1074 624.213 87.9941C624.459 87.877 624.748 87.8184 625.08 87.8184C625.49 87.8184 625.855 87.9062 626.176 88.082C626.496 88.2539 626.738 88.5176 626.902 88.873C627.363 88.1699 627.996 87.8184 628.801 87.8184C629.461 87.8184 629.979 88.0332 630.354 88.4629C630.732 88.8887 630.922 89.5332 630.922 90.3965V93.625H629.768V90.6367C629.768 90.0469 629.68 89.6113 629.504 89.3301C629.328 89.0488 629.025 88.9082 628.596 88.9082C627.682 88.9082 627.225 89.5117 627.225 90.7188V93.625H626.064V90.6367C626.064 90.043 625.975 89.6074 625.795 89.3301C625.619 89.0488 625.316 88.9082 624.887 88.9082C623.973 88.9082 623.516 89.5117 623.516 90.7188V93.625H622.367ZM633.178 93.4844C633.037 93.3398 632.967 93.1621 632.967 92.9512C632.967 92.7402 633.037 92.5664 633.178 92.4297C633.322 92.2891 633.5 92.2188 633.711 92.2188C633.922 92.2188 634.096 92.2891 634.232 92.4297C634.373 92.5664 634.443 92.7402 634.443 92.9512C634.443 93.1621 634.373 93.3398 634.232 93.4844C634.096 93.625 633.922 93.6953 633.711 93.6953C633.5 93.6953 633.322 93.625 633.178 93.4844ZM633.178 89.2012C633.037 89.0566 632.967 88.8789 632.967 88.668C632.967 88.457 633.037 88.2812 633.178 88.1406C633.322 87.9961 633.5 87.9238 633.711 87.9238C633.922 87.9238 634.096 87.9961 634.232 88.1406C634.373 88.2812 634.443 88.457 634.443 88.668C634.443 88.8789 634.373 89.0566 634.232 89.2012C634.096 89.3418 633.922 89.4121 633.711 89.4121C633.5 89.4121 633.322 89.3418 633.178 89.2012Z" fill="white"/>
<rect opacity="0.2" x="599" y="104.625" width="282" height="20" rx="8" fill="white"/>
<rect opacity="0.2" x="599" y="128.625" width="282" height="20" rx="8" fill="white"/>
<rect opacity="0.2" x="599" y="152.625" width="282" height="20" rx="8" fill="white"/>
<rect opacity="0.2" x="599" y="176.625" width="282" height="20" rx="8" fill="white"/>
<path d="M599.387 217.16C599.387 216.535 599.504 215.941 599.738 215.379C599.977 214.816 600.299 214.332 600.705 213.926C601.115 213.516 601.607 213.191 602.182 212.953C602.76 212.711 603.375 212.59 604.027 212.59C604.664 212.59 605.268 212.707 605.838 212.941C606.412 213.176 606.904 213.494 607.314 213.896C607.729 214.299 608.057 214.783 608.299 215.35C608.541 215.916 608.662 216.52 608.662 217.16C608.662 217.848 608.516 218.475 608.223 219.041C607.934 219.607 607.496 220.084 606.91 220.471H608.861V221.625C606.791 221.633 605.164 221.637 603.98 221.637C603.359 221.637 602.766 221.523 602.199 221.297C601.637 221.07 601.148 220.762 600.734 220.371C600.324 219.98 599.996 219.506 599.75 218.947C599.508 218.389 599.387 217.793 599.387 217.16ZM600.605 217.172C600.605 217.809 600.758 218.383 601.062 218.895C601.367 219.406 601.779 219.805 602.299 220.09C602.818 220.371 603.395 220.512 604.027 220.512C604.66 220.512 605.236 220.369 605.756 220.084C606.275 219.799 606.686 219.4 606.986 218.889C607.287 218.373 607.438 217.797 607.438 217.16C607.438 216.52 607.289 215.938 606.992 215.414C606.695 214.887 606.285 214.473 605.762 214.172C605.238 213.867 604.66 213.715 604.027 213.715C603.547 213.715 603.092 213.807 602.662 213.99C602.236 214.174 601.873 214.422 601.572 214.734C601.275 215.043 601.039 215.41 600.863 215.836C600.691 216.258 600.605 216.703 600.605 217.172ZM609.822 219.311V215.924H610.988V218.982C610.988 219.268 611.008 219.51 611.047 219.709C611.086 219.904 611.156 220.08 611.258 220.236C611.359 220.393 611.506 220.51 611.697 220.588C611.889 220.662 612.129 220.699 612.418 220.699C612.707 220.699 612.947 220.662 613.139 220.588C613.334 220.51 613.482 220.393 613.584 220.236C613.689 220.08 613.762 219.904 613.801 219.709C613.84 219.51 613.859 219.268 613.859 218.982V215.924H615.008V219.311C615.008 220.959 614.145 221.783 612.418 221.783C610.688 221.783 609.822 220.959 609.822 219.311ZM616.355 218.807C616.355 218.275 616.479 217.783 616.725 217.33C616.971 216.873 617.318 216.508 617.768 216.234C618.217 215.957 618.719 215.818 619.273 215.818C619.688 215.818 620.076 215.9 620.439 216.064C620.803 216.225 621.111 216.439 621.365 216.709C621.619 216.979 621.818 217.295 621.963 217.658C622.111 218.021 622.186 218.4 622.186 218.795C622.186 218.9 622.178 219.031 622.162 219.188H617.492C617.574 219.637 617.783 220.008 618.119 220.301C618.459 220.59 618.867 220.734 619.344 220.734C619.66 220.734 619.961 220.666 620.246 220.529C620.531 220.393 620.762 220.201 620.938 219.955L621.758 220.582C621.492 220.957 621.146 221.252 620.721 221.467C620.295 221.678 619.836 221.783 619.344 221.783C618.512 221.783 617.805 221.496 617.223 220.922C616.645 220.348 616.355 219.643 616.355 218.807ZM617.533 218.279H621.014C620.943 217.877 620.748 217.543 620.428 217.277C620.111 217.008 619.73 216.873 619.285 216.873C618.852 216.873 618.477 217.004 618.16 217.266C617.848 217.527 617.639 217.865 617.533 218.279ZM623.035 221.039L623.656 220.148C624.133 220.539 624.664 220.734 625.25 220.734C625.551 220.734 625.783 220.676 625.947 220.559C626.115 220.441 626.199 220.285 626.199 220.09C626.199 219.938 626.145 219.811 626.035 219.709C625.926 219.604 625.783 219.521 625.607 219.463C625.436 219.4 625.244 219.342 625.033 219.287C624.822 219.232 624.611 219.166 624.4 219.088C624.189 219.006 623.996 218.91 623.82 218.801C623.648 218.688 623.508 218.529 623.398 218.326C623.289 218.123 623.234 217.883 623.234 217.605C623.234 217.078 623.412 216.648 623.768 216.316C624.127 215.984 624.602 215.818 625.191 215.818C625.949 215.818 626.594 216.033 627.125 216.463L626.516 217.318C626.109 217.021 625.672 216.873 625.203 216.873C624.934 216.873 624.729 216.932 624.588 217.049C624.447 217.162 624.377 217.303 624.377 217.471C624.377 217.615 624.432 217.738 624.541 217.84C624.65 217.941 624.791 218.025 624.963 218.092C625.135 218.154 625.326 218.217 625.537 218.279C625.748 218.338 625.959 218.41 626.17 218.496C626.381 218.582 626.572 218.686 626.744 218.807C626.916 218.924 627.057 219.086 627.166 219.293C627.275 219.5 627.33 219.742 627.33 220.02C627.33 220.562 627.139 220.992 626.756 221.309C626.373 221.625 625.859 221.783 625.215 221.783C624.414 221.783 623.688 221.535 623.035 221.039ZM627.975 217.02V215.924H628.871V213.99H630.037V215.924H631.584V217.02H630.037V219.738C630.037 220.082 630.09 220.328 630.195 220.477C630.301 220.625 630.5 220.699 630.793 220.699C631.082 220.699 631.295 220.672 631.432 220.617V221.648C631.209 221.738 630.908 221.783 630.529 221.783C630.256 221.783 630.018 221.746 629.814 221.672C629.615 221.602 629.455 221.51 629.334 221.396C629.217 221.283 629.121 221.141 629.047 220.969C628.977 220.797 628.93 220.625 628.906 220.453C628.883 220.281 628.871 220.088 628.871 219.873V217.02H627.975ZM632.979 214.588C632.838 214.443 632.768 214.266 632.768 214.055C632.768 213.844 632.838 213.668 632.979 213.527C633.123 213.383 633.301 213.311 633.512 213.311C633.723 213.311 633.896 213.383 634.033 213.527C634.174 213.668 634.244 213.844 634.244 214.055C634.244 214.266 634.174 214.443 634.033 214.588C633.896 214.729 633.723 214.799 633.512 214.799C633.301 214.799 633.123 214.729 632.979 214.588ZM632.926 221.625V215.924H634.086V221.625H632.926ZM635.926 220.301C635.66 219.844 635.527 219.346 635.527 218.807C635.527 218.268 635.658 217.77 635.92 217.312C636.186 216.855 636.547 216.492 637.004 216.223C637.465 215.953 637.969 215.818 638.516 215.818C639.059 215.818 639.561 215.953 640.021 216.223C640.486 216.488 640.854 216.852 641.123 217.312C641.393 217.77 641.527 218.268 641.527 218.807C641.527 219.342 641.393 219.838 641.123 220.295C640.854 220.752 640.486 221.115 640.021 221.385C639.561 221.65 639.059 221.783 638.516 221.783C637.977 221.783 637.477 221.65 637.016 221.385C636.559 221.119 636.195 220.758 635.926 220.301ZM636.664 218.818C636.664 219.33 636.844 219.771 637.203 220.143C637.566 220.514 638.008 220.699 638.527 220.699C639.047 220.699 639.486 220.512 639.846 220.137C640.205 219.758 640.385 219.311 640.385 218.795C640.385 218.279 640.203 217.836 639.84 217.465C639.48 217.094 639.043 216.908 638.527 216.908C638.004 216.908 637.562 217.098 637.203 217.477C636.844 217.855 636.664 218.303 636.664 218.818ZM642.969 221.625V215.924H644.117V216.539C644.328 216.305 644.562 216.127 644.82 216.006C645.078 215.881 645.396 215.818 645.775 215.818C646.486 215.818 647.055 216.033 647.48 216.463C647.91 216.893 648.125 217.537 648.125 218.396V221.625H646.965V218.637C646.965 217.484 646.5 216.908 645.57 216.908C644.602 216.908 644.117 217.512 644.117 218.719V221.625H642.969ZM650.381 221.484C650.24 221.34 650.17 221.162 650.17 220.951C650.17 220.74 650.24 220.566 650.381 220.43C650.525 220.289 650.703 220.219 650.914 220.219C651.125 220.219 651.299 220.289 651.436 220.43C651.576 220.566 651.646 220.74 651.646 220.951C651.646 221.162 651.576 221.34 651.436 221.484C651.299 221.625 651.125 221.695 650.914 221.695C650.703 221.695 650.525 221.625 650.381 221.484ZM650.381 217.201C650.24 217.057 650.17 216.879 650.17 216.668C650.17 216.457 650.24 216.281 650.381 216.141C650.525 215.996 650.703 215.924 650.914 215.924C651.125 215.924 651.299 215.996 651.436 216.141C651.576 216.281 651.646 216.457 651.646 216.668C651.646 216.879 651.576 217.057 651.436 217.201C651.299 217.342 651.125 217.412 650.914 217.412C650.703 217.412 650.525 217.342 650.381 217.201Z" fill="white"/>
<rect opacity="0.2" x="599" y="232.625" width="282" height="20" rx="8" fill="white"/>
<path d="M600.02 277.625V268.742H605.205V269.908H601.244V272.416H604.531V273.57H601.244V276.471H605.205V277.625H600.02ZM605.961 271.924H607.209L608.914 276.184L610.643 271.924H611.891L609.553 277.625H608.316L605.961 271.924ZM613.021 270.588C612.881 270.443 612.811 270.266 612.811 270.055C612.811 269.844 612.881 269.668 613.021 269.527C613.166 269.383 613.344 269.311 613.555 269.311C613.766 269.311 613.939 269.383 614.076 269.527C614.217 269.668 614.287 269.844 614.287 270.055C614.287 270.266 614.217 270.443 614.076 270.588C613.939 270.729 613.766 270.799 613.555 270.799C613.344 270.799 613.166 270.729 613.021 270.588ZM612.969 277.625V271.924H614.129V277.625H612.969ZM615.57 274.807C615.57 274.393 615.648 274 615.805 273.629C615.965 273.258 616.18 272.941 616.449 272.68C616.719 272.414 617.039 272.205 617.41 272.053C617.781 271.896 618.172 271.818 618.582 271.818C619.367 271.818 620.004 272.098 620.492 272.656V268.742H621.641V277.625H620.492V276.951C620.02 277.506 619.383 277.783 618.582 277.783C618.164 277.783 617.77 277.707 617.398 277.555C617.027 277.398 616.707 277.189 616.438 276.928C616.172 276.662 615.961 276.346 615.805 275.979C615.648 275.607 615.57 275.217 615.57 274.807ZM616.707 274.807C616.707 275.342 616.887 275.791 617.246 276.154C617.605 276.518 618.051 276.699 618.582 276.699C619.121 276.699 619.57 276.516 619.93 276.148C620.289 275.777 620.469 275.33 620.469 274.807C620.469 274.283 620.287 273.836 619.924 273.465C619.561 273.094 619.113 272.908 618.582 272.908C618.051 272.908 617.605 273.092 617.246 273.459C616.887 273.826 616.707 274.275 616.707 274.807ZM623.082 274.807C623.082 274.275 623.205 273.783 623.451 273.33C623.697 272.873 624.045 272.508 624.494 272.234C624.943 271.957 625.445 271.818 626 271.818C626.414 271.818 626.803 271.9 627.166 272.064C627.529 272.225 627.838 272.439 628.092 272.709C628.346 272.979 628.545 273.295 628.689 273.658C628.838 274.021 628.912 274.4 628.912 274.795C628.912 274.9 628.904 275.031 628.889 275.188H624.219C624.301 275.637 624.51 276.008 624.846 276.301C625.186 276.59 625.594 276.734 626.07 276.734C626.387 276.734 626.688 276.666 626.973 276.529C627.258 276.393 627.488 276.201 627.664 275.955L628.484 276.582C628.219 276.957 627.873 277.252 627.447 277.467C627.021 277.678 626.562 277.783 626.07 277.783C625.238 277.783 624.531 277.496 623.949 276.922C623.371 276.348 623.082 275.643 623.082 274.807ZM624.26 274.279H627.74C627.67 273.877 627.475 273.543 627.154 273.277C626.838 273.008 626.457 272.873 626.012 272.873C625.578 272.873 625.203 273.004 624.887 273.266C624.574 273.527 624.365 273.865 624.26 274.279ZM630.324 277.625V271.924H631.473V272.539C631.684 272.305 631.918 272.127 632.176 272.006C632.434 271.881 632.752 271.818 633.131 271.818C633.842 271.818 634.41 272.033 634.836 272.463C635.266 272.893 635.48 273.537 635.48 274.396V277.625H634.32V274.637C634.32 273.484 633.855 272.908 632.926 272.908C631.957 272.908 631.473 273.512 631.473 274.719V277.625H630.324ZM637.203 276.301C636.938 275.844 636.805 275.346 636.805 274.807C636.805 274.268 636.936 273.77 637.197 273.312C637.463 272.855 637.824 272.492 638.281 272.223C638.742 271.953 639.246 271.818 639.793 271.818C640.316 271.818 640.803 271.945 641.252 272.199C641.705 272.453 642.066 272.793 642.336 273.219L641.363 273.775C641.199 273.514 640.977 273.305 640.695 273.148C640.418 272.988 640.117 272.908 639.793 272.908C639.277 272.908 638.84 273.098 638.48 273.477C638.121 273.855 637.941 274.303 637.941 274.818C637.941 275.334 638.123 275.777 638.486 276.148C638.85 276.516 639.293 276.699 639.816 276.699C640.152 276.699 640.459 276.619 640.736 276.459C641.014 276.299 641.234 276.08 641.398 275.803L642.359 276.365C642.09 276.799 641.727 277.145 641.27 277.402C640.816 277.656 640.324 277.783 639.793 277.783C639.254 277.783 638.754 277.65 638.293 277.385C637.836 277.119 637.473 276.758 637.203 276.301ZM643.145 274.807C643.145 274.275 643.268 273.783 643.514 273.33C643.76 272.873 644.107 272.508 644.557 272.234C645.006 271.957 645.508 271.818 646.062 271.818C646.477 271.818 646.865 271.9 647.229 272.064C647.592 272.225 647.9 272.439 648.154 272.709C648.408 272.979 648.607 273.295 648.752 273.658C648.9 274.021 648.975 274.4 648.975 274.795C648.975 274.9 648.967 275.031 648.951 275.188H644.281C644.363 275.637 644.572 276.008 644.908 276.301C645.248 276.59 645.656 276.734 646.133 276.734C646.449 276.734 646.75 276.666 647.035 276.529C647.32 276.393 647.551 276.201 647.727 275.955L648.547 276.582C648.281 276.957 647.936 277.252 647.51 277.467C647.084 277.678 646.625 277.783 646.133 277.783C645.301 277.783 644.594 277.496 644.012 276.922C643.434 276.348 643.145 275.643 643.145 274.807ZM644.322 274.279H647.803C647.732 273.877 647.537 273.543 647.217 273.277C646.9 273.008 646.52 272.873 646.074 272.873C645.641 272.873 645.266 273.004 644.949 273.266C644.637 273.527 644.428 273.865 644.322 274.279ZM650.838 277.484C650.697 277.34 650.627 277.162 650.627 276.951C650.627 276.74 650.697 276.566 650.838 276.43C650.982 276.289 651.16 276.219 651.371 276.219C651.582 276.219 651.756 276.289 651.893 276.43C652.033 276.566 652.104 276.74 652.104 276.951C652.104 277.162 652.033 277.34 651.893 277.484C651.756 277.625 651.582 277.695 651.371 277.695C651.16 277.695 650.982 277.625 650.838 277.484ZM650.838 273.201C650.697 273.057 650.627 272.879 650.627 272.668C650.627 272.457 650.697 272.281 650.838 272.141C650.982 271.996 651.16 271.924 651.371 271.924C651.582 271.924 651.756 271.996 651.893 272.141C652.033 272.281 652.104 272.457 652.104 272.668C652.104 272.879 652.033 273.057 651.893 273.201C651.756 273.342 651.582 273.412 651.371 273.412C651.16 273.412 650.982 273.342 650.838 273.201Z" fill="white"/>
<rect opacity="0.2" x="599" y="288.625" width="282" height="20" rx="8" fill="white"/>
<path d="M600.02 333.625V324.742H603.283C604.197 324.742 604.916 324.949 605.439 325.363C605.963 325.773 606.225 326.404 606.225 327.256C606.225 327.955 606.043 328.51 605.68 328.92C605.316 329.326 604.793 329.582 604.109 329.688L606.43 333.625H605.023L602.768 329.764H601.244V333.625H600.02ZM601.244 328.598H603.271C603.537 328.598 603.77 328.578 603.969 328.539C604.168 328.496 604.348 328.428 604.508 328.334C604.668 328.236 604.789 328.1 604.871 327.924C604.957 327.744 605 327.525 605 327.268C605 326.799 604.855 326.455 604.566 326.236C604.281 326.018 603.85 325.908 603.271 325.908H601.244V328.598ZM606.898 330.807C606.898 330.275 607.021 329.783 607.268 329.33C607.514 328.873 607.861 328.508 608.311 328.234C608.76 327.957 609.262 327.818 609.816 327.818C610.23 327.818 610.619 327.9 610.982 328.064C611.346 328.225 611.654 328.439 611.908 328.709C612.162 328.979 612.361 329.295 612.506 329.658C612.654 330.021 612.729 330.4 612.729 330.795C612.729 330.9 612.721 331.031 612.705 331.188H608.035C608.117 331.637 608.326 332.008 608.662 332.301C609.002 332.59 609.41 332.734 609.887 332.734C610.203 332.734 610.504 332.666 610.789 332.529C611.074 332.393 611.305 332.201 611.48 331.955L612.301 332.582C612.035 332.957 611.689 333.252 611.264 333.467C610.838 333.678 610.379 333.783 609.887 333.783C609.055 333.783 608.348 333.496 607.766 332.922C607.188 332.348 606.898 331.643 606.898 330.807ZM608.076 330.279H611.557C611.486 329.877 611.291 329.543 610.971 329.277C610.654 329.008 610.273 328.873 609.828 328.873C609.395 328.873 609.02 329.004 608.703 329.266C608.391 329.527 608.182 329.865 608.076 330.279ZM613.238 327.924H614.486L616.191 332.184L617.92 327.924H619.168L616.83 333.625H615.594L613.238 327.924ZM620.299 326.588C620.158 326.443 620.088 326.266 620.088 326.055C620.088 325.844 620.158 325.668 620.299 325.527C620.443 325.383 620.621 325.311 620.832 325.311C621.043 325.311 621.217 325.383 621.354 325.527C621.494 325.668 621.564 325.844 621.564 326.055C621.564 326.266 621.494 326.443 621.354 326.588C621.217 326.729 621.043 326.799 620.832 326.799C620.621 326.799 620.443 326.729 620.299 326.588ZM620.246 333.625V327.924H621.406V333.625H620.246ZM622.848 330.807C622.848 330.275 622.971 329.783 623.217 329.33C623.463 328.873 623.811 328.508 624.26 328.234C624.709 327.957 625.211 327.818 625.766 327.818C626.18 327.818 626.568 327.9 626.932 328.064C627.295 328.225 627.604 328.439 627.857 328.709C628.111 328.979 628.311 329.295 628.455 329.658C628.604 330.021 628.678 330.4 628.678 330.795C628.678 330.9 628.67 331.031 628.654 331.188H623.984C624.066 331.637 624.275 332.008 624.611 332.301C624.951 332.59 625.359 332.734 625.836 332.734C626.152 332.734 626.453 332.666 626.738 332.529C627.023 332.393 627.254 332.201 627.43 331.955L628.25 332.582C627.984 332.957 627.639 333.252 627.213 333.467C626.787 333.678 626.328 333.783 625.836 333.783C625.004 333.783 624.297 333.496 623.715 332.922C623.137 332.348 622.848 331.643 622.848 330.807ZM624.025 330.279H627.506C627.436 329.877 627.24 329.543 626.92 329.277C626.604 329.008 626.223 328.873 625.777 328.873C625.344 328.873 624.969 329.004 624.652 329.266C624.34 329.527 624.131 329.865 624.025 330.279ZM629.188 327.924H630.465L631.936 332.125L633.436 327.924H634.508L636.008 332.125L637.484 327.924H638.768L636.617 333.625H635.416L633.98 329.523L632.551 333.625H631.326L629.188 327.924ZM639.348 333.039L639.969 332.148C640.445 332.539 640.977 332.734 641.562 332.734C641.863 332.734 642.096 332.676 642.26 332.559C642.428 332.441 642.512 332.285 642.512 332.09C642.512 331.938 642.457 331.811 642.348 331.709C642.238 331.604 642.096 331.521 641.92 331.463C641.748 331.4 641.557 331.342 641.346 331.287C641.135 331.232 640.924 331.166 640.713 331.088C640.502 331.006 640.309 330.91 640.133 330.801C639.961 330.688 639.82 330.529 639.711 330.326C639.602 330.123 639.547 329.883 639.547 329.605C639.547 329.078 639.725 328.648 640.08 328.316C640.439 327.984 640.914 327.818 641.504 327.818C642.262 327.818 642.906 328.033 643.438 328.463L642.828 329.318C642.422 329.021 641.984 328.873 641.516 328.873C641.246 328.873 641.041 328.932 640.9 329.049C640.76 329.162 640.689 329.303 640.689 329.471C640.689 329.615 640.744 329.738 640.854 329.84C640.963 329.941 641.104 330.025 641.275 330.092C641.447 330.154 641.639 330.217 641.85 330.279C642.061 330.338 642.271 330.41 642.482 330.496C642.693 330.582 642.885 330.686 643.057 330.807C643.229 330.924 643.369 331.086 643.479 331.293C643.588 331.5 643.643 331.742 643.643 332.02C643.643 332.562 643.451 332.992 643.068 333.309C642.686 333.625 642.172 333.783 641.527 333.783C640.727 333.783 640 333.535 639.348 333.039ZM645.553 333.484C645.412 333.34 645.342 333.162 645.342 332.951C645.342 332.74 645.412 332.566 645.553 332.43C645.697 332.289 645.875 332.219 646.086 332.219C646.297 332.219 646.471 332.289 646.607 332.43C646.748 332.566 646.818 332.74 646.818 332.951C646.818 333.162 646.748 333.34 646.607 333.484C646.471 333.625 646.297 333.695 646.086 333.695C645.875 333.695 645.697 333.625 645.553 333.484ZM645.553 329.201C645.412 329.057 645.342 328.879 645.342 328.668C645.342 328.457 645.412 328.281 645.553 328.141C645.697 327.996 645.875 327.924 646.086 327.924C646.297 327.924 646.471 327.996 646.607 328.141C646.748 328.281 646.818 328.457 646.818 328.668C646.818 328.879 646.748 329.057 646.607 329.201C646.471 329.342 646.297 329.412 646.086 329.412C645.875 329.412 645.697 329.342 645.553 329.201Z" fill="white"/>
<rect opacity="0.2" x="599" y="344.625" width="24" height="24" rx="12" fill="white"/>
<rect opacity="0.2" x="627" y="344.625" width="24" height="24" rx="12" fill="white"/>
<rect opacity="0.2" x="655" y="344.625" width="24" height="24" rx="12" fill="white"/>
<rect opacity="0.2" x="683" y="344.625" width="24" height="24" rx="12" fill="white"/>
<rect opacity="0.2" x="711" y="344.625" width="24" height="24" rx="12" fill="white"/>
<rect opacity="0.2" x="739" y="344.625" width="24" height="24" rx="12" fill="white"/>
<rect opacity="0.2" x="767" y="344.625" width="24" height="24" rx="12" fill="white"/>
<rect opacity="0.2" x="795" y="344.625" width="24" height="24" rx="12" fill="white"/>
<rect opacity="0.2" x="823" y="344.625" width="24" height="24" rx="12" fill="white"/>
<path d="M600.02 393.625V384.742H603.283C604.197 384.742 604.916 384.949 605.439 385.363C605.963 385.773 606.225 386.404 606.225 387.256C606.225 387.955 606.043 388.51 605.68 388.92C605.316 389.326 604.793 389.582 604.109 389.688L606.43 393.625H605.023L602.768 389.764H601.244V393.625H600.02ZM601.244 388.598H603.271C603.537 388.598 603.77 388.578 603.969 388.539C604.168 388.496 604.348 388.428 604.508 388.334C604.668 388.236 604.789 388.1 604.871 387.924C604.957 387.744 605 387.525 605 387.268C605 386.799 604.855 386.455 604.566 386.236C604.281 386.018 603.85 385.908 603.271 385.908H601.244V388.598ZM606.898 390.807C606.898 390.275 607.021 389.783 607.268 389.33C607.514 388.873 607.861 388.508 608.311 388.234C608.76 387.957 609.262 387.818 609.816 387.818C610.23 387.818 610.619 387.9 610.982 388.064C611.346 388.225 611.654 388.439 611.908 388.709C612.162 388.979 612.361 389.295 612.506 389.658C612.654 390.021 612.729 390.4 612.729 390.795C612.729 390.9 612.721 391.031 612.705 391.188H608.035C608.117 391.637 608.326 392.008 608.662 392.301C609.002 392.59 609.41 392.734 609.887 392.734C610.203 392.734 610.504 392.666 610.789 392.529C611.074 392.393 611.305 392.201 611.48 391.955L612.301 392.582C612.035 392.957 611.689 393.252 611.264 393.467C610.838 393.678 610.379 393.783 609.887 393.783C609.055 393.783 608.348 393.496 607.766 392.922C607.188 392.348 606.898 391.643 606.898 390.807ZM608.076 390.279H611.557C611.486 389.877 611.291 389.543 610.971 389.277C610.654 389.008 610.273 388.873 609.828 388.873C609.395 388.873 609.02 389.004 608.703 389.266C608.391 389.527 608.182 389.865 608.076 390.279ZM613.238 387.924H614.516L615.986 392.125L617.486 387.924H618.559L620.059 392.125L621.535 387.924H622.818L620.668 393.625H619.467L618.031 389.523L616.602 393.625H615.377L613.238 387.924ZM623.363 390.807C623.363 390.393 623.441 390 623.598 389.629C623.758 389.258 623.973 388.941 624.242 388.68C624.512 388.414 624.832 388.205 625.203 388.053C625.574 387.896 625.965 387.818 626.375 387.818C627.16 387.818 627.797 388.098 628.285 388.656V387.924H629.434V393.625H628.285V392.951C627.812 393.506 627.176 393.783 626.375 393.783C625.957 393.783 625.562 393.707 625.191 393.555C624.82 393.398 624.5 393.189 624.23 392.928C623.965 392.662 623.754 392.346 623.598 391.979C623.441 391.607 623.363 391.217 623.363 390.807ZM624.5 390.807C624.5 391.342 624.68 391.791 625.039 392.154C625.398 392.518 625.844 392.699 626.375 392.699C626.914 392.699 627.363 392.516 627.723 392.148C628.082 391.777 628.262 391.33 628.262 390.807C628.262 390.283 628.08 389.836 627.717 389.465C627.354 389.094 626.906 388.908 626.375 388.908C625.844 388.908 625.398 389.092 625.039 389.459C624.68 389.826 624.5 390.275 624.5 390.807ZM631.355 393.625V387.924H632.504V388.609C632.77 388.293 633.061 388.082 633.377 387.977C633.693 387.871 634.143 387.818 634.725 387.818V388.92C634.268 388.92 633.887 388.963 633.582 389.049C633.281 389.135 633.055 389.264 632.902 389.436C632.75 389.604 632.645 389.785 632.586 389.98C632.531 390.172 632.504 390.402 632.504 390.672V393.625H631.355ZM635.164 390.807C635.164 390.393 635.242 390 635.398 389.629C635.559 389.258 635.773 388.941 636.043 388.68C636.312 388.414 636.633 388.205 637.004 388.053C637.375 387.896 637.766 387.818 638.176 387.818C638.961 387.818 639.598 388.098 640.086 388.656V384.742H641.234V393.625H640.086V392.951C639.613 393.506 638.977 393.783 638.176 393.783C637.758 393.783 637.363 393.707 636.992 393.555C636.621 393.398 636.301 393.189 636.031 392.928C635.766 392.662 635.555 392.346 635.398 391.979C635.242 391.607 635.164 391.217 635.164 390.807ZM636.301 390.807C636.301 391.342 636.48 391.791 636.84 392.154C637.199 392.518 637.645 392.699 638.176 392.699C638.715 392.699 639.164 392.516 639.523 392.148C639.883 391.777 640.062 391.33 640.062 390.807C640.062 390.283 639.881 389.836 639.518 389.465C639.154 389.094 638.707 388.908 638.176 388.908C637.645 388.908 637.199 389.092 636.84 389.459C636.48 389.826 636.301 390.275 636.301 390.807ZM642.594 393.039L643.215 392.148C643.691 392.539 644.223 392.734 644.809 392.734C645.109 392.734 645.342 392.676 645.506 392.559C645.674 392.441 645.758 392.285 645.758 392.09C645.758 391.938 645.703 391.811 645.594 391.709C645.484 391.604 645.342 391.521 645.166 391.463C644.994 391.4 644.803 391.342 644.592 391.287C644.381 391.232 644.17 391.166 643.959 391.088C643.748 391.006 643.555 390.91 643.379 390.801C643.207 390.688 643.066 390.529 642.957 390.326C642.848 390.123 642.793 389.883 642.793 389.605C642.793 389.078 642.971 388.648 643.326 388.316C643.686 387.984 644.16 387.818 644.75 387.818C645.508 387.818 646.152 388.033 646.684 388.463L646.074 389.318C645.668 389.021 645.23 388.873 644.762 388.873C644.492 388.873 644.287 388.932 644.146 389.049C644.006 389.162 643.936 389.303 643.936 389.471C643.936 389.615 643.99 389.738 644.1 389.84C644.209 389.941 644.35 390.025 644.521 390.092C644.693 390.154 644.885 390.217 645.096 390.279C645.307 390.338 645.518 390.41 645.729 390.496C645.939 390.582 646.131 390.686 646.303 390.807C646.475 390.924 646.615 391.086 646.725 391.293C646.834 391.5 646.889 391.742 646.889 392.02C646.889 392.562 646.697 392.992 646.314 393.309C645.932 393.625 645.418 393.783 644.773 393.783C643.973 393.783 643.246 393.535 642.594 393.039ZM648.799 393.484C648.658 393.34 648.588 393.162 648.588 392.951C648.588 392.74 648.658 392.566 648.799 392.43C648.943 392.289 649.121 392.219 649.332 392.219C649.543 392.219 649.717 392.289 649.854 392.43C649.994 392.566 650.064 392.74 650.064 392.951C650.064 393.162 649.994 393.34 649.854 393.484C649.717 393.625 649.543 393.695 649.332 393.695C649.121 393.695 648.943 393.625 648.799 393.484ZM648.799 389.201C648.658 389.057 648.588 388.879 648.588 388.668C648.588 388.457 648.658 388.281 648.799 388.141C648.943 387.996 649.121 387.924 649.332 387.924C649.543 387.924 649.717 387.996 649.854 388.141C649.994 388.281 650.064 388.457 650.064 388.668C650.064 388.879 649.994 389.057 649.854 389.201C649.717 389.342 649.543 389.412 649.332 389.412C649.121 389.412 648.943 389.342 648.799 389.201Z" fill="white"/>
<rect opacity="0.2" x="599" y="404.625" width="282" height="20" rx="8" fill="white"/>
<rect opacity="0.2" x="599" y="454.625" width="282" height="40" rx="20" fill="white"/>
<rect x="575" y="52.625" width="330" height="466" rx="32" fill="white" fill-opacity="0.2"/>
<path d="M600.02 24.625V15.7422H602.48C603.422 15.7422 604.146 15.9453 604.654 16.3516C605.166 16.7539 605.422 17.3281 605.422 18.0742C605.422 19.0078 604.998 19.6309 604.15 19.9434C604.682 20.0723 605.084 20.334 605.357 20.7285C605.631 21.1191 605.768 21.5898 605.768 22.1406C605.768 22.4805 605.713 22.7891 605.604 23.0664C605.498 23.3438 605.348 23.5781 605.152 23.7695C604.961 23.9609 604.73 24.1211 604.461 24.25C604.195 24.3789 603.904 24.4746 603.588 24.5371C603.275 24.5957 602.938 24.625 602.574 24.625H600.02ZM601.244 23.4707H602.539C603.156 23.4707 603.645 23.3574 604.004 23.1309C604.363 22.9043 604.543 22.5391 604.543 22.0352C604.543 21.543 604.367 21.1738 604.016 20.9277C603.664 20.6816 603.164 20.5586 602.516 20.5586H601.244V23.4707ZM601.244 19.4043H602.65C603.682 19.4043 604.197 18.9922 604.197 18.168C604.197 17.7422 604.055 17.4238 603.77 17.2129C603.484 17.002 603.07 16.8965 602.527 16.8965H601.244V19.4043ZM607.145 24.625V18.9238H608.293V19.6094C608.559 19.293 608.85 19.082 609.166 18.9766C609.482 18.8711 609.932 18.8184 610.514 18.8184V19.9199C610.057 19.9199 609.676 19.9629 609.371 20.0488C609.07 20.1348 608.844 20.2637 608.691 20.4355C608.539 20.6035 608.434 20.7852 608.375 20.9805C608.32 21.1719 608.293 21.4023 608.293 21.6719V24.625H607.145ZM611.352 23.3008C611.086 22.8438 610.953 22.3457 610.953 21.8066C610.953 21.2676 611.084 20.7695 611.346 20.3125C611.611 19.8555 611.973 19.4922 612.43 19.2227C612.891 18.9531 613.395 18.8184 613.941 18.8184C614.484 18.8184 614.986 18.9531 615.447 19.2227C615.912 19.4883 616.279 19.8516 616.549 20.3125C616.818 20.7695 616.953 21.2676 616.953 21.8066C616.953 22.3418 616.818 22.8379 616.549 23.2949C616.279 23.752 615.912 24.1152 615.447 24.3848C614.986 24.6504 614.484 24.7832 613.941 24.7832C613.402 24.7832 612.902 24.6504 612.441 24.3848C611.984 24.1191 611.621 23.7578 611.352 23.3008ZM612.09 21.8184C612.09 22.3301 612.27 22.7715 612.629 23.1426C612.992 23.5137 613.434 23.6992 613.953 23.6992C614.473 23.6992 614.912 23.5117 615.271 23.1367C615.631 22.7578 615.811 22.3105 615.811 21.7949C615.811 21.2793 615.629 20.8359 615.266 20.4648C614.906 20.0938 614.469 19.9082 613.953 19.9082C613.43 19.9082 612.988 20.0977 612.629 20.4766C612.27 20.8555 612.09 21.3027 612.09 21.8184ZM617.492 18.9238H618.77L620.24 23.125L621.74 18.9238H622.812L624.312 23.125L625.789 18.9238H627.072L624.922 24.625H623.721L622.285 20.5234L620.855 24.625H619.631L617.492 18.9238ZM627.652 24.0391L628.273 23.1484C628.75 23.5391 629.281 23.7344 629.867 23.7344C630.168 23.7344 630.4 23.6758 630.564 23.5586C630.732 23.4414 630.816 23.2852 630.816 23.0898C630.816 22.9375 630.762 22.8105 630.652 22.709C630.543 22.6035 630.4 22.5215 630.225 22.4629C630.053 22.4004 629.861 22.3418 629.65 22.2871C629.439 22.2324 629.229 22.166 629.018 22.0879C628.807 22.0059 628.613 21.9102 628.438 21.8008C628.266 21.6875 628.125 21.5293 628.016 21.3262C627.906 21.123 627.852 20.8828 627.852 20.6055C627.852 20.0781 628.029 19.6484 628.385 19.3164C628.744 18.9844 629.219 18.8184 629.809 18.8184C630.566 18.8184 631.211 19.0332 631.742 19.4629L631.133 20.3184C630.727 20.0215 630.289 19.873 629.82 19.873C629.551 19.873 629.346 19.9316 629.205 20.0488C629.064 20.1621 628.994 20.3027 628.994 20.4707C628.994 20.6152 629.049 20.7383 629.158 20.8398C629.268 20.9414 629.408 21.0254 629.58 21.0918C629.752 21.1543 629.943 21.2168 630.154 21.2793C630.365 21.3379 630.576 21.4102 630.787 21.4961C630.998 21.582 631.189 21.6855 631.361 21.8066C631.533 21.9238 631.674 22.0859 631.783 22.293C631.893 22.5 631.947 22.7422 631.947 23.0195C631.947 23.5625 631.756 23.9922 631.373 24.3086C630.99 24.625 630.477 24.7832 629.832 24.7832C629.031 24.7832 628.305 24.5352 627.652 24.0391ZM632.926 21.8066C632.926 21.2754 633.049 20.7832 633.295 20.3301C633.541 19.873 633.889 19.5078 634.338 19.2344C634.787 18.957 635.289 18.8184 635.844 18.8184C636.258 18.8184 636.646 18.9004 637.01 19.0645C637.373 19.2246 637.682 19.4395 637.936 19.709C638.189 19.9785 638.389 20.2949 638.533 20.6582C638.682 21.0215 638.756 21.4004 638.756 21.7949C638.756 21.9004 638.748 22.0312 638.732 22.1875H634.062C634.145 22.6367 634.354 23.0078 634.689 23.3008C635.029 23.5898 635.438 23.7344 635.914 23.7344C636.23 23.7344 636.531 23.666 636.816 23.5293C637.102 23.3926 637.332 23.2012 637.508 22.9551L638.328 23.582C638.062 23.957 637.717 24.252 637.291 24.4668C636.865 24.6777 636.406 24.7832 635.914 24.7832C635.082 24.7832 634.375 24.4961 633.793 23.9219C633.215 23.3477 632.926 22.6426 632.926 21.8066ZM634.104 21.2793H637.584C637.514 20.877 637.318 20.543 636.998 20.2773C636.682 20.0078 636.301 19.873 635.855 19.873C635.422 19.873 635.047 20.0039 634.73 20.2656C634.418 20.5273 634.209 20.8652 634.104 21.2793ZM640.168 24.625V18.9238H641.316V19.6094C641.582 19.293 641.873 19.082 642.189 18.9766C642.506 18.8711 642.955 18.8184 643.537 18.8184V19.9199C643.08 19.9199 642.699 19.9629 642.395 20.0488C642.094 20.1348 641.867 20.2637 641.715 20.4355C641.562 20.6035 641.457 20.7852 641.398 20.9805C641.344 21.1719 641.316 21.4023 641.316 21.6719V24.625H640.168ZM647.879 24.625V15.7422H653.064V16.9082H649.104V19.416H652.391V20.5703H649.104V23.4707H653.064V24.625H647.879ZM653.82 24.625L655.854 21.625L654.002 18.9238H655.297L656.498 20.6875L657.699 18.9238H658.994L657.148 21.625L659.176 24.625H657.893L656.498 22.5625L655.109 24.625H653.82ZM659.615 20.0195V18.9238H660.512V16.9902H661.678V18.9238H663.225V20.0195H661.678V22.7383C661.678 23.082 661.73 23.3281 661.836 23.4766C661.941 23.625 662.141 23.6992 662.434 23.6992C662.723 23.6992 662.936 23.6719 663.072 23.6172V24.6484C662.85 24.7383 662.549 24.7832 662.17 24.7832C661.896 24.7832 661.658 24.7461 661.455 24.6719C661.256 24.6016 661.096 24.5098 660.975 24.3965C660.857 24.2832 660.762 24.1406 660.688 23.9688C660.617 23.7969 660.57 23.625 660.547 23.4531C660.523 23.2812 660.512 23.0879 660.512 22.873V20.0195H659.615ZM663.898 21.8066C663.898 21.2754 664.021 20.7832 664.268 20.3301C664.514 19.873 664.861 19.5078 665.311 19.2344C665.76 18.957 666.262 18.8184 666.816 18.8184C667.23 18.8184 667.619 18.9004 667.982 19.0645C668.346 19.2246 668.654 19.4395 668.908 19.709C669.162 19.9785 669.361 20.2949 669.506 20.6582C669.654 21.0215 669.729 21.4004 669.729 21.7949C669.729 21.9004 669.721 22.0312 669.705 22.1875H665.035C665.117 22.6367 665.326 23.0078 665.662 23.3008C666.002 23.5898 666.41 23.7344 666.887 23.7344C667.203 23.7344 667.504 23.666 667.789 23.5293C668.074 23.3926 668.305 23.2012 668.48 22.9551L669.301 23.582C669.035 23.957 668.689 24.252 668.264 24.4668C667.838 24.6777 667.379 24.7832 666.887 24.7832C666.055 24.7832 665.348 24.4961 664.766 23.9219C664.188 23.3477 663.898 22.6426 663.898 21.8066ZM665.076 21.2793H668.557C668.486 20.877 668.291 20.543 667.971 20.2773C667.654 20.0078 667.273 19.873 666.828 19.873C666.395 19.873 666.02 20.0039 665.703 20.2656C665.391 20.5273 665.182 20.8652 665.076 21.2793ZM671.141 24.625V18.9238H672.289V19.5391C672.5 19.3047 672.734 19.127 672.992 19.0059C673.25 18.8809 673.568 18.8184 673.947 18.8184C674.658 18.8184 675.227 19.0332 675.652 19.4629C676.082 19.8926 676.297 20.5371 676.297 21.3965V24.625H675.137V21.6367C675.137 20.4844 674.672 19.9082 673.742 19.9082C672.773 19.9082 672.289 20.5117 672.289 21.7188V24.625H671.141ZM677.539 24.0391L678.16 23.1484C678.637 23.5391 679.168 23.7344 679.754 23.7344C680.055 23.7344 680.287 23.6758 680.451 23.5586C680.619 23.4414 680.703 23.2852 680.703 23.0898C680.703 22.9375 680.648 22.8105 680.539 22.709C680.43 22.6035 680.287 22.5215 680.111 22.4629C679.939 22.4004 679.748 22.3418 679.537 22.2871C679.326 22.2324 679.115 22.166 678.904 22.0879C678.693 22.0059 678.5 21.9102 678.324 21.8008C678.152 21.6875 678.012 21.5293 677.902 21.3262C677.793 21.123 677.738 20.8828 677.738 20.6055C677.738 20.0781 677.916 19.6484 678.271 19.3164C678.631 18.9844 679.105 18.8184 679.695 18.8184C680.453 18.8184 681.098 19.0332 681.629 19.4629L681.02 20.3184C680.613 20.0215 680.176 19.873 679.707 19.873C679.438 19.873 679.232 19.9316 679.092 20.0488C678.951 20.1621 678.881 20.3027 678.881 20.4707C678.881 20.6152 678.936 20.7383 679.045 20.8398C679.154 20.9414 679.295 21.0254 679.467 21.0918C679.639 21.1543 679.83 21.2168 680.041 21.2793C680.252 21.3379 680.463 21.4102 680.674 21.4961C680.885 21.582 681.076 21.6855 681.248 21.8066C681.42 21.9238 681.561 22.0859 681.67 22.293C681.779 22.5 681.834 22.7422 681.834 23.0195C681.834 23.5625 681.643 23.9922 681.26 24.3086C680.877 24.625 680.363 24.7832 679.719 24.7832C678.918 24.7832 678.191 24.5352 677.539 24.0391ZM683.346 17.5879C683.205 17.4434 683.135 17.2656 683.135 17.0547C683.135 16.8438 683.205 16.668 683.346 16.5273C683.49 16.3828 683.668 16.3105 683.879 16.3105C684.09 16.3105 684.264 16.3828 684.4 16.5273C684.541 16.668 684.611 16.8438 684.611 17.0547C684.611 17.2656 684.541 17.4434 684.4 17.5879C684.264 17.7285 684.09 17.7988 683.879 17.7988C683.668 17.7988 683.49 17.7285 683.346 17.5879ZM683.293 24.625V18.9238H684.453V24.625H683.293ZM686.293 23.3008C686.027 22.8438 685.895 22.3457 685.895 21.8066C685.895 21.2676 686.025 20.7695 686.287 20.3125C686.553 19.8555 686.914 19.4922 687.371 19.2227C687.832 18.9531 688.336 18.8184 688.883 18.8184C689.426 18.8184 689.928 18.9531 690.389 19.2227C690.854 19.4883 691.221 19.8516 691.49 20.3125C691.76 20.7695 691.895 21.2676 691.895 21.8066C691.895 22.3418 691.76 22.8379 691.49 23.2949C691.221 23.752 690.854 24.1152 690.389 24.3848C689.928 24.6504 689.426 24.7832 688.883 24.7832C688.344 24.7832 687.844 24.6504 687.383 24.3848C686.926 24.1191 686.562 23.7578 686.293 23.3008ZM687.031 21.8184C687.031 22.3301 687.211 22.7715 687.57 23.1426C687.934 23.5137 688.375 23.6992 688.895 23.6992C689.414 23.6992 689.854 23.5117 690.213 23.1367C690.572 22.7578 690.752 22.3105 690.752 21.7949C690.752 21.2793 690.57 20.8359 690.207 20.4648C689.848 20.0938 689.41 19.9082 688.895 19.9082C688.371 19.9082 687.93 20.0977 687.57 20.4766C687.211 20.8555 687.031 21.3027 687.031 21.8184ZM693.336 24.625V18.9238H694.484V19.5391C694.695 19.3047 694.93 19.127 695.188 19.0059C695.445 18.8809 695.764 18.8184 696.143 18.8184C696.854 18.8184 697.422 19.0332 697.848 19.4629C698.277 19.8926 698.492 20.5371 698.492 21.3965V24.625H697.332V21.6367C697.332 20.4844 696.867 19.9082 695.938 19.9082C694.969 19.9082 694.484 20.5117 694.484 21.7188V24.625H693.336Z" fill="white"/>
<path d="M810.694 128.625H625.306C621.271 128.625 618 132.036 618 136.244V141.006C618 145.214 621.271 148.625 625.306 148.625H810.694C814.729 148.625 818 145.214 818 141.006V136.244C818 132.036 814.729 128.625 810.694 128.625Z" fill="white"/>
<path d="M792.909 152.625H607C602.582 152.625 599 156.036 599 160.244V165.006C599 169.214 602.582 172.625 607 172.625H792.909C797.327 172.625 800.909 169.214 800.909 165.006V160.244C800.909 156.036 797.327 152.625 792.909 152.625Z" fill="white"/>
<path d="M671.248 478.792V474.913H674.318V473.401H671.248V471.427H675.185V469.909H669.677V478.792H671.248ZM683.351 478.792L684.072 476.894H687.898L688.63 478.792H690.335L686.796 469.909H685.197L681.646 478.792H683.351ZM687.335 475.394H684.634L685.988 471.866L687.335 475.394ZM702.035 478.95C702.644 478.95 703.219 478.833 703.76 478.599C704.301 478.364 704.787 478.04 705.216 477.626L704.291 476.524C704.005 476.817 703.661 477.055 703.256 477.236C702.852 477.418 702.445 477.509 702.035 477.509C701.476 477.509 700.96 477.369 700.488 477.09C700.015 476.811 699.641 476.431 699.366 475.95C699.09 475.47 698.953 474.944 698.953 474.374C698.953 473.808 699.086 473.281 699.354 472.795C699.622 472.309 699.992 471.921 700.464 471.632C700.937 471.343 701.457 471.198 702.023 471.198C702.972 471.198 703.751 471.554 704.361 472.265L705.345 471.157C704.916 470.716 704.417 470.372 703.848 470.126C703.28 469.88 702.671 469.757 702.023 469.757C701.375 469.757 700.762 469.879 700.186 470.123C699.61 470.367 699.118 470.695 698.709 471.107C698.301 471.52 697.979 472.009 697.743 472.575C697.506 473.142 697.388 473.737 697.388 474.362C697.388 475.21 697.597 475.986 698.015 476.691C698.433 477.396 698.998 477.949 699.708 478.35C700.419 478.75 701.195 478.95 702.035 478.95ZM717.314 478.792V471.427H720.156V469.909H712.884V471.427H715.744V478.792H717.314ZM742.453 478.95C743.062 478.95 743.637 478.833 744.178 478.599C744.719 478.364 745.205 478.04 745.634 477.626L744.708 476.524C744.423 476.817 744.079 477.055 743.674 477.236C743.27 477.418 742.863 477.509 742.453 477.509C741.894 477.509 741.378 477.369 740.906 477.09C740.433 476.811 740.059 476.431 739.784 475.95C739.508 475.47 739.371 474.944 739.371 474.374C739.371 473.808 739.504 473.281 739.772 472.795C740.04 472.309 740.41 471.921 740.882 471.632C741.355 471.343 741.875 471.198 742.441 471.198C743.39 471.198 744.169 471.554 744.779 472.265L745.763 471.157C745.333 470.716 744.834 470.372 744.266 470.126C743.698 469.88 743.089 469.757 742.441 469.757C741.792 469.757 741.18 469.879 740.604 470.123C740.028 470.367 739.536 470.695 739.127 471.107C738.719 471.52 738.397 472.009 738.161 472.575C737.924 473.142 737.806 473.737 737.806 474.362C737.806 475.21 738.015 475.986 738.433 476.691C738.851 477.396 739.416 477.949 740.126 478.35C740.837 478.75 741.613 478.95 742.453 478.95ZM755.535 478.792V474.866H759.806V478.792H761.382V469.909H759.806V473.354H755.535V469.909H753.964V478.792H755.535ZM775.923 478.792V477.28H771.869V474.913H775.062V473.401H771.869V471.427H775.923V469.909H770.298V478.792H775.923ZM788.343 478.95C788.953 478.95 789.528 478.833 790.069 478.599C790.61 478.364 791.095 478.04 791.525 477.626L790.599 476.524C790.314 476.817 789.969 477.055 789.565 477.236C789.161 477.418 788.753 477.509 788.343 477.509C787.785 477.509 787.269 477.369 786.796 477.09C786.324 476.811 785.95 476.431 785.674 475.95C785.399 475.47 785.261 474.944 785.261 474.374C785.261 473.808 785.395 473.281 785.663 472.795C785.93 472.309 786.3 471.921 786.773 471.632C787.246 471.343 787.765 471.198 788.332 471.198C789.281 471.198 790.06 471.554 790.669 472.265L791.654 471.157C791.224 470.716 790.725 470.372 790.157 470.126C789.588 469.88 788.98 469.757 788.332 469.757C787.683 469.757 787.071 469.879 786.495 470.123C785.918 470.367 785.426 470.695 785.018 471.107C784.61 471.52 784.288 472.009 784.051 472.575C783.815 473.142 783.697 473.737 783.697 474.362C783.697 475.21 783.906 475.986 784.324 476.691C784.742 477.396 785.306 477.949 786.017 478.35C786.728 478.75 787.503 478.95 788.343 478.95ZM801.425 478.792V475.024L804.988 478.792H807.08L802.796 474.351L806.763 469.909H804.789L801.425 473.835V469.909H799.855V478.792H801.425Z" fill="white"/>
<path d="M608.535 298.625L613.838 295.767L618.769 299.469L624.346 296.313L629.018 300.317L635.075 297.534" stroke="white" stroke-opacity="0.402726" stroke-width="2" stroke-linecap="round" stroke-linejoin="round"/>
<path d="M608.535 242.363L613.838 239.504L618.769 243.206L624.346 240.051L629.018 244.054L635.075 241.272" stroke="white" stroke-opacity="0.402726" stroke-width="2" stroke-linecap="round" stroke-linejoin="round"/>
<path d="M612.535 115.169L617.838 112.311L622.769 116.013L628.346 112.858L633.018 116.861L639.075 114.078" stroke="white" stroke-opacity="0.402726" stroke-width="2" stroke-linecap="round" stroke-linejoin="round"/>
<path d="M613.55 416.147L618.693 413.011L623.814 416.445L629.215 412.998L634.094 416.747L639.994 413.647" stroke="white" stroke-opacity="0.402726" stroke-width="2" stroke-linecap="round" stroke-linejoin="round"/>
<path d="M609 356.083L610.916 354.485L612.561 355.803" stroke="white" stroke-opacity="0.402726" stroke-width="2" stroke-linecap="round" stroke-linejoin="round"/>
<path d="M637.026 356.083L638.942 354.485L640.587 355.803" stroke="white" stroke-opacity="0.402726" stroke-width="2" stroke-linecap="round" stroke-linejoin="round"/>
<path d="M665.052 356.083L666.968 354.485L668.613 355.803" stroke="white" stroke-opacity="0.402726" stroke-width="2" stroke-linecap="round" stroke-linejoin="round"/>
<path d="M693.078 356.083L694.994 354.485L696.639 355.803" stroke="white" stroke-opacity="0.402726" stroke-width="2" stroke-linecap="round" stroke-linejoin="round"/>
<path d="M721.104 356.083L723.02 354.485L724.665 355.803" stroke="white" stroke-opacity="0.402726" stroke-width="2" stroke-linecap="round" stroke-linejoin="round"/>
<path d="M749.13 356.083L751.046 354.485L752.691 355.803" stroke="white" stroke-opacity="0.402726" stroke-width="2" stroke-linecap="round" stroke-linejoin="round"/>
<path d="M777.156 356.083L779.072 354.485L780.717 355.803" stroke="white" stroke-opacity="0.402726" stroke-width="2" stroke-linecap="round" stroke-linejoin="round"/>
<path d="M805.182 356.083L807.098 354.485L808.743 355.803" stroke="white" stroke-opacity="0.402726" stroke-width="2" stroke-linecap="round" stroke-linejoin="round"/>
<path d="M833.208 356.083L835.124 354.485L836.769 355.803" stroke="white" stroke-opacity="0.402726" stroke-width="2" stroke-linecap="round" stroke-linejoin="round"/>
<path d="M495 128.625H90C85.5817 128.625 82 131.881 82 135.898V141.352C82 145.369 85.5817 148.625 90 148.625H495C499.418 148.625 503 145.369 503 141.352V135.898C503 131.881 499.418 128.625 495 128.625Z" fill="white"/>
<path d="M472.942 151.625H74.0583C69.6078 151.625 66 154.881 66 158.898V164.352C66 168.369 69.6078 171.625 74.0583 171.625H472.942C477.392 171.625 481 168.369 481 164.352V158.898C481 154.881 477.392 151.625 472.942 151.625Z" fill="white"/>
<path opacity="0.5" d="M487 139.125H618" stroke="white"/>
<path d="M612.062 164.686L617.205 161.55L622.326 164.984L627.727 161.537L632.606 165.287L638.506 162.186" stroke="black" stroke-opacity="0.3" stroke-width="2" stroke-linecap="round" stroke-linejoin="round"/>
<path d="M634.062 140.686L639.206 137.55L644.326 140.984L649.727 137.537L654.606 141.287L660.507 138.186" stroke="black" stroke-opacity="0.3" stroke-width="2" stroke-linecap="round" stroke-linejoin="round"/>
<path d="M94.5618 140.686L99.7055 137.55L104.826 140.984L110.227 137.537L115.106 141.287L121.006 138.186" stroke="black" stroke-opacity="0.3" stroke-width="2" stroke-linecap="round" stroke-linejoin="round"/>
<path d="M78.5618 163.686L83.7055 160.55L88.8264 163.984L94.2273 160.537L99.1058 164.287L105.006 161.186" stroke="black" stroke-opacity="0.3" stroke-width="2" stroke-linecap="round" stroke-linejoin="round"/>
</g>
<defs>
<clipPath id="clip0_122_34789">
<rect y="0.625" width="916" height="530" rx="28" fill="white"/>
</clipPath>
<clipPath id="clip1_122_34789">
<rect y="0.625" width="916" height="530" rx="32" fill="white"/>
</clipPath>
</defs>
</svg>
