<svg width="916" height="530" viewBox="0 0 916 530" fill="none" xmlns="http://www.w3.org/2000/svg">
<path d="M654.133 24L657.625 15.1172H658.967L662.459 24H661.117L660.326 21.9258H656.248L655.451 24H654.133ZM656.688 20.7715H659.881L658.299 16.6055L656.688 20.7715ZM663.449 24V18.2988H664.598V18.9844C664.864 18.668 665.155 18.457 665.471 18.3516C665.787 18.2461 666.237 18.1934 666.819 18.1934V19.2949C666.362 19.2949 665.981 19.3379 665.676 19.4238C665.375 19.5098 665.149 19.6387 664.996 19.8105C664.844 19.9785 664.739 20.1602 664.68 20.3555C664.625 20.5469 664.598 20.7773 664.598 21.0469V24H663.449ZM667.592 19.3945V18.2988H668.489V16.3652H669.655V18.2988H671.201V19.3945H669.655V22.1133C669.655 22.457 669.707 22.7031 669.813 22.8516C669.918 23 670.117 23.0742 670.41 23.0742C670.699 23.0742 670.912 23.0469 671.049 22.9922V24.0234C670.826 24.1133 670.526 24.1582 670.147 24.1582C669.873 24.1582 669.635 24.1211 669.432 24.0469C669.233 23.9766 669.073 23.8848 668.951 23.7715C668.834 23.6582 668.739 23.5156 668.664 23.3438C668.594 23.1719 668.547 23 668.524 22.8281C668.5 22.6562 668.489 22.4629 668.489 22.248V19.3945H667.592ZM672.596 16.9629C672.455 16.8184 672.385 16.6406 672.385 16.4297C672.385 16.2188 672.455 16.043 672.596 15.9023C672.74 15.7578 672.918 15.6855 673.129 15.6855C673.34 15.6855 673.514 15.7578 673.651 15.9023C673.791 16.043 673.862 16.2188 673.862 16.4297C673.862 16.6406 673.791 16.8184 673.651 16.9629C673.514 17.1035 673.34 17.1738 673.129 17.1738C672.918 17.1738 672.74 17.1035 672.596 16.9629ZM672.543 24V18.2988H673.703V24H672.543ZM675.543 22.6758C675.278 22.2188 675.145 21.7207 675.145 21.1816C675.145 20.6426 675.276 20.1445 675.537 19.6875C675.803 19.2305 676.164 18.8672 676.621 18.5977C677.082 18.3281 677.586 18.1934 678.133 18.1934C678.656 18.1934 679.143 18.3203 679.592 18.5742C680.045 18.8281 680.406 19.168 680.676 19.5938L679.703 20.1504C679.539 19.8887 679.317 19.6797 679.035 19.5234C678.758 19.3633 678.457 19.2832 678.133 19.2832C677.617 19.2832 677.18 19.4727 676.821 19.8516C676.461 20.2305 676.281 20.6777 676.281 21.1934C676.281 21.709 676.463 22.1523 676.826 22.5234C677.19 22.8906 677.633 23.0742 678.156 23.0742C678.492 23.0742 678.799 22.9941 679.076 22.834C679.354 22.6738 679.574 22.4551 679.739 22.1777L680.699 22.7402C680.43 23.1738 680.067 23.5195 679.61 23.7773C679.156 24.0312 678.664 24.1582 678.133 24.1582C677.594 24.1582 677.094 24.0254 676.633 23.7598C676.176 23.4941 675.813 23.1328 675.543 22.6758ZM681.965 22.5469V15.1172H683.114V22.1895C683.114 22.5059 683.162 22.7324 683.26 22.8691C683.362 23.0059 683.549 23.0742 683.823 23.0742C683.944 23.0742 684.039 23.0703 684.11 23.0625V24.0703C683.867 24.1289 683.656 24.1582 683.477 24.1582C683.004 24.1582 682.633 24.0195 682.364 23.7422C682.098 23.4609 681.965 23.0625 681.965 22.5469ZM684.719 21.1816C684.719 20.6504 684.842 20.1582 685.088 19.7051C685.334 19.248 685.682 18.8828 686.131 18.6094C686.58 18.332 687.082 18.1934 687.637 18.1934C688.051 18.1934 688.44 18.2754 688.803 18.4395C689.166 18.5996 689.475 18.8145 689.729 19.084C689.983 19.3535 690.182 19.6699 690.326 20.0332C690.475 20.3965 690.549 20.7754 690.549 21.1699C690.549 21.2754 690.541 21.4062 690.526 21.5625H685.856C685.938 22.0117 686.147 22.3828 686.483 22.6758C686.823 22.9648 687.231 23.1094 687.707 23.1094C688.024 23.1094 688.324 23.041 688.61 22.9043C688.895 22.7676 689.125 22.5762 689.301 22.3301L690.121 22.957C689.856 23.332 689.51 23.627 689.084 23.8418C688.658 24.0527 688.199 24.1582 687.707 24.1582C686.875 24.1582 686.168 23.8711 685.586 23.2969C685.008 22.7227 684.719 22.0176 684.719 21.1816ZM685.897 20.6543H689.377C689.307 20.252 689.112 19.918 688.791 19.6523C688.475 19.3828 688.094 19.248 687.649 19.248C687.215 19.248 686.84 19.3789 686.524 19.6406C686.211 19.9023 686.002 20.2402 685.897 20.6543Z" fill="white"/>
<path opacity="0.2" d="M202 96C202 78.3269 216.327 64 234 64H682.67C700.343 64 714.67 78.3269 714.67 96V530H202V96Z" fill="white"/>
</svg>
