<svg width="916" height="530" viewBox="0 0 916 530" fill="none" xmlns="http://www.w3.org/2000/svg">
<g clip-path="url(#clip0_164_34240)">
<rect opacity="0.2" x="0.213379" y="40" width="916.243" height="490" rx="32" fill="white"/>
<path d="M46.2302 24L49.7224 15.1172H51.0642L54.5564 24H53.2146L52.4236 21.9258H48.3455L47.5486 24H46.2302ZM48.7849 20.7715H51.9783L50.3962 16.6055L48.7849 20.7715ZM55.0076 21.1816C55.0076 20.7676 55.0857 20.375 55.2419 20.0039C55.4021 19.6328 55.6169 19.3164 55.8865 19.0547C56.156 18.7891 56.4763 18.5801 56.8474 18.4277C57.2185 18.2715 57.6091 18.1934 58.0193 18.1934C58.8044 18.1934 59.4412 18.4727 59.9294 19.0312V18.2988H61.0779V23.5312C61.0779 24.0781 61.0134 24.5625 60.8845 24.9844C60.7556 25.4102 60.5896 25.748 60.3865 25.998C60.1833 26.252 59.9431 26.459 59.6658 26.6191C59.3923 26.7793 59.1248 26.8887 58.863 26.9473C58.6052 27.0059 58.3357 27.0352 58.0544 27.0352C57.4841 27.0352 56.9744 26.9121 56.5251 26.666C56.0759 26.4238 55.7146 26.084 55.4412 25.6465L56.5076 25.1895C56.863 25.7012 57.3748 25.957 58.0427 25.957C58.3005 25.957 58.5369 25.918 58.7517 25.8398C58.9705 25.7656 59.1697 25.6465 59.3494 25.4824C59.533 25.3184 59.6755 25.0879 59.7771 24.791C59.8787 24.4941 59.9294 24.1426 59.9294 23.7363V23.3262C59.4568 23.8809 58.8201 24.1582 58.0193 24.1582C57.6013 24.1582 57.2068 24.082 56.8357 23.9297C56.4646 23.7734 56.1443 23.5645 55.8748 23.3027C55.6091 23.0371 55.3982 22.7207 55.2419 22.3535C55.0857 21.9824 55.0076 21.5918 55.0076 21.1816ZM56.1443 21.1816C56.1443 21.7168 56.324 22.166 56.6833 22.5293C57.0427 22.8926 57.488 23.0742 58.0193 23.0742C58.5583 23.0742 59.0076 22.8906 59.3669 22.5234C59.7263 22.1523 59.906 21.7051 59.906 21.1816C59.906 20.6582 59.7244 20.2109 59.3611 19.8398C58.9978 19.4688 58.5505 19.2832 58.0193 19.2832C57.488 19.2832 57.0427 19.4668 56.6833 19.834C56.324 20.2012 56.1443 20.6504 56.1443 21.1816ZM62.5193 21.1816C62.5193 20.7676 62.5974 20.375 62.7537 20.0039C62.9138 19.6328 63.1287 19.3164 63.3982 19.0547C63.6677 18.7891 63.988 18.5801 64.3591 18.4277C64.7302 18.2715 65.1208 18.1934 65.531 18.1934C66.3162 18.1934 66.9529 18.4727 67.4412 19.0312V18.2988H68.5896V23.5312C68.5896 24.0781 68.5251 24.5625 68.3962 24.9844C68.2673 25.4102 68.1013 25.748 67.8982 25.998C67.6951 26.252 67.4548 26.459 67.1775 26.6191C66.9041 26.7793 66.6365 26.8887 66.3748 26.9473C66.1169 27.0059 65.8474 27.0352 65.5662 27.0352C64.9958 27.0352 64.4861 26.9121 64.0369 26.666C63.5876 26.4238 63.2263 26.084 62.9529 25.6465L64.0193 25.1895C64.3748 25.7012 64.8865 25.957 65.5544 25.957C65.8123 25.957 66.0486 25.918 66.2634 25.8398C66.4822 25.7656 66.6814 25.6465 66.8611 25.4824C67.0447 25.3184 67.1873 25.0879 67.2888 24.791C67.3904 24.4941 67.4412 24.1426 67.4412 23.7363V23.3262C66.9685 23.8809 66.3318 24.1582 65.531 24.1582C65.113 24.1582 64.7185 24.082 64.3474 23.9297C63.9763 23.7734 63.656 23.5645 63.3865 23.3027C63.1208 23.0371 62.9099 22.7207 62.7537 22.3535C62.5974 21.9824 62.5193 21.5918 62.5193 21.1816ZM63.656 21.1816C63.656 21.7168 63.8357 22.166 64.1951 22.5293C64.5544 22.8926 64.9998 23.0742 65.531 23.0742C66.0701 23.0742 66.5193 22.8906 66.8787 22.5234C67.238 22.1523 67.4177 21.7051 67.4177 21.1816C67.4177 20.6582 67.2361 20.2109 66.8728 19.8398C66.5095 19.4688 66.0623 19.2832 65.531 19.2832C64.9998 19.2832 64.5544 19.4668 64.1951 19.834C63.8357 20.2012 63.656 20.6504 63.656 21.1816ZM70.5115 24V18.2988H71.6599V18.9844C71.9255 18.668 72.2166 18.457 72.533 18.3516C72.8494 18.2461 73.2986 18.1934 73.8806 18.1934V19.2949C73.4236 19.2949 73.0427 19.3379 72.738 19.4238C72.4373 19.5098 72.2107 19.6387 72.0583 19.8105C71.906 19.9785 71.8005 20.1602 71.7419 20.3555C71.6873 20.5469 71.6599 20.7773 71.6599 21.0469V24H70.5115ZM74.3201 21.1816C74.3201 20.6504 74.4431 20.1582 74.6892 19.7051C74.9353 19.248 75.283 18.8828 75.7322 18.6094C76.1814 18.332 76.6833 18.1934 77.238 18.1934C77.6521 18.1934 78.0408 18.2754 78.4041 18.4395C78.7673 18.5996 79.0759 18.8145 79.3298 19.084C79.5837 19.3535 79.783 19.6699 79.9275 20.0332C80.0759 20.3965 80.1501 20.7754 80.1501 21.1699C80.1501 21.2754 80.1423 21.4062 80.1267 21.5625H75.4568C75.5388 22.0117 75.7478 22.3828 76.0837 22.6758C76.4236 22.9648 76.8318 23.1094 77.3083 23.1094C77.6248 23.1094 77.9255 23.041 78.2107 22.9043C78.4958 22.7676 78.7263 22.5762 78.9021 22.3301L79.7224 22.957C79.4568 23.332 79.1111 23.627 78.6853 23.8418C78.2595 24.0527 77.8005 24.1582 77.3083 24.1582C76.4763 24.1582 75.7693 23.8711 75.1873 23.2969C74.6091 22.7227 74.3201 22.0176 74.3201 21.1816ZM75.4978 20.6543H78.9783C78.908 20.252 78.7126 19.918 78.3923 19.6523C78.0759 19.3828 77.6951 19.248 77.2498 19.248C76.8162 19.248 76.4412 19.3789 76.1248 19.6406C75.8123 19.9023 75.6033 20.2402 75.4978 20.6543ZM81.0818 21.1816C81.0818 20.7676 81.1599 20.375 81.3162 20.0039C81.4763 19.6328 81.6912 19.3164 81.9607 19.0547C82.2302 18.7891 82.5505 18.5801 82.9216 18.4277C83.2927 18.2715 83.6833 18.1934 84.0935 18.1934C84.8787 18.1934 85.5154 18.4727 86.0037 19.0312V18.2988H87.1521V23.5312C87.1521 24.0781 87.0876 24.5625 86.9587 24.9844C86.8298 25.4102 86.6638 25.748 86.4607 25.998C86.2576 26.252 86.0173 26.459 85.74 26.6191C85.4666 26.7793 85.199 26.8887 84.9373 26.9473C84.6794 27.0059 84.4099 27.0352 84.1287 27.0352C83.5583 27.0352 83.0486 26.9121 82.5994 26.666C82.1501 26.4238 81.7888 26.084 81.5154 25.6465L82.5818 25.1895C82.9373 25.7012 83.449 25.957 84.1169 25.957C84.3748 25.957 84.6111 25.918 84.8259 25.8398C85.0447 25.7656 85.2439 25.6465 85.4236 25.4824C85.6072 25.3184 85.7498 25.0879 85.8513 24.791C85.9529 24.4941 86.0037 24.1426 86.0037 23.7363V23.3262C85.531 23.8809 84.8943 24.1582 84.0935 24.1582C83.6755 24.1582 83.281 24.082 82.9099 23.9297C82.5388 23.7734 82.2185 23.5645 81.949 23.3027C81.6833 23.0371 81.4724 22.7207 81.3162 22.3535C81.1599 21.9824 81.0818 21.5918 81.0818 21.1816ZM82.2185 21.1816C82.2185 21.7168 82.3982 22.166 82.7576 22.5293C83.1169 22.8926 83.5623 23.0742 84.0935 23.0742C84.6326 23.0742 85.0818 22.8906 85.4412 22.5234C85.8005 22.1523 85.9802 21.7051 85.9802 21.1816C85.9802 20.6582 85.7986 20.2109 85.4353 19.8398C85.072 19.4688 84.6248 19.2832 84.0935 19.2832C83.5623 19.2832 83.1169 19.4668 82.7576 19.834C82.3982 20.2012 82.2185 20.6504 82.2185 21.1816ZM88.5935 21.1816C88.5935 20.7676 88.6716 20.375 88.8279 20.0039C88.988 19.6328 89.2029 19.3164 89.4724 19.0547C89.7419 18.7891 90.0623 18.5801 90.4333 18.4277C90.8044 18.2715 91.1951 18.1934 91.6052 18.1934C92.3904 18.1934 93.0271 18.4727 93.5154 19.0312V18.2988H94.6638V24H93.5154V23.3262C93.0427 23.8809 92.406 24.1582 91.6052 24.1582C91.1873 24.1582 90.7927 24.082 90.4216 23.9297C90.0505 23.7734 89.7302 23.5645 89.4607 23.3027C89.1951 23.0371 88.9841 22.7207 88.8279 22.3535C88.6716 21.9824 88.5935 21.5918 88.5935 21.1816ZM89.7302 21.1816C89.7302 21.7168 89.9099 22.166 90.2693 22.5293C90.6287 22.8926 91.074 23.0742 91.6052 23.0742C92.1443 23.0742 92.5935 22.8906 92.9529 22.5234C93.3123 22.1523 93.4919 21.7051 93.4919 21.1816C93.4919 20.6582 93.3103 20.2109 92.947 19.8398C92.5837 19.4688 92.1365 19.2832 91.6052 19.2832C91.074 19.2832 90.6287 19.4668 90.2693 19.834C89.9099 20.2012 89.7302 20.6504 89.7302 21.1816ZM95.8298 19.3945V18.2988H96.7263V16.3652H97.8923V18.2988H99.4392V19.3945H97.8923V22.1133C97.8923 22.457 97.9451 22.7031 98.0505 22.8516C98.156 23 98.3552 23.0742 98.6482 23.0742C98.9373 23.0742 99.1501 23.0469 99.2869 22.9922V24.0234C99.0642 24.1133 98.7634 24.1582 98.3845 24.1582C98.1111 24.1582 97.8728 24.1211 97.6697 24.0469C97.4705 23.9766 97.3103 23.8848 97.1892 23.7715C97.072 23.6582 96.9763 23.5156 96.9021 23.3438C96.8318 23.1719 96.7849 23 96.7615 22.8281C96.738 22.6562 96.7263 22.4629 96.7263 22.248V19.3945H95.8298ZM100.511 22.6758C100.246 22.2188 100.113 21.7207 100.113 21.1816C100.113 20.6426 100.244 20.1445 100.506 19.6875C100.771 19.2305 101.133 18.8672 101.59 18.5977C102.051 18.3281 102.554 18.1934 103.101 18.1934C103.644 18.1934 104.146 18.3281 104.607 18.5977C105.072 18.8633 105.439 19.2266 105.709 19.6875C105.978 20.1445 106.113 20.6426 106.113 21.1816C106.113 21.7168 105.978 22.2129 105.709 22.6699C105.439 23.127 105.072 23.4902 104.607 23.7598C104.146 24.0254 103.644 24.1582 103.101 24.1582C102.562 24.1582 102.062 24.0254 101.601 23.7598C101.144 23.4941 100.781 23.1328 100.511 22.6758ZM101.25 21.1934C101.25 21.7051 101.429 22.1465 101.789 22.5176C102.152 22.8887 102.594 23.0742 103.113 23.0742C103.633 23.0742 104.072 22.8867 104.431 22.5117C104.791 22.1328 104.97 21.6855 104.97 21.1699C104.97 20.6543 104.789 20.2109 104.426 19.8398C104.066 19.4688 103.629 19.2832 103.113 19.2832C102.59 19.2832 102.148 19.4727 101.789 19.8516C101.429 20.2305 101.25 20.6777 101.25 21.1934ZM107.554 24V18.2988H108.703V18.9844C108.969 18.668 109.26 18.457 109.576 18.3516C109.892 18.2461 110.342 18.1934 110.924 18.1934V19.2949C110.467 19.2949 110.086 19.3379 109.781 19.4238C109.48 19.5098 109.254 19.6387 109.101 19.8105C108.949 19.9785 108.844 20.1602 108.785 20.3555C108.73 20.5469 108.703 20.7773 108.703 21.0469V24H107.554Z" fill="white"/>
</g>
<defs>
<clipPath id="clip0_164_34240">
<rect width="916" height="530" rx="32" fill="white"/>
</clipPath>
</defs>
</svg>
