<svg width="917" height="530" viewBox="0 0 917 530" fill="none" xmlns="http://www.w3.org/2000/svg">
<g clip-path="url(#clip0_28_232)">
<path fill-rule="evenodd" clip-rule="evenodd" d="M381.586 264.75C381.586 256.328 388.414 249.5 396.836 249.5H520.25C528.672 249.5 535.5 256.328 535.5 264.75C535.5 273.172 528.672 280 520.25 280H396.836C388.414 280 381.586 273.172 381.586 264.75ZM433.982 269.5V260.617H437.123C437.634 260.617 438.087 260.695 438.482 260.852C438.88 261.008 439.201 261.223 439.443 261.496C439.685 261.77 439.867 262.082 439.988 262.434C440.113 262.781 440.175 263.16 440.175 263.57C440.175 263.98 440.113 264.361 439.988 264.713C439.867 265.064 439.685 265.379 439.443 265.656C439.201 265.93 438.88 266.145 438.482 266.301C438.087 266.457 437.634 266.535 437.123 266.535H435.552V269.5H433.982ZM435.552 265.023H437.123C437.619 265.023 437.99 264.889 438.236 264.619C438.486 264.35 438.611 264.004 438.611 263.582C438.611 263.156 438.486 262.809 438.236 262.539C437.99 262.27 437.619 262.135 437.123 262.135H435.552V265.023ZM448.377 269.5V260.617H449.947V267.988H454.066V269.5H448.377ZM461.904 269.5L465.455 260.617H467.054L470.593 269.5H468.888L468.156 267.602H464.33L463.609 269.5H461.904ZM464.892 266.102H467.593L466.246 262.574L464.892 266.102ZM476.744 260.617H478.572L480.74 264.086L482.925 260.617H484.748L481.531 265.551V269.5H479.961V265.562L476.744 260.617ZM407.392 264.75C407.392 269.168 403.81 272.75 399.392 272.75C394.973 272.75 391.392 269.168 391.392 264.75C391.392 260.332 394.973 256.75 399.392 256.75C403.81 256.75 407.392 260.332 407.392 264.75ZM401.862 265.164L398.63 267.348C398.298 267.572 397.85 267.334 397.85 266.934V262.566C397.85 262.166 398.298 261.928 398.63 262.152L401.862 264.336C402.155 264.534 402.155 264.966 401.862 265.164Z" fill="white"/>
</g>
<defs>
<clipPath id="clip0_28_232">
<rect x="0.543213" width="916" height="530" rx="32" fill="white"/>
</clipPath>
</defs>
</svg>
