<svg width="917" height="530" viewBox="0 0 917 530" fill="none" xmlns="http://www.w3.org/2000/svg">
<g clip-path="url(#clip0_28_238)">
<path d="M43.4868 482.793L46.4044 480.803L49.3092 482.982L52.3726 480.795L55.1398 483.174L58.4868 481.207" stroke="white" stroke-width="2" stroke-linecap="round" stroke-linejoin="round"/>
<path fill-rule="evenodd" clip-rule="evenodd" d="M133.167 496C137.585 496 141.167 492.418 141.167 488C141.167 483.582 137.585 480 133.167 480C128.748 480 125.167 483.582 125.167 488C125.167 492.418 128.748 496 133.167 496ZM132.405 490.598L135.637 488.414C135.93 488.216 135.93 487.784 135.637 487.586L132.405 485.402C132.073 485.178 131.625 485.416 131.625 485.816V490.184C131.625 490.584 132.073 490.822 132.405 490.598Z" fill="white"/>
<rect width="66.8147" height="1" rx="0.5" transform="matrix(1 0 0 -1 35 512)" fill="white"/>
<path d="M191.654 482.793L194.571 480.803L197.476 482.982L200.539 480.795L203.307 483.174L206.654 481.207" stroke="white" stroke-width="2" stroke-linecap="round" stroke-linejoin="round"/>
<path fill-rule="evenodd" clip-rule="evenodd" d="M281.333 496C285.752 496 289.333 492.418 289.333 488C289.333 483.582 285.752 480 281.333 480C276.915 480 273.333 483.582 273.333 488C273.333 492.418 276.915 496 281.333 496ZM280.572 490.598L283.804 488.414C284.097 488.216 284.097 487.784 283.804 487.586L280.572 485.402C280.24 485.178 279.792 485.416 279.792 485.816V490.184C279.792 490.584 280.24 490.822 280.572 490.598Z" fill="white"/>
<rect width="66.8147" height="1" rx="0.5" transform="matrix(1 0 0 -1 183.167 512)" fill="white"/>
<path d="M339.82 482.793L342.738 480.803L345.642 482.982L348.706 480.795L351.473 483.174L354.82 481.207" stroke="white" stroke-width="2" stroke-linecap="round" stroke-linejoin="round"/>
<path fill-rule="evenodd" clip-rule="evenodd" d="M429.5 496C433.918 496 437.5 492.418 437.5 488C437.5 483.582 433.918 480 429.5 480C425.082 480 421.5 483.582 421.5 488C421.5 492.418 425.082 496 429.5 496ZM428.738 490.598L431.97 488.414C432.264 488.216 432.264 487.784 431.97 487.586L428.738 485.402C428.406 485.178 427.958 485.416 427.958 485.816V490.184C427.958 490.584 428.406 490.822 428.738 490.598Z" fill="white"/>
<rect width="66.8147" height="1" rx="0.5" transform="matrix(1 0 0 -1 331.333 512)" fill="white"/>
<path d="M487.987 482.793L490.904 480.803L493.809 482.982L496.873 480.795L499.64 483.174L502.987 481.207" stroke="white" stroke-width="2" stroke-linecap="round" stroke-linejoin="round"/>
<path fill-rule="evenodd" clip-rule="evenodd" d="M577.667 496C582.085 496 585.667 492.418 585.667 488C585.667 483.582 582.085 480 577.667 480C573.248 480 569.667 483.582 569.667 488C569.667 492.418 573.248 496 577.667 496ZM576.905 490.598L580.137 488.414C580.43 488.216 580.43 487.784 580.137 487.586L576.905 485.402C576.573 485.178 576.125 485.416 576.125 485.816V490.184C576.125 490.584 576.573 490.822 576.905 490.598Z" fill="white"/>
<rect width="66.8147" height="1" rx="0.5" transform="matrix(1 0 0 -1 479.5 512)" fill="white"/>
<path d="M636.153 482.793L639.071 480.803L641.976 482.982L645.039 480.795L647.806 483.174L651.153 481.207" stroke="white" stroke-width="2" stroke-linecap="round" stroke-linejoin="round"/>
<path fill-rule="evenodd" clip-rule="evenodd" d="M725.833 496C730.252 496 733.833 492.418 733.833 488C733.833 483.582 730.252 480 725.833 480C721.415 480 717.833 483.582 717.833 488C717.833 492.418 721.415 496 725.833 496ZM725.071 490.598L728.303 488.414C728.597 488.216 728.597 487.784 728.303 487.586L725.071 485.402C724.739 485.178 724.292 485.416 724.292 485.816V490.184C724.292 490.584 724.739 490.822 725.071 490.598Z" fill="white"/>
<rect width="66.8147" height="1" rx="0.5" transform="matrix(1 0 0 -1 627.667 512)" fill="white"/>
<path d="M784.32 482.793L787.238 480.803L790.142 482.982L793.206 480.795L795.973 483.174L799.32 481.207" stroke="white" stroke-width="2" stroke-linecap="round" stroke-linejoin="round"/>
<path fill-rule="evenodd" clip-rule="evenodd" d="M874 496C878.418 496 882 492.418 882 488C882 483.582 878.418 480 874 480C869.582 480 866 483.582 866 488C866 492.418 869.582 496 874 496ZM873.238 490.598L876.47 488.414C876.764 488.216 876.764 487.784 876.47 487.586L873.238 485.402C872.906 485.178 872.458 485.416 872.458 485.816V490.184C872.458 490.584 872.906 490.822 873.238 490.598Z" fill="white"/>
<rect width="66.8147" height="1" rx="0.5" transform="matrix(1 0 0 -1 775.833 512)" fill="white"/>
<rect x="38.5432" y="440.25" width="460.036" height="4" rx="2" fill="white"/>
<path d="M47 91.5762L49.8734 89.5035L52.7341 91.7735L55.7512 89.4953L58.4764 91.9732L61.7727 89.924" stroke="white" stroke-width="1.13636" stroke-linecap="round" stroke-linejoin="round"/>
<path d="M47 117.076L49.8734 115.003L52.7341 117.273L55.7512 114.995L58.4764 117.473L61.7727 115.424" stroke="white" stroke-width="1.13636" stroke-linecap="round" stroke-linejoin="round"/>
<g clip-path="url(#clip1_28_238)">
<rect x="38.2612" y="159" width="32" height="32" rx="8" fill="white"/>
<path d="M86.2612 167.431L89.5679 164.943L92.8599 167.667L96.3318 164.934L99.468 167.907L103.261 165.448" stroke="white" stroke-linecap="round" stroke-linejoin="round"/>
<path d="M19.2612 242H224.261" stroke="white" stroke-opacity="0.2"/>
<rect x="38.2612" y="258" width="32" height="32" rx="8" fill="white"/>
<path d="M86.2612 266.431L89.5679 263.943L92.8599 266.667L96.3318 263.934L99.468 266.907L103.261 264.448" stroke="white" stroke-linecap="round" stroke-linejoin="round"/>
<path d="M19.2612 341H224.261" stroke="white" stroke-opacity="0.2"/>
<rect x="38.2612" y="357" width="32" height="32" rx="8" fill="white"/>
<path d="M86.2612 365.431L89.5679 362.943L92.8599 365.667L96.3318 362.934L99.468 365.907L103.261 363.448" stroke="white" stroke-linecap="round" stroke-linejoin="round"/>
</g>
</g>
<defs>
<clipPath id="clip0_28_238">
<rect x="0.543213" width="916" height="530" rx="32" fill="white"/>
</clipPath>
<clipPath id="clip1_28_238">
<rect width="213" height="291" fill="white" transform="translate(19 143.25)"/>
</clipPath>
</defs>
</svg>
