<svg width="916" height="531" viewBox="0 0 916 531" fill="none" xmlns="http://www.w3.org/2000/svg">
<path fill-rule="evenodd" clip-rule="evenodd" d="M585.152 150.5C576.73 150.5 569.902 157.328 569.902 165.75C569.902 174.172 576.73 181 585.152 181H660.653C669.075 181 675.903 174.172 675.903 165.75C675.903 157.328 669.075 150.5 660.653 150.5H585.152ZM599.965 162.098V169.5H601.274V166.429H602.163L603.955 169.5H605.424L603.584 166.36C604.13 166.266 604.552 166.035 604.848 165.667C605.144 165.296 605.293 164.83 605.293 164.271C605.293 163.606 605.089 163.079 604.682 162.688C604.275 162.295 603.702 162.098 602.963 162.098H599.965ZM602.983 165.169H601.274V163.362H602.983C603.289 163.362 603.531 163.445 603.711 163.611C603.893 163.774 603.984 163.997 603.984 164.28C603.984 164.56 603.894 164.778 603.715 164.935C603.536 165.091 603.292 165.169 602.983 165.169ZM613.479 162.098V169.5H618.167V168.24H614.788V166.268H617.449V165.008H614.788V163.362H618.167V162.098H613.479ZM628.926 162.098L625.967 169.5H627.388L627.989 167.918H631.177L631.788 169.5H633.209L630.259 162.098H628.926ZM630.709 166.668H628.458L629.586 163.729L630.709 166.668ZM641.004 162.098V169.5H643.104C643.889 169.5 644.58 169.354 645.179 169.061C645.778 168.768 646.245 168.341 646.581 167.781C646.916 167.218 647.084 166.557 647.084 165.799C647.084 165.04 646.916 164.381 646.581 163.821C646.245 163.258 645.778 162.83 645.179 162.537C644.58 162.244 643.889 162.098 643.104 162.098H641.004ZM643.075 168.24H642.313V163.362H643.075C643.456 163.362 643.804 163.406 644.12 163.494C644.435 163.582 644.719 163.719 644.969 163.904C645.223 164.09 645.42 164.344 645.56 164.666C645.703 164.988 645.775 165.366 645.775 165.799C645.775 166.232 645.703 166.609 645.56 166.932C645.42 167.254 645.223 167.509 644.969 167.698C644.719 167.884 644.435 168.021 644.12 168.108C643.804 168.196 643.456 168.24 643.075 168.24Z" fill="white"/>
<g opacity="0.5">
<circle cx="372.931" cy="407.43" r="6.13395" stroke="white" stroke-width="0.533387"/>
<circle cx="491.992" cy="407.43" r="6.13395" stroke="white" stroke-width="0.533387"/>
<path d="M491.877 414.098C489.566 418.187 482.063 426.366 470.541 426.366C459.02 426.366 452.584 426.366 450.806 426.366C444.761 427.077 432.671 431.913 432.671 445.567" stroke="white" stroke-width="0.533387" stroke-dasharray="1.6 1.6"/>
<path d="M373.465 414.098C375.776 418.187 383.279 426.366 394.8 426.366C406.321 426.366 412.758 426.366 414.536 426.366C420.581 427.077 432.671 431.913 432.671 445.568" stroke="white" stroke-width="0.533387" stroke-dasharray="1.6 1.6"/>
<path d="M431.186 482.905C433.497 486.994 441 495.173 452.522 495.173C464.043 495.173 470.479 495.173 472.257 495.173C478.302 495.884 490.392 500.72 490.392 514.375" stroke="white" stroke-width="0.533387" stroke-dasharray="1.6 1.6"/>
<circle cx="431.721" cy="451.762" r="6.13395" stroke="white" stroke-width="0.533387"/>
<path d="M431.721 458.696V467.23" stroke="white" stroke-width="0.533387" stroke-dasharray="1.6 1.6"/>
<circle cx="431.721" cy="474.164" r="6.13395" stroke="white" stroke-width="0.533387"/>
<circle cx="491.992" cy="521.575" r="6.13395" stroke="white" stroke-width="0.533387"/>
</g>
<path d="M387.19 406.307C387.19 406.533 387.137 406.746 387.03 406.947C386.923 407.148 386.753 407.312 386.518 407.44C386.283 407.564 385.982 407.625 385.615 407.625H384.809V409.43H384.079V404.982H385.615C385.957 404.982 386.245 405.042 386.479 405.161C386.718 405.276 386.895 405.434 387.011 405.635C387.13 405.835 387.19 406.059 387.19 406.307ZM385.615 407.03C385.893 407.03 386.1 406.968 386.236 406.845C386.373 406.717 386.441 406.537 386.441 406.307C386.441 405.82 386.166 405.577 385.615 405.577H384.809V407.03H385.615ZM391.118 407.581C391.118 407.713 391.11 407.832 391.093 407.939H388.398C388.419 408.221 388.524 408.447 388.711 408.618C388.899 408.788 389.13 408.874 389.403 408.874C389.795 408.874 390.073 408.709 390.235 408.381H391.022C390.915 408.705 390.721 408.972 390.44 409.181C390.162 409.386 389.817 409.488 389.403 409.488C389.066 409.488 388.763 409.413 388.494 409.264C388.229 409.11 388.02 408.897 387.867 408.624C387.717 408.347 387.643 408.027 387.643 407.664C387.643 407.301 387.715 406.983 387.86 406.71C388.01 406.433 388.217 406.219 388.481 406.07C388.75 405.921 389.057 405.846 389.403 405.846C389.736 405.846 390.032 405.919 390.292 406.064C390.553 406.209 390.755 406.414 390.901 406.678C391.046 406.938 391.118 407.239 391.118 407.581ZM390.356 407.35C390.352 407.081 390.256 406.866 390.068 406.704C389.881 406.542 389.648 406.461 389.371 406.461C389.119 406.461 388.904 406.542 388.724 406.704C388.545 406.862 388.438 407.077 388.404 407.35H390.356ZM392.566 406.416C392.673 406.236 392.813 406.098 392.988 406C393.168 405.897 393.379 405.846 393.622 405.846V406.601H393.436C393.15 406.601 392.933 406.674 392.783 406.819C392.638 406.964 392.566 407.216 392.566 407.574V409.43H391.836V405.904H392.566V406.416ZM395.573 409.488C395.295 409.488 395.046 409.439 394.824 409.341C394.606 409.238 394.434 409.102 394.306 408.931C394.177 408.756 394.109 408.562 394.101 408.349H394.856C394.869 408.498 394.939 408.624 395.067 408.726C395.199 408.824 395.364 408.874 395.56 408.874C395.765 408.874 395.923 408.835 396.034 408.758C396.149 408.677 396.206 408.575 396.206 408.451C396.206 408.319 396.142 408.221 396.014 408.157C395.891 408.093 395.692 408.022 395.419 407.945C395.155 407.873 394.939 407.803 394.773 407.734C394.606 407.666 394.461 407.561 394.338 407.421C394.218 407.28 394.158 407.094 394.158 406.864C394.158 406.676 394.214 406.505 394.325 406.352C394.436 406.194 394.594 406.07 394.798 405.98C395.007 405.891 395.246 405.846 395.515 405.846C395.916 405.846 396.238 405.948 396.482 406.153C396.729 406.354 396.861 406.629 396.879 406.979H396.149C396.136 406.821 396.072 406.695 395.957 406.601C395.842 406.507 395.686 406.461 395.49 406.461C395.298 406.461 395.15 406.497 395.048 406.569C394.946 406.642 394.894 406.738 394.894 406.857C394.894 406.951 394.928 407.03 394.997 407.094C395.065 407.158 395.148 407.209 395.246 407.248C395.345 407.282 395.49 407.327 395.682 407.382C395.938 407.45 396.147 407.521 396.309 407.593C396.475 407.662 396.618 407.764 396.738 407.901C396.857 408.037 396.919 408.219 396.923 408.445C396.923 408.645 396.868 408.824 396.757 408.982C396.646 409.14 396.488 409.264 396.283 409.354C396.083 409.443 395.846 409.488 395.573 409.488ZM399.242 409.488C398.909 409.488 398.608 409.413 398.339 409.264C398.07 409.11 397.859 408.897 397.705 408.624C397.552 408.347 397.475 408.027 397.475 407.664C397.475 407.305 397.554 406.988 397.712 406.71C397.87 406.433 398.085 406.219 398.358 406.07C398.631 405.921 398.936 405.846 399.274 405.846C399.611 405.846 399.916 405.921 400.189 406.07C400.462 406.219 400.677 406.433 400.835 406.71C400.993 406.988 401.072 407.305 401.072 407.664C401.072 408.022 400.991 408.34 400.829 408.618C400.667 408.895 400.445 409.11 400.163 409.264C399.886 409.413 399.579 409.488 399.242 409.488ZM399.242 408.854C399.429 408.854 399.604 408.81 399.766 408.72C399.933 408.63 400.067 408.496 400.17 408.317C400.272 408.137 400.323 407.92 400.323 407.664C400.323 407.408 400.274 407.192 400.176 407.017C400.078 406.838 399.948 406.704 399.786 406.614C399.623 406.525 399.449 406.48 399.261 406.48C399.073 406.48 398.898 406.525 398.736 406.614C398.578 406.704 398.452 406.838 398.358 407.017C398.264 407.192 398.217 407.408 398.217 407.664C398.217 408.044 398.313 408.338 398.505 408.547C398.702 408.752 398.947 408.854 399.242 408.854ZM403.573 405.846C403.85 405.846 404.098 405.904 404.315 406.019C404.537 406.134 404.71 406.305 404.834 406.531C404.958 406.757 405.019 407.03 405.019 407.35V409.43H404.296V407.459C404.296 407.143 404.217 406.902 404.059 406.736C403.901 406.565 403.686 406.48 403.413 406.48C403.14 406.48 402.922 406.565 402.76 406.736C402.602 406.902 402.523 407.143 402.523 407.459V409.43H401.793V405.904H402.523V406.307C402.643 406.162 402.794 406.049 402.978 405.968C403.165 405.887 403.364 405.846 403.573 405.846ZM408.658 406.806V407.421H406.027V406.806H408.658ZM409.502 405.43V404.764H410.834V409.43H410.097V405.43H409.502ZM412.226 409.475C412.094 409.475 411.983 409.43 411.894 409.341C411.804 409.251 411.759 409.14 411.759 409.008C411.759 408.876 411.804 408.765 411.894 408.675C411.983 408.586 412.094 408.541 412.226 408.541C412.354 408.541 412.463 408.586 412.553 408.675C412.642 408.765 412.687 408.876 412.687 409.008C412.687 409.14 412.642 409.251 412.553 409.341C412.463 409.43 412.354 409.475 412.226 409.475ZM412.226 406.787C412.094 406.787 411.983 406.742 411.894 406.653C411.804 406.563 411.759 406.452 411.759 406.32C411.759 406.187 411.804 406.076 411.894 405.987C411.983 405.897 412.094 405.852 412.226 405.852C412.354 405.852 412.463 405.897 412.553 405.987C412.642 406.076 412.687 406.187 412.687 406.32C412.687 406.452 412.642 406.563 412.553 406.653C412.463 406.742 412.354 406.787 412.226 406.787Z" fill="black" fill-opacity="0.5"/>
<path d="M506.251 406.307C506.251 406.533 506.198 406.746 506.091 406.947C505.984 407.148 505.814 407.312 505.579 407.44C505.344 407.564 505.043 407.625 504.676 407.625H503.87V409.43H503.14V404.982H504.676C505.018 404.982 505.306 405.042 505.54 405.161C505.779 405.276 505.956 405.434 506.072 405.635C506.191 405.835 506.251 406.059 506.251 406.307ZM504.676 407.03C504.954 407.03 505.161 406.968 505.297 406.845C505.434 406.717 505.502 406.537 505.502 406.307C505.502 405.82 505.227 405.577 504.676 405.577H503.87V407.03H504.676ZM510.179 407.581C510.179 407.713 510.171 407.832 510.154 407.939H507.459C507.48 408.221 507.585 408.447 507.773 408.618C507.96 408.788 508.191 408.874 508.464 408.874C508.856 408.874 509.134 408.709 509.296 408.381H510.083C509.976 408.705 509.782 408.972 509.501 409.181C509.223 409.386 508.878 409.488 508.464 409.488C508.127 409.488 507.824 409.413 507.555 409.264C507.29 409.11 507.081 408.897 506.928 408.624C506.778 408.347 506.704 408.027 506.704 407.664C506.704 407.301 506.776 406.983 506.921 406.71C507.071 406.433 507.278 406.219 507.542 406.07C507.811 405.921 508.118 405.846 508.464 405.846C508.797 405.846 509.093 405.919 509.353 406.064C509.614 406.209 509.816 406.414 509.962 406.678C510.107 406.938 510.179 407.239 510.179 407.581ZM509.417 407.35C509.413 407.081 509.317 406.866 509.129 406.704C508.942 406.542 508.709 406.461 508.432 406.461C508.18 406.461 507.965 406.542 507.785 406.704C507.606 406.862 507.499 407.077 507.465 407.35H509.417ZM511.627 406.416C511.734 406.236 511.874 406.098 512.049 406C512.229 405.897 512.44 405.846 512.683 405.846V406.601H512.497C512.212 406.601 511.994 406.674 511.845 406.819C511.699 406.964 511.627 407.216 511.627 407.574V409.43H510.897V405.904H511.627V406.416ZM514.634 409.488C514.357 409.488 514.107 409.439 513.885 409.341C513.667 409.238 513.495 409.102 513.367 408.931C513.239 408.756 513.17 408.562 513.162 408.349H513.917C513.93 408.498 514 408.624 514.128 408.726C514.26 408.824 514.425 408.874 514.621 408.874C514.826 408.874 514.984 408.835 515.095 408.758C515.21 408.677 515.268 408.575 515.268 408.451C515.268 408.319 515.204 408.221 515.076 408.157C514.952 408.093 514.753 408.022 514.48 407.945C514.216 407.873 514 407.803 513.834 407.734C513.667 407.666 513.522 407.561 513.399 407.421C513.279 407.28 513.219 407.094 513.219 406.864C513.219 406.676 513.275 406.505 513.386 406.352C513.497 406.194 513.655 406.07 513.859 405.98C514.068 405.891 514.307 405.846 514.576 405.846C514.977 405.846 515.3 405.948 515.543 406.153C515.79 406.354 515.923 406.629 515.94 406.979H515.21C515.197 406.821 515.133 406.695 515.018 406.601C514.903 406.507 514.747 406.461 514.551 406.461C514.359 406.461 514.211 406.497 514.109 406.569C514.007 406.642 513.955 406.738 513.955 406.857C513.955 406.951 513.99 407.03 514.058 407.094C514.126 407.158 514.209 407.209 514.307 407.248C514.406 407.282 514.551 407.327 514.743 407.382C514.999 407.45 515.208 407.521 515.37 407.593C515.536 407.662 515.679 407.764 515.799 407.901C515.918 408.037 515.98 408.219 515.984 408.445C515.984 408.645 515.929 408.824 515.818 408.982C515.707 409.14 515.549 409.264 515.344 409.354C515.144 409.443 514.907 409.488 514.634 409.488ZM518.303 409.488C517.97 409.488 517.669 409.413 517.4 409.264C517.131 409.11 516.92 408.897 516.766 408.624C516.613 408.347 516.536 408.027 516.536 407.664C516.536 407.305 516.615 406.988 516.773 406.71C516.931 406.433 517.146 406.219 517.419 406.07C517.692 405.921 517.997 405.846 518.335 405.846C518.672 405.846 518.977 405.921 519.25 406.07C519.523 406.219 519.738 406.433 519.896 406.71C520.054 406.988 520.133 407.305 520.133 407.664C520.133 408.022 520.052 408.34 519.89 408.618C519.728 408.895 519.506 409.11 519.224 409.264C518.947 409.413 518.64 409.488 518.303 409.488ZM518.303 408.854C518.49 408.854 518.665 408.81 518.827 408.72C518.994 408.63 519.128 408.496 519.231 408.317C519.333 408.137 519.384 407.92 519.384 407.664C519.384 407.408 519.335 407.192 519.237 407.017C519.139 406.838 519.009 406.704 518.847 406.614C518.684 406.525 518.51 406.48 518.322 406.48C518.134 406.48 517.959 406.525 517.797 406.614C517.639 406.704 517.513 406.838 517.419 407.017C517.325 407.192 517.278 407.408 517.278 407.664C517.278 408.044 517.374 408.338 517.567 408.547C517.763 408.752 518.008 408.854 518.303 408.854ZM522.634 405.846C522.911 405.846 523.159 405.904 523.376 406.019C523.598 406.134 523.771 406.305 523.895 406.531C524.019 406.757 524.08 407.03 524.08 407.35V409.43H523.357V407.459C523.357 407.143 523.278 406.902 523.12 406.736C522.962 406.565 522.747 406.48 522.474 406.48C522.201 406.48 521.983 406.565 521.821 406.736C521.663 406.902 521.584 407.143 521.584 407.459V409.43H520.854V405.904H521.584V406.307C521.704 406.162 521.855 406.049 522.039 405.968C522.226 405.887 522.425 405.846 522.634 405.846ZM527.719 406.806V407.421H525.088V406.806H527.719ZM529.063 408.438C529.472 408.084 529.794 407.794 530.029 407.568C530.268 407.337 530.466 407.098 530.624 406.851C530.782 406.603 530.861 406.356 530.861 406.108C530.861 405.852 530.799 405.652 530.675 405.507C530.556 405.362 530.366 405.289 530.106 405.289C529.854 405.289 529.658 405.37 529.517 405.532C529.38 405.69 529.308 405.904 529.299 406.172H528.595C528.608 405.686 528.753 405.315 529.031 405.059C529.312 404.798 529.668 404.668 530.099 404.668C530.565 404.668 530.927 404.796 531.188 405.052C531.452 405.308 531.584 405.65 531.584 406.076C531.584 406.384 531.505 406.68 531.348 406.966C531.194 407.248 531.008 407.502 530.791 407.728C530.577 407.95 530.304 408.208 529.971 408.502L529.683 408.758H531.712V409.366H528.602V408.835L529.063 408.438ZM532.744 409.475C532.612 409.475 532.501 409.43 532.411 409.341C532.321 409.251 532.277 409.14 532.277 409.008C532.277 408.876 532.321 408.765 532.411 408.675C532.501 408.586 532.612 408.541 532.744 408.541C532.872 408.541 532.981 408.586 533.07 408.675C533.16 408.765 533.205 408.876 533.205 409.008C533.205 409.14 533.16 409.251 533.07 409.341C532.981 409.43 532.872 409.475 532.744 409.475ZM532.744 406.787C532.612 406.787 532.501 406.742 532.411 406.653C532.321 406.563 532.277 406.452 532.277 406.32C532.277 406.187 532.321 406.076 532.411 405.987C532.501 405.897 532.612 405.852 532.744 405.852C532.872 405.852 532.981 405.897 533.07 405.987C533.16 406.076 533.205 406.187 533.205 406.32C533.205 406.452 533.16 406.563 533.07 406.653C532.981 406.742 532.872 406.787 532.744 406.787Z" fill="white"/>
<path d="M443.598 449.902V451.208H445.135V451.803H443.598V453.167H445.327V453.762H442.869V449.307H445.327V449.902H443.598ZM447.589 453.109L448.587 450.235H449.362L448.017 453.762H447.147L445.809 450.235H446.59L447.589 453.109ZM453.146 451.912C453.146 452.044 453.137 452.164 453.12 452.271H450.425C450.447 452.552 450.551 452.778 450.739 452.949C450.927 453.12 451.157 453.205 451.43 453.205C451.823 453.205 452.1 453.041 452.262 452.712H453.049C452.943 453.037 452.749 453.303 452.467 453.512C452.19 453.717 451.844 453.82 451.43 453.82C451.093 453.82 450.79 453.745 450.521 453.596C450.257 453.442 450.048 453.229 449.894 452.955C449.745 452.678 449.67 452.358 449.67 451.995C449.67 451.633 449.742 451.315 449.888 451.042C450.037 450.764 450.244 450.551 450.508 450.402C450.777 450.252 451.084 450.178 451.43 450.178C451.763 450.178 452.06 450.25 452.32 450.395C452.58 450.54 452.783 450.745 452.928 451.01C453.073 451.27 453.146 451.571 453.146 451.912ZM452.384 451.682C452.38 451.413 452.284 451.197 452.096 451.035C451.908 450.873 451.675 450.792 451.398 450.792C451.146 450.792 450.931 450.873 450.752 451.035C450.572 451.193 450.466 451.409 450.432 451.682H452.384ZM455.643 450.178C455.92 450.178 456.168 450.235 456.385 450.35C456.607 450.466 456.78 450.636 456.904 450.862C457.028 451.089 457.09 451.362 457.09 451.682V453.762H456.366V451.791C456.366 451.475 456.287 451.234 456.129 451.067C455.972 450.897 455.756 450.811 455.483 450.811C455.21 450.811 454.992 450.897 454.83 451.067C454.672 451.234 454.593 451.475 454.593 451.791V453.762H453.864V450.235H454.593V450.638C454.713 450.493 454.864 450.38 455.048 450.299C455.235 450.218 455.434 450.178 455.643 450.178ZM458.872 450.83V452.783C458.872 452.915 458.901 453.011 458.961 453.071C459.025 453.126 459.132 453.154 459.281 453.154H459.729V453.762H459.153C458.825 453.762 458.573 453.685 458.398 453.532C458.223 453.378 458.135 453.128 458.135 452.783V450.83H457.719V450.235H458.135V449.358H458.872V450.235H459.729V450.83H458.872ZM463.109 451.138V451.752H460.479V451.138H463.109ZM463.954 449.762V449.096H465.285V453.762H464.549V449.762H463.954ZM466.678 453.807C466.546 453.807 466.435 453.762 466.345 453.672C466.256 453.583 466.211 453.472 466.211 453.34C466.211 453.207 466.256 453.096 466.345 453.007C466.435 452.917 466.546 452.872 466.678 452.872C466.806 452.872 466.915 452.917 467.004 453.007C467.094 453.096 467.139 453.207 467.139 453.34C467.139 453.472 467.094 453.583 467.004 453.672C466.915 453.762 466.806 453.807 466.678 453.807ZM466.678 451.118C466.546 451.118 466.435 451.074 466.345 450.984C466.256 450.894 466.211 450.784 466.211 450.651C466.211 450.519 466.256 450.408 466.345 450.318C466.435 450.229 466.546 450.184 466.678 450.184C466.806 450.184 466.915 450.229 467.004 450.318C467.094 450.408 467.139 450.519 467.139 450.651C467.139 450.784 467.094 450.894 467.004 450.984C466.915 451.074 466.806 451.118 466.678 451.118Z" fill="white"/>
<path d="M443.598 472.305V473.61H445.135V474.206H443.598V475.569H445.327V476.164H442.869V471.709H445.327V472.305H443.598ZM447.589 475.511L448.587 472.638H449.362L448.017 476.164H447.147L445.809 472.638H446.59L447.589 475.511ZM453.146 474.315C453.146 474.447 453.137 474.566 453.12 474.673H450.425C450.447 474.955 450.551 475.181 450.739 475.351C450.927 475.522 451.157 475.607 451.43 475.607C451.823 475.607 452.1 475.443 452.262 475.115H453.049C452.943 475.439 452.749 475.706 452.467 475.915C452.19 476.12 451.844 476.222 451.43 476.222C451.093 476.222 450.79 476.147 450.521 475.998C450.257 475.844 450.048 475.631 449.894 475.358C449.745 475.08 449.67 474.76 449.67 474.398C449.67 474.035 449.742 473.717 449.888 473.444C450.037 473.167 450.244 472.953 450.508 472.804C450.777 472.655 451.084 472.58 451.43 472.58C451.763 472.58 452.06 472.652 452.32 472.798C452.58 472.943 452.783 473.147 452.928 473.412C453.073 473.672 453.146 473.973 453.146 474.315ZM452.384 474.084C452.38 473.815 452.284 473.6 452.096 473.438C451.908 473.275 451.675 473.194 451.398 473.194C451.146 473.194 450.931 473.275 450.752 473.438C450.572 473.596 450.466 473.811 450.432 474.084H452.384ZM455.643 472.58C455.92 472.58 456.168 472.638 456.385 472.753C456.607 472.868 456.78 473.039 456.904 473.265C457.028 473.491 457.09 473.764 457.09 474.084V476.164H456.366V474.193C456.366 473.877 456.287 473.636 456.129 473.47C455.972 473.299 455.756 473.214 455.483 473.214C455.21 473.214 454.992 473.299 454.83 473.47C454.672 473.636 454.593 473.877 454.593 474.193V476.164H453.864V472.638H454.593V473.041C454.713 472.896 454.864 472.783 455.048 472.702C455.235 472.62 455.434 472.58 455.643 472.58ZM458.872 473.233V475.185C458.872 475.317 458.901 475.413 458.961 475.473C459.025 475.529 459.132 475.556 459.281 475.556H459.729V476.164H459.153C458.825 476.164 458.573 476.087 458.398 475.934C458.223 475.78 458.135 475.531 458.135 475.185V473.233H457.719V472.638H458.135V471.761H458.872V472.638H459.729V473.233H458.872ZM463.109 473.54V474.155H460.479V473.54H463.109ZM464.453 475.172C464.863 474.818 465.185 474.528 465.42 474.302C465.659 474.071 465.857 473.832 466.015 473.585C466.173 473.337 466.252 473.09 466.252 472.842C466.252 472.586 466.19 472.386 466.066 472.241C465.947 472.096 465.757 472.023 465.496 472.023C465.245 472.023 465.048 472.104 464.908 472.266C464.771 472.424 464.698 472.638 464.69 472.906H463.986C463.999 472.42 464.144 472.049 464.421 471.793C464.703 471.532 465.059 471.402 465.49 471.402C465.955 471.402 466.318 471.53 466.578 471.786C466.843 472.042 466.975 472.384 466.975 472.81C466.975 473.118 466.896 473.414 466.738 473.7C466.585 473.982 466.399 474.236 466.181 474.462C465.968 474.684 465.695 474.942 465.362 475.236L465.074 475.492H467.103V476.1H463.992V475.569L464.453 475.172ZM468.134 476.209C468.002 476.209 467.891 476.164 467.802 476.075C467.712 475.985 467.667 475.874 467.667 475.742C467.667 475.61 467.712 475.499 467.802 475.409C467.891 475.319 468.002 475.275 468.134 475.275C468.262 475.275 468.371 475.319 468.461 475.409C468.55 475.499 468.595 475.61 468.595 475.742C468.595 475.874 468.55 475.985 468.461 476.075C468.371 476.164 468.262 476.209 468.134 476.209ZM468.134 473.521C468.002 473.521 467.891 473.476 467.802 473.386C467.712 473.297 467.667 473.186 467.667 473.054C467.667 472.921 467.712 472.81 467.802 472.721C467.891 472.631 468.002 472.586 468.134 472.586C468.262 472.586 468.371 472.631 468.461 472.721C468.55 472.81 468.595 472.921 468.595 473.054C468.595 473.186 468.55 473.297 468.461 473.386C468.371 473.476 468.262 473.521 468.134 473.521Z" fill="white"/>
<path d="M506.251 520.452C506.251 520.678 506.198 520.891 506.091 521.092C505.984 521.292 505.814 521.457 505.579 521.585C505.344 521.708 505.043 521.77 504.676 521.77H503.87V523.575H503.14V519.127H504.676C505.018 519.127 505.306 519.186 505.54 519.306C505.779 519.421 505.956 519.579 506.072 519.78C506.191 519.98 506.251 520.204 506.251 520.452ZM504.676 521.175C504.954 521.175 505.161 521.113 505.297 520.989C505.434 520.861 505.502 520.682 505.502 520.452C505.502 519.965 505.227 519.722 504.676 519.722H503.87V521.175H504.676ZM510.179 521.725C510.179 521.858 510.171 521.977 510.154 522.084H507.459C507.48 522.365 507.585 522.592 507.773 522.762C507.96 522.933 508.191 523.018 508.464 523.018C508.856 523.018 509.134 522.854 509.296 522.525H510.083C509.976 522.85 509.782 523.116 509.501 523.326C509.223 523.53 508.878 523.633 508.464 523.633C508.127 523.633 507.824 523.558 507.555 523.409C507.29 523.255 507.081 523.042 506.928 522.769C506.778 522.491 506.704 522.171 506.704 521.809C506.704 521.446 506.776 521.128 506.921 520.855C507.071 520.578 507.278 520.364 507.542 520.215C507.811 520.066 508.118 519.991 508.464 519.991C508.797 519.991 509.093 520.063 509.353 520.208C509.614 520.354 509.816 520.558 509.962 520.823C510.107 521.083 510.179 521.384 510.179 521.725ZM509.417 521.495C509.413 521.226 509.317 521.011 509.129 520.849C508.942 520.686 508.709 520.605 508.432 520.605C508.18 520.605 507.965 520.686 507.785 520.849C507.606 521.006 507.499 521.222 507.465 521.495H509.417ZM511.627 520.56C511.734 520.381 511.874 520.243 512.049 520.144C512.229 520.042 512.44 519.991 512.683 519.991V520.746H512.497C512.212 520.746 511.994 520.819 511.845 520.964C511.699 521.109 511.627 521.361 511.627 521.719V523.575H510.897V520.048H511.627V520.56ZM514.634 523.633C514.357 523.633 514.107 523.584 513.885 523.486C513.667 523.383 513.495 523.247 513.367 523.076C513.239 522.901 513.17 522.707 513.162 522.493H513.917C513.93 522.643 514 522.769 514.128 522.871C514.26 522.969 514.425 523.018 514.621 523.018C514.826 523.018 514.984 522.98 515.095 522.903C515.21 522.822 515.268 522.72 515.268 522.596C515.268 522.464 515.204 522.365 515.076 522.301C514.952 522.237 514.753 522.167 514.48 522.09C514.216 522.018 514 521.947 513.834 521.879C513.667 521.811 513.522 521.706 513.399 521.565C513.279 521.425 513.219 521.239 513.219 521.009C513.219 520.821 513.275 520.65 513.386 520.496C513.497 520.339 513.655 520.215 513.859 520.125C514.068 520.036 514.307 519.991 514.576 519.991C514.977 519.991 515.3 520.093 515.543 520.298C515.79 520.499 515.923 520.774 515.94 521.124H515.21C515.197 520.966 515.133 520.84 515.018 520.746C514.903 520.652 514.747 520.605 514.551 520.605C514.359 520.605 514.211 520.642 514.109 520.714C514.007 520.787 513.955 520.883 513.955 521.002C513.955 521.096 513.99 521.175 514.058 521.239C514.126 521.303 514.209 521.354 514.307 521.393C514.406 521.427 514.551 521.472 514.743 521.527C514.999 521.595 515.208 521.666 515.37 521.738C515.536 521.806 515.679 521.909 515.799 522.045C515.918 522.182 515.98 522.363 515.984 522.589C515.984 522.79 515.929 522.969 515.818 523.127C515.707 523.285 515.549 523.409 515.344 523.498C515.144 523.588 514.907 523.633 514.634 523.633ZM518.303 523.633C517.97 523.633 517.669 523.558 517.4 523.409C517.131 523.255 516.92 523.042 516.766 522.769C516.613 522.491 516.536 522.171 516.536 521.809C516.536 521.45 516.615 521.132 516.773 520.855C516.931 520.578 517.146 520.364 517.419 520.215C517.692 520.066 517.997 519.991 518.335 519.991C518.672 519.991 518.977 520.066 519.25 520.215C519.523 520.364 519.738 520.578 519.896 520.855C520.054 521.132 520.133 521.45 520.133 521.809C520.133 522.167 520.052 522.485 519.89 522.762C519.728 523.04 519.506 523.255 519.224 523.409C518.947 523.558 518.64 523.633 518.303 523.633ZM518.303 522.999C518.49 522.999 518.665 522.954 518.827 522.865C518.994 522.775 519.128 522.641 519.231 522.461C519.333 522.282 519.384 522.065 519.384 521.809C519.384 521.553 519.335 521.337 519.237 521.162C519.139 520.983 519.009 520.849 518.847 520.759C518.684 520.669 518.51 520.624 518.322 520.624C518.134 520.624 517.959 520.669 517.797 520.759C517.639 520.849 517.513 520.983 517.419 521.162C517.325 521.337 517.278 521.553 517.278 521.809C517.278 522.188 517.374 522.483 517.567 522.692C517.763 522.897 518.008 522.999 518.303 522.999ZM522.634 519.991C522.911 519.991 523.159 520.048 523.376 520.164C523.598 520.279 523.771 520.45 523.895 520.676C524.019 520.902 524.08 521.175 524.08 521.495V523.575H523.357V521.604C523.357 521.288 523.278 521.047 523.12 520.881C522.962 520.71 522.747 520.624 522.474 520.624C522.201 520.624 521.983 520.71 521.821 520.881C521.663 521.047 521.584 521.288 521.584 521.604V523.575H520.854V520.048H521.584V520.452C521.704 520.307 521.855 520.194 522.039 520.112C522.226 520.031 522.425 519.991 522.634 519.991ZM527.719 520.951V521.565H525.088V520.951H527.719ZM528.646 520.061C528.672 519.664 528.824 519.355 529.101 519.133C529.383 518.911 529.741 518.8 530.176 518.8C530.475 518.8 530.733 518.854 530.951 518.96C531.168 519.067 531.333 519.212 531.444 519.396C531.555 519.579 531.61 519.786 531.61 520.016C531.61 520.281 531.54 520.507 531.399 520.695C531.258 520.883 531.089 521.009 530.893 521.073V521.098C531.145 521.175 531.341 521.316 531.482 521.521C531.623 521.721 531.693 521.979 531.693 522.295C531.693 522.547 531.636 522.771 531.52 522.967C531.405 523.163 531.234 523.319 531.008 523.434C530.782 523.545 530.511 523.601 530.195 523.601C529.735 523.601 529.355 523.483 529.056 523.249C528.762 523.01 528.604 522.668 528.582 522.225H529.287C529.304 522.451 529.391 522.636 529.549 522.782C529.707 522.922 529.92 522.993 530.189 522.993C530.449 522.993 530.65 522.922 530.791 522.782C530.932 522.636 531.002 522.451 531.002 522.225C531.002 521.926 530.906 521.715 530.714 521.591C530.526 521.463 530.236 521.399 529.843 521.399H529.677V520.797H529.85C530.195 520.793 530.458 520.735 530.637 520.624C530.821 520.514 530.912 520.339 530.912 520.1C530.912 519.895 530.846 519.733 530.714 519.613C530.582 519.489 530.394 519.428 530.151 519.428C529.912 519.428 529.726 519.489 529.594 519.613C529.461 519.733 529.383 519.882 529.357 520.061H528.646Z" fill="white"/>
<path d="M269.148 181.236C269.266 181.109 269.468 181.109 269.587 181.236L272.68 184.562C272.859 184.754 272.723 185.066 272.461 185.066H266.274C266.012 185.066 265.876 184.754 266.054 184.562L269.148 181.236Z" fill="white"/>
<path d="M265.616 192.337V191.871H266.708V190.777H267.171V191.871H268.268V192.337H267.171V193.431H266.708V192.337H265.616ZM268.666 190.616V190.13H269.791V193.831H269.281V190.616H268.666ZM270.667 192.481V191.402C270.667 191.223 270.693 191.054 270.743 190.896C270.794 190.737 270.866 190.595 270.96 190.472C271.056 190.346 271.182 190.248 271.336 190.176C271.491 190.103 271.664 190.066 271.856 190.066C272.102 190.066 272.316 190.126 272.499 190.245C272.681 190.363 272.818 190.523 272.909 190.723C273 190.923 273.045 191.15 273.045 191.402V192.481C273.045 192.673 273.023 192.851 272.977 193.016C272.933 193.18 272.865 193.33 272.772 193.465C272.681 193.598 272.557 193.704 272.401 193.782C272.245 193.859 272.063 193.897 271.856 193.897C271.656 193.897 271.479 193.86 271.324 193.787C271.17 193.714 271.045 193.612 270.951 193.482C270.856 193.352 270.785 193.203 270.738 193.035C270.691 192.866 270.667 192.681 270.667 192.481ZM271.166 192.447C271.166 192.557 271.171 192.658 271.183 192.747C271.194 192.837 271.215 192.925 271.246 193.013C271.277 193.099 271.317 193.173 271.366 193.233C271.416 193.292 271.483 193.34 271.566 193.377C271.649 193.413 271.746 193.431 271.856 193.431C271.962 193.431 272.055 193.414 272.135 193.382C272.216 193.348 272.282 193.302 272.333 193.245C272.385 193.188 272.426 193.117 272.457 193.033C272.49 192.946 272.512 192.857 272.523 192.764C272.536 192.67 272.542 192.564 272.542 192.447V191.47C272.542 191.371 272.535 191.277 272.521 191.189C272.507 191.102 272.484 191.017 272.45 190.936C272.417 190.854 272.375 190.785 272.323 190.728C272.272 190.669 272.207 190.623 272.127 190.589C272.048 190.553 271.957 190.535 271.856 190.535C271.734 190.535 271.628 190.56 271.537 190.608C271.445 190.657 271.373 190.726 271.319 190.813C271.267 190.9 271.228 190.998 271.202 191.109C271.178 191.218 271.166 191.338 271.166 191.47V192.447Z" fill="white"/>
<path d="M269.587 202.426C269.469 202.554 269.267 202.554 269.148 202.426L266.054 199.1C265.876 198.908 266.012 198.596 266.274 198.596L272.461 198.596C272.723 198.596 272.859 198.908 272.681 199.1L269.587 202.426Z" fill="white"/>
<path d="M290.926 193L294.432 184.082H295.78L299.286 193H297.939L297.144 190.918H293.05L292.25 193H290.926ZM293.491 189.759H296.697L295.109 185.576L293.491 189.759ZM300.28 193V187.276H301.433V187.964C301.7 187.647 301.992 187.435 302.309 187.329C302.627 187.223 303.078 187.17 303.662 187.17V188.276C303.204 188.276 302.821 188.319 302.515 188.406C302.213 188.492 301.986 188.621 301.833 188.794C301.68 188.963 301.574 189.145 301.515 189.341C301.46 189.533 301.433 189.765 301.433 190.035V193H300.28ZM304.439 188.376V187.276H305.339V185.335H306.51V187.276H308.063V188.376H306.51V191.106C306.51 191.451 306.563 191.698 306.668 191.847C306.774 191.996 306.974 192.071 307.269 192.071C307.559 192.071 307.772 192.043 307.91 191.988V193.024C307.686 193.114 307.384 193.159 307.004 193.159C306.729 193.159 306.49 193.122 306.286 193.047C306.086 192.976 305.925 192.884 305.804 192.771C305.686 192.657 305.59 192.514 305.515 192.341C305.445 192.169 305.398 191.996 305.374 191.823C305.351 191.651 305.339 191.457 305.339 191.241V188.376H304.439ZM309.463 185.935C309.322 185.79 309.251 185.611 309.251 185.4C309.251 185.188 309.322 185.011 309.463 184.87C309.608 184.725 309.786 184.652 309.998 184.652C310.21 184.652 310.384 184.725 310.522 184.87C310.663 185.011 310.733 185.188 310.733 185.4C310.733 185.611 310.663 185.79 310.522 185.935C310.384 186.076 310.21 186.147 309.998 186.147C309.786 186.147 309.608 186.076 309.463 185.935ZM309.41 193V187.276H310.575V193H309.41ZM312.422 191.671C312.155 191.212 312.022 190.712 312.022 190.17C312.022 189.629 312.153 189.129 312.416 188.67C312.683 188.211 313.045 187.847 313.504 187.576C313.967 187.306 314.473 187.17 315.022 187.17C315.547 187.17 316.036 187.298 316.487 187.553C316.942 187.808 317.304 188.149 317.575 188.576L316.598 189.135C316.434 188.872 316.21 188.662 315.928 188.506C315.649 188.345 315.347 188.264 315.022 188.264C314.504 188.264 314.065 188.455 313.704 188.835C313.343 189.215 313.163 189.665 313.163 190.182C313.163 190.7 313.345 191.145 313.71 191.518C314.075 191.886 314.52 192.071 315.045 192.071C315.383 192.071 315.691 191.99 315.969 191.829C316.247 191.669 316.469 191.449 316.634 191.17L317.599 191.735C317.328 192.171 316.963 192.518 316.504 192.776C316.049 193.031 315.555 193.159 315.022 193.159C314.481 193.159 313.979 193.025 313.516 192.759C313.057 192.492 312.692 192.129 312.422 191.671ZM318.869 191.541V184.082H320.022V191.182C320.022 191.5 320.071 191.727 320.169 191.865C320.271 192.002 320.46 192.071 320.734 192.071C320.856 192.071 320.952 192.067 321.022 192.059V193.071C320.779 193.129 320.567 193.159 320.387 193.159C319.912 193.159 319.54 193.02 319.269 192.741C319.003 192.459 318.869 192.059 318.869 191.541ZM321.634 190.17C321.634 189.637 321.758 189.143 322.005 188.688C322.252 188.229 322.601 187.862 323.052 187.588C323.503 187.309 324.007 187.17 324.564 187.17C324.979 187.17 325.37 187.253 325.734 187.417C326.099 187.578 326.409 187.794 326.664 188.064C326.919 188.335 327.119 188.653 327.264 189.017C327.413 189.382 327.487 189.763 327.487 190.159C327.487 190.265 327.48 190.396 327.464 190.553H322.775C322.858 191.004 323.067 191.376 323.405 191.671C323.746 191.961 324.156 192.106 324.634 192.106C324.952 192.106 325.254 192.037 325.54 191.9C325.826 191.763 326.058 191.571 326.234 191.323L327.058 191.953C326.791 192.329 326.444 192.625 326.017 192.841C325.589 193.053 325.128 193.159 324.634 193.159C323.799 193.159 323.089 192.871 322.505 192.294C321.924 191.718 321.634 191.01 321.634 190.17ZM322.817 189.641H326.311C326.24 189.237 326.044 188.902 325.723 188.635C325.405 188.364 325.023 188.229 324.575 188.229C324.14 188.229 323.764 188.361 323.446 188.623C323.132 188.886 322.922 189.225 322.817 189.641ZM331.064 185.252V184.082H337.982V185.252H335.147V193H333.905V185.252H331.064ZM339.241 185.935C339.1 185.79 339.029 185.611 339.029 185.4C339.029 185.188 339.1 185.011 339.241 184.87C339.386 184.725 339.565 184.652 339.776 184.652C339.988 184.652 340.163 184.725 340.3 184.87C340.441 185.011 340.512 185.188 340.512 185.4C340.512 185.611 340.441 185.79 340.3 185.935C340.163 186.076 339.988 186.147 339.776 186.147C339.565 186.147 339.386 186.076 339.241 185.935ZM339.188 193V187.276H340.353V193H339.188ZM341.524 188.376V187.276H342.424V185.335H343.594V187.276H345.147V188.376H343.594V191.106C343.594 191.451 343.647 191.698 343.753 191.847C343.859 191.996 344.059 192.071 344.353 192.071C344.643 192.071 344.857 192.043 344.994 191.988V193.024C344.771 193.114 344.469 193.159 344.088 193.159C343.814 193.159 343.575 193.122 343.371 193.047C343.171 192.976 343.01 192.884 342.888 192.771C342.771 192.657 342.675 192.514 342.6 192.341C342.529 192.169 342.482 191.996 342.459 191.823C342.435 191.651 342.424 191.457 342.424 191.241V188.376H341.524ZM346.494 191.541V184.082H347.647V191.182C347.647 191.5 347.696 191.727 347.794 191.865C347.896 192.002 348.085 192.071 348.359 192.071C348.481 192.071 348.577 192.067 348.647 192.059V193.071C348.404 193.129 348.193 193.159 348.012 193.159C347.538 193.159 347.165 193.02 346.894 192.741C346.628 192.459 346.494 192.059 346.494 191.541ZM349.259 190.17C349.259 189.637 349.383 189.143 349.63 188.688C349.877 188.229 350.226 187.862 350.677 187.588C351.128 187.309 351.632 187.17 352.189 187.17C352.605 187.17 352.995 187.253 353.36 187.417C353.724 187.578 354.034 187.794 354.289 188.064C354.544 188.335 354.744 188.653 354.889 189.017C355.038 189.382 355.113 189.763 355.113 190.159C355.113 190.265 355.105 190.396 355.089 190.553H350.401C350.483 191.004 350.693 191.376 351.03 191.671C351.371 191.961 351.781 192.106 352.259 192.106C352.577 192.106 352.879 192.037 353.165 191.9C353.452 191.763 353.683 191.571 353.86 191.323L354.683 191.953C354.416 192.329 354.069 192.625 353.642 192.841C353.214 193.053 352.754 193.159 352.259 193.159C351.424 193.159 350.714 192.871 350.13 192.294C349.549 191.718 349.259 191.01 349.259 190.17ZM350.442 189.641H353.936C353.865 189.237 353.669 188.902 353.348 188.635C353.03 188.364 352.648 188.229 352.201 188.229C351.765 188.229 351.389 188.361 351.071 188.623C350.757 188.886 350.548 189.225 350.442 189.641ZM359.836 193V184.082H361.066V191.841H365.26V193H359.836ZM366.549 185.935C366.407 185.79 366.337 185.611 366.337 185.4C366.337 185.188 366.407 185.011 366.549 184.87C366.694 184.725 366.872 184.652 367.084 184.652C367.296 184.652 367.47 184.725 367.607 184.87C367.749 185.011 367.819 185.188 367.819 185.4C367.819 185.611 367.749 185.79 367.607 185.935C367.47 186.076 367.296 186.147 367.084 186.147C366.872 186.147 366.694 186.076 366.549 185.935ZM366.496 193V187.276H367.66V193H366.496ZM369.59 193V187.276H370.743V187.894C370.955 187.659 371.19 187.48 371.449 187.358C371.708 187.233 372.027 187.17 372.408 187.17C373.121 187.17 373.692 187.386 374.12 187.817C374.551 188.249 374.767 188.896 374.767 189.759V193H373.602V190C373.602 188.843 373.135 188.264 372.202 188.264C371.229 188.264 370.743 188.87 370.743 190.082V193H369.59ZM376.096 190.17C376.096 189.637 376.22 189.143 376.467 188.688C376.714 188.229 377.063 187.862 377.514 187.588C377.965 187.309 378.469 187.17 379.026 187.17C379.441 187.17 379.832 187.253 380.196 187.417C380.561 187.578 380.871 187.794 381.126 188.064C381.381 188.335 381.581 188.653 381.726 189.017C381.875 189.382 381.949 189.763 381.949 190.159C381.949 190.265 381.942 190.396 381.926 190.553H377.237C377.32 191.004 377.53 191.376 377.867 191.671C378.208 191.961 378.618 192.106 379.096 192.106C379.414 192.106 379.716 192.037 380.002 191.9C380.289 191.763 380.52 191.571 380.696 191.323L381.52 191.953C381.253 192.329 380.906 192.625 380.479 192.841C380.051 193.053 379.59 193.159 379.096 193.159C378.261 193.159 377.551 192.871 376.967 192.294C376.386 191.718 376.096 191.01 376.096 190.17ZM377.279 189.641H380.773C380.702 189.237 380.506 188.902 380.185 188.635C379.867 188.364 379.485 188.229 379.038 188.229C378.602 188.229 378.226 188.361 377.908 188.623C377.594 188.886 377.384 189.225 377.279 189.641Z" fill="white"/>
<path d="M291.144 206.653L291.915 205.794C292.056 205.97 292.191 206.123 292.321 206.253C292.454 206.382 292.609 206.512 292.785 206.641C292.962 206.767 293.156 206.865 293.368 206.935C293.579 207.002 293.801 207.035 294.032 207.035C294.527 207.035 294.927 206.89 295.233 206.6C295.542 206.31 295.697 205.961 295.697 205.553C295.697 205.365 295.658 205.194 295.58 205.041C295.505 204.884 295.401 204.755 295.268 204.653C295.138 204.547 294.985 204.445 294.809 204.347C294.636 204.249 294.45 204.164 294.25 204.094C294.054 204.019 293.852 203.937 293.644 203.847C293.436 203.753 293.232 203.661 293.032 203.57C292.836 203.48 292.65 203.366 292.474 203.229C292.301 203.092 292.148 202.945 292.015 202.788C291.885 202.627 291.781 202.431 291.703 202.2C291.628 201.964 291.591 201.706 291.591 201.423C291.591 200.686 291.838 200.086 292.332 199.623C292.826 199.16 293.503 198.929 294.362 198.929C295.217 198.929 295.987 199.209 296.674 199.77L295.985 200.711C295.491 200.276 294.934 200.058 294.315 200.058C293.844 200.058 293.477 200.172 293.215 200.4C292.952 200.623 292.821 200.919 292.821 201.288C292.821 201.504 292.868 201.696 292.962 201.864C293.056 202.033 293.181 202.174 293.338 202.288C293.499 202.398 293.681 202.502 293.885 202.6C294.089 202.694 294.305 202.784 294.532 202.87C294.76 202.957 294.987 203.049 295.215 203.147C295.442 203.241 295.658 203.357 295.862 203.494C296.066 203.631 296.246 203.786 296.403 203.959C296.564 204.127 296.691 204.341 296.786 204.6C296.88 204.859 296.927 205.149 296.927 205.47C296.927 206.27 296.662 206.92 296.133 207.418C295.607 207.912 294.921 208.159 294.074 208.159C293.485 208.159 292.934 208.029 292.421 207.771C291.907 207.512 291.481 207.139 291.144 206.653ZM297.868 205.17C297.868 204.637 297.991 204.143 298.239 203.688C298.486 203.229 298.835 202.862 299.286 202.588C299.737 202.309 300.241 202.17 300.798 202.17C301.213 202.17 301.603 202.253 301.968 202.417C302.333 202.578 302.643 202.794 302.898 203.064C303.153 203.335 303.353 203.653 303.498 204.017C303.647 204.382 303.721 204.763 303.721 205.159C303.721 205.265 303.713 205.396 303.698 205.553H299.009C299.092 206.004 299.301 206.376 299.639 206.671C299.98 206.961 300.39 207.106 300.868 207.106C301.186 207.106 301.488 207.037 301.774 206.9C302.06 206.763 302.292 206.571 302.468 206.323L303.292 206.953C303.025 207.329 302.678 207.625 302.251 207.841C301.823 208.053 301.362 208.159 300.868 208.159C300.033 208.159 299.323 207.871 298.739 207.294C298.158 206.718 297.868 206.01 297.868 205.17ZM299.05 204.641H302.545C302.474 204.237 302.278 203.902 301.956 203.635C301.639 203.364 301.256 203.229 300.809 203.229C300.374 203.229 299.997 203.361 299.68 203.623C299.366 203.886 299.156 204.225 299.05 204.641ZM305.057 206.671C304.79 206.212 304.657 205.712 304.657 205.17C304.657 204.629 304.788 204.129 305.051 203.67C305.317 203.211 305.68 202.847 306.139 202.576C306.602 202.306 307.108 202.17 307.657 202.17C308.182 202.17 308.671 202.298 309.122 202.553C309.576 202.808 309.939 203.149 310.21 203.576L309.233 204.135C309.069 203.872 308.845 203.662 308.563 203.506C308.284 203.345 307.982 203.264 307.657 203.264C307.139 203.264 306.7 203.455 306.339 203.835C305.978 204.215 305.798 204.665 305.798 205.182C305.798 205.7 305.98 206.145 306.345 206.518C306.71 206.886 307.155 207.071 307.68 207.071C308.018 207.071 308.325 206.99 308.604 206.829C308.882 206.669 309.104 206.449 309.269 206.17L310.233 206.735C309.963 207.171 309.598 207.518 309.139 207.776C308.684 208.031 308.19 208.159 307.657 208.159C307.116 208.159 306.614 208.025 306.151 207.759C305.692 207.492 305.327 207.129 305.057 206.671ZM311.422 206.671C311.155 206.212 311.022 205.712 311.022 205.17C311.022 204.629 311.153 204.129 311.416 203.67C311.683 203.211 312.045 202.847 312.504 202.576C312.967 202.306 313.473 202.17 314.022 202.17C314.567 202.17 315.071 202.306 315.534 202.576C316 202.843 316.369 203.208 316.64 203.67C316.91 204.129 317.046 204.629 317.046 205.17C317.046 205.708 316.91 206.206 316.64 206.665C316.369 207.123 316 207.488 315.534 207.759C315.071 208.025 314.567 208.159 314.022 208.159C313.481 208.159 312.979 208.025 312.516 207.759C312.057 207.492 311.692 207.129 311.422 206.671ZM312.163 205.182C312.163 205.696 312.343 206.139 312.704 206.512C313.069 206.884 313.512 207.071 314.034 207.071C314.555 207.071 314.996 206.882 315.357 206.506C315.718 206.125 315.898 205.676 315.898 205.159C315.898 204.641 315.716 204.196 315.351 203.823C314.991 203.451 314.551 203.264 314.034 203.264C313.508 203.264 313.065 203.455 312.704 203.835C312.343 204.215 312.163 204.665 312.163 205.182ZM318.493 208V202.276H319.646V202.894C319.858 202.659 320.093 202.48 320.352 202.358C320.61 202.233 320.93 202.17 321.311 202.17C322.024 202.17 322.595 202.386 323.022 202.817C323.454 203.249 323.669 203.896 323.669 204.759V208H322.505V205C322.505 203.843 322.038 203.264 321.105 203.264C320.132 203.264 319.646 203.87 319.646 205.082V208H318.493ZM324.999 205.17C324.999 204.755 325.077 204.361 325.234 203.988C325.395 203.615 325.611 203.298 325.881 203.035C326.152 202.768 326.474 202.558 326.846 202.406C327.219 202.249 327.611 202.17 328.023 202.17C328.811 202.17 329.45 202.451 329.94 203.011V199.082H331.093V208H329.94V207.323C329.466 207.88 328.827 208.159 328.023 208.159C327.603 208.159 327.207 208.082 326.834 207.929C326.462 207.773 326.14 207.563 325.87 207.3C325.603 207.033 325.391 206.716 325.234 206.347C325.077 205.974 324.999 205.582 324.999 205.17ZM326.14 205.17C326.14 205.708 326.321 206.159 326.681 206.523C327.042 206.888 327.489 207.071 328.023 207.071C328.564 207.071 329.015 206.886 329.376 206.518C329.737 206.145 329.917 205.696 329.917 205.17C329.917 204.645 329.735 204.196 329.37 203.823C329.005 203.451 328.556 203.264 328.023 203.264C327.489 203.264 327.042 203.449 326.681 203.817C326.321 204.186 326.14 204.637 326.14 205.17ZM336.27 206.541V199.082H337.423V206.182C337.423 206.5 337.472 206.727 337.57 206.865C337.672 207.002 337.861 207.071 338.135 207.071C338.257 207.071 338.353 207.067 338.423 207.059V208.071C338.18 208.129 337.968 208.159 337.788 208.159C337.313 208.159 336.941 208.02 336.67 207.741C336.404 207.459 336.27 207.059 336.27 206.541ZM339.57 200.935C339.429 200.79 339.359 200.611 339.359 200.4C339.359 200.188 339.429 200.011 339.57 199.87C339.716 199.725 339.894 199.652 340.106 199.652C340.318 199.652 340.492 199.725 340.629 199.87C340.771 200.011 340.841 200.188 340.841 200.4C340.841 200.611 340.771 200.79 340.629 200.935C340.492 201.076 340.318 201.147 340.106 201.147C339.894 201.147 339.716 201.076 339.57 200.935ZM339.518 208V202.276H340.682V208H339.518ZM342.612 208V202.276H343.765V202.894C343.977 202.659 344.212 202.48 344.471 202.358C344.73 202.233 345.049 202.17 345.43 202.17C346.143 202.17 346.714 202.386 347.141 202.817C347.573 203.249 347.789 203.896 347.789 204.759V208H346.624V205C346.624 203.843 346.157 203.264 345.224 203.264C344.251 203.264 343.765 203.87 343.765 205.082V208H342.612ZM349.118 205.17C349.118 204.637 349.242 204.143 349.489 203.688C349.736 203.229 350.085 202.862 350.536 202.588C350.987 202.309 351.491 202.17 352.048 202.17C352.463 202.17 352.854 202.253 353.218 202.417C353.583 202.578 353.893 202.794 354.148 203.064C354.403 203.335 354.603 203.653 354.748 204.017C354.897 204.382 354.971 204.763 354.971 205.159C354.971 205.265 354.964 205.396 354.948 205.553H350.259C350.342 206.004 350.551 206.376 350.889 206.671C351.23 206.961 351.64 207.106 352.118 207.106C352.436 207.106 352.738 207.037 353.024 206.9C353.31 206.763 353.542 206.571 353.718 206.323L354.542 206.953C354.275 207.329 353.928 207.625 353.501 207.841C353.073 208.053 352.612 208.159 352.118 208.159C351.283 208.159 350.573 207.871 349.989 207.294C349.408 206.718 349.118 206.01 349.118 205.17ZM350.301 204.641H353.795C353.724 204.237 353.528 203.902 353.207 203.635C352.889 203.364 352.507 203.229 352.059 203.229C351.624 203.229 351.248 203.361 350.93 203.623C350.616 203.886 350.406 204.225 350.301 204.641Z" fill="white"/>
<rect x="291.153" y="223.298" width="57.3293" height="11.5478" rx="5.77389" fill="white" fill-opacity="0.5" stroke="white" stroke-width="0.5"/>
<rect x="352.982" y="223.298" width="57.3293" height="11.5478" rx="5.77389" fill="white" fill-opacity="0.2" stroke="white" stroke-width="0.5"/>
<rect x="291.153" y="247.393" width="11.5478" height="11.5478" rx="5.77389" fill="white" fill-opacity="0.2" stroke="white" stroke-width="0.5"/>
<path d="M305.975 255.667V250.316H307.457C308.024 250.316 308.461 250.439 308.766 250.683C309.075 250.926 309.229 251.272 309.229 251.721C309.229 252.284 308.974 252.659 308.463 252.847C308.783 252.925 309.025 253.082 309.19 253.32C309.355 253.555 309.437 253.839 309.437 254.171C309.437 254.375 309.404 254.561 309.338 254.728C309.275 254.895 309.184 255.037 309.066 255.152C308.951 255.267 308.812 255.364 308.65 255.441C308.49 255.519 308.315 255.577 308.124 255.614C307.936 255.65 307.732 255.667 307.513 255.667H305.975ZM306.712 254.972H307.492C307.864 254.972 308.158 254.904 308.375 254.767C308.591 254.631 308.699 254.411 308.699 254.107C308.699 253.811 308.593 253.588 308.382 253.44C308.17 253.292 307.869 253.218 307.478 253.218H306.712V254.972ZM306.712 252.522H307.559C308.181 252.522 308.491 252.274 308.491 251.778C308.491 251.521 308.405 251.329 308.233 251.202C308.062 251.075 307.812 251.012 307.485 251.012H306.712V252.522ZM309.723 252.233H310.485L311.467 254.813L312.391 252.233H313.087L311.184 257.496H310.499L311.128 255.731L309.723 252.233ZM314.904 255.667L317.008 250.316H317.816L319.92 255.667H319.112L318.635 254.418H316.179L315.699 255.667H314.904ZM316.443 253.722H318.367L317.414 251.213L316.443 253.722ZM320.414 254.273V252.233H321.117V254.075C321.117 254.247 321.128 254.393 321.152 254.513C321.175 254.631 321.218 254.737 321.279 254.831C321.34 254.925 321.428 254.995 321.544 255.042C321.659 255.087 321.804 255.11 321.978 255.11C322.152 255.11 322.297 255.087 322.412 255.042C322.53 254.995 322.619 254.925 322.68 254.831C322.744 254.737 322.787 254.631 322.811 254.513C322.834 254.393 322.846 254.247 322.846 254.075V252.233H323.538V254.273C323.538 255.266 323.018 255.763 321.978 255.763C320.935 255.763 320.414 255.266 320.414 254.273ZM324.184 252.893V252.233H324.724V251.068H325.426V252.233H326.358V252.893H325.426V254.531C325.426 254.738 325.458 254.886 325.522 254.975C325.585 255.065 325.705 255.11 325.882 255.11C326.056 255.11 326.184 255.093 326.266 255.06V255.681C326.132 255.735 325.951 255.763 325.723 255.763C325.558 255.763 325.414 255.74 325.292 255.695C325.172 255.653 325.076 255.598 325.003 255.53C324.932 255.461 324.874 255.375 324.83 255.272C324.787 255.168 324.759 255.065 324.745 254.961C324.731 254.858 324.724 254.741 324.724 254.612V252.893H324.184ZM327.166 255.667V250.316H327.858V252.604C327.985 252.462 328.126 252.355 328.282 252.282C328.437 252.207 328.629 252.169 328.857 252.169C329.285 252.169 329.628 252.299 329.884 252.558C330.143 252.816 330.272 253.205 330.272 253.722V255.667H329.574V253.867C329.574 253.173 329.294 252.826 328.734 252.826C328.15 252.826 327.858 253.189 327.858 253.917V255.667H327.166ZM331.31 254.87C331.15 254.594 331.07 254.294 331.07 253.969C331.07 253.645 331.149 253.345 331.307 253.069C331.467 252.794 331.684 252.575 331.96 252.413C332.237 252.251 332.541 252.169 332.87 252.169C333.197 252.169 333.5 252.251 333.777 252.413C334.057 252.573 334.279 252.792 334.441 253.069C334.603 253.345 334.684 253.645 334.684 253.969C334.684 254.292 334.603 254.591 334.441 254.866C334.279 255.141 334.057 255.36 333.777 255.523C333.5 255.683 333.197 255.763 332.87 255.763C332.546 255.763 332.244 255.683 331.967 255.523C331.691 255.363 331.472 255.145 331.31 254.87ZM331.755 253.977C331.755 254.285 331.863 254.551 332.08 254.774C332.298 254.998 332.564 255.11 332.877 255.11C333.19 255.11 333.455 254.997 333.671 254.771C333.888 254.542 333.996 254.273 333.996 253.962C333.996 253.652 333.887 253.385 333.668 253.161C333.451 252.938 333.188 252.826 332.877 252.826C332.562 252.826 332.296 252.94 332.08 253.168C331.863 253.397 331.755 253.666 331.755 253.977ZM335.553 255.667V252.233H336.245V252.646C336.405 252.455 336.58 252.328 336.77 252.265C336.961 252.201 337.232 252.169 337.582 252.169V252.833C337.307 252.833 337.078 252.859 336.894 252.911C336.713 252.962 336.576 253.04 336.485 253.144C336.393 253.245 336.329 253.354 336.294 253.472C336.261 253.587 336.245 253.726 336.245 253.888V255.667H335.553Z" fill="white"/>
</svg>
