<svg width="917" height="530" viewBox="0 0 917 530" fill="none" xmlns="http://www.w3.org/2000/svg">
<rect x="35" y="476" width="82.1628" height="11" rx="4" fill="white" fill-opacity="0.3"/>
<rect x="35" y="489" width="31.9736" height="11" rx="4" fill="white" fill-opacity="0.15"/>
<rect x="183.167" y="476" width="82.1628" height="11" rx="4" fill="white" fill-opacity="0.3"/>
<rect x="183.167" y="489" width="31.9736" height="11" rx="4" fill="white" fill-opacity="0.15"/>
<rect x="331.333" y="476" width="82.1628" height="11" rx="4" fill="white" fill-opacity="0.3"/>
<rect x="331.333" y="489" width="31.9736" height="11" rx="4" fill="white" fill-opacity="0.15"/>
<rect x="479.5" y="476" width="82.1628" height="11" rx="4" fill="white" fill-opacity="0.3"/>
<rect x="479.5" y="489" width="31.9736" height="11" rx="4" fill="white" fill-opacity="0.15"/>
<rect x="627.667" y="476" width="82.1628" height="11" rx="4" fill="white" fill-opacity="0.3"/>
<rect x="627.667" y="489" width="31.9736" height="11" rx="4" fill="white" fill-opacity="0.15"/>
<rect x="775.833" y="476" width="82.1628" height="11" rx="4" fill="white" fill-opacity="0.3"/>
<rect x="775.833" y="489" width="31.9736" height="11" rx="4" fill="white" fill-opacity="0.15"/>
<rect x="35" y="105.25" width="96" height="22" rx="11" fill="white" fill-opacity="0.3"/>
<g clip-path="url(#clip0_28_286)">
<rect x="78.2612" y="179.5" width="84.3811" height="14.5" rx="7.25" fill="white" fill-opacity="0.3"/>
<rect x="38.2612" y="202" width="158.716" height="4" rx="2" fill="white" fill-opacity="0.3"/>
<rect x="38.2612" y="212" width="147.533" height="4" rx="2" fill="white" fill-opacity="0.3"/>
<rect x="38.2612" y="222" width="92.3811" height="4" rx="2" fill="white" fill-opacity="0.15"/>
<path d="M19.2612 242H224.261" stroke="white" stroke-opacity="0.2"/>
<rect x="78.2612" y="278.5" width="84.3811" height="14.5" rx="7.25" fill="white" fill-opacity="0.3"/>
<rect x="38.2612" y="301" width="158.716" height="4" rx="2" fill="white" fill-opacity="0.3"/>
<rect x="38.2612" y="311" width="147.533" height="4" rx="2" fill="white" fill-opacity="0.3"/>
<rect x="38.2612" y="321" width="92.3811" height="4" rx="2" fill="white" fill-opacity="0.15"/>
<path d="M19.2612 341H224.261" stroke="white" stroke-opacity="0.2"/>
<rect x="78.2612" y="377.5" width="84.3811" height="14.5" rx="7.25" fill="white" fill-opacity="0.3"/>
<rect x="38.2612" y="400" width="158.716" height="4" rx="2" fill="white" fill-opacity="0.3"/>
<rect x="38.2612" y="410" width="147.533" height="4" rx="2" fill="white" fill-opacity="0.3"/>
<rect x="38.2612" y="420" width="92.3811" height="4" rx="2" fill="white" fill-opacity="0.15"/>
</g>
<defs>
<clipPath id="clip0_28_286">
<rect width="213" height="291" fill="white" transform="translate(19 143.25)"/>
</clipPath>
</defs>
</svg>
