<svg width="916" height="530" viewBox="0 0 916 530" fill="none" xmlns="http://www.w3.org/2000/svg">
<rect x="366.531" y="400.03" width="64.0065" height="12.8013" rx="6.40065" fill="white"/>
<rect x="485.592" y="400.03" width="64.0065" height="12.8013" rx="6.40065" fill="white" fill-opacity="0.1"/>
<rect x="425.32" y="444.361" width="64.0065" height="12.8013" rx="6.40065" fill="white" fill-opacity="0.1"/>
<rect x="425.32" y="466.764" width="64.0065" height="12.8013" rx="6.40065" fill="white" fill-opacity="0.1"/>
<rect x="485.592" y="514.175" width="64.0065" height="12.8013" rx="6.40065" fill="white" fill-opacity="0.1"/>
<circle cx="372.931" cy="406.43" r="6.13395" stroke="white" stroke-opacity="0.3" stroke-width="0.533387"/>
<circle cx="491.992" cy="406.43" r="6.13395" stroke="white" stroke-opacity="0.3" stroke-width="0.533387"/>
<circle cx="431.721" cy="450.762" r="6.13395" stroke="white" stroke-opacity="0.3" stroke-width="0.533387"/>
<circle cx="431.721" cy="473.164" r="6.13395" stroke="white" stroke-opacity="0.3" stroke-width="0.533387"/>
<circle cx="491.992" cy="520.575" r="6.13395" stroke="white" stroke-opacity="0.3" stroke-width="0.533387"/>
<rect x="291.153" y="270.489" width="301.451" height="6.12628" rx="3.06314" fill="white" fill-opacity="0.3" stroke="white" stroke-width="0.5"/>
<rect x="291.153" y="284.344" width="320.507" height="6.12628" rx="3.06314" fill="white" fill-opacity="0.3" stroke="white" stroke-width="0.5"/>
<rect x="291.153" y="298.199" width="277.999" height="6.12628" rx="3.06314" fill="white" fill-opacity="0.3" stroke="white" stroke-width="0.5"/>
<rect x="291.153" y="312.054" width="331.5" height="6.12628" rx="3.06314" fill="white" fill-opacity="0.3" stroke="white" stroke-width="0.5"/>
<rect x="291.153" y="325.909" width="301.451" height="6.12628" rx="3.06314" fill="white" fill-opacity="0.3" stroke="white" stroke-width="0.5"/>
<rect x="291.153" y="339.764" width="316.109" height="6.12628" rx="3.06314" fill="white" fill-opacity="0.3" stroke="white" stroke-width="0.5"/>
</svg>
