<svg width="917" height="530" viewBox="0 0 917 530" fill="none" xmlns="http://www.w3.org/2000/svg">
<g clip-path="url(#clip0_28_409)">
<rect opacity="0.2" x="0.756592" y="40" width="916.243" height="490" rx="32" fill="white"/>
<path d="M47.7695 24V15.1172H50.2305C51.1719 15.1172 51.8965 15.3203 52.4043 15.7266C52.916 16.1289 53.1719 16.7031 53.1719 17.4492C53.1719 18.3828 52.748 19.0059 51.9004 19.3184C52.4316 19.4473 52.834 19.709 53.1074 20.1035C53.3809 20.4941 53.5176 20.9648 53.5176 21.5156C53.5176 21.8555 53.4629 22.1641 53.3535 22.4414C53.248 22.7188 53.0977 22.9531 52.9023 23.1445C52.7109 23.3359 52.4805 23.4961 52.2109 23.625C51.9453 23.7539 51.6543 23.8496 51.3379 23.9121C51.0254 23.9707 50.6875 24 50.3242 24H47.7695ZM48.9941 22.8457H50.2891C50.9062 22.8457 51.3945 22.7324 51.7539 22.5059C52.1133 22.2793 52.293 21.9141 52.293 21.4102C52.293 20.918 52.1172 20.5488 51.7656 20.3027C51.4141 20.0566 50.9141 19.9336 50.2656 19.9336H48.9941V22.8457ZM48.9941 18.7793H50.4004C51.4316 18.7793 51.9473 18.3672 51.9473 17.543C51.9473 17.1172 51.8047 16.7988 51.5195 16.5879C51.2344 16.377 50.8203 16.2715 50.2773 16.2715H48.9941V18.7793ZM54.8945 24V18.2988H56.043V18.9844C56.3086 18.668 56.5996 18.457 56.916 18.3516C57.2324 18.2461 57.6816 18.1934 58.2637 18.1934V19.2949C57.8066 19.2949 57.4258 19.3379 57.1211 19.4238C56.8203 19.5098 56.5938 19.6387 56.4414 19.8105C56.2891 19.9785 56.1836 20.1602 56.125 20.3555C56.0703 20.5469 56.043 20.7773 56.043 21.0469V24H54.8945ZM59.1016 22.6758C58.8359 22.2188 58.7031 21.7207 58.7031 21.1816C58.7031 20.6426 58.834 20.1445 59.0957 19.6875C59.3613 19.2305 59.7227 18.8672 60.1797 18.5977C60.6406 18.3281 61.1445 18.1934 61.6914 18.1934C62.2344 18.1934 62.7363 18.3281 63.1973 18.5977C63.6621 18.8633 64.0293 19.2266 64.2988 19.6875C64.5684 20.1445 64.7031 20.6426 64.7031 21.1816C64.7031 21.7168 64.5684 22.2129 64.2988 22.6699C64.0293 23.127 63.6621 23.4902 63.1973 23.7598C62.7363 24.0254 62.2344 24.1582 61.6914 24.1582C61.1523 24.1582 60.6523 24.0254 60.1914 23.7598C59.7344 23.4941 59.3711 23.1328 59.1016 22.6758ZM59.8398 21.1934C59.8398 21.7051 60.0195 22.1465 60.3789 22.5176C60.7422 22.8887 61.1836 23.0742 61.7031 23.0742C62.2227 23.0742 62.6621 22.8867 63.0215 22.5117C63.3809 22.1328 63.5605 21.6855 63.5605 21.1699C63.5605 20.6543 63.3789 20.2109 63.0156 19.8398C62.6562 19.4688 62.2188 19.2832 61.7031 19.2832C61.1797 19.2832 60.7383 19.4727 60.3789 19.8516C60.0195 20.2305 59.8398 20.6777 59.8398 21.1934ZM65.2422 18.2988H66.5195L67.9902 22.5L69.4902 18.2988H70.5625L72.0625 22.5L73.5391 18.2988H74.8223L72.6719 24H71.4707L70.0352 19.8984L68.6055 24H67.3809L65.2422 18.2988ZM75.4023 23.4141L76.0234 22.5234C76.5 22.9141 77.0312 23.1094 77.6172 23.1094C77.918 23.1094 78.1504 23.0508 78.3145 22.9336C78.4824 22.8164 78.5664 22.6602 78.5664 22.4648C78.5664 22.3125 78.5117 22.1855 78.4023 22.084C78.293 21.9785 78.1504 21.8965 77.9746 21.8379C77.8027 21.7754 77.6113 21.7168 77.4004 21.6621C77.1895 21.6074 76.9785 21.541 76.7676 21.4629C76.5566 21.3809 76.3633 21.2852 76.1875 21.1758C76.0156 21.0625 75.875 20.9043 75.7656 20.7012C75.6562 20.498 75.6016 20.2578 75.6016 19.9805C75.6016 19.4531 75.7793 19.0234 76.1348 18.6914C76.4941 18.3594 76.9688 18.1934 77.5586 18.1934C78.3164 18.1934 78.9609 18.4082 79.4922 18.8379L78.8828 19.6934C78.4766 19.3965 78.0391 19.248 77.5703 19.248C77.3008 19.248 77.0957 19.3066 76.9551 19.4238C76.8145 19.5371 76.7441 19.6777 76.7441 19.8457C76.7441 19.9902 76.7988 20.1133 76.9082 20.2148C77.0176 20.3164 77.1582 20.4004 77.3301 20.4668C77.502 20.5293 77.6934 20.5918 77.9043 20.6543C78.1152 20.7129 78.3262 20.7852 78.5371 20.8711C78.748 20.957 78.9395 21.0605 79.1113 21.1816C79.2832 21.2988 79.4238 21.4609 79.5332 21.668C79.6426 21.875 79.6973 22.1172 79.6973 22.3945C79.6973 22.9375 79.5059 23.3672 79.123 23.6836C78.7402 24 78.2266 24.1582 77.582 24.1582C76.7812 24.1582 76.0547 23.9102 75.4023 23.4141ZM80.6758 21.1816C80.6758 20.6504 80.7988 20.1582 81.0449 19.7051C81.291 19.248 81.6387 18.8828 82.0879 18.6094C82.5371 18.332 83.0391 18.1934 83.5938 18.1934C84.0078 18.1934 84.3965 18.2754 84.7598 18.4395C85.123 18.5996 85.4316 18.8145 85.6855 19.084C85.9395 19.3535 86.1387 19.6699 86.2832 20.0332C86.4316 20.3965 86.5059 20.7754 86.5059 21.1699C86.5059 21.2754 86.498 21.4062 86.4824 21.5625H81.8125C81.8945 22.0117 82.1035 22.3828 82.4395 22.6758C82.7793 22.9648 83.1875 23.1094 83.6641 23.1094C83.9805 23.1094 84.2812 23.041 84.5664 22.9043C84.8516 22.7676 85.082 22.5762 85.2578 22.3301L86.0781 22.957C85.8125 23.332 85.4668 23.627 85.041 23.8418C84.6152 24.0527 84.1562 24.1582 83.6641 24.1582C82.832 24.1582 82.125 23.8711 81.543 23.2969C80.9648 22.7227 80.6758 22.0176 80.6758 21.1816ZM81.8535 20.6543H85.334C85.2637 20.252 85.0684 19.918 84.748 19.6523C84.4316 19.3828 84.0508 19.248 83.6055 19.248C83.1719 19.248 82.7969 19.3789 82.4805 19.6406C82.168 19.9023 81.959 20.2402 81.8535 20.6543ZM87.918 24V18.2988H89.0664V18.9844C89.332 18.668 89.623 18.457 89.9395 18.3516C90.2559 18.2461 90.7051 18.1934 91.2871 18.1934V19.2949C90.8301 19.2949 90.4492 19.3379 90.1445 19.4238C89.8438 19.5098 89.6172 19.6387 89.4648 19.8105C89.3125 19.9785 89.207 20.1602 89.1484 20.3555C89.0938 20.5469 89.0664 20.7773 89.0664 21.0469V24H87.918ZM92.9043 23.8594C92.7637 23.7148 92.6934 23.5371 92.6934 23.3262C92.6934 23.1152 92.7637 22.9414 92.9043 22.8047C93.0488 22.6641 93.2266 22.5938 93.4375 22.5938C93.6484 22.5938 93.8223 22.6641 93.959 22.8047C94.0996 22.9414 94.1699 23.1152 94.1699 23.3262C94.1699 23.5371 94.0996 23.7148 93.959 23.8594C93.8223 24 93.6484 24.0703 93.4375 24.0703C93.2266 24.0703 93.0488 24 92.9043 23.8594ZM92.9043 19.5762C92.7637 19.4316 92.6934 19.2539 92.6934 19.043C92.6934 18.832 92.7637 18.6562 92.9043 18.5156C93.0488 18.3711 93.2266 18.2988 93.4375 18.2988C93.6484 18.2988 93.8223 18.3711 93.959 18.5156C94.0996 18.6562 94.1699 18.832 94.1699 19.043C94.1699 19.2539 94.0996 19.4316 93.959 19.5762C93.8223 19.7168 93.6484 19.7871 93.4375 19.7871C93.2266 19.7871 93.0488 19.7168 92.9043 19.5762Z" fill="white"/>
</g>
<defs>
<clipPath id="clip0_28_409">
<rect x="0.73877" width="916" height="530" rx="32" fill="white"/>
</clipPath>
</defs>
</svg>
