<svg width="917" height="530" viewBox="0 0 917 530" fill="none" xmlns="http://www.w3.org/2000/svg">
<g clip-path="url(#clip0_28_329)">
<path d="M53 46V69.25" stroke="white" stroke-opacity="0.3"/>
<rect x="47.5" y="69.75" width="11" height="11" rx="5.5" stroke="white"/>
<path d="M53 81.25V104.5" stroke="white" stroke-opacity="0.3"/>
<rect x="47.5" y="105" width="11" height="11" rx="5.5" stroke="white"/>
<path d="M53 116.5V139.75" stroke="white" stroke-opacity="0.3"/>
<rect x="47.5" y="140.25" width="11" height="11" rx="5.5" stroke="white"/>
<path d="M53 151.75V175" stroke="white" stroke-opacity="0.3"/>
<rect x="47.5" y="175.5" width="11" height="11" rx="5.5" stroke="white"/>
<rect x="0.543213" y="40" width="916" height="489.75" rx="32" stroke="white" stroke-opacity="0.2"/>
<g clip-path="url(#clip1_28_329)">
<rect x="44.3584" y="318.5" width="32" height="32" rx="8" fill="white"/>
<path d="M92.3584 326.931L95.665 324.443L98.9571 327.167L102.429 324.434L105.565 327.407L109.358 324.948" stroke="white" stroke-linecap="round" stroke-linejoin="round"/>
<path d="M25.3584 401.5H230.358" stroke="white" stroke-opacity="0.2"/>
<rect x="44.3584" y="417.5" width="32" height="32" rx="8" fill="white"/>
<path d="M92.3584 425.931L95.665 423.443L98.9571 426.167L102.429 423.434L105.565 426.407L109.358 423.948" stroke="white" stroke-linecap="round" stroke-linejoin="round"/>
<path d="M25.3584 500.5H230.358" stroke="white" stroke-opacity="0.2"/>
<rect x="44.3584" y="516.5" width="32" height="32" rx="8" fill="white"/>
<path d="M92.3584 524.931L95.665 522.443L98.9571 525.167L102.429 522.434L105.565 525.407L109.358 522.948" stroke="white" stroke-linecap="round" stroke-linejoin="round"/>
</g>
<g clip-path="url(#clip2_28_329)">
<rect x="265.358" y="318.5" width="32" height="32" rx="8" fill="white"/>
<path d="M313.358 326.931L316.665 324.443L319.957 327.167L323.429 324.434L326.565 327.407L330.358 324.948" stroke="white" stroke-linecap="round" stroke-linejoin="round"/>
<path d="M246.358 401.5H451.358" stroke="white" stroke-opacity="0.2"/>
<rect x="265.358" y="417.5" width="32" height="32" rx="8" fill="white"/>
<path d="M313.358 425.931L316.665 423.443L319.957 426.167L323.429 423.434L326.565 426.407L330.358 423.948" stroke="white" stroke-linecap="round" stroke-linejoin="round"/>
<path d="M246.358 500.5H451.358" stroke="white" stroke-opacity="0.2"/>
<rect x="265.358" y="516.5" width="32" height="32" rx="8" fill="white"/>
<path d="M313.358 524.931L316.665 522.443L319.957 525.167L323.429 522.434L326.565 525.407L330.358 522.948" stroke="white" stroke-linecap="round" stroke-linejoin="round"/>
</g>
<g clip-path="url(#clip3_28_329)">
<rect x="486.293" y="318.5" width="32" height="32" rx="8" fill="white"/>
<path d="M534.293 326.931L537.6 324.443L540.892 327.167L544.364 324.434L547.5 327.407L551.293 324.948" stroke="white" stroke-linecap="round" stroke-linejoin="round"/>
<path d="M467.293 401.5H672.293" stroke="white" stroke-opacity="0.2"/>
<rect x="486.293" y="417.5" width="32" height="32" rx="8" fill="white"/>
<path d="M534.293 425.931L537.6 423.443L540.892 426.167L544.364 423.434L547.5 426.407L551.293 423.948" stroke="white" stroke-linecap="round" stroke-linejoin="round"/>
<path d="M467.293 500.5H672.293" stroke="white" stroke-opacity="0.2"/>
<rect x="486.293" y="516.5" width="32" height="32" rx="8" fill="white"/>
<path d="M534.293 524.931L537.6 522.443L540.892 525.167L544.364 522.434L547.5 525.407L551.293 522.948" stroke="white" stroke-linecap="round" stroke-linejoin="round"/>
</g>
<g clip-path="url(#clip4_28_329)">
<rect x="707.229" y="318.5" width="32" height="32" rx="8" fill="white"/>
<path d="M755.229 326.931L758.536 324.443L761.828 327.167L765.3 324.434L768.436 327.407L772.229 324.948" stroke="white" stroke-linecap="round" stroke-linejoin="round"/>
<path d="M688.229 401.5H893.229" stroke="white" stroke-opacity="0.2"/>
<rect x="707.229" y="417.5" width="32" height="32" rx="8" fill="white"/>
<path d="M755.229 425.931L758.536 423.443L761.828 426.167L765.3 423.434L768.436 426.407L772.229 423.948" stroke="white" stroke-linecap="round" stroke-linejoin="round"/>
<path d="M688.229 500.5H893.229" stroke="white" stroke-opacity="0.2"/>
<rect x="707.229" y="516.5" width="32" height="32" rx="8" fill="white"/>
<path d="M755.229 524.931L758.536 522.443L761.828 525.167L765.3 522.434L768.436 525.407L772.229 522.948" stroke="white" stroke-linecap="round" stroke-linejoin="round"/>
</g>
<rect x="91" y="97.75" width="61.7642" height="22" rx="8" fill="white" fill-opacity="0.2"/>
<rect x="91" y="123.75" width="158.716" height="22" rx="8" fill="white" fill-opacity="0.5"/>
<rect x="91.375" y="165.375" width="269.25" height="35.25" rx="17.625" stroke="white" stroke-opacity="0.3" stroke-width="0.75"/>
</g>
<defs>
<clipPath id="clip0_28_329">
<rect x="0.73877" width="916" height="530" rx="32" fill="white"/>
</clipPath>
<clipPath id="clip1_28_329">
<rect width="205" height="227" fill="white" transform="translate(25.0972 302.75)"/>
</clipPath>
<clipPath id="clip2_28_329">
<rect width="204.935" height="227" fill="white" transform="translate(246.097 302.75)"/>
</clipPath>
<clipPath id="clip3_28_329">
<rect width="204.935" height="227" fill="white" transform="translate(467.032 302.75)"/>
</clipPath>
<clipPath id="clip4_28_329">
<rect width="204.935" height="227" fill="white" transform="translate(687.968 302.75)"/>
</clipPath>
</defs>
</svg>
