<svg width="917" height="530" viewBox="0 0 917 530" fill="none" xmlns="http://www.w3.org/2000/svg">
<g clip-path="url(#clip0_28_352)">
<rect x="84.3584" y="318.5" width="127" height="14.5" rx="7.25" fill="white" fill-opacity="0.5"/>
<rect x="84.3584" y="339" width="84.3811" height="14.5" rx="7.25" fill="white" fill-opacity="0.3"/>
<rect x="44.3584" y="361.5" width="158.716" height="4" rx="2" fill="white" fill-opacity="0.3"/>
<rect x="44.3584" y="371.5" width="147.533" height="4" rx="2" fill="white" fill-opacity="0.3"/>
<rect x="44.3584" y="381.5" width="92.3811" height="4" rx="2" fill="white" fill-opacity="0.3"/>
<path d="M25.3584 401.5H230.358" stroke="white" stroke-opacity="0.2"/>
<rect x="84.3584" y="417.5" width="127" height="14.5" rx="7.25" fill="white" fill-opacity="0.5"/>
<rect x="84.3584" y="438" width="84.3811" height="14.5" rx="7.25" fill="white" fill-opacity="0.3"/>
<rect x="44.3584" y="460.5" width="158.716" height="4" rx="2" fill="white" fill-opacity="0.3"/>
<rect x="44.3584" y="470.5" width="147.533" height="4" rx="2" fill="white" fill-opacity="0.3"/>
<rect x="44.3584" y="480.5" width="92.3811" height="4" rx="2" fill="white" fill-opacity="0.3"/>
<path d="M25.3584 500.5H230.358" stroke="white" stroke-opacity="0.2"/>
<rect x="84.3584" y="516.5" width="127" height="14.5" rx="7.25" fill="white" fill-opacity="0.5"/>
</g>
<g clip-path="url(#clip1_28_352)">
<rect x="305.358" y="318.5" width="127" height="14.5" rx="7.25" fill="white" fill-opacity="0.5"/>
<rect x="305.358" y="339" width="84.3811" height="14.5" rx="7.25" fill="white" fill-opacity="0.3"/>
<rect x="265.358" y="361.5" width="158.716" height="4" rx="2" fill="white" fill-opacity="0.3"/>
<rect x="265.358" y="371.5" width="147.533" height="4" rx="2" fill="white" fill-opacity="0.3"/>
<rect x="265.358" y="381.5" width="92.3811" height="4" rx="2" fill="white" fill-opacity="0.3"/>
<path d="M246.358 401.5H451.358" stroke="white" stroke-opacity="0.2"/>
<rect x="305.358" y="417.5" width="127" height="14.5" rx="7.25" fill="white" fill-opacity="0.5"/>
<rect x="305.358" y="438" width="84.3811" height="14.5" rx="7.25" fill="white" fill-opacity="0.3"/>
<rect x="265.358" y="460.5" width="158.716" height="4" rx="2" fill="white" fill-opacity="0.3"/>
<rect x="265.358" y="470.5" width="147.533" height="4" rx="2" fill="white" fill-opacity="0.3"/>
<rect x="265.358" y="480.5" width="92.3811" height="4" rx="2" fill="white" fill-opacity="0.3"/>
<path d="M246.358 500.5H451.358" stroke="white" stroke-opacity="0.2"/>
<rect x="305.358" y="516.5" width="127" height="14.5" rx="7.25" fill="white" fill-opacity="0.5"/>
</g>
<g clip-path="url(#clip2_28_352)">
<rect x="526.293" y="318.5" width="127" height="14.5" rx="7.25" fill="white" fill-opacity="0.5"/>
<rect x="526.293" y="339" width="84.3811" height="14.5" rx="7.25" fill="white" fill-opacity="0.3"/>
<rect x="486.293" y="361.5" width="158.716" height="4" rx="2" fill="white" fill-opacity="0.3"/>
<rect x="486.293" y="371.5" width="147.533" height="4" rx="2" fill="white" fill-opacity="0.3"/>
<rect x="486.293" y="381.5" width="92.3811" height="4" rx="2" fill="white" fill-opacity="0.3"/>
<path d="M467.293 401.5H672.293" stroke="white" stroke-opacity="0.2"/>
<rect x="526.293" y="417.5" width="127" height="14.5" rx="7.25" fill="white" fill-opacity="0.5"/>
<rect x="526.293" y="438" width="84.3811" height="14.5" rx="7.25" fill="white" fill-opacity="0.3"/>
<rect x="486.293" y="460.5" width="158.716" height="4" rx="2" fill="white" fill-opacity="0.3"/>
<rect x="486.293" y="470.5" width="147.533" height="4" rx="2" fill="white" fill-opacity="0.3"/>
<rect x="486.293" y="480.5" width="92.3811" height="4" rx="2" fill="white" fill-opacity="0.3"/>
<path d="M467.293 500.5H672.293" stroke="white" stroke-opacity="0.2"/>
<rect x="526.293" y="516.5" width="127" height="14.5" rx="7.25" fill="white" fill-opacity="0.5"/>
</g>
<g clip-path="url(#clip3_28_352)">
<rect x="747.229" y="318.5" width="127" height="14.5" rx="7.25" fill="white" fill-opacity="0.5"/>
<rect x="747.229" y="339" width="84.3811" height="14.5" rx="7.25" fill="white" fill-opacity="0.3"/>
<rect x="707.229" y="361.5" width="158.716" height="4" rx="2" fill="white" fill-opacity="0.3"/>
<rect x="707.229" y="371.5" width="147.533" height="4" rx="2" fill="white" fill-opacity="0.3"/>
<rect x="707.229" y="381.5" width="92.3811" height="4" rx="2" fill="white" fill-opacity="0.3"/>
<path d="M688.229 401.5H893.229" stroke="white" stroke-opacity="0.2"/>
<rect x="747.229" y="417.5" width="127" height="14.5" rx="7.25" fill="white" fill-opacity="0.5"/>
<rect x="747.229" y="438" width="84.3811" height="14.5" rx="7.25" fill="white" fill-opacity="0.3"/>
<rect x="707.229" y="460.5" width="158.716" height="4" rx="2" fill="white" fill-opacity="0.3"/>
<rect x="707.229" y="470.5" width="147.533" height="4" rx="2" fill="white" fill-opacity="0.3"/>
<rect x="707.229" y="480.5" width="92.3811" height="4" rx="2" fill="white" fill-opacity="0.3"/>
<path d="M688.229 500.5H893.229" stroke="white" stroke-opacity="0.2"/>
<rect x="747.229" y="516.5" width="127" height="14.5" rx="7.25" fill="white" fill-opacity="0.5"/>
</g>
<defs>
<clipPath id="clip0_28_352">
<rect width="205" height="227" fill="white" transform="translate(25.0972 302.75)"/>
</clipPath>
<clipPath id="clip1_28_352">
<rect width="204.935" height="227" fill="white" transform="translate(246.097 302.75)"/>
</clipPath>
<clipPath id="clip2_28_352">
<rect width="204.935" height="227" fill="white" transform="translate(467.032 302.75)"/>
</clipPath>
<clipPath id="clip3_28_352">
<rect width="204.935" height="227" fill="white" transform="translate(687.968 302.75)"/>
</clipPath>
</defs>
</svg>
