<svg width="917" height="530" viewBox="0 0 917 530" fill="none" xmlns="http://www.w3.org/2000/svg">
<g clip-path="url(#clip0_28_323)">
<rect x="91.375" y="165.375" width="269.25" height="35.25" rx="17.625" stroke="white" stroke-opacity="0.3" stroke-width="0.75"/>
<path d="M115.098 185.318L115.918 184.469C116.042 184.612 116.152 184.731 116.25 184.825C116.351 184.92 116.473 185.019 116.616 185.123C116.763 185.224 116.921 185.3 117.09 185.353C117.262 185.405 117.446 185.431 117.642 185.431C118.029 185.431 118.32 185.333 118.516 185.138C118.711 184.939 118.809 184.71 118.809 184.449C118.809 184.296 118.77 184.158 118.691 184.034C118.617 183.91 118.514 183.806 118.384 183.722C118.257 183.634 118.109 183.552 117.939 183.478C117.773 183.403 117.598 183.329 117.412 183.258C117.23 183.183 117.046 183.105 116.86 183.023C116.678 182.939 116.502 182.84 116.333 182.726C116.167 182.608 116.019 182.48 115.889 182.34C115.762 182.197 115.659 182.019 115.581 181.808C115.506 181.596 115.469 181.36 115.469 181.1C115.469 180.442 115.69 179.923 116.133 179.542C116.579 179.161 117.155 178.971 117.861 178.971C118.548 178.971 119.211 179.203 119.849 179.669L119.17 180.689C118.779 180.344 118.322 180.172 117.798 180.172C117.472 180.172 117.218 180.242 117.036 180.382C116.857 180.522 116.768 180.717 116.768 180.968C116.768 181.166 116.829 181.339 116.953 181.485C117.077 181.632 117.236 181.752 117.432 181.847C117.63 181.938 117.848 182.027 118.086 182.115C118.327 182.203 118.566 182.306 118.804 182.423C119.041 182.537 119.258 182.672 119.453 182.828C119.652 182.984 119.813 183.196 119.937 183.463C120.06 183.727 120.122 184.036 120.122 184.391C120.122 185.071 119.907 185.615 119.478 186.021C119.048 186.428 118.433 186.632 117.632 186.632C117.316 186.632 117.023 186.598 116.753 186.529C116.486 186.461 116.204 186.326 115.908 186.124C115.612 185.922 115.342 185.654 115.098 185.318ZM127.464 180.362V179.098H133.523V180.362H131.155V186.5H129.847V180.362H127.464ZM140.919 182.809C140.919 182.288 141.017 181.791 141.212 181.319C141.41 180.847 141.679 180.44 142.018 180.099C142.359 179.754 142.77 179.48 143.248 179.278C143.73 179.073 144.241 178.971 144.781 178.971C145.315 178.971 145.821 179.072 146.3 179.273C146.778 179.472 147.188 179.742 147.53 180.084C147.875 180.423 148.149 180.828 148.351 181.3C148.552 181.772 148.653 182.271 148.653 182.799C148.653 183.323 148.552 183.823 148.351 184.298C148.149 184.773 147.875 185.182 147.53 185.523C147.185 185.862 146.773 186.132 146.295 186.334C145.82 186.533 145.318 186.632 144.791 186.632C144.091 186.632 143.445 186.466 142.853 186.134C142.26 185.799 141.79 185.338 141.441 184.752C141.093 184.163 140.919 183.515 140.919 182.809ZM142.223 182.818C142.223 183.294 142.337 183.731 142.564 184.132C142.796 184.532 143.108 184.85 143.502 185.084C143.896 185.315 144.326 185.431 144.791 185.431C145.257 185.431 145.685 185.313 146.075 185.079C146.466 184.845 146.773 184.527 146.998 184.127C147.226 183.723 147.34 183.284 147.34 182.809C147.34 182.33 147.228 181.889 147.003 181.485C146.778 181.082 146.469 180.763 146.075 180.528C145.685 180.291 145.253 180.172 144.781 180.172C144.309 180.172 143.876 180.292 143.482 180.533C143.089 180.774 142.779 181.098 142.555 181.505C142.333 181.909 142.223 182.346 142.223 182.818ZM156.752 186.5V179.098H159.75C160.489 179.098 161.062 179.295 161.469 179.688C161.876 180.079 162.079 180.606 162.079 181.271C162.079 181.83 161.931 182.296 161.635 182.667C161.339 183.035 160.917 183.266 160.37 183.36L162.211 186.5H160.741L158.949 183.429H158.061V186.5H156.752ZM158.061 182.169H159.77C160.079 182.169 160.323 182.091 160.502 181.935C160.681 181.778 160.771 181.56 160.771 181.28C160.771 180.997 160.679 180.774 160.497 180.611C160.318 180.445 160.076 180.362 159.77 180.362H158.061V182.169ZM170.266 186.5V179.098H171.574V186.5H170.266ZM180.176 186.5V179.098H184.863V180.362H181.484V182.008H184.146V183.268H181.484V185.24H184.863V186.5H180.176ZM192.615 185.318L193.436 184.469C193.559 184.612 193.67 184.731 193.768 184.825C193.868 184.92 193.991 185.019 194.134 185.123C194.28 185.224 194.438 185.3 194.607 185.353C194.78 185.405 194.964 185.431 195.159 185.431C195.547 185.431 195.838 185.333 196.033 185.138C196.229 184.939 196.326 184.71 196.326 184.449C196.326 184.296 196.287 184.158 196.209 184.034C196.134 183.91 196.032 183.806 195.901 183.722C195.774 183.634 195.626 183.552 195.457 183.478C195.291 183.403 195.115 183.329 194.93 183.258C194.747 183.183 194.563 183.105 194.378 183.023C194.196 182.939 194.02 182.84 193.851 182.726C193.685 182.608 193.536 182.48 193.406 182.34C193.279 182.197 193.177 182.019 193.099 181.808C193.024 181.596 192.986 181.36 192.986 181.1C192.986 180.442 193.208 179.923 193.65 179.542C194.096 179.161 194.673 178.971 195.379 178.971C196.066 178.971 196.728 179.203 197.366 179.669L196.688 180.689C196.297 180.344 195.84 180.172 195.315 180.172C194.99 180.172 194.736 180.242 194.554 180.382C194.375 180.522 194.285 180.717 194.285 180.968C194.285 181.166 194.347 181.339 194.471 181.485C194.594 181.632 194.754 181.752 194.949 181.847C195.148 181.938 195.366 182.027 195.604 182.115C195.844 182.203 196.084 182.306 196.321 182.423C196.559 182.537 196.775 182.672 196.971 182.828C197.169 182.984 197.33 183.196 197.454 183.463C197.578 183.727 197.64 184.036 197.64 184.391C197.64 185.071 197.425 185.615 196.995 186.021C196.565 186.428 195.95 186.632 195.149 186.632C194.834 186.632 194.541 186.598 194.271 186.529C194.004 186.461 193.722 186.326 193.426 186.124C193.13 185.922 192.859 185.654 192.615 185.318Z" fill="white"/>
<path fill-rule="evenodd" clip-rule="evenodd" d="M249.853 166.864C240.941 166.864 233.717 174.088 233.717 183C233.717 191.912 240.941 199.136 249.853 199.136H342.864C351.776 199.136 359 191.912 359 183C359 174.088 351.776 166.864 342.864 166.864H249.853ZM259.566 185.094L258.746 185.943C258.99 186.279 259.26 186.547 259.557 186.749C259.853 186.951 260.134 187.086 260.401 187.154C260.672 187.223 260.965 187.257 261.28 187.257C262.081 187.257 262.696 187.053 263.126 186.647C263.556 186.24 263.771 185.696 263.771 185.016C263.771 184.661 263.709 184.352 263.585 184.088C263.461 183.821 263.3 183.609 263.102 183.453C262.906 183.297 262.69 183.162 262.452 183.048C262.215 182.931 261.975 182.828 261.734 182.74C261.497 182.652 261.279 182.563 261.08 182.472C260.885 182.377 260.725 182.257 260.602 182.11C260.478 181.964 260.416 181.791 260.416 181.593C260.416 181.342 260.506 181.147 260.685 181.007C260.867 180.867 261.121 180.797 261.446 180.797C261.97 180.797 262.428 180.969 262.818 181.315L263.497 180.294C262.859 179.829 262.197 179.596 261.51 179.596C260.803 179.596 260.227 179.786 259.781 180.167C259.339 180.548 259.117 181.067 259.117 181.725C259.117 181.985 259.155 182.221 259.229 182.433C259.308 182.644 259.41 182.822 259.537 182.965C259.667 183.105 259.815 183.233 259.981 183.351C260.151 183.465 260.326 183.564 260.509 183.649C260.694 183.73 260.878 183.808 261.061 183.883C261.246 183.955 261.422 184.028 261.588 184.103C261.757 184.177 261.905 184.259 262.032 184.347C262.162 184.431 262.265 184.536 262.34 184.659C262.418 184.783 262.457 184.921 262.457 185.074C262.457 185.335 262.359 185.564 262.164 185.763C261.969 185.958 261.677 186.056 261.29 186.056C261.095 186.056 260.911 186.03 260.738 185.978C260.569 185.926 260.411 185.849 260.265 185.748C260.121 185.644 259.999 185.545 259.898 185.45C259.801 185.356 259.69 185.237 259.566 185.094ZM271.918 179.723V187.125H276.605V185.865H273.227V183.893H275.888V182.633H273.227V180.987H276.605V179.723H271.918ZM287.365 179.723L284.406 187.125H285.827L286.428 185.543H289.616L290.227 187.125H291.647L288.698 179.723H287.365ZM289.147 184.293H286.896L288.024 181.354L289.147 184.293ZM299.443 179.723V187.125H300.752V184.054H301.641L303.433 187.125H304.902L303.062 183.985C303.608 183.891 304.03 183.66 304.326 183.292C304.622 182.921 304.771 182.455 304.771 181.896C304.771 181.232 304.567 180.704 304.16 180.314C303.753 179.92 303.18 179.723 302.441 179.723H299.443ZM302.461 182.794H300.752V180.987H302.461C302.767 180.987 303.009 181.07 303.188 181.236C303.371 181.399 303.462 181.622 303.462 181.905C303.462 182.185 303.372 182.403 303.193 182.56C303.014 182.716 302.77 182.794 302.461 182.794ZM312.747 181.944C312.552 182.416 312.454 182.913 312.454 183.434C312.454 184.14 312.628 184.788 312.977 185.377C313.325 185.963 313.795 186.424 314.388 186.759C314.98 187.091 315.626 187.257 316.326 187.257C316.834 187.257 317.312 187.159 317.762 186.964C318.214 186.769 318.619 186.498 318.978 186.153L318.206 185.235C317.968 185.48 317.68 185.678 317.342 185.831C317.007 185.981 316.668 186.056 316.326 186.056C315.861 186.056 315.431 185.94 315.037 185.709C314.643 185.475 314.331 185.157 314.1 184.757C313.872 184.357 313.758 183.919 313.758 183.443C313.758 182.971 313.868 182.534 314.09 182.13C314.314 181.723 314.624 181.399 315.018 181.158C315.411 180.917 315.844 180.797 316.316 180.797C317.107 180.797 317.757 181.093 318.265 181.686L319.085 180.763C318.727 180.395 318.31 180.108 317.835 179.903C317.363 179.698 316.857 179.596 316.316 179.596C315.776 179.596 315.265 179.698 314.783 179.903C314.305 180.105 313.895 180.379 313.553 180.724C313.214 181.066 312.946 181.472 312.747 181.944ZM327.086 179.723V187.125H328.395V183.854H331.954V187.125H333.268V179.723H331.954V182.594H328.395V179.723H327.086Z" fill="white"/>
<path d="M100 136.204L105.057 132.556L110.092 136.551L115.402 132.541L120.199 136.903L126 133.296" stroke="white" stroke-width="2" stroke-linecap="round" stroke-linejoin="round"/>
<g opacity="0.3">
<path d="M100 110.204L105.057 106.556L110.092 110.551L115.402 106.541L120.199 110.903L126 107.296" stroke="white" stroke-width="2" stroke-linecap="round" stroke-linejoin="round"/>
</g>
</g>
<defs>
<clipPath id="clip0_28_323">
<rect x="0.73877" width="916" height="530" rx="32" fill="white"/>
</clipPath>
</defs>
</svg>
