<svg width="917" height="530" viewBox="0 0 917 530" fill="none" xmlns="http://www.w3.org/2000/svg">
<g clip-path="url(#clip0_28_377)">
<g clip-path="url(#clip1_28_377)">
<path opacity="0.323358" d="M25.0972 326.75C25.0972 313.495 35.8423 302.75 49.0972 302.75H206.097C219.352 302.75 230.097 313.495 230.097 326.75V529.75H25.0972V326.75Z" fill="white" fill-opacity="0.5"/>
</g>
<g clip-path="url(#clip2_28_377)">
<path opacity="0.323358" d="M246.097 326.75C246.097 313.495 256.842 302.75 270.097 302.75H427.032C440.287 302.75 451.032 313.495 451.032 326.75V529.75H246.097V326.75Z" fill="white" fill-opacity="0.5"/>
</g>
<g clip-path="url(#clip3_28_377)">
<path opacity="0.323358" d="M467.032 326.75C467.032 313.495 477.777 302.75 491.032 302.75H647.968C661.222 302.75 671.968 313.495 671.968 326.75V529.75H467.032V326.75Z" fill="white" fill-opacity="0.5"/>
</g>
<g clip-path="url(#clip4_28_377)">
<path opacity="0.323358" d="M687.968 326.75C687.968 313.495 698.713 302.75 711.968 302.75H868.903C882.158 302.75 892.903 313.495 892.903 326.75V529.75H687.968V326.75Z" fill="white" fill-opacity="0.5"/>
</g>
<path d="M46.9902 279.033V277.867H53.8809V279.033H51.0566V286.75H49.8203V279.033H46.9902ZM54.1562 285.426C53.8906 284.969 53.7578 284.471 53.7578 283.932C53.7578 283.393 53.8887 282.895 54.1504 282.438C54.416 281.98 54.7773 281.617 55.2344 281.348C55.6953 281.078 56.1992 280.943 56.7461 280.943C57.2891 280.943 57.791 281.078 58.252 281.348C58.7168 281.613 59.084 281.977 59.3535 282.438C59.623 282.895 59.7578 283.393 59.7578 283.932C59.7578 284.467 59.623 284.963 59.3535 285.42C59.084 285.877 58.7168 286.24 58.252 286.51C57.791 286.775 57.2891 286.908 56.7461 286.908C56.207 286.908 55.707 286.775 55.2461 286.51C54.7891 286.244 54.4258 285.883 54.1562 285.426ZM54.8945 283.943C54.8945 284.455 55.0742 284.896 55.4336 285.268C55.7969 285.639 56.2383 285.824 56.7578 285.824C57.2773 285.824 57.7168 285.637 58.0762 285.262C58.4355 284.883 58.6152 284.436 58.6152 283.92C58.6152 283.404 58.4336 282.961 58.0703 282.59C57.7109 282.219 57.2734 282.033 56.7578 282.033C56.2344 282.033 55.793 282.223 55.4336 282.602C55.0742 282.98 54.8945 283.428 54.8945 283.943ZM60.7188 283.932C60.7188 283.518 60.7969 283.125 60.9531 282.754C61.1133 282.383 61.3281 282.066 61.5977 281.805C61.8672 281.539 62.1875 281.33 62.5586 281.178C62.9297 281.021 63.3203 280.943 63.7305 280.943C64.5156 280.943 65.1523 281.223 65.6406 281.781V277.867H66.7891V286.75H65.6406V286.076C65.168 286.631 64.5312 286.908 63.7305 286.908C63.3125 286.908 62.918 286.832 62.5469 286.68C62.1758 286.523 61.8555 286.314 61.5859 286.053C61.3203 285.787 61.1094 285.471 60.9531 285.104C60.7969 284.732 60.7188 284.342 60.7188 283.932ZM61.8555 283.932C61.8555 284.467 62.0352 284.916 62.3945 285.279C62.7539 285.643 63.1992 285.824 63.7305 285.824C64.2695 285.824 64.7188 285.641 65.0781 285.273C65.4375 284.902 65.6172 284.455 65.6172 283.932C65.6172 283.408 65.4355 282.961 65.0723 282.59C64.709 282.219 64.2617 282.033 63.7305 282.033C63.1992 282.033 62.7539 282.217 62.3945 282.584C62.0352 282.951 61.8555 283.4 61.8555 283.932ZM68.2305 283.932C68.2305 283.518 68.3086 283.125 68.4648 282.754C68.625 282.383 68.8398 282.066 69.1094 281.805C69.3789 281.539 69.6992 281.33 70.0703 281.178C70.4414 281.021 70.832 280.943 71.2422 280.943C72.0273 280.943 72.6641 281.223 73.1523 281.781V281.049H74.3008V286.75H73.1523V286.076C72.6797 286.631 72.043 286.908 71.2422 286.908C70.8242 286.908 70.4297 286.832 70.0586 286.68C69.6875 286.523 69.3672 286.314 69.0977 286.053C68.832 285.787 68.6211 285.471 68.4648 285.104C68.3086 284.732 68.2305 284.342 68.2305 283.932ZM69.3672 283.932C69.3672 284.467 69.5469 284.916 69.9062 285.279C70.2656 285.643 70.7109 285.824 71.2422 285.824C71.7812 285.824 72.2305 285.641 72.5898 285.273C72.9492 284.902 73.1289 284.455 73.1289 283.932C73.1289 283.408 72.9473 282.961 72.584 282.59C72.2207 282.219 71.7734 282.033 71.2422 282.033C70.7109 282.033 70.2656 282.217 69.9062 282.584C69.5469 282.951 69.3672 283.4 69.3672 283.932ZM75.3789 281.049H76.6445L78.2734 285.332L79.8086 281.049H80.9629L77.8047 289.785H76.668L77.7109 286.855L75.3789 281.049Z" fill="white"/>
<path d="M265.832 278.367H267.25L269.6 282.041L271.99 278.367H273.385L270.215 283.242V287.25H268.99V283.254L265.832 278.367ZM272.746 284.432C272.746 283.9 272.869 283.408 273.115 282.955C273.361 282.498 273.709 282.133 274.158 281.859C274.607 281.582 275.109 281.443 275.664 281.443C276.078 281.443 276.467 281.525 276.83 281.689C277.193 281.85 277.502 282.064 277.756 282.334C278.01 282.604 278.209 282.92 278.354 283.283C278.502 283.646 278.576 284.025 278.576 284.42C278.576 284.525 278.568 284.656 278.553 284.812H273.883C273.965 285.262 274.174 285.633 274.51 285.926C274.85 286.215 275.258 286.359 275.734 286.359C276.051 286.359 276.352 286.291 276.637 286.154C276.922 286.018 277.152 285.826 277.328 285.58L278.148 286.207C277.883 286.582 277.537 286.877 277.111 287.092C276.686 287.303 276.227 287.408 275.734 287.408C274.902 287.408 274.195 287.121 273.613 286.547C273.035 285.973 272.746 285.268 272.746 284.432ZM273.924 283.904H277.404C277.334 283.502 277.139 283.168 276.818 282.902C276.502 282.633 276.121 282.498 275.676 282.498C275.242 282.498 274.867 282.629 274.551 282.891C274.238 283.152 274.029 283.49 273.924 283.904ZM279.426 286.664L280.047 285.773C280.523 286.164 281.055 286.359 281.641 286.359C281.941 286.359 282.174 286.301 282.338 286.184C282.506 286.066 282.59 285.91 282.59 285.715C282.59 285.562 282.535 285.436 282.426 285.334C282.316 285.229 282.174 285.146 281.998 285.088C281.826 285.025 281.635 284.967 281.424 284.912C281.213 284.857 281.002 284.791 280.791 284.713C280.58 284.631 280.387 284.535 280.211 284.426C280.039 284.312 279.898 284.154 279.789 283.951C279.68 283.748 279.625 283.508 279.625 283.23C279.625 282.703 279.803 282.273 280.158 281.941C280.518 281.609 280.992 281.443 281.582 281.443C282.34 281.443 282.984 281.658 283.516 282.088L282.906 282.943C282.5 282.646 282.062 282.498 281.594 282.498C281.324 282.498 281.119 282.557 280.979 282.674C280.838 282.787 280.768 282.928 280.768 283.096C280.768 283.24 280.822 283.363 280.932 283.465C281.041 283.566 281.182 283.65 281.354 283.717C281.525 283.779 281.717 283.842 281.928 283.904C282.139 283.963 282.35 284.035 282.561 284.121C282.771 284.207 282.963 284.311 283.135 284.432C283.307 284.549 283.447 284.711 283.557 284.918C283.666 285.125 283.721 285.367 283.721 285.645C283.721 286.188 283.529 286.617 283.146 286.934C282.764 287.25 282.25 287.408 281.605 287.408C280.805 287.408 280.078 287.16 279.426 286.664ZM284.365 282.645V281.549H285.262V279.615H286.428V281.549H287.975V282.645H286.428V285.363C286.428 285.707 286.48 285.953 286.586 286.102C286.691 286.25 286.891 286.324 287.184 286.324C287.473 286.324 287.686 286.297 287.822 286.242V287.273C287.6 287.363 287.299 287.408 286.92 287.408C286.646 287.408 286.408 287.371 286.205 287.297C286.006 287.227 285.846 287.135 285.725 287.021C285.607 286.908 285.512 286.766 285.438 286.594C285.367 286.422 285.32 286.25 285.297 286.078C285.273 285.906 285.262 285.713 285.262 285.498V282.645H284.365ZM288.648 284.432C288.648 283.9 288.771 283.408 289.018 282.955C289.264 282.498 289.611 282.133 290.061 281.859C290.51 281.582 291.012 281.443 291.566 281.443C291.98 281.443 292.369 281.525 292.732 281.689C293.096 281.85 293.404 282.064 293.658 282.334C293.912 282.604 294.111 282.92 294.256 283.283C294.404 283.646 294.479 284.025 294.479 284.42C294.479 284.525 294.471 284.656 294.455 284.812H289.785C289.867 285.262 290.076 285.633 290.412 285.926C290.752 286.215 291.16 286.359 291.637 286.359C291.953 286.359 292.254 286.291 292.539 286.154C292.824 286.018 293.055 285.826 293.23 285.58L294.051 286.207C293.785 286.582 293.439 286.877 293.014 287.092C292.588 287.303 292.129 287.408 291.637 287.408C290.805 287.408 290.098 287.121 289.516 286.547C288.938 285.973 288.648 285.268 288.648 284.432ZM289.826 283.904H293.307C293.236 283.502 293.041 283.168 292.721 282.902C292.404 282.633 292.023 282.498 291.578 282.498C291.145 282.498 290.77 282.629 290.453 282.891C290.141 283.152 289.932 283.49 289.826 283.904ZM295.891 287.25V281.549H297.039V282.234C297.305 281.918 297.596 281.707 297.912 281.602C298.229 281.496 298.678 281.443 299.26 281.443V282.545C298.803 282.545 298.422 282.588 298.117 282.674C297.816 282.76 297.59 282.889 297.438 283.061C297.285 283.229 297.18 283.41 297.121 283.605C297.066 283.797 297.039 284.027 297.039 284.297V287.25H295.891ZM299.699 284.432C299.699 284.018 299.777 283.625 299.934 283.254C300.094 282.883 300.309 282.566 300.578 282.305C300.848 282.039 301.168 281.83 301.539 281.678C301.91 281.521 302.301 281.443 302.711 281.443C303.496 281.443 304.133 281.723 304.621 282.281V278.367H305.77V287.25H304.621V286.576C304.148 287.131 303.512 287.408 302.711 287.408C302.293 287.408 301.898 287.332 301.527 287.18C301.156 287.023 300.836 286.814 300.566 286.553C300.301 286.287 300.09 285.971 299.934 285.604C299.777 285.232 299.699 284.842 299.699 284.432ZM300.836 284.432C300.836 284.967 301.016 285.416 301.375 285.779C301.734 286.143 302.18 286.324 302.711 286.324C303.25 286.324 303.699 286.141 304.059 285.773C304.418 285.402 304.598 284.955 304.598 284.432C304.598 283.908 304.416 283.461 304.053 283.09C303.689 282.719 303.242 282.533 302.711 282.533C302.18 282.533 301.734 282.717 301.375 283.084C301.016 283.451 300.836 283.9 300.836 284.432ZM307.211 284.432C307.211 284.018 307.289 283.625 307.445 283.254C307.605 282.883 307.82 282.566 308.09 282.305C308.359 282.039 308.68 281.83 309.051 281.678C309.422 281.521 309.812 281.443 310.223 281.443C311.008 281.443 311.645 281.723 312.133 282.281V281.549H313.281V287.25H312.133V286.576C311.66 287.131 311.023 287.408 310.223 287.408C309.805 287.408 309.41 287.332 309.039 287.18C308.668 287.023 308.348 286.814 308.078 286.553C307.812 286.287 307.602 285.971 307.445 285.604C307.289 285.232 307.211 284.842 307.211 284.432ZM308.348 284.432C308.348 284.967 308.527 285.416 308.887 285.779C309.246 286.143 309.691 286.324 310.223 286.324C310.762 286.324 311.211 286.141 311.57 285.773C311.93 285.402 312.109 284.955 312.109 284.432C312.109 283.908 311.928 283.461 311.564 283.09C311.201 282.719 310.754 282.533 310.223 282.533C309.691 282.533 309.246 282.717 308.887 283.084C308.527 283.451 308.348 283.9 308.348 284.432ZM314.359 281.549H315.625L317.254 285.832L318.789 281.549H319.943L316.785 290.285H315.648L316.691 287.355L314.359 281.549Z" fill="white"/>
<path d="M486.77 287.25V278.367H489.219C489.898 278.367 490.529 278.471 491.111 278.678C491.693 278.885 492.195 279.178 492.617 279.557C493.039 279.932 493.369 280.4 493.607 280.963C493.85 281.521 493.971 282.141 493.971 282.82C493.971 283.496 493.852 284.113 493.613 284.672C493.375 285.23 493.043 285.697 492.617 286.072C492.195 286.447 491.691 286.738 491.105 286.945C490.523 287.148 489.891 287.25 489.207 287.25H486.77ZM487.994 286.096H489.137C489.652 286.096 490.125 286.033 490.555 285.908C490.984 285.779 491.363 285.586 491.691 285.328C492.023 285.07 492.281 284.73 492.465 284.309C492.652 283.883 492.746 283.391 492.746 282.832C492.746 282.25 492.646 281.742 492.447 281.309C492.248 280.875 491.971 280.531 491.615 280.277C491.264 280.023 490.869 279.836 490.432 279.715C489.994 279.594 489.514 279.533 488.99 279.533H487.994V286.096ZM494.844 284.432C494.844 284.018 494.922 283.625 495.078 283.254C495.238 282.883 495.453 282.566 495.723 282.305C495.992 282.039 496.312 281.83 496.684 281.678C497.055 281.521 497.445 281.443 497.855 281.443C498.641 281.443 499.277 281.723 499.766 282.281V281.549H500.914V287.25H499.766V286.576C499.293 287.131 498.656 287.408 497.855 287.408C497.438 287.408 497.043 287.332 496.672 287.18C496.301 287.023 495.98 286.814 495.711 286.553C495.445 286.287 495.234 285.971 495.078 285.604C494.922 285.232 494.844 284.842 494.844 284.432ZM495.98 284.432C495.98 284.967 496.16 285.416 496.52 285.779C496.879 286.143 497.324 286.324 497.855 286.324C498.395 286.324 498.844 286.141 499.203 285.773C499.562 285.402 499.742 284.955 499.742 284.432C499.742 283.908 499.561 283.461 499.197 283.09C498.834 282.719 498.387 282.533 497.855 282.533C497.324 282.533 496.879 282.717 496.52 283.084C496.16 283.451 495.98 283.9 495.98 284.432ZM501.992 281.549H503.258L504.887 285.832L506.422 281.549H507.576L504.418 290.285H503.281L504.324 287.355L501.992 281.549ZM511.836 287.25V278.367H514.297C515.238 278.367 515.963 278.57 516.471 278.977C516.982 279.379 517.238 279.953 517.238 280.699C517.238 281.633 516.814 282.256 515.967 282.568C516.498 282.697 516.9 282.959 517.174 283.354C517.447 283.744 517.584 284.215 517.584 284.766C517.584 285.105 517.529 285.414 517.42 285.691C517.314 285.969 517.164 286.203 516.969 286.395C516.777 286.586 516.547 286.746 516.277 286.875C516.012 287.004 515.721 287.1 515.404 287.162C515.092 287.221 514.754 287.25 514.391 287.25H511.836ZM513.061 286.096H514.355C514.973 286.096 515.461 285.982 515.82 285.756C516.18 285.529 516.359 285.164 516.359 284.66C516.359 284.168 516.184 283.799 515.832 283.553C515.48 283.307 514.98 283.184 514.332 283.184H513.061V286.096ZM513.061 282.029H514.467C515.498 282.029 516.014 281.617 516.014 280.793C516.014 280.367 515.871 280.049 515.586 279.838C515.301 279.627 514.887 279.521 514.344 279.521H513.061V282.029ZM518.668 284.432C518.668 283.9 518.791 283.408 519.037 282.955C519.283 282.498 519.631 282.133 520.08 281.859C520.529 281.582 521.031 281.443 521.586 281.443C522 281.443 522.389 281.525 522.752 281.689C523.115 281.85 523.424 282.064 523.678 282.334C523.932 282.604 524.131 282.92 524.275 283.283C524.424 283.646 524.498 284.025 524.498 284.42C524.498 284.525 524.49 284.656 524.475 284.812H519.805C519.887 285.262 520.096 285.633 520.432 285.926C520.771 286.215 521.18 286.359 521.656 286.359C521.973 286.359 522.273 286.291 522.559 286.154C522.844 286.018 523.074 285.826 523.25 285.58L524.07 286.207C523.805 286.582 523.459 286.877 523.033 287.092C522.607 287.303 522.148 287.408 521.656 287.408C520.824 287.408 520.117 287.121 519.535 286.547C518.957 285.973 518.668 285.268 518.668 284.432ZM519.846 283.904H523.326C523.256 283.502 523.061 283.168 522.74 282.902C522.424 282.633 522.043 282.498 521.598 282.498C521.164 282.498 520.789 282.629 520.473 282.891C520.16 283.152 519.951 283.49 519.846 283.904ZM525.154 282.645V281.549H525.992V280.23C525.992 279.656 526.135 279.203 526.42 278.871C526.705 278.535 527.146 278.367 527.744 278.367C528.076 278.367 528.393 278.412 528.693 278.502V279.533C528.51 279.479 528.281 279.451 528.008 279.451C527.699 279.451 527.48 279.537 527.352 279.709C527.223 279.877 527.158 280.178 527.158 280.611V281.549H528.57V282.645H527.158V287.25H525.992V282.645H525.154ZM529.566 285.926C529.301 285.469 529.168 284.971 529.168 284.432C529.168 283.893 529.299 283.395 529.561 282.938C529.826 282.48 530.188 282.117 530.645 281.848C531.105 281.578 531.609 281.443 532.156 281.443C532.699 281.443 533.201 281.578 533.662 281.848C534.127 282.113 534.494 282.477 534.764 282.938C535.033 283.395 535.168 283.893 535.168 284.432C535.168 284.967 535.033 285.463 534.764 285.92C534.494 286.377 534.127 286.74 533.662 287.01C533.201 287.275 532.699 287.408 532.156 287.408C531.617 287.408 531.117 287.275 530.656 287.01C530.199 286.744 529.836 286.383 529.566 285.926ZM530.305 284.443C530.305 284.955 530.484 285.396 530.844 285.768C531.207 286.139 531.648 286.324 532.168 286.324C532.688 286.324 533.127 286.137 533.486 285.762C533.846 285.383 534.025 284.936 534.025 284.42C534.025 283.904 533.844 283.461 533.48 283.09C533.121 282.719 532.684 282.533 532.168 282.533C531.645 282.533 531.203 282.723 530.844 283.102C530.484 283.48 530.305 283.928 530.305 284.443ZM536.609 287.25V281.549H537.758V282.234C538.023 281.918 538.314 281.707 538.631 281.602C538.947 281.496 539.396 281.443 539.979 281.443V282.545C539.521 282.545 539.141 282.588 538.836 282.674C538.535 282.76 538.309 282.889 538.156 283.061C538.004 283.229 537.898 283.41 537.84 283.605C537.785 283.797 537.758 284.027 537.758 284.297V287.25H536.609ZM540.418 284.432C540.418 283.9 540.541 283.408 540.787 282.955C541.033 282.498 541.381 282.133 541.83 281.859C542.279 281.582 542.781 281.443 543.336 281.443C543.75 281.443 544.139 281.525 544.502 281.689C544.865 281.85 545.174 282.064 545.428 282.334C545.682 282.604 545.881 282.92 546.025 283.283C546.174 283.646 546.248 284.025 546.248 284.42C546.248 284.525 546.24 284.656 546.225 284.812H541.555C541.637 285.262 541.846 285.633 542.182 285.926C542.521 286.215 542.93 286.359 543.406 286.359C543.723 286.359 544.023 286.291 544.309 286.154C544.594 286.018 544.824 285.826 545 285.58L545.82 286.207C545.555 286.582 545.209 286.877 544.783 287.092C544.357 287.303 543.898 287.408 543.406 287.408C542.574 287.408 541.867 287.121 541.285 286.547C540.707 285.973 540.418 285.268 540.418 284.432ZM541.596 283.904H545.076C545.006 283.502 544.811 283.168 544.49 282.902C544.174 282.633 543.793 282.498 543.348 282.498C542.914 282.498 542.539 282.629 542.223 282.891C541.91 283.152 541.701 283.49 541.596 283.904Z" fill="white"/>
<path d="M712.77 287.25V278.367H715.219C715.898 278.367 716.529 278.471 717.111 278.678C717.693 278.885 718.195 279.178 718.617 279.557C719.039 279.932 719.369 280.4 719.607 280.963C719.85 281.521 719.971 282.141 719.971 282.82C719.971 283.496 719.852 284.113 719.613 284.672C719.375 285.23 719.043 285.697 718.617 286.072C718.195 286.447 717.691 286.738 717.105 286.945C716.523 287.148 715.891 287.25 715.207 287.25H712.77ZM713.994 286.096H715.137C715.652 286.096 716.125 286.033 716.555 285.908C716.984 285.779 717.363 285.586 717.691 285.328C718.023 285.07 718.281 284.73 718.465 284.309C718.652 283.883 718.746 283.391 718.746 282.832C718.746 282.25 718.646 281.742 718.447 281.309C718.248 280.875 717.971 280.531 717.615 280.277C717.264 280.023 716.869 279.836 716.432 279.715C715.994 279.594 715.514 279.533 714.99 279.533H713.994V286.096ZM720.844 284.432C720.844 284.018 720.922 283.625 721.078 283.254C721.238 282.883 721.453 282.566 721.723 282.305C721.992 282.039 722.312 281.83 722.684 281.678C723.055 281.521 723.445 281.443 723.855 281.443C724.641 281.443 725.277 281.723 725.766 282.281V281.549H726.914V287.25H725.766V286.576C725.293 287.131 724.656 287.408 723.855 287.408C723.438 287.408 723.043 287.332 722.672 287.18C722.301 287.023 721.98 286.814 721.711 286.553C721.445 286.287 721.234 285.971 721.078 285.604C720.922 285.232 720.844 284.842 720.844 284.432ZM721.98 284.432C721.98 284.967 722.16 285.416 722.52 285.779C722.879 286.143 723.324 286.324 723.855 286.324C724.395 286.324 724.844 286.141 725.203 285.773C725.562 285.402 725.742 284.955 725.742 284.432C725.742 283.908 725.561 283.461 725.197 283.09C724.834 282.719 724.387 282.533 723.855 282.533C723.324 282.533 722.879 282.717 722.52 283.084C722.16 283.451 721.98 283.9 721.98 284.432ZM727.992 281.549H729.258L730.887 285.832L732.422 281.549H733.576L730.418 290.285H729.281L730.324 287.355L727.992 281.549ZM737.836 287.25V278.367H740.297C741.238 278.367 741.963 278.57 742.471 278.977C742.982 279.379 743.238 279.953 743.238 280.699C743.238 281.633 742.814 282.256 741.967 282.568C742.498 282.697 742.9 282.959 743.174 283.354C743.447 283.744 743.584 284.215 743.584 284.766C743.584 285.105 743.529 285.414 743.42 285.691C743.314 285.969 743.164 286.203 742.969 286.395C742.777 286.586 742.547 286.746 742.277 286.875C742.012 287.004 741.721 287.1 741.404 287.162C741.092 287.221 740.754 287.25 740.391 287.25H737.836ZM739.061 286.096H740.355C740.973 286.096 741.461 285.982 741.82 285.756C742.18 285.529 742.359 285.164 742.359 284.66C742.359 284.168 742.184 283.799 741.832 283.553C741.48 283.307 740.98 283.184 740.332 283.184H739.061V286.096ZM739.061 282.029H740.467C741.498 282.029 742.014 281.617 742.014 280.793C742.014 280.367 741.871 280.049 741.586 279.838C741.301 279.627 740.887 279.521 740.344 279.521H739.061V282.029ZM744.668 284.432C744.668 283.9 744.791 283.408 745.037 282.955C745.283 282.498 745.631 282.133 746.08 281.859C746.529 281.582 747.031 281.443 747.586 281.443C748 281.443 748.389 281.525 748.752 281.689C749.115 281.85 749.424 282.064 749.678 282.334C749.932 282.604 750.131 282.92 750.275 283.283C750.424 283.646 750.498 284.025 750.498 284.42C750.498 284.525 750.49 284.656 750.475 284.812H745.805C745.887 285.262 746.096 285.633 746.432 285.926C746.771 286.215 747.18 286.359 747.656 286.359C747.973 286.359 748.273 286.291 748.559 286.154C748.844 286.018 749.074 285.826 749.25 285.58L750.07 286.207C749.805 286.582 749.459 286.877 749.033 287.092C748.607 287.303 748.148 287.408 747.656 287.408C746.824 287.408 746.117 287.121 745.535 286.547C744.957 285.973 744.668 285.268 744.668 284.432ZM745.846 283.904H749.326C749.256 283.502 749.061 283.168 748.74 282.902C748.424 282.633 748.043 282.498 747.598 282.498C747.164 282.498 746.789 282.629 746.473 282.891C746.16 283.152 745.951 283.49 745.846 283.904ZM751.154 282.645V281.549H751.992V280.23C751.992 279.656 752.135 279.203 752.42 278.871C752.705 278.535 753.146 278.367 753.744 278.367C754.076 278.367 754.393 278.412 754.693 278.502V279.533C754.51 279.479 754.281 279.451 754.008 279.451C753.699 279.451 753.48 279.537 753.352 279.709C753.223 279.877 753.158 280.178 753.158 280.611V281.549H754.57V282.645H753.158V287.25H751.992V282.645H751.154ZM755.566 285.926C755.301 285.469 755.168 284.971 755.168 284.432C755.168 283.893 755.299 283.395 755.561 282.938C755.826 282.48 756.188 282.117 756.645 281.848C757.105 281.578 757.609 281.443 758.156 281.443C758.699 281.443 759.201 281.578 759.662 281.848C760.127 282.113 760.494 282.477 760.764 282.938C761.033 283.395 761.168 283.893 761.168 284.432C761.168 284.967 761.033 285.463 760.764 285.92C760.494 286.377 760.127 286.74 759.662 287.01C759.201 287.275 758.699 287.408 758.156 287.408C757.617 287.408 757.117 287.275 756.656 287.01C756.199 286.744 755.836 286.383 755.566 285.926ZM756.305 284.443C756.305 284.955 756.484 285.396 756.844 285.768C757.207 286.139 757.648 286.324 758.168 286.324C758.688 286.324 759.127 286.137 759.486 285.762C759.846 285.383 760.025 284.936 760.025 284.42C760.025 283.904 759.844 283.461 759.48 283.09C759.121 282.719 758.684 282.533 758.168 282.533C757.645 282.533 757.203 282.723 756.844 283.102C756.484 283.48 756.305 283.928 756.305 284.443ZM762.609 287.25V281.549H763.758V282.234C764.023 281.918 764.314 281.707 764.631 281.602C764.947 281.496 765.396 281.443 765.979 281.443V282.545C765.521 282.545 765.141 282.588 764.836 282.674C764.535 282.76 764.309 282.889 764.156 283.061C764.004 283.229 763.898 283.41 763.84 283.605C763.785 283.797 763.758 284.027 763.758 284.297V287.25H762.609ZM766.418 284.432C766.418 283.9 766.541 283.408 766.787 282.955C767.033 282.498 767.381 282.133 767.83 281.859C768.279 281.582 768.781 281.443 769.336 281.443C769.75 281.443 770.139 281.525 770.502 281.689C770.865 281.85 771.174 282.064 771.428 282.334C771.682 282.604 771.881 282.92 772.025 283.283C772.174 283.646 772.248 284.025 772.248 284.42C772.248 284.525 772.24 284.656 772.225 284.812H767.555C767.637 285.262 767.846 285.633 768.182 285.926C768.521 286.215 768.93 286.359 769.406 286.359C769.723 286.359 770.023 286.291 770.309 286.154C770.594 286.018 770.824 285.826 771 285.58L771.82 286.207C771.555 286.582 771.209 286.877 770.783 287.092C770.357 287.303 769.898 287.408 769.406 287.408C768.574 287.408 767.867 287.121 767.285 286.547C766.707 285.973 766.418 285.268 766.418 284.432ZM767.596 283.904H771.076C771.006 283.502 770.811 283.168 770.49 282.902C770.174 282.633 769.793 282.498 769.348 282.498C768.914 282.498 768.539 282.629 768.223 282.891C767.91 283.152 767.701 283.49 767.596 283.904ZM775.811 279.533V278.367H782.701V279.533H779.877V287.25H778.641V279.533H775.811ZM783.902 287.25V278.367H785.051V282.164C785.262 281.93 785.496 281.752 785.754 281.631C786.012 281.506 786.33 281.443 786.709 281.443C787.42 281.443 787.988 281.658 788.414 282.088C788.844 282.518 789.059 283.162 789.059 284.021V287.25H787.898V284.262C787.898 283.109 787.434 282.533 786.504 282.533C785.535 282.533 785.051 283.137 785.051 284.344V287.25H783.902ZM790.383 284.432C790.383 284.018 790.461 283.625 790.617 283.254C790.777 282.883 790.992 282.566 791.262 282.305C791.531 282.039 791.852 281.83 792.223 281.678C792.594 281.521 792.984 281.443 793.395 281.443C794.18 281.443 794.816 281.723 795.305 282.281V281.549H796.453V287.25H795.305V286.576C794.832 287.131 794.195 287.408 793.395 287.408C792.977 287.408 792.582 287.332 792.211 287.18C791.84 287.023 791.52 286.814 791.25 286.553C790.984 286.287 790.773 285.971 790.617 285.604C790.461 285.232 790.383 284.842 790.383 284.432ZM791.52 284.432C791.52 284.967 791.699 285.416 792.059 285.779C792.418 286.143 792.863 286.324 793.395 286.324C793.934 286.324 794.383 286.141 794.742 285.773C795.102 285.402 795.281 284.955 795.281 284.432C795.281 283.908 795.1 283.461 794.736 283.09C794.373 282.719 793.926 282.533 793.395 282.533C792.863 282.533 792.418 282.717 792.059 283.084C791.699 283.451 791.52 283.9 791.52 284.432ZM797.619 282.645V281.549H798.516V279.615H799.682V281.549H801.229V282.645H799.682V285.363C799.682 285.707 799.734 285.953 799.84 286.102C799.945 286.25 800.145 286.324 800.438 286.324C800.727 286.324 800.939 286.297 801.076 286.242V287.273C800.854 287.363 800.553 287.408 800.174 287.408C799.9 287.408 799.662 287.371 799.459 287.297C799.26 287.227 799.1 287.135 798.979 287.021C798.861 286.908 798.766 286.766 798.691 286.594C798.621 286.422 798.574 286.25 798.551 286.078C798.527 285.906 798.516 285.713 798.516 285.498V282.645H797.619Z" fill="white"/>
</g>
<defs>
<clipPath id="clip0_28_377">
<rect x="0.73877" width="916" height="530" rx="32" fill="white"/>
</clipPath>
<clipPath id="clip1_28_377">
<rect width="205" height="227" fill="white" transform="translate(25.0972 302.75)"/>
</clipPath>
<clipPath id="clip2_28_377">
<rect width="204.935" height="227" fill="white" transform="translate(246.097 302.75)"/>
</clipPath>
<clipPath id="clip3_28_377">
<rect width="204.935" height="227" fill="white" transform="translate(467.032 302.75)"/>
</clipPath>
<clipPath id="clip4_28_377">
<rect width="204.935" height="227" fill="white" transform="translate(687.968 302.75)"/>
</clipPath>
</defs>
</svg>
