<svg width="24" height="24" viewBox="0 0 24 24" fill="none" xmlns="http://www.w3.org/2000/svg">
<path fill-rule="evenodd" clip-rule="evenodd" d="M12 22C17.5228 22 22 17.5228 22 12C22 6.47715 17.5228 2 12 2C6.47715 2 2 6.47715 2 12C2 17.5228 6.47715 22 12 22ZM14.5411 16.0357C14.9007 16.4881 15.3322 17 15.3322 17C17.9812 16.9167 19 15.1905 19 15.1905C19 11.3572 17.274 8.25009 17.274 8.25009C15.5479 6.96439 13.9058 7.0001 13.9058 7.0001L13.738 7.19057C15.7757 7.80961 16.7226 8.70246 16.7226 8.70246C15.476 8.0239 14.2534 7.69057 13.1147 7.55962C12.2517 7.46438 11.4247 7.48819 10.6935 7.58343C10.6307 7.58343 10.5771 7.5925 10.5166 7.60272L10.4897 7.60724C10.0702 7.64295 9.05137 7.79771 7.76884 8.35723C7.32534 8.55961 7.06164 8.70246 7.06164 8.70246C7.06164 8.70246 8.05651 7.762 10.214 7.14295L10.0942 7.0001C10.0942 7.0001 8.45205 6.96439 6.72603 8.25009C6.72603 8.25009 5 11.3572 5 15.1905C5 15.1905 6.00685 16.9167 8.65582 17C8.65582 17 9.09932 16.4643 9.4589 16.0119C7.93664 15.5595 7.3613 14.6072 7.3613 14.6072C7.3613 14.6072 7.48116 14.6905 7.69692 14.8095C7.7089 14.8215 7.72089 14.8334 7.74486 14.8453C7.76284 14.8572 7.78082 14.8661 7.7988 14.875C7.81678 14.8839 7.83476 14.8929 7.85274 14.9048C8.1524 15.0714 8.45205 15.2024 8.72774 15.3095C9.21918 15.5 9.80651 15.6905 10.4897 15.8214C11.3887 15.9881 12.4435 16.0476 13.5942 15.8333C14.1575 15.7381 14.7329 15.5714 15.3322 15.3214C15.7517 15.1667 16.2192 14.9405 16.7106 14.6191C16.7106 14.6191 16.1113 15.5953 14.5411 16.0357ZM8.53596 12.7619C8.53596 12.0358 9.07534 11.4405 9.75856 11.4405C10.4418 11.4405 10.9932 12.0358 10.9812 12.7619C10.9812 13.4881 10.4418 14.0834 9.75856 14.0834C9.08733 14.0834 8.53596 13.4881 8.53596 12.7619ZM14.1336 11.4405C13.4503 11.4405 12.911 12.0358 12.911 12.7619C12.911 13.4881 13.4623 14.0834 14.1336 14.0834C14.8168 14.0834 15.3562 13.4881 15.3562 12.7619C15.3562 12.0358 14.8168 11.4405 14.1336 11.4405Z" fill="white"/>
</svg>
