<?xml version="1.0" encoding="UTF-8"?>
<svg width="90px" height="48px" viewBox="0 0 90 48" version="1.1" xmlns="http://www.w3.org/2000/svg" xmlns:xlink="http://www.w3.org/1999/xlink">
    <title>Reviewers</title>
    <g id="Reviewers" stroke="none" stroke-width="1" fill="none" fill-rule="evenodd">
        <path d="M38,0 C51.254834,0 62,10.745166 62,24 C62,37.254834 51.254834,48 38,48 C24.745166,48 14,37.254834 14,24 C14,10.745166 24.745166,0 38,0 Z M38,8 C29.163444,8 22,15.163444 22,24 C22,32.836556 29.163444,40 38,40 C46.836556,40 54,32.836556 54,24 C54,15.163444 46.836556,8 38,8 Z" id="Combined-Shape-Copy" fill="#A278FF" opacity="0.408784412"></path>
        <path d="M52,0 C65.254834,0 76,10.745166 76,24 C76,37.254834 65.254834,48 52,48 C38.745166,48 28,37.254834 28,24 C28,10.745166 38.745166,0 52,0 Z M52,8 C43.163444,8 36,15.163444 36,24 C36,32.836556 43.163444,40 52,40 C60.836556,40 68,32.836556 68,24 C68,15.163444 60.836556,8 52,8 Z" id="Combined-Shape-Copy-2" fill="#A278FF" opacity="0.408784412"></path>
        <path d="M66,0 C79.254834,0 90,10.745166 90,24 C90,37.254834 79.254834,48 66,48 C52.745166,48 42,37.254834 42,24 C42,10.745166 52.745166,0 66,0 Z M66,8 C57.163444,8 50,15.163444 50,24 C50,32.836556 57.163444,40 66,40 C74.836556,40 82,32.836556 82,24 C82,15.163444 74.836556,8 66,8 Z" id="Combined-Shape-Copy-3" fill="#A278FF" opacity="0.408784412"></path>
        <path d="M24,0 C37.254834,0 48,10.745166 48,24 C48,37.254834 37.254834,48 24,48 C10.745166,48 0,37.254834 0,24 C0,10.745166 10.745166,0 24,0 Z M24,8 C15.163444,8 8,15.163444 8,24 C8,32.836556 15.163444,40 24,40 C32.836556,40 40,32.836556 40,24 C40,15.163444 32.836556,8 24,8 Z" id="Combined-Shape-Copy-3" fill="#A278FF" opacity="0.408784412"></path>
        <circle id="Oval" fill="#FFFFFF" cx="24" cy="24" r="12"></circle>
    </g>
</svg>