<?xml version="1.0" encoding="UTF-8"?>
<svg width="916px" height="530px" viewBox="0 0 916 530" version="1.1" xmlns="http://www.w3.org/2000/svg" xmlns:xlink="http://www.w3.org/1999/xlink">
    <title>Screen-1</title>
    <defs>
        <rect id="path-1" x="569" y="52" width="329" height="448" rx="32"></rect>
        <filter x="-2.1%" y="-1.1%" width="104.3%" height="103.1%" filterUnits="objectBoundingBox" id="filter-2">
            <feOffset dx="0" dy="2" in="SourceAlpha" result="shadowOffsetOuter1"></feOffset>
            <feGaussianBlur stdDeviation="2" in="shadowOffsetOuter1" result="shadowBlurOuter1"></feGaussianBlur>
            <feComposite in="shadowBlurOuter1" in2="SourceAlpha" operator="out" result="shadowBlurOuter1"></feComposite>
            <feColorMatrix values="0 0 0 0 0   0 0 0 0 0   0 0 0 0 0  0 0 0 0.212139423 0" type="matrix" in="shadowBlurOuter1"></feColorMatrix>
        </filter>
    </defs>
    <g id="Screen-1" stroke="none" stroke-width="1" fill="none" fill-rule="evenodd">
        <rect id="Rectangle" fill="#FFFFFF" opacity="0.792480469" x="0" y="34" width="916" height="489" rx="40"></rect>
        <rect id="Rectangle" fill="#9B9B9B" x="414.5" y="138" width="155" height="1"></rect>
        <rect id="Rectangle-Copy-69" fill="#FFFFFF" x="33" y="103" width="495" height="22" rx="8"></rect>
        <rect id="Rectangle-Copy-73" fill="#FFFFFF" x="33" y="199" width="462" height="22" rx="8"></rect>
        <rect id="Rectangle-Copy-74" fill="#FFFFFF" x="33" y="223" width="485" height="22" rx="8"></rect>
        <rect id="Rectangle-Copy-92" fill="#FFFFFF" opacity="0.400111607" x="33" y="314" width="462" height="22" rx="8"></rect>
        <rect id="Rectangle-Copy-95" fill="#FFFFFF" opacity="0.323358445" x="33" y="405" width="462" height="22" rx="8"></rect>
        <rect id="Rectangle-Copy-91" stroke="#D2D2D2" fill="#E8E8E8" x="51.5" y="151.5" width="476" height="21" rx="8"></rect>
        <rect id="Rectangle-Copy-75" fill="#FFFFFF" opacity="0.589308966" x="33" y="247" width="477" height="22" rx="8"></rect>
        <rect id="Rectangle-Copy-93" fill="#FFFFFF" opacity="0.400111607" x="33" y="338" width="454" height="22" rx="8"></rect>
        <rect id="Rectangle-Copy-96" fill="#FFFFFF" opacity="0.323358445" x="33" y="429" width="454" height="22" rx="8"></rect>
        <rect id="Rectangle-Copy-72" fill="#FFFFFF" x="33" y="175" width="495" height="22" rx="8"></rect>
        <rect id="Rectangle-Copy-90" fill="#FFFFFF" x="33" y="127" width="495" height="22" rx="8"></rect>
        <rect id="Rectangle-Copy-70" stroke="#905FDF" fill="#AE7DFD" x="107.5" y="127.5" width="420" height="21" rx="8"></rect>
        <rect id="Rectangle-Copy-76" fill="#FFFFFF" opacity="0.360584077" x="33" y="271" width="398" height="22" rx="8"></rect>
        <rect id="Rectangle-Copy-94" fill="#FFFFFF" opacity="0.400111607" x="33" y="362" width="379" height="22" rx="8"></rect>
        <rect id="Rectangle-Copy-97" fill="#FFFFFF" opacity="0.323358445" x="33" y="453" width="379" height="22" rx="8"></rect>
        <rect id="Rectangle-Copy-71" stroke="#905FDF" fill="#AE7DFD" x="33.5" y="151.5" width="411" height="21" rx="8"></rect>
        <polyline id="Path-2-Copy-5" stroke="#FFFFFF" stroke-width="2" opacity="0.291364397" stroke-linecap="round" stroke-linejoin="round" transform="translate(129.784180, 138.810872) scale(-1, -1) rotate(110.000000) translate(-129.784180, -138.810872) " points="124.087288 126.813426 128.793498 130.574337 127.317426 136.561191 132.40386 140.457325 130.549238 146.323972 135.481071 150.808319"></polyline>
        <polyline id="Path-2-Copy-5" stroke="#FFFFFF" stroke-width="2" opacity="0.291364397" stroke-linecap="round" stroke-linejoin="round" transform="translate(59.784180, 161.810872) scale(-1, -1) rotate(110.000000) translate(-59.784180, -161.810872) " points="54.0872883 149.813426 58.7934985 153.574337 57.317426 159.561191 62.4038602 163.457325 60.5492377 169.323972 65.4810711 173.808319"></polyline>
        <g id="Rectangle-Copy-60">
            <use fill="black" fill-opacity="1" filter="url(#filter-2)" xlink:href="#path-1"></use>
            <rect stroke-opacity="0.370602054" stroke="#E1E1E1" stroke-width="1" stroke-linejoin="square" fill="#FFFFFF" fill-rule="evenodd" x="569.5" y="52.5" width="328" height="447" rx="32"></rect>
        </g>
        <rect id="Rectangle-Copy-65" stroke="#919191" fill="#C8DCE3" opacity="0.1820359" x="599.5" y="290.5" width="269" height="21" rx="10.5"></rect>
        <polyline id="Path-2-Copy-9" stroke="#C3C3C3" stroke-width="2" opacity="0.291364397" stroke-linecap="round" stroke-linejoin="round" transform="translate(625.284180, 300.810872) scale(-1, -1) rotate(110.000000) translate(-625.284180, -300.810872) " points="619.587288 288.813426 624.293498 292.574337 622.817426 298.561191 627.90386 302.457325 626.049238 308.323972 630.981071 312.808319"></polyline>
        <g id="Group-5" transform="translate(598.587288, 375.813426)">
            <polyline id="Path-2-Copy-10" stroke="#C3C3C3" stroke-width="2" opacity="0.291364397" stroke-linecap="round" stroke-linejoin="round" transform="translate(26.696891, 43.997447) scale(-1, -1) rotate(110.000000) translate(-26.696891, -43.997447) " points="21 32 25.7062102 35.7609113 24.2301377 41.7477653 29.3165719 45.6438996 27.4619494 51.5105463 32.3937828 55.9948937"></polyline>
            <rect id="Rectangle-Copy-88" stroke="#919191" fill="#C8DCE3" opacity="0.1820359" x="0.912711703" y="31.6865745" width="269" height="21" rx="10.5"></rect>
            <path d="M2.65685233,20.6865745 L2.65685233,16.8252463 L4.18028983,16.8252463 L6.4361492,20.6865745 L7.8423992,20.6865745 L5.5220867,16.7490745 C6.20568045,16.6436057 6.72911795,16.3867698 7.0923992,15.9785667 C7.45568045,15.5703635 7.63732108,15.0166526 7.63732108,14.3174338 C7.63732108,13.4658713 7.37560233,12.8340354 6.85216483,12.421926 C6.32872733,12.0098167 5.60997733,11.803762 4.69591483,11.803762 L4.69591483,11.803762 L1.43224295,11.803762 L1.43224295,20.6865745 L2.65685233,20.6865745 Z M4.68419608,15.6592307 L2.65685233,15.6592307 L2.65685233,12.9697776 L4.68419608,12.9697776 C5.26232108,12.9697776 5.69493827,13.0791526 5.98204764,13.2979026 C6.26915702,13.5166526 6.4127117,13.8604026 6.4127117,14.3291526 C6.4127117,14.5869651 6.37071952,14.8047385 6.28673514,14.9824729 C6.20275077,15.1602073 6.08068045,15.296926 5.9205242,15.3926292 C5.76036795,15.4883323 5.58068045,15.5566917 5.3814617,15.5977073 C5.18224295,15.6387229 4.94982108,15.6592307 4.68419608,15.6592307 L4.68419608,15.6592307 Z M11.3052898,20.8447776 C11.7974773,20.8447776 12.2564617,20.7383323 12.682243,20.5254417 C13.1080242,20.312551 13.4537273,20.0186057 13.7193523,19.6436057 L13.7193523,19.6436057 L12.8990398,19.0166526 C12.7232586,19.2627463 12.4927898,19.4541526 12.2076336,19.5908713 C11.9224773,19.7275901 11.6216961,19.7959495 11.3052898,19.7959495 C10.8287273,19.7959495 10.4215008,19.6504417 10.0836101,19.359426 C9.74571952,19.0684104 9.53575858,18.6982932 9.45372733,18.2490745 L9.45372733,18.2490745 L14.1236492,18.2490745 C14.1392742,18.0928245 14.1470867,17.9619651 14.1470867,17.8564963 C14.1470867,17.4619651 14.0738445,17.0830588 13.9273601,16.7197776 C13.7808758,16.3564963 13.5806805,16.0400901 13.3267742,15.7705588 C13.072868,15.5010276 12.7642742,15.2852073 12.400993,15.1230979 C12.0377117,14.9609885 11.6490398,14.8799338 11.2349773,14.8799338 C10.6802898,14.8799338 10.1783367,15.0176292 9.72911795,15.2930198 C9.2798992,15.5684104 8.93224295,15.9336448 8.6861492,16.3887229 C8.44005545,16.843801 8.31700858,17.3369651 8.31700858,17.8682151 C8.31700858,18.7041526 8.60704764,19.4092307 9.18712577,19.9834495 C9.76720389,20.5576682 10.4732586,20.8447776 11.3052898,20.8447776 Z M12.9752117,17.3408713 L9.49474295,17.3408713 C9.6002117,16.9268088 9.81017264,16.5889182 10.1246258,16.3271995 C10.4390789,16.0654807 10.8131023,15.9346213 11.2466961,15.9346213 C11.6920086,15.9346213 12.0738445,16.0684104 12.3922039,16.3359885 C12.7105633,16.6035667 12.9048992,16.9385276 12.9752117,17.3408713 L12.9752117,17.3408713 Z M18.0142742,20.6865745 L19.4439617,16.585012 L20.8795086,20.6865745 L22.0806805,20.6865745 L24.2310711,14.9854026 L22.947868,14.9854026 L21.4713055,19.1865745 L19.9713055,14.9854026 L18.8990398,14.9854026 L17.3990398,19.1865745 L15.9283367,14.9854026 L14.650993,14.9854026 L16.7896648,20.6865745 L18.0142742,20.6865745 Z M27.7818523,20.8447776 C28.5826336,20.8447776 29.2193523,20.5674338 29.6920086,20.0127463 L29.6920086,20.0127463 L29.6920086,20.6865745 L30.8404461,20.6865745 L30.8404461,14.9854026 L29.6920086,14.9854026 L29.6920086,15.7178245 C29.2037273,15.1592307 28.5670086,14.8799338 27.7818523,14.8799338 C27.3716961,14.8799338 26.9810711,14.9570823 26.6099773,15.1113792 C26.2388836,15.265676 25.9185711,15.4746604 25.6490398,15.7383323 C25.3795086,16.0020042 25.1656414,16.319387 25.0074383,16.6904807 C24.8492351,17.0615745 24.7701336,17.4541526 24.7701336,17.8682151 C24.7701336,18.2783713 24.8482586,18.6680198 25.0045086,19.0371604 C25.1607586,19.406301 25.3726726,19.7227073 25.6402508,19.9863792 C25.9078289,20.250051 26.2271648,20.4590354 26.5982586,20.6133323 C26.9693523,20.7676292 27.3638836,20.8447776 27.7818523,20.8447776 Z M27.7818523,19.7607932 C27.2506023,19.7607932 26.8052898,19.5791526 26.4459148,19.2158713 C26.0865398,18.8525901 25.9068523,18.4033713 25.9068523,17.8682151 C25.9068523,17.3369651 26.0865398,16.8877463 26.4459148,16.5205588 C26.8052898,16.1533713 27.2506023,15.9697776 27.7818523,15.9697776 C28.3131023,15.9697776 28.760368,16.1553245 29.1236492,16.5264182 C29.4869305,16.897512 29.6685711,17.3447776 29.6685711,17.8682151 C29.6685711,18.3916526 29.4888836,18.8379417 29.1295086,19.2070823 C28.7701336,19.5762229 28.3209148,19.7607932 27.7818523,19.7607932 Z M33.9107586,20.6865745 L33.9107586,17.7334495 C33.9107586,17.4639182 33.9390789,17.2324729 33.9957195,17.0391135 C34.0523601,16.8457542 34.1568523,16.6641135 34.3091961,16.4941917 C34.4615398,16.3242698 34.6890789,16.1963401 34.9918133,16.1104026 C35.2945476,16.0244651 35.6744305,15.9814963 36.1314617,15.9814963 L36.1314617,15.9814963 L36.1314617,14.8799338 C35.5494305,14.8799338 35.1002117,14.9326682 34.7838055,15.038137 C34.4673992,15.1436057 34.1763836,15.3545432 33.9107586,15.6709495 L33.9107586,15.6709495 L33.9107586,14.9854026 L32.7623211,14.9854026 L32.7623211,20.6865745 L33.9107586,20.6865745 Z M39.588493,20.8447776 C40.3892742,20.8447776 41.025993,20.5674338 41.4986492,20.0127463 L41.4986492,20.0127463 L41.4986492,20.6865745 L42.6470867,20.6865745 L42.6470867,11.803762 L41.4986492,11.803762 L41.4986492,15.7178245 C41.010368,15.1592307 40.3736492,14.8799338 39.588493,14.8799338 C39.1783367,14.8799338 38.7877117,14.9570823 38.416618,15.1113792 C38.0455242,15.265676 37.7252117,15.4746604 37.4556805,15.7383323 C37.1861492,16.0020042 36.972282,16.319387 36.8140789,16.6904807 C36.6558758,17.0615745 36.5767742,17.4541526 36.5767742,17.8682151 C36.5767742,18.2783713 36.6548992,18.6680198 36.8111492,19.0371604 C36.9673992,19.406301 37.1793133,19.7227073 37.4468914,19.9863792 C37.7144695,20.250051 38.0338055,20.4590354 38.4048992,20.6133323 C38.775993,20.7676292 39.1705242,20.8447776 39.588493,20.8447776 Z M39.588493,19.7607932 C39.057243,19.7607932 38.6119305,19.5791526 38.2525555,19.2158713 C37.8931805,18.8525901 37.713493,18.4033713 37.713493,17.8682151 C37.713493,17.3369651 37.8931805,16.8877463 38.2525555,16.5205588 C38.6119305,16.1533713 39.057243,15.9697776 39.588493,15.9697776 C40.119743,15.9697776 40.5670086,16.1553245 40.9302898,16.5264182 C41.2935711,16.897512 41.4752117,17.3447776 41.4752117,17.8682151 C41.4752117,18.3916526 41.2955242,18.8379417 40.9361492,19.2070823 C40.5767742,19.5762229 40.1275555,19.7607932 39.588493,19.7607932 Z M45.5533367,16.4736838 C45.7642742,16.4736838 45.9390789,16.4023948 46.0777508,16.2598167 C46.2164226,16.1172385 46.2857586,15.9404807 46.2857586,15.7295432 C46.2857586,15.5186057 46.2164226,15.3418479 46.0777508,15.1992698 C45.9390789,15.0566917 45.7642742,14.9854026 45.5533367,14.9854026 C45.3423992,14.9854026 45.1656414,15.0566917 45.0230633,15.1992698 C44.8804851,15.3418479 44.8091961,15.5186057 44.8091961,15.7295432 C44.8091961,15.9404807 44.8795086,16.1182151 45.0201336,16.2627463 C45.1646648,16.4033713 45.3423992,16.4736838 45.5533367,16.4736838 Z M45.5533367,20.756887 C45.7642742,20.756887 45.9390789,20.6855979 46.0777508,20.5430198 C46.2164226,20.4004417 46.2857586,20.2236838 46.2857586,20.0127463 C46.2857586,19.8018088 46.2164226,19.6270042 46.0777508,19.4883323 C45.9390789,19.3496604 45.7642742,19.2803245 45.5533367,19.2803245 C45.3423992,19.2803245 45.1656414,19.3496604 45.0230633,19.4883323 C44.8804851,19.6270042 44.8091961,19.8018088 44.8091961,20.0127463 C44.8091961,20.2236838 44.8795086,20.4014182 45.0201336,20.5459495 C45.1646648,20.6865745 45.3423992,20.756887 45.5533367,20.756887 Z" id="Reward:" fill="#1A1834" fill-rule="nonzero" opacity="0.701799665"></path>
        </g>
        <rect id="Rectangle-Copy-66" stroke="#919191" fill="#C8DCE3" opacity="0.1820359" x="599.5" y="348" width="23" height="23" rx="11"></rect>
        <rect id="Rectangle-Copy-79" stroke="#919191" fill="#C8DCE3" opacity="0.1820359" x="627.5" y="348" width="23" height="23" rx="11"></rect>
        <rect id="Rectangle-Copy-81" stroke="#919191" fill="#C8DCE3" opacity="0.1820359" x="655.5" y="348" width="23" height="23" rx="11"></rect>
        <rect id="Rectangle-Copy-83" stroke="#919191" fill="#C8DCE3" opacity="0.1820359" x="683.5" y="348" width="23" height="23" rx="11"></rect>
        <rect id="Rectangle-Copy-84" stroke="#919191" fill="#C8DCE3" opacity="0.1820359" x="711.5" y="348" width="23" height="23" rx="11"></rect>
        <rect id="Rectangle-Copy-85" stroke="#919191" fill="#C8DCE3" opacity="0.1820359" x="739.5" y="348" width="23" height="23" rx="11"></rect>
        <rect id="Rectangle-Copy-86" stroke="#919191" fill="#C8DCE3" opacity="0.1820359" x="767.5" y="348" width="23" height="23" rx="11"></rect>
        <rect id="Rectangle-Copy-87" stroke="#919191" fill="#C8DCE3" opacity="0.1820359" x="795.5" y="348" width="23" height="23" rx="11"></rect>
        <rect id="Rectangle-Copy-89" stroke="#919191" fill="#C8DCE3" opacity="0.1820359" x="823.5" y="348.5" width="23" height="23" rx="11"></rect>
        <path d="M601.244141,336.5 L601.244141,332.638672 L602.767578,332.638672 L605.023438,336.5 L606.429688,336.5 L604.109375,332.5625 C604.792969,332.457031 605.316406,332.200195 605.679688,331.791992 C606.042969,331.383789 606.224609,330.830078 606.224609,330.130859 C606.224609,329.279297 605.962891,328.647461 605.439453,328.235352 C604.916016,327.823242 604.197266,327.617188 603.283203,327.617188 L603.283203,327.617188 L600.019531,327.617188 L600.019531,336.5 L601.244141,336.5 Z M603.271484,331.472656 L601.244141,331.472656 L601.244141,328.783203 L603.271484,328.783203 C603.849609,328.783203 604.282227,328.892578 604.569336,329.111328 C604.856445,329.330078 605,329.673828 605,330.142578 C605,330.400391 604.958008,330.618164 604.874023,330.795898 C604.790039,330.973633 604.667969,331.110352 604.507812,331.206055 C604.347656,331.301758 604.167969,331.370117 603.96875,331.411133 C603.769531,331.452148 603.537109,331.472656 603.271484,331.472656 L603.271484,331.472656 Z M609.892578,336.658203 C610.384766,336.658203 610.84375,336.551758 611.269531,336.338867 C611.695312,336.125977 612.041016,335.832031 612.306641,335.457031 L612.306641,335.457031 L611.486328,334.830078 C611.310547,335.076172 611.080078,335.267578 610.794922,335.404297 C610.509766,335.541016 610.208984,335.609375 609.892578,335.609375 C609.416016,335.609375 609.008789,335.463867 608.670898,335.172852 C608.333008,334.881836 608.123047,334.511719 608.041016,334.0625 L608.041016,334.0625 L612.710938,334.0625 C612.726562,333.90625 612.734375,333.775391 612.734375,333.669922 C612.734375,333.275391 612.661133,332.896484 612.514648,332.533203 C612.368164,332.169922 612.167969,331.853516 611.914062,331.583984 C611.660156,331.314453 611.351562,331.098633 610.988281,330.936523 C610.625,330.774414 610.236328,330.693359 609.822266,330.693359 C609.267578,330.693359 608.765625,330.831055 608.316406,331.106445 C607.867188,331.381836 607.519531,331.74707 607.273438,332.202148 C607.027344,332.657227 606.904297,333.150391 606.904297,333.681641 C606.904297,334.517578 607.194336,335.222656 607.774414,335.796875 C608.354492,336.371094 609.060547,336.658203 609.892578,336.658203 Z M611.5625,333.154297 L608.082031,333.154297 C608.1875,332.740234 608.397461,332.402344 608.711914,332.140625 C609.026367,331.878906 609.400391,331.748047 609.833984,331.748047 C610.279297,331.748047 610.661133,331.881836 610.979492,332.149414 C611.297852,332.416992 611.492188,332.751953 611.5625,333.154297 L611.5625,333.154297 Z M616.830078,336.5 L619.167969,330.798828 L617.919922,330.798828 L616.191406,335.058594 L614.486328,330.798828 L613.238281,330.798828 L615.59375,336.5 L616.830078,336.5 Z M620.832031,329.673828 C621.042969,329.673828 621.217773,329.602539 621.356445,329.459961 C621.495117,329.317383 621.564453,329.140625 621.564453,328.929688 C621.564453,328.71875 621.495117,328.541992 621.356445,328.399414 C621.217773,328.256836 621.042969,328.185547 620.832031,328.185547 C620.621094,328.185547 620.444336,328.256836 620.301758,328.399414 C620.15918,328.541992 620.087891,328.71875 620.087891,328.929688 C620.087891,329.140625 620.158203,329.318359 620.298828,329.462891 C620.443359,329.603516 620.621094,329.673828 620.832031,329.673828 Z M621.40625,336.5 L621.40625,330.798828 L620.246094,330.798828 L620.246094,336.5 L621.40625,336.5 Z M625.835938,336.658203 C626.328125,336.658203 626.787109,336.551758 627.212891,336.338867 C627.638672,336.125977 627.984375,335.832031 628.25,335.457031 L628.25,335.457031 L627.429688,334.830078 C627.253906,335.076172 627.023438,335.267578 626.738281,335.404297 C626.453125,335.541016 626.152344,335.609375 625.835938,335.609375 C625.359375,335.609375 624.952148,335.463867 624.614258,335.172852 C624.276367,334.881836 624.066406,334.511719 623.984375,334.0625 L623.984375,334.0625 L628.654297,334.0625 C628.669922,333.90625 628.677734,333.775391 628.677734,333.669922 C628.677734,333.275391 628.604492,332.896484 628.458008,332.533203 C628.311523,332.169922 628.111328,331.853516 627.857422,331.583984 C627.603516,331.314453 627.294922,331.098633 626.931641,330.936523 C626.568359,330.774414 626.179688,330.693359 625.765625,330.693359 C625.210938,330.693359 624.708984,330.831055 624.259766,331.106445 C623.810547,331.381836 623.462891,331.74707 623.216797,332.202148 C622.970703,332.657227 622.847656,333.150391 622.847656,333.681641 C622.847656,334.517578 623.137695,335.222656 623.717773,335.796875 C624.297852,336.371094 625.003906,336.658203 625.835938,336.658203 Z M627.505859,333.154297 L624.025391,333.154297 C624.130859,332.740234 624.34082,332.402344 624.655273,332.140625 C624.969727,331.878906 625.34375,331.748047 625.777344,331.748047 C626.222656,331.748047 626.604492,331.881836 626.922852,332.149414 C627.241211,332.416992 627.435547,332.751953 627.505859,333.154297 L627.505859,333.154297 Z M632.544922,336.5 L633.974609,332.398438 L635.410156,336.5 L636.611328,336.5 L638.761719,330.798828 L637.478516,330.798828 L636.001953,335 L634.501953,330.798828 L633.429688,330.798828 L631.929688,335 L630.458984,330.798828 L629.181641,330.798828 L631.320312,336.5 L632.544922,336.5 Z M641.515625,336.658203 C642.160156,336.658203 642.673828,336.5 643.056641,336.183594 C643.439453,335.867188 643.630859,335.4375 643.630859,334.894531 C643.630859,334.617188 643.576172,334.375 643.466797,334.167969 C643.357422,333.960938 643.216797,333.797852 643.044922,333.678711 C642.873047,333.55957 642.681641,333.457031 642.470703,333.371094 C642.259766,333.285156 642.048828,333.211914 641.837891,333.151367 C641.626953,333.09082 641.435547,333.02832 641.263672,332.963867 C641.091797,332.899414 640.951172,332.816406 640.841797,332.714844 C640.732422,332.613281 640.677734,332.490234 640.677734,332.345703 C640.677734,332.177734 640.748047,332.036133 640.888672,331.920898 C641.029297,331.805664 641.234375,331.748047 641.503906,331.748047 C641.972656,331.748047 642.410156,331.896484 642.816406,332.193359 L642.816406,332.193359 L643.425781,331.337891 C642.894531,330.908203 642.25,330.693359 641.492188,330.693359 C640.902344,330.693359 640.428711,330.859375 640.071289,331.191406 C639.713867,331.523438 639.535156,331.953125 639.535156,332.480469 C639.535156,332.757812 639.589844,332.998047 639.699219,333.201172 C639.808594,333.404297 639.950195,333.561523 640.124023,333.672852 C640.297852,333.78418 640.490234,333.879883 640.701172,333.959961 C640.912109,334.040039 641.123047,334.107422 641.333984,334.162109 C641.544922,334.216797 641.737305,334.274414 641.911133,334.334961 C642.084961,334.395508 642.226562,334.477539 642.335938,334.581055 C642.445312,334.68457 642.5,334.8125 642.5,334.964844 C642.5,335.160156 642.416992,335.316406 642.250977,335.433594 C642.084961,335.550781 641.851562,335.609375 641.550781,335.609375 C640.964844,335.609375 640.433594,335.414062 639.957031,335.023438 L639.957031,335.023438 L639.335938,335.914062 C639.988281,336.410156 640.714844,336.658203 641.515625,336.658203 Z M646.074219,332.287109 C646.285156,332.287109 646.459961,332.21582 646.598633,332.073242 C646.737305,331.930664 646.806641,331.753906 646.806641,331.542969 C646.806641,331.332031 646.737305,331.155273 646.598633,331.012695 C646.459961,330.870117 646.285156,330.798828 646.074219,330.798828 C645.863281,330.798828 645.686523,330.870117 645.543945,331.012695 C645.401367,331.155273 645.330078,331.332031 645.330078,331.542969 C645.330078,331.753906 645.400391,331.931641 645.541016,332.076172 C645.685547,332.216797 645.863281,332.287109 646.074219,332.287109 Z M646.074219,336.570312 C646.285156,336.570312 646.459961,336.499023 646.598633,336.356445 C646.737305,336.213867 646.806641,336.037109 646.806641,335.826172 C646.806641,335.615234 646.737305,335.44043 646.598633,335.301758 C646.459961,335.163086 646.285156,335.09375 646.074219,335.09375 C645.863281,335.09375 645.686523,335.163086 645.543945,335.301758 C645.401367,335.44043 645.330078,335.615234 645.330078,335.826172 C645.330078,336.037109 645.400391,336.214844 645.541016,336.359375 C645.685547,336.5 645.863281,336.570312 646.074219,336.570312 Z" id="Reviews:" fill="#1A1834" fill-rule="nonzero" opacity="0.701799665"></path>
        <path d="M604.003906,92.6582031 C605.230469,92.6582031 606.298828,92.2167969 607.208984,91.3339844 L607.208984,91.3339844 L606.40625,90.53125 C606.089844,90.8398438 605.723633,91.0849609 605.307617,91.2666016 C604.891602,91.4482422 604.457031,91.5390625 604.003906,91.5390625 C603.554688,91.5390625 603.121094,91.4462891 602.703125,91.2607422 C602.285156,91.0751953 601.922852,90.8271484 601.616211,90.5166016 C601.30957,90.2060547 601.064453,89.8359375 600.880859,89.40625 C600.697266,88.9765625 600.605469,88.53125 600.605469,88.0703125 C600.605469,87.6171875 600.695312,87.1777344 600.875,86.7519531 C601.054688,86.3261719 601.295898,85.9550781 601.598633,85.6386719 C601.901367,85.3222656 602.266602,85.0683594 602.694336,84.8769531 C603.12207,84.6855469 603.570312,84.5898438 604.039062,84.5898438 C604.5,84.5898438 604.939453,84.6806641 605.357422,84.8623047 C605.775391,85.0439453 606.144531,85.3027344 606.464844,85.6386719 L606.464844,85.6386719 L607.337891,84.8652344 C606.908203,84.4199219 606.40918,84.0771484 605.84082,83.8369141 C605.272461,83.5966797 604.664062,83.4765625 604.015625,83.4765625 C603.375,83.4765625 602.768555,83.5966797 602.196289,83.8369141 C601.624023,84.0771484 601.132812,84.4013672 600.722656,84.8095703 C600.3125,85.2177734 599.987305,85.7050781 599.74707,86.2714844 C599.506836,86.8378906 599.386719,87.4335938 599.386719,88.0585938 C599.386719,88.90625 599.595703,89.6835938 600.013672,90.390625 C600.431641,91.0976562 600.994141,91.6523438 601.701172,92.0546875 C602.408203,92.4570312 603.175781,92.6582031 604.003906,92.6582031 Z M610.050781,92.6582031 C610.230469,92.6582031 610.441406,92.6289062 610.683594,92.5703125 L610.683594,92.5703125 L610.683594,91.5625 C610.613281,91.5703125 610.517578,91.5742188 610.396484,91.5742188 C610.123047,91.5742188 609.936523,91.5058594 609.836914,91.3691406 C609.737305,91.2324219 609.6875,91.0058594 609.6875,90.6894531 L609.6875,90.6894531 L609.6875,83.6171875 L608.539062,83.6171875 L608.539062,91.046875 C608.539062,91.5625 608.672852,91.9599609 608.94043,92.2392578 C609.208008,92.5185547 609.578125,92.6582031 610.050781,92.6582031 Z M614.304688,92.6582031 C615.105469,92.6582031 615.742188,92.3808594 616.214844,91.8261719 L616.214844,91.8261719 L616.214844,92.5 L617.363281,92.5 L617.363281,86.7988281 L616.214844,86.7988281 L616.214844,87.53125 C615.726562,86.9726562 615.089844,86.6933594 614.304688,86.6933594 C613.894531,86.6933594 613.503906,86.7705078 613.132812,86.9248047 C612.761719,87.0791016 612.441406,87.2880859 612.171875,87.5517578 C611.902344,87.8154297 611.688477,88.1328125 611.530273,88.5039062 C611.37207,88.875 611.292969,89.2675781 611.292969,89.6816406 C611.292969,90.0917969 611.371094,90.4814453 611.527344,90.8505859 C611.683594,91.2197266 611.895508,91.5361328 612.163086,91.7998047 C612.430664,92.0634766 612.75,92.2724609 613.121094,92.4267578 C613.492188,92.5810547 613.886719,92.6582031 614.304688,92.6582031 Z M614.304688,91.5742188 C613.773438,91.5742188 613.328125,91.3925781 612.96875,91.0292969 C612.609375,90.6660156 612.429688,90.2167969 612.429688,89.6816406 C612.429688,89.1503906 612.609375,88.7011719 612.96875,88.3339844 C613.328125,87.9667969 613.773438,87.7832031 614.304688,87.7832031 C614.835938,87.7832031 615.283203,87.96875 615.646484,88.3398438 C616.009766,88.7109375 616.191406,89.1582031 616.191406,89.6816406 C616.191406,90.2050781 616.011719,90.6513672 615.652344,91.0205078 C615.292969,91.3896484 614.84375,91.5742188 614.304688,91.5742188 Z M619.871094,85.6738281 C620.082031,85.6738281 620.256836,85.6025391 620.395508,85.4599609 C620.53418,85.3173828 620.603516,85.140625 620.603516,84.9296875 C620.603516,84.71875 620.53418,84.5419922 620.395508,84.3994141 C620.256836,84.2568359 620.082031,84.1855469 619.871094,84.1855469 C619.660156,84.1855469 619.483398,84.2568359 619.34082,84.3994141 C619.198242,84.5419922 619.126953,84.71875 619.126953,84.9296875 C619.126953,85.140625 619.197266,85.3183594 619.337891,85.4628906 C619.482422,85.6035156 619.660156,85.6738281 619.871094,85.6738281 Z M620.445312,92.5 L620.445312,86.7988281 L619.285156,86.7988281 L619.285156,92.5 L620.445312,92.5 Z M623.515625,92.5 L623.515625,89.59375 C623.515625,88.3867188 623.972656,87.7832031 624.886719,87.7832031 C625.316406,87.7832031 625.620117,87.9228516 625.797852,88.2021484 C625.975586,88.4814453 626.064453,88.9179688 626.064453,89.5117188 L626.064453,89.5117188 L626.064453,92.5 L627.224609,92.5 L627.224609,89.59375 C627.224609,88.3867188 627.681641,87.7832031 628.595703,87.7832031 C629.025391,87.7832031 629.328125,87.9238281 629.503906,88.2050781 C629.679688,88.4863281 629.767578,88.921875 629.767578,89.5117188 L629.767578,89.5117188 L629.767578,92.5 L630.921875,92.5 L630.921875,89.2714844 C630.921875,88.4082031 630.733398,87.7626953 630.356445,87.3349609 C629.979492,86.9072266 629.460938,86.6933594 628.800781,86.6933594 C627.996094,86.6933594 627.363281,87.0449219 626.902344,87.7480469 C626.738281,87.3925781 626.496094,87.1279297 626.175781,86.9541016 C625.855469,86.7802734 625.490234,86.6933594 625.080078,86.6933594 C624.748047,86.6933594 624.459961,86.7509766 624.21582,86.8662109 C623.97168,86.9814453 623.738281,87.1640625 623.515625,87.4140625 L623.515625,87.4140625 L623.515625,86.7988281 L622.367188,86.7988281 L622.367188,92.5 L623.515625,92.5 Z M633.705078,88.2871094 C633.916016,88.2871094 634.09082,88.2158203 634.229492,88.0732422 C634.368164,87.9306641 634.4375,87.7539062 634.4375,87.5429688 C634.4375,87.3320312 634.368164,87.1552734 634.229492,87.0126953 C634.09082,86.8701172 633.916016,86.7988281 633.705078,86.7988281 C633.494141,86.7988281 633.317383,86.8701172 633.174805,87.0126953 C633.032227,87.1552734 632.960938,87.3320312 632.960938,87.5429688 C632.960938,87.7539062 633.03125,87.9316406 633.171875,88.0761719 C633.316406,88.2167969 633.494141,88.2871094 633.705078,88.2871094 Z M633.705078,92.5703125 C633.916016,92.5703125 634.09082,92.4990234 634.229492,92.3564453 C634.368164,92.2138672 634.4375,92.0371094 634.4375,91.8261719 C634.4375,91.6152344 634.368164,91.4404297 634.229492,91.3017578 C634.09082,91.1630859 633.916016,91.09375 633.705078,91.09375 C633.494141,91.09375 633.317383,91.1630859 633.174805,91.3017578 C633.032227,91.4404297 632.960938,91.6152344 632.960938,91.8261719 C632.960938,92.0371094 633.03125,92.2148438 633.171875,92.359375 C633.316406,92.5 633.494141,92.5703125 633.705078,92.5703125 Z" id="Claim:" fill="#1A1834" fill-rule="nonzero" opacity="0.701799665"></path>
        <rect id="Rectangle-Copy-60" stroke="#919191" fill="#C8DCE3" opacity="0.1820359" x="599.5" y="103.5" width="269" height="21" rx="8"></rect>
        <rect id="Rectangle-Copy-67" stroke="#919191" fill="#C8DCE3" opacity="0.1820359" x="599.5" y="127.5" width="269" height="21" rx="8"></rect>
        <rect id="Rectangle-Copy-62" stroke="#919191" fill="#C8DCE3" opacity="0.1820359" x="599.5" y="151.5" width="269" height="21" rx="8"></rect>
        <rect id="Rectangle-Copy-63" stroke="#919191" fill="#C8DCE3" opacity="0.1820359" x="599.5" y="175.5" width="269" height="21" rx="8"></rect>
        <rect id="Rectangle-Copy-61" stroke="#905FDF" fill="#AE7DFD" x="649.5" y="127.5" width="219" height="21" rx="8"></rect>
        <rect id="Rectangle-Copy-68" stroke="#905FDF" fill="#AE7DFD" x="599.5" y="151.5" width="201.909091" height="21" rx="8"></rect>
        <polyline id="Path-2-Copy-7" stroke="#FFFFFF" stroke-width="2" opacity="0.291364397" stroke-linecap="round" stroke-linejoin="round" transform="translate(625.284180, 162.810872) scale(-1, -1) rotate(110.000000) translate(-625.284180, -162.810872) " points="619.587288 150.813426 624.293498 154.574337 622.817426 160.561191 627.90386 164.457325 626.049238 170.323972 630.981071 174.808319"></polyline>
        <polyline id="Path-2-Copy-8" stroke="#FFFFFF" stroke-width="2" opacity="0.291364397" stroke-linecap="round" stroke-linejoin="round" transform="translate(671.284180, 138.810872) scale(-1, -1) rotate(110.000000) translate(-671.284180, -138.810872) " points="665.587288 126.813426 670.293498 130.574337 668.817426 136.561191 673.90386 140.457325 672.049238 146.323972 676.981071 150.808319"></polyline>
        <path d="M604.802425,221.511181 C605.881686,221.509865 607.234654,221.506138 608.861328,221.5 L608.861328,221.5 L608.861328,220.345703 L606.910156,220.345703 C607.496094,219.958984 607.93457,219.482422 608.225586,218.916016 C608.516602,218.349609 608.662109,217.722656 608.662109,217.035156 C608.662109,216.394531 608.541016,215.791016 608.298828,215.224609 C608.056641,214.658203 607.729492,214.173828 607.317383,213.771484 C606.905273,213.369141 606.413086,213.050781 605.84082,212.816406 C605.268555,212.582031 604.664062,212.464844 604.027344,212.464844 C603.375,212.464844 602.760742,212.584961 602.18457,212.825195 C601.608398,213.06543 601.116211,213.389648 600.708008,213.797852 C600.299805,214.206055 599.977539,214.691406 599.741211,215.253906 C599.504883,215.816406 599.386719,216.410156 599.386719,217.035156 C599.386719,217.667969 599.508789,218.263672 599.75293,218.822266 C599.99707,219.380859 600.325195,219.855469 600.737305,220.246094 C601.149414,220.636719 601.637695,220.945312 602.202148,221.171875 C602.766602,221.398438 603.359375,221.511719 603.980469,221.511719 L603.980469,221.511719 L604.802425,221.511181 Z M604.027344,220.386719 C603.394531,220.386719 602.818359,220.245117 602.298828,219.961914 C601.779297,219.678711 601.367188,219.28125 601.0625,218.769531 C600.757812,218.257812 600.605469,217.683594 600.605469,217.046875 C600.605469,216.578125 600.692383,216.131836 600.866211,215.708008 C601.040039,215.28418 601.276367,214.916992 601.575195,214.606445 C601.874023,214.295898 602.237305,214.048828 602.665039,213.865234 C603.092773,213.681641 603.546875,213.589844 604.027344,213.589844 C604.660156,213.589844 605.238281,213.741211 605.761719,214.043945 C606.285156,214.34668 606.695312,214.760742 606.992188,215.286133 C607.289062,215.811523 607.4375,216.394531 607.4375,217.035156 C607.4375,217.671875 607.287109,218.24707 606.986328,218.760742 C606.685547,219.274414 606.275391,219.673828 605.755859,219.958984 C605.236328,220.244141 604.660156,220.386719 604.027344,220.386719 Z M612.412109,221.658203 C614.138672,221.658203 615.001953,220.833984 615.001953,219.185547 L615.001953,219.185547 L615.001953,215.798828 L613.853516,215.798828 L613.853516,218.857422 C613.853516,219.142578 613.833984,219.383789 613.794922,219.581055 C613.755859,219.77832 613.68457,219.955078 613.581055,220.111328 C613.477539,220.267578 613.329102,220.383789 613.135742,220.459961 C612.942383,220.536133 612.701172,220.574219 612.412109,220.574219 C612.123047,220.574219 611.882812,220.536133 611.691406,220.459961 C611.5,220.383789 611.353516,220.267578 611.251953,220.111328 C611.150391,219.955078 611.080078,219.77832 611.041016,219.581055 C611.001953,219.383789 610.982422,219.142578 610.982422,218.857422 L610.982422,218.857422 L610.982422,215.798828 L609.816406,215.798828 L609.816406,219.185547 C609.816406,220.833984 610.681641,221.658203 612.412109,221.658203 Z M619.332031,221.658203 C619.824219,221.658203 620.283203,221.551758 620.708984,221.338867 C621.134766,221.125977 621.480469,220.832031 621.746094,220.457031 L621.746094,220.457031 L620.925781,219.830078 C620.75,220.076172 620.519531,220.267578 620.234375,220.404297 C619.949219,220.541016 619.648438,220.609375 619.332031,220.609375 C618.855469,220.609375 618.448242,220.463867 618.110352,220.172852 C617.772461,219.881836 617.5625,219.511719 617.480469,219.0625 L617.480469,219.0625 L622.150391,219.0625 C622.166016,218.90625 622.173828,218.775391 622.173828,218.669922 C622.173828,218.275391 622.100586,217.896484 621.954102,217.533203 C621.807617,217.169922 621.607422,216.853516 621.353516,216.583984 C621.099609,216.314453 620.791016,216.098633 620.427734,215.936523 C620.064453,215.774414 619.675781,215.693359 619.261719,215.693359 C618.707031,215.693359 618.205078,215.831055 617.755859,216.106445 C617.306641,216.381836 616.958984,216.74707 616.712891,217.202148 C616.466797,217.657227 616.34375,218.150391 616.34375,218.681641 C616.34375,219.517578 616.633789,220.222656 617.213867,220.796875 C617.793945,221.371094 618.5,221.658203 619.332031,221.658203 Z M621.001953,218.154297 L617.521484,218.154297 C617.626953,217.740234 617.836914,217.402344 618.151367,217.140625 C618.46582,216.878906 618.839844,216.748047 619.273438,216.748047 C619.71875,216.748047 620.100586,216.881836 620.418945,217.149414 C620.737305,217.416992 620.931641,217.751953 621.001953,218.154297 L621.001953,218.154297 Z M625.197266,221.658203 C625.841797,221.658203 626.355469,221.5 626.738281,221.183594 C627.121094,220.867188 627.3125,220.4375 627.3125,219.894531 C627.3125,219.617188 627.257812,219.375 627.148438,219.167969 C627.039062,218.960938 626.898438,218.797852 626.726562,218.678711 C626.554688,218.55957 626.363281,218.457031 626.152344,218.371094 C625.941406,218.285156 625.730469,218.211914 625.519531,218.151367 C625.308594,218.09082 625.117188,218.02832 624.945312,217.963867 C624.773438,217.899414 624.632812,217.816406 624.523438,217.714844 C624.414062,217.613281 624.359375,217.490234 624.359375,217.345703 C624.359375,217.177734 624.429688,217.036133 624.570312,216.920898 C624.710938,216.805664 624.916016,216.748047 625.185547,216.748047 C625.654297,216.748047 626.091797,216.896484 626.498047,217.193359 L626.498047,217.193359 L627.107422,216.337891 C626.576172,215.908203 625.931641,215.693359 625.173828,215.693359 C624.583984,215.693359 624.110352,215.859375 623.75293,216.191406 C623.395508,216.523438 623.216797,216.953125 623.216797,217.480469 C623.216797,217.757812 623.271484,217.998047 623.380859,218.201172 C623.490234,218.404297 623.631836,218.561523 623.805664,218.672852 C623.979492,218.78418 624.171875,218.879883 624.382812,218.959961 C624.59375,219.040039 624.804688,219.107422 625.015625,219.162109 C625.226562,219.216797 625.418945,219.274414 625.592773,219.334961 C625.766602,219.395508 625.908203,219.477539 626.017578,219.581055 C626.126953,219.68457 626.181641,219.8125 626.181641,219.964844 C626.181641,220.160156 626.098633,220.316406 625.932617,220.433594 C625.766602,220.550781 625.533203,220.609375 625.232422,220.609375 C624.646484,220.609375 624.115234,220.414062 623.638672,220.023438 L623.638672,220.023438 L623.017578,220.914062 C623.669922,221.410156 624.396484,221.658203 625.197266,221.658203 Z M630.511719,221.658203 C630.890625,221.658203 631.191406,221.613281 631.414062,221.523438 L631.414062,221.523438 L631.414062,220.492188 C631.277344,220.546875 631.064453,220.574219 630.775391,220.574219 C630.482422,220.574219 630.283203,220.5 630.177734,220.351562 C630.072266,220.203125 630.019531,219.957031 630.019531,219.613281 L630.019531,219.613281 L630.019531,216.894531 L631.566406,216.894531 L631.566406,215.798828 L630.019531,215.798828 L630.019531,213.865234 L628.853516,213.865234 L628.853516,215.798828 L627.957031,215.798828 L627.957031,216.894531 L628.853516,216.894531 L628.853516,219.748047 C628.853516,219.962891 628.865234,220.15625 628.888672,220.328125 C628.912109,220.5 628.959961,220.671875 629.032227,220.84375 C629.104492,221.015625 629.200195,221.158203 629.319336,221.271484 C629.438477,221.384766 629.598633,221.477539 629.799805,221.549805 C630.000977,221.62207 630.238281,221.658203 630.511719,221.658203 Z M633.494141,214.673828 C633.705078,214.673828 633.879883,214.602539 634.018555,214.459961 C634.157227,214.317383 634.226562,214.140625 634.226562,213.929688 C634.226562,213.71875 634.157227,213.541992 634.018555,213.399414 C633.879883,213.256836 633.705078,213.185547 633.494141,213.185547 C633.283203,213.185547 633.106445,213.256836 632.963867,213.399414 C632.821289,213.541992 632.75,213.71875 632.75,213.929688 C632.75,214.140625 632.820312,214.318359 632.960938,214.462891 C633.105469,214.603516 633.283203,214.673828 633.494141,214.673828 Z M634.068359,221.5 L634.068359,215.798828 L632.908203,215.798828 L632.908203,221.5 L634.068359,221.5 Z M638.498047,221.658203 C639.041016,221.658203 639.543945,221.524414 640.006836,221.256836 C640.469727,220.989258 640.835938,220.626953 641.105469,220.169922 C641.375,219.712891 641.509766,219.216797 641.509766,218.681641 C641.509766,218.142578 641.375,217.643555 641.105469,217.18457 C640.835938,216.725586 640.469727,216.362305 640.006836,216.094727 C639.543945,215.827148 639.041016,215.693359 638.498047,215.693359 C637.951172,215.693359 637.448242,215.828125 636.989258,216.097656 C636.530273,216.367188 636.168945,216.730469 635.905273,217.1875 C635.641602,217.644531 635.509766,218.142578 635.509766,218.681641 C635.509766,219.220703 635.642578,219.71875 635.908203,220.175781 C636.177734,220.632812 636.541992,220.994141 637.000977,221.259766 C637.459961,221.525391 637.958984,221.658203 638.498047,221.658203 Z M638.509766,220.574219 C637.990234,220.574219 637.549805,220.388672 637.188477,220.017578 C636.827148,219.646484 636.646484,219.205078 636.646484,218.693359 C636.646484,218.177734 636.826172,217.730469 637.185547,217.351562 C637.544922,216.972656 637.986328,216.783203 638.509766,216.783203 C639.025391,216.783203 639.463867,216.96875 639.825195,217.339844 C640.186523,217.710938 640.367188,218.154297 640.367188,218.669922 C640.367188,219.185547 640.1875,219.631836 639.828125,220.008789 C639.46875,220.385742 639.029297,220.574219 638.509766,220.574219 Z M644.09375,221.5 L644.09375,218.59375 C644.09375,217.386719 644.578125,216.783203 645.546875,216.783203 C646.476562,216.783203 646.941406,217.359375 646.941406,218.511719 L646.941406,218.511719 L646.941406,221.5 L648.101562,221.5 L648.101562,218.271484 C648.101562,217.412109 647.887695,216.767578 647.459961,216.337891 C647.032227,215.908203 646.462891,215.693359 645.751953,215.693359 C645.373047,215.693359 645.054688,215.754883 644.796875,215.87793 C644.539062,216.000977 644.304688,216.179688 644.09375,216.414062 L644.09375,216.414062 L644.09375,215.798828 L642.945312,215.798828 L642.945312,221.5 L644.09375,221.5 Z M650.884766,217.287109 C651.095703,217.287109 651.270508,217.21582 651.40918,217.073242 C651.547852,216.930664 651.617188,216.753906 651.617188,216.542969 C651.617188,216.332031 651.547852,216.155273 651.40918,216.012695 C651.270508,215.870117 651.095703,215.798828 650.884766,215.798828 C650.673828,215.798828 650.49707,215.870117 650.354492,216.012695 C650.211914,216.155273 650.140625,216.332031 650.140625,216.542969 C650.140625,216.753906 650.210938,216.931641 650.351562,217.076172 C650.496094,217.216797 650.673828,217.287109 650.884766,217.287109 Z M650.884766,221.570312 C651.095703,221.570312 651.270508,221.499023 651.40918,221.356445 C651.547852,221.213867 651.617188,221.037109 651.617188,220.826172 C651.617188,220.615234 651.547852,220.44043 651.40918,220.301758 C651.270508,220.163086 651.095703,220.09375 650.884766,220.09375 C650.673828,220.09375 650.49707,220.163086 650.354492,220.301758 C650.211914,220.44043 650.140625,220.615234 650.140625,220.826172 C650.140625,221.037109 650.210938,221.214844 650.351562,221.359375 C650.496094,221.5 650.673828,221.570312 650.884766,221.570312 Z" id="Question:" fill="#1A1834" fill-rule="nonzero" opacity="0.701799665"></path>
        <rect id="Rectangle-Copy-64" stroke="#919191" fill="#C8DCE3" opacity="0.1820359" x="599.5" y="233.5" width="269" height="21" rx="10.5"></rect>
        <polyline id="Path-2-Copy-9" stroke="#C3C3C3" stroke-width="2" opacity="0.291364397" stroke-linecap="round" stroke-linejoin="round" transform="translate(625.284180, 244.810872) scale(-1, -1) rotate(110.000000) translate(-625.284180, -244.810872) " points="619.587288 232.813426 624.293498 236.574337 622.817426 242.561191 627.90386 246.457325 626.049238 252.323972 630.981071 256.808319"></polyline>
        <g id="Group-25" transform="translate(599.000000, 445.000000)" fill="#1A1834" stroke="#FFFFFF" stroke-opacity="0.360494974" stroke-width="0.5">
            <rect id="Rectangle-Copy-80" x="0.25" y="0.25" width="269.5" height="39.5" rx="19.75"></rect>
        </g>
        <path d="M664.852539,469.5 L664.852539,465.621094 L667.922852,465.621094 L667.922852,464.109375 L664.852539,464.109375 L664.852539,462.134766 L668.790039,462.134766 L668.790039,460.617188 L663.282227,460.617188 L663.282227,469.5 L664.852539,469.5 Z M676.956055,469.5 L677.676758,467.601562 L681.50293,467.601562 L682.235352,469.5 L683.94043,469.5 L680.401367,460.617188 L678.801758,460.617188 L675.250977,469.5 L676.956055,469.5 Z M680.94043,466.101562 L678.239258,466.101562 L679.592773,462.574219 L680.94043,466.101562 Z M695.639648,469.658203 C696.249023,469.658203 696.824219,469.541016 697.365234,469.306641 C697.90625,469.072266 698.391602,468.748047 698.821289,468.333984 L698.821289,468.333984 L697.895508,467.232422 C697.610352,467.525391 697.265625,467.762695 696.861328,467.944336 C696.457031,468.125977 696.049805,468.216797 695.639648,468.216797 C695.081055,468.216797 694.56543,468.077148 694.092773,467.797852 C693.620117,467.518555 693.246094,467.138672 692.970703,466.658203 C692.695312,466.177734 692.557617,465.652344 692.557617,465.082031 C692.557617,464.515625 692.691406,463.989258 692.958984,463.50293 C693.226562,463.016602 693.59668,462.628906 694.069336,462.339844 C694.541992,462.050781 695.061523,461.90625 695.62793,461.90625 C696.577148,461.90625 697.356445,462.261719 697.96582,462.972656 L697.96582,462.972656 L698.950195,461.865234 C698.520508,461.423828 698.021484,461.080078 697.453125,460.833984 C696.884766,460.587891 696.276367,460.464844 695.62793,460.464844 C694.979492,460.464844 694.367188,460.586914 693.791016,460.831055 C693.214844,461.075195 692.722656,461.40332 692.314453,461.81543 C691.90625,462.227539 691.583984,462.716797 691.347656,463.283203 C691.111328,463.849609 690.993164,464.445312 690.993164,465.070312 C690.993164,465.917969 691.202148,466.694336 691.620117,467.399414 C692.038086,468.104492 692.602539,468.657227 693.313477,469.057617 C694.024414,469.458008 694.799805,469.658203 695.639648,469.658203 Z M710.918945,469.5 L710.918945,462.134766 L713.760742,462.134766 L713.760742,460.617188 L706.489258,460.617188 L706.489258,462.134766 L709.348633,462.134766 L709.348633,469.5 L710.918945,469.5 Z M736.057617,469.658203 C736.666992,469.658203 737.242188,469.541016 737.783203,469.306641 C738.324219,469.072266 738.80957,468.748047 739.239258,468.333984 L739.239258,468.333984 L738.313477,467.232422 C738.02832,467.525391 737.683594,467.762695 737.279297,467.944336 C736.875,468.125977 736.467773,468.216797 736.057617,468.216797 C735.499023,468.216797 734.983398,468.077148 734.510742,467.797852 C734.038086,467.518555 733.664062,467.138672 733.388672,466.658203 C733.113281,466.177734 732.975586,465.652344 732.975586,465.082031 C732.975586,464.515625 733.109375,463.989258 733.376953,463.50293 C733.644531,463.016602 734.014648,462.628906 734.487305,462.339844 C734.959961,462.050781 735.479492,461.90625 736.045898,461.90625 C736.995117,461.90625 737.774414,462.261719 738.383789,462.972656 L738.383789,462.972656 L739.368164,461.865234 C738.938477,461.423828 738.439453,461.080078 737.871094,460.833984 C737.302734,460.587891 736.694336,460.464844 736.045898,460.464844 C735.397461,460.464844 734.785156,460.586914 734.208984,460.831055 C733.632812,461.075195 733.140625,461.40332 732.732422,461.81543 C732.324219,462.227539 732.001953,462.716797 731.765625,463.283203 C731.529297,463.849609 731.411133,464.445312 731.411133,465.070312 C731.411133,465.917969 731.620117,466.694336 732.038086,467.399414 C732.456055,468.104492 733.020508,468.657227 733.731445,469.057617 C734.442383,469.458008 735.217773,469.658203 736.057617,469.658203 Z M749.139648,469.5 L749.139648,465.574219 L753.411133,465.574219 L753.411133,469.5 L754.987305,469.5 L754.987305,460.617188 L753.411133,460.617188 L753.411133,464.0625 L749.139648,464.0625 L749.139648,460.617188 L747.569336,460.617188 L747.569336,469.5 L749.139648,469.5 Z M769.52832,469.5 L769.52832,467.988281 L765.473633,467.988281 L765.473633,465.621094 L768.666992,465.621094 L768.666992,464.109375 L765.473633,464.109375 L765.473633,462.134766 L769.52832,462.134766 L769.52832,460.617188 L763.90332,460.617188 L763.90332,469.5 L769.52832,469.5 Z M781.948242,469.658203 C782.557617,469.658203 783.132812,469.541016 783.673828,469.306641 C784.214844,469.072266 784.700195,468.748047 785.129883,468.333984 L785.129883,468.333984 L784.204102,467.232422 C783.918945,467.525391 783.574219,467.762695 783.169922,467.944336 C782.765625,468.125977 782.358398,468.216797 781.948242,468.216797 C781.389648,468.216797 780.874023,468.077148 780.401367,467.797852 C779.928711,467.518555 779.554688,467.138672 779.279297,466.658203 C779.003906,466.177734 778.866211,465.652344 778.866211,465.082031 C778.866211,464.515625 779,463.989258 779.267578,463.50293 C779.535156,463.016602 779.905273,462.628906 780.37793,462.339844 C780.850586,462.050781 781.370117,461.90625 781.936523,461.90625 C782.885742,461.90625 783.665039,462.261719 784.274414,462.972656 L784.274414,462.972656 L785.258789,461.865234 C784.829102,461.423828 784.330078,461.080078 783.761719,460.833984 C783.193359,460.587891 782.584961,460.464844 781.936523,460.464844 C781.288086,460.464844 780.675781,460.586914 780.099609,460.831055 C779.523438,461.075195 779.03125,461.40332 778.623047,461.81543 C778.214844,462.227539 777.892578,462.716797 777.65625,463.283203 C777.419922,463.849609 777.301758,464.445312 777.301758,465.070312 C777.301758,465.917969 777.510742,466.694336 777.928711,467.399414 C778.34668,468.104492 778.911133,468.657227 779.62207,469.057617 C780.333008,469.458008 781.108398,469.658203 781.948242,469.658203 Z M795.030273,469.5 L795.030273,465.732422 L798.592773,469.5 L800.68457,469.5 L796.401367,465.058594 L800.368164,460.617188 L798.393555,460.617188 L795.030273,464.542969 L795.030273,460.617188 L793.459961,460.617188 L793.459961,469.5 L795.030273,469.5 Z" id="FACTCHECK" fill="#FFFFFF" fill-rule="nonzero"></path>
        <path d="M50.3066406,87.5 L50.3066406,79.7832031 L53.1308594,79.7832031 L53.1308594,78.6171875 L46.2402344,78.6171875 L46.2402344,79.7832031 L49.0703125,79.7832031 L49.0703125,87.5 L50.3066406,87.5 Z M55.9960938,87.6582031 C56.4882812,87.6582031 56.9472656,87.5517578 57.3730469,87.3388672 C57.7988281,87.1259766 58.1445312,86.8320312 58.4101562,86.4570312 L58.4101562,86.4570312 L57.5898438,85.8300781 C57.4140625,86.0761719 57.1835938,86.2675781 56.8984375,86.4042969 C56.6132812,86.5410156 56.3125,86.609375 55.9960938,86.609375 C55.5195312,86.609375 55.1123047,86.4638672 54.7744141,86.1728516 C54.4365234,85.8818359 54.2265625,85.5117188 54.1445312,85.0625 L54.1445312,85.0625 L58.8144531,85.0625 C58.8300781,84.90625 58.8378906,84.7753906 58.8378906,84.6699219 C58.8378906,84.2753906 58.7646484,83.8964844 58.6181641,83.5332031 C58.4716797,83.1699219 58.2714844,82.8535156 58.0175781,82.5839844 C57.7636719,82.3144531 57.4550781,82.0986328 57.0917969,81.9365234 C56.7285156,81.7744141 56.3398438,81.6933594 55.9257812,81.6933594 C55.3710938,81.6933594 54.8691406,81.8310547 54.4199219,82.1064453 C53.9707031,82.3818359 53.6230469,82.7470703 53.3769531,83.2021484 C53.1308594,83.6572266 53.0078125,84.1503906 53.0078125,84.6816406 C53.0078125,85.5175781 53.2978516,86.2226562 53.8779297,86.796875 C54.4580078,87.3710938 55.1640625,87.6582031 55.9960938,87.6582031 Z M57.6660156,84.1542969 L54.1855469,84.1542969 C54.2910156,83.7402344 54.5009766,83.4023438 54.8154297,83.140625 C55.1298828,82.8789062 55.5039062,82.7480469 55.9375,82.7480469 C56.3828125,82.7480469 56.7646484,82.8818359 57.0830078,83.1494141 C57.4013672,83.4169922 57.5957031,83.7519531 57.6660156,84.1542969 L57.6660156,84.1542969 Z M60.5722656,87.5 L61.9609375,85.4375 L63.3554688,87.5 L64.6386719,87.5 L62.6113281,84.5 L64.4570312,81.7988281 L63.1621094,81.7988281 L61.9609375,83.5625 L60.7597656,81.7988281 L59.4648438,81.7988281 L61.3164062,84.5 L59.2832031,87.5 L60.5722656,87.5 Z M67.6328125,87.6582031 C68.0117188,87.6582031 68.3125,87.6132812 68.5351562,87.5234375 L68.5351562,87.5234375 L68.5351562,86.4921875 C68.3984375,86.546875 68.1855469,86.5742188 67.8964844,86.5742188 C67.6035156,86.5742188 67.4042969,86.5 67.2988281,86.3515625 C67.1933594,86.203125 67.140625,85.9570312 67.140625,85.6132812 L67.140625,85.6132812 L67.140625,82.8945312 L68.6875,82.8945312 L68.6875,81.7988281 L67.140625,81.7988281 L67.140625,79.8652344 L65.9746094,79.8652344 L65.9746094,81.7988281 L65.078125,81.7988281 L65.078125,82.8945312 L65.9746094,82.8945312 L65.9746094,85.7480469 C65.9746094,85.9628906 65.9863281,86.15625 66.0097656,86.328125 C66.0332031,86.5 66.0810547,86.671875 66.1533203,86.84375 C66.2255859,87.015625 66.3212891,87.1582031 66.4404297,87.2714844 C66.5595703,87.3847656 66.7197266,87.4775391 66.9208984,87.5498047 C67.1220703,87.6220703 67.359375,87.6582031 67.6328125,87.6582031 Z M71.0136719,83.2871094 C71.2246094,83.2871094 71.3994141,83.2158203 71.5380859,83.0732422 C71.6767578,82.9306641 71.7460938,82.7539062 71.7460938,82.5429688 C71.7460938,82.3320312 71.6767578,82.1552734 71.5380859,82.0126953 C71.3994141,81.8701172 71.2246094,81.7988281 71.0136719,81.7988281 C70.8027344,81.7988281 70.6259766,81.8701172 70.4833984,82.0126953 C70.3408203,82.1552734 70.2695312,82.3320312 70.2695312,82.5429688 C70.2695312,82.7539062 70.3398438,82.9316406 70.4804688,83.0761719 C70.625,83.2167969 70.8027344,83.2871094 71.0136719,83.2871094 Z M71.0136719,87.5703125 C71.2246094,87.5703125 71.3994141,87.4990234 71.5380859,87.3564453 C71.6767578,87.2138672 71.7460938,87.0371094 71.7460938,86.8261719 C71.7460938,86.6152344 71.6767578,86.4404297 71.5380859,86.3017578 C71.3994141,86.1630859 71.2246094,86.09375 71.0136719,86.09375 C70.8027344,86.09375 70.6259766,86.1630859 70.4833984,86.3017578 C70.3408203,86.4404297 70.2695312,86.6152344 70.2695312,86.8261719 C70.2695312,87.0371094 70.3398438,87.2148438 70.4804688,87.359375 C70.625,87.5 70.8027344,87.5703125 71.0136719,87.5703125 Z" id="Text:" fill="#000000" fill-rule="nonzero" opacity="0.701799665"></path>
        <path d="M49.5742187,20.5 C49.9375,20.5 50.2763672,20.4697266 50.5908203,20.4091797 C50.9052734,20.3486328 51.1962891,20.2539062 51.4638672,20.125 C51.7314453,19.9960938 51.9619141,19.8359375 52.1552734,19.6445312 C52.3486328,19.453125 52.4990234,19.21875 52.6064453,18.9414062 C52.7138672,18.6640625 52.7675781,18.3554688 52.7675781,18.015625 C52.7675781,17.4648438 52.6308594,16.9931641 52.3574219,16.6005859 C52.0839844,16.2080078 51.6816406,15.9472656 51.1503906,15.8183594 C51.9980469,15.5058594 52.421875,14.8828125 52.421875,13.9492188 C52.421875,13.203125 52.1669922,12.6279297 51.6572266,12.2236328 C51.1474609,11.8193359 50.421875,11.6171875 49.4804687,11.6171875 L49.4804687,11.6171875 L47.0195312,11.6171875 L47.0195312,20.5 L49.5742187,20.5 Z M49.6503906,15.2792969 L48.2441406,15.2792969 L48.2441406,12.7714844 L49.5273437,12.7714844 C50.0703125,12.7714844 50.484375,12.8769531 50.7695312,13.0878906 C51.0546875,13.2988281 51.1972656,13.6171875 51.1972656,14.0429688 C51.1972656,14.8671875 50.6816406,15.2792969 49.6503906,15.2792969 L49.6503906,15.2792969 Z M49.5390625,19.3457031 L48.2441406,19.3457031 L48.2441406,16.4335938 L49.515625,16.4335938 C50.1640625,16.4335938 50.6640625,16.5566406 51.015625,16.8027344 C51.3671875,17.0488281 51.5429687,17.4179688 51.5429687,17.9101562 C51.5429687,18.4140625 51.3632812,18.7792969 51.0039062,19.0058594 C50.6445312,19.2324219 50.15625,19.3457031 49.5390625,19.3457031 L49.5390625,19.3457031 Z M55.2929687,20.5 L55.2929687,17.546875 C55.2929687,17.2773438 55.3212891,17.0458984 55.3779297,16.8525391 C55.4345703,16.6591797 55.5390625,16.4775391 55.6914062,16.3076172 C55.84375,16.1376953 56.0712891,16.0097656 56.3740234,15.9238281 C56.6767578,15.8378906 57.0566406,15.7949219 57.5136719,15.7949219 L57.5136719,15.7949219 L57.5136719,14.6933594 C56.9316406,14.6933594 56.4824219,14.7460938 56.1660156,14.8515625 C55.8496094,14.9570312 55.5585937,15.1679688 55.2929687,15.484375 L55.2929687,15.484375 L55.2929687,14.7988281 L54.1445312,14.7988281 L54.1445312,20.5 L55.2929687,20.5 Z M60.9472656,20.6582031 C61.4902344,20.6582031 61.9931641,20.5244141 62.4560547,20.2568359 C62.9189453,19.9892578 63.2851562,19.6269531 63.5546875,19.1699219 C63.8242187,18.7128906 63.9589844,18.2167969 63.9589844,17.6816406 C63.9589844,17.1425781 63.8242187,16.6435547 63.5546875,16.1845703 C63.2851562,15.7255859 62.9189453,15.3623047 62.4560547,15.0947266 C61.9931641,14.8271484 61.4902344,14.6933594 60.9472656,14.6933594 C60.4003906,14.6933594 59.8974609,14.828125 59.4384766,15.0976562 C58.9794922,15.3671875 58.6181641,15.7304688 58.3544922,16.1875 C58.0908203,16.6445312 57.9589844,17.1425781 57.9589844,17.6816406 C57.9589844,18.2207031 58.0917969,18.71875 58.3574219,19.1757812 C58.6269531,19.6328125 58.9912109,19.9941406 59.4501953,20.2597656 C59.9091797,20.5253906 60.4082031,20.6582031 60.9472656,20.6582031 Z M60.9589844,19.5742188 C60.4394531,19.5742188 59.9990234,19.3886719 59.6376953,19.0175781 C59.2763672,18.6464844 59.0957031,18.2050781 59.0957031,17.6933594 C59.0957031,17.1777344 59.2753906,16.7304688 59.6347656,16.3515625 C59.9941406,15.9726562 60.4355469,15.7832031 60.9589844,15.7832031 C61.4746094,15.7832031 61.9130859,15.96875 62.2744141,16.3398438 C62.6357422,16.7109375 62.8164062,17.1542969 62.8164062,17.6699219 C62.8164062,18.1855469 62.6367187,18.6318359 62.2773437,19.0087891 C61.9179687,19.3857422 61.4785156,19.5742188 60.9589844,19.5742188 Z M67.8554687,20.5 L69.2851562,16.3984375 L70.7207031,20.5 L71.921875,20.5 L74.0722656,14.7988281 L72.7890625,14.7988281 L71.3125,19 L69.8125,14.7988281 L68.7402344,14.7988281 L67.2402344,19 L65.7695312,14.7988281 L64.4921875,14.7988281 L66.6308594,20.5 L67.8554687,20.5 Z M76.8261719,20.6582031 C77.4707031,20.6582031 77.984375,20.5 78.3671875,20.1835938 C78.75,19.8671875 78.9414062,19.4375 78.9414062,18.8945312 C78.9414062,18.6171875 78.8867187,18.375 78.7773437,18.1679688 C78.6679687,17.9609375 78.5273437,17.7978516 78.3554687,17.6787109 C78.1835937,17.5595703 77.9921875,17.4570312 77.78125,17.3710938 C77.5703125,17.2851562 77.359375,17.2119141 77.1484375,17.1513672 C76.9375,17.0908203 76.7460937,17.0283203 76.5742187,16.9638672 C76.4023437,16.8994141 76.2617187,16.8164062 76.1523437,16.7148438 C76.0429687,16.6132812 75.9882812,16.4902344 75.9882812,16.3457031 C75.9882812,16.1777344 76.0585937,16.0361328 76.1992187,15.9208984 C76.3398437,15.8056641 76.5449219,15.7480469 76.8144531,15.7480469 C77.2832031,15.7480469 77.7207031,15.8964844 78.1269531,16.1933594 L78.1269531,16.1933594 L78.7363281,15.3378906 C78.2050781,14.9082031 77.5605469,14.6933594 76.8027344,14.6933594 C76.2128906,14.6933594 75.7392578,14.859375 75.3818359,15.1914062 C75.0244141,15.5234375 74.8457031,15.953125 74.8457031,16.4804688 C74.8457031,16.7578125 74.9003906,16.9980469 75.0097656,17.2011719 C75.1191406,17.4042969 75.2607422,17.5615234 75.4345703,17.6728516 C75.6083984,17.7841797 75.8007812,17.8798828 76.0117187,17.9599609 C76.2226562,18.0400391 76.4335937,18.1074219 76.6445312,18.1621094 C76.8554687,18.2167969 77.0478516,18.2744141 77.2216797,18.3349609 C77.3955078,18.3955078 77.5371094,18.4775391 77.6464844,18.5810547 C77.7558594,18.6845703 77.8105469,18.8125 77.8105469,18.9648438 C77.8105469,19.1601562 77.7275391,19.3164062 77.5615234,19.4335938 C77.3955078,19.5507812 77.1621094,19.609375 76.8613281,19.609375 C76.2753906,19.609375 75.7441406,19.4140625 75.2675781,19.0234375 L75.2675781,19.0234375 L74.6464844,19.9140625 C75.2988281,20.4101562 76.0253906,20.6582031 76.8261719,20.6582031 Z M82.9082031,20.6582031 C83.4003906,20.6582031 83.859375,20.5517578 84.2851562,20.3388672 C84.7109375,20.1259766 85.0566406,19.8320312 85.3222656,19.4570312 L85.3222656,19.4570312 L84.5019531,18.8300781 C84.3261719,19.0761719 84.0957031,19.2675781 83.8105469,19.4042969 C83.5253906,19.5410156 83.2246094,19.609375 82.9082031,19.609375 C82.4316406,19.609375 82.0244141,19.4638672 81.6865234,19.1728516 C81.3486328,18.8818359 81.1386719,18.5117188 81.0566406,18.0625 L81.0566406,18.0625 L85.7265625,18.0625 C85.7421875,17.90625 85.75,17.7753906 85.75,17.6699219 C85.75,17.2753906 85.6767578,16.8964844 85.5302734,16.5332031 C85.3837891,16.1699219 85.1835937,15.8535156 84.9296875,15.5839844 C84.6757812,15.3144531 84.3671875,15.0986328 84.0039062,14.9365234 C83.640625,14.7744141 83.2519531,14.6933594 82.8378906,14.6933594 C82.2832031,14.6933594 81.78125,14.8310547 81.3320312,15.1064453 C80.8828125,15.3818359 80.5351562,15.7470703 80.2890625,16.2021484 C80.0429687,16.6572266 79.9199219,17.1503906 79.9199219,17.6816406 C79.9199219,18.5175781 80.2099609,19.2226562 80.7900391,19.796875 C81.3701172,20.3710938 82.0761719,20.6582031 82.9082031,20.6582031 Z M84.578125,17.1542969 L81.0976562,17.1542969 C81.203125,16.7402344 81.4130859,16.4023438 81.7275391,16.140625 C82.0419922,15.8789062 82.4160156,15.7480469 82.8496094,15.7480469 C83.2949219,15.7480469 83.6767578,15.8818359 83.9951172,16.1494141 C84.3134766,16.4169922 84.5078125,16.7519531 84.578125,17.1542969 L84.578125,17.1542969 Z M88.3046875,20.5 L88.3046875,17.546875 C88.3046875,17.2773438 88.3330078,17.0458984 88.3896484,16.8525391 C88.4462891,16.6591797 88.5507812,16.4775391 88.703125,16.3076172 C88.8554687,16.1376953 89.0830078,16.0097656 89.3857422,15.9238281 C89.6884766,15.8378906 90.0683594,15.7949219 90.5253906,15.7949219 L90.5253906,15.7949219 L90.5253906,14.6933594 C89.9433594,14.6933594 89.4941406,14.7460938 89.1777344,14.8515625 C88.8613281,14.9570312 88.5703125,15.1679688 88.3046875,15.484375 L88.3046875,15.484375 L88.3046875,14.7988281 L87.15625,14.7988281 L87.15625,20.5 L88.3046875,20.5 Z M92.6757812,16.2871094 C92.8867187,16.2871094 93.0615234,16.2158203 93.2001953,16.0732422 C93.3388672,15.9306641 93.4082031,15.7539062 93.4082031,15.5429688 C93.4082031,15.3320312 93.3388672,15.1552734 93.2001953,15.0126953 C93.0615234,14.8701172 92.8867187,14.7988281 92.6757812,14.7988281 C92.4648437,14.7988281 92.2880859,14.8701172 92.1455078,15.0126953 C92.0029297,15.1552734 91.9316406,15.3320312 91.9316406,15.5429688 C91.9316406,15.7539062 92.0019531,15.9316406 92.1425781,16.0761719 C92.2871094,16.2167969 92.4648437,16.2871094 92.6757812,16.2871094 Z M92.6757812,20.5703125 C92.8867187,20.5703125 93.0615234,20.4990234 93.2001953,20.3564453 C93.3388672,20.2138672 93.4082031,20.0371094 93.4082031,19.8261719 C93.4082031,19.6152344 93.3388672,19.4404297 93.2001953,19.3017578 C93.0615234,19.1630859 92.8867187,19.09375 92.6757812,19.09375 C92.4648437,19.09375 92.2880859,19.1630859 92.1455078,19.3017578 C92.0029297,19.4404297 91.9316406,19.6152344 91.9316406,19.8261719 C91.9316406,20.0371094 92.0019531,20.2148438 92.1425781,20.359375 C92.2871094,20.5 92.4648437,20.5703125 92.6757812,20.5703125 Z" id="Browser:" fill="#FFFFFF" fill-rule="nonzero" opacity="0.29313151"></path>
        <path d="M605.205078,21.5 L605.205078,20.3457031 L601.244141,20.3457031 L601.244141,17.4453125 L604.53125,17.4453125 L604.53125,16.2910156 L601.244141,16.2910156 L601.244141,13.7832031 L605.205078,13.7832031 L605.205078,12.6171875 L600.019531,12.6171875 L600.019531,21.5 L605.205078,21.5 Z M607.244141,21.5 L608.632812,19.4375 L610.027344,21.5 L611.310547,21.5 L609.283203,18.5 L611.128906,15.7988281 L609.833984,15.7988281 L608.632812,17.5625 L607.431641,15.7988281 L606.136719,15.7988281 L607.988281,18.5 L605.955078,21.5 L607.244141,21.5 Z M614.304688,21.6582031 C614.683594,21.6582031 614.984375,21.6132812 615.207031,21.5234375 L615.207031,21.5234375 L615.207031,20.4921875 C615.070312,20.546875 614.857422,20.5742188 614.568359,20.5742188 C614.275391,20.5742188 614.076172,20.5 613.970703,20.3515625 C613.865234,20.203125 613.8125,19.9570312 613.8125,19.6132812 L613.8125,19.6132812 L613.8125,16.8945312 L615.359375,16.8945312 L615.359375,15.7988281 L613.8125,15.7988281 L613.8125,13.8652344 L612.646484,13.8652344 L612.646484,15.7988281 L611.75,15.7988281 L611.75,16.8945312 L612.646484,16.8945312 L612.646484,19.7480469 C612.646484,19.9628906 612.658203,20.15625 612.681641,20.328125 C612.705078,20.5 612.75293,20.671875 612.825195,20.84375 C612.897461,21.015625 612.993164,21.1582031 613.112305,21.2714844 C613.231445,21.3847656 613.391602,21.4775391 613.592773,21.5498047 C613.793945,21.6220703 614.03125,21.6582031 614.304688,21.6582031 Z M619.027344,21.6582031 C619.519531,21.6582031 619.978516,21.5517578 620.404297,21.3388672 C620.830078,21.1259766 621.175781,20.8320312 621.441406,20.4570312 L621.441406,20.4570312 L620.621094,19.8300781 C620.445312,20.0761719 620.214844,20.2675781 619.929688,20.4042969 C619.644531,20.5410156 619.34375,20.609375 619.027344,20.609375 C618.550781,20.609375 618.143555,20.4638672 617.805664,20.1728516 C617.467773,19.8818359 617.257812,19.5117188 617.175781,19.0625 L617.175781,19.0625 L621.845703,19.0625 C621.861328,18.90625 621.869141,18.7753906 621.869141,18.6699219 C621.869141,18.2753906 621.795898,17.8964844 621.649414,17.5332031 C621.50293,17.1699219 621.302734,16.8535156 621.048828,16.5839844 C620.794922,16.3144531 620.486328,16.0986328 620.123047,15.9365234 C619.759766,15.7744141 619.371094,15.6933594 618.957031,15.6933594 C618.402344,15.6933594 617.900391,15.8310547 617.451172,16.1064453 C617.001953,16.3818359 616.654297,16.7470703 616.408203,17.2021484 C616.162109,17.6572266 616.039062,18.1503906 616.039062,18.6816406 C616.039062,19.5175781 616.329102,20.2226562 616.90918,20.796875 C617.489258,21.3710938 618.195312,21.6582031 619.027344,21.6582031 Z M620.697266,18.1542969 L617.216797,18.1542969 C617.322266,17.7402344 617.532227,17.4023438 617.84668,17.140625 C618.161133,16.8789062 618.535156,16.7480469 618.96875,16.7480469 C619.414062,16.7480469 619.795898,16.8818359 620.114258,17.1494141 C620.432617,17.4169922 620.626953,17.7519531 620.697266,18.1542969 L620.697266,18.1542969 Z M624.423828,21.5 L624.423828,18.59375 C624.423828,17.3867188 624.908203,16.7832031 625.876953,16.7832031 C626.806641,16.7832031 627.271484,17.359375 627.271484,18.5117188 L627.271484,18.5117188 L627.271484,21.5 L628.431641,21.5 L628.431641,18.2714844 C628.431641,17.4121094 628.217773,16.7675781 627.790039,16.3378906 C627.362305,15.9082031 626.792969,15.6933594 626.082031,15.6933594 C625.703125,15.6933594 625.384766,15.7548828 625.126953,15.8779297 C624.869141,16.0009766 624.634766,16.1796875 624.423828,16.4140625 L624.423828,16.4140625 L624.423828,15.7988281 L623.275391,15.7988281 L623.275391,21.5 L624.423828,21.5 Z M631.847656,21.6582031 C632.492188,21.6582031 633.005859,21.5 633.388672,21.1835938 C633.771484,20.8671875 633.962891,20.4375 633.962891,19.8945312 C633.962891,19.6171875 633.908203,19.375 633.798828,19.1679688 C633.689453,18.9609375 633.548828,18.7978516 633.376953,18.6787109 C633.205078,18.5595703 633.013672,18.4570312 632.802734,18.3710938 C632.591797,18.2851562 632.380859,18.2119141 632.169922,18.1513672 C631.958984,18.0908203 631.767578,18.0283203 631.595703,17.9638672 C631.423828,17.8994141 631.283203,17.8164062 631.173828,17.7148438 C631.064453,17.6132812 631.009766,17.4902344 631.009766,17.3457031 C631.009766,17.1777344 631.080078,17.0361328 631.220703,16.9208984 C631.361328,16.8056641 631.566406,16.7480469 631.835938,16.7480469 C632.304688,16.7480469 632.742188,16.8964844 633.148438,17.1933594 L633.148438,17.1933594 L633.757812,16.3378906 C633.226562,15.9082031 632.582031,15.6933594 631.824219,15.6933594 C631.234375,15.6933594 630.760742,15.859375 630.40332,16.1914062 C630.045898,16.5234375 629.867188,16.953125 629.867188,17.4804688 C629.867188,17.7578125 629.921875,17.9980469 630.03125,18.2011719 C630.140625,18.4042969 630.282227,18.5615234 630.456055,18.6728516 C630.629883,18.7841797 630.822266,18.8798828 631.033203,18.9599609 C631.244141,19.0400391 631.455078,19.1074219 631.666016,19.1621094 C631.876953,19.2167969 632.069336,19.2744141 632.243164,19.3349609 C632.416992,19.3955078 632.558594,19.4775391 632.667969,19.5810547 C632.777344,19.6845703 632.832031,19.8125 632.832031,19.9648438 C632.832031,20.1601562 632.749023,20.3164062 632.583008,20.4335938 C632.416992,20.5507812 632.183594,20.609375 631.882812,20.609375 C631.296875,20.609375 630.765625,20.4140625 630.289062,20.0234375 L630.289062,20.0234375 L629.667969,20.9140625 C630.320312,21.4101562 631.046875,21.6582031 631.847656,21.6582031 Z M636.007812,14.6738281 C636.21875,14.6738281 636.393555,14.6025391 636.532227,14.4599609 C636.670898,14.3173828 636.740234,14.140625 636.740234,13.9296875 C636.740234,13.71875 636.670898,13.5419922 636.532227,13.3994141 C636.393555,13.2568359 636.21875,13.1855469 636.007812,13.1855469 C635.796875,13.1855469 635.620117,13.2568359 635.477539,13.3994141 C635.334961,13.5419922 635.263672,13.71875 635.263672,13.9296875 C635.263672,14.140625 635.333984,14.3183594 635.474609,14.4628906 C635.619141,14.6035156 635.796875,14.6738281 636.007812,14.6738281 Z M636.582031,21.5 L636.582031,15.7988281 L635.421875,15.7988281 L635.421875,21.5 L636.582031,21.5 Z M641.011719,21.6582031 C641.554688,21.6582031 642.057617,21.5244141 642.520508,21.2568359 C642.983398,20.9892578 643.349609,20.6269531 643.619141,20.1699219 C643.888672,19.7128906 644.023438,19.2167969 644.023438,18.6816406 C644.023438,18.1425781 643.888672,17.6435547 643.619141,17.1845703 C643.349609,16.7255859 642.983398,16.3623047 642.520508,16.0947266 C642.057617,15.8271484 641.554688,15.6933594 641.011719,15.6933594 C640.464844,15.6933594 639.961914,15.828125 639.50293,16.0976562 C639.043945,16.3671875 638.682617,16.7304688 638.418945,17.1875 C638.155273,17.6445312 638.023438,18.1425781 638.023438,18.6816406 C638.023438,19.2207031 638.15625,19.71875 638.421875,20.1757812 C638.691406,20.6328125 639.055664,20.9941406 639.514648,21.2597656 C639.973633,21.5253906 640.472656,21.6582031 641.011719,21.6582031 Z M641.023438,20.5742188 C640.503906,20.5742188 640.063477,20.3886719 639.702148,20.0175781 C639.34082,19.6464844 639.160156,19.2050781 639.160156,18.6933594 C639.160156,18.1777344 639.339844,17.7304688 639.699219,17.3515625 C640.058594,16.9726562 640.5,16.7832031 641.023438,16.7832031 C641.539062,16.7832031 641.977539,16.96875 642.338867,17.3398438 C642.700195,17.7109375 642.880859,18.1542969 642.880859,18.6699219 C642.880859,19.1855469 642.701172,19.6318359 642.341797,20.0087891 C641.982422,20.3857422 641.542969,20.5742188 641.023438,20.5742188 Z M646.607422,21.5 L646.607422,18.59375 C646.607422,17.3867188 647.091797,16.7832031 648.060547,16.7832031 C648.990234,16.7832031 649.455078,17.359375 649.455078,18.5117188 L649.455078,18.5117188 L649.455078,21.5 L650.615234,21.5 L650.615234,18.2714844 C650.615234,17.4121094 650.401367,16.7675781 649.973633,16.3378906 C649.545898,15.9082031 648.976562,15.6933594 648.265625,15.6933594 C647.886719,15.6933594 647.568359,15.7548828 647.310547,15.8779297 C647.052734,16.0009766 646.818359,16.1796875 646.607422,16.4140625 L646.607422,16.4140625 L646.607422,15.7988281 L645.458984,15.7988281 L645.458984,21.5 L646.607422,21.5 Z M653.398438,17.2871094 C653.609375,17.2871094 653.78418,17.2158203 653.922852,17.0732422 C654.061523,16.9306641 654.130859,16.7539062 654.130859,16.5429688 C654.130859,16.3320312 654.061523,16.1552734 653.922852,16.0126953 C653.78418,15.8701172 653.609375,15.7988281 653.398438,15.7988281 C653.1875,15.7988281 653.010742,15.8701172 652.868164,16.0126953 C652.725586,16.1552734 652.654297,16.3320312 652.654297,16.5429688 C652.654297,16.7539062 652.724609,16.9316406 652.865234,17.0761719 C653.009766,17.2167969 653.1875,17.2871094 653.398438,17.2871094 Z M653.398438,21.5703125 C653.609375,21.5703125 653.78418,21.4990234 653.922852,21.3564453 C654.061523,21.2138672 654.130859,21.0371094 654.130859,20.8261719 C654.130859,20.6152344 654.061523,20.4404297 653.922852,20.3017578 C653.78418,20.1630859 653.609375,20.09375 653.398438,20.09375 C653.1875,20.09375 653.010742,20.1630859 652.868164,20.3017578 C652.725586,20.4404297 652.654297,20.6152344 652.654297,20.8261719 C652.654297,21.0371094 652.724609,21.2148438 652.865234,21.359375 C653.009766,21.5 653.1875,21.5703125 653.398438,21.5703125 Z" id="Extension:" fill="#FFFFFF" fill-rule="nonzero" opacity="0.29313151"></path>
        <path d="M605.205078,279.5 L605.205078,278.345703 L601.244141,278.345703 L601.244141,275.445312 L604.53125,275.445312 L604.53125,274.291016 L601.244141,274.291016 L601.244141,271.783203 L605.205078,271.783203 L605.205078,270.617188 L600.019531,270.617188 L600.019531,279.5 L605.205078,279.5 Z M609.546875,279.5 L611.884766,273.798828 L610.636719,273.798828 L608.908203,278.058594 L607.203125,273.798828 L605.955078,273.798828 L608.310547,279.5 L609.546875,279.5 Z M613.548828,272.673828 C613.759766,272.673828 613.93457,272.602539 614.073242,272.459961 C614.211914,272.317383 614.28125,272.140625 614.28125,271.929688 C614.28125,271.71875 614.211914,271.541992 614.073242,271.399414 C613.93457,271.256836 613.759766,271.185547 613.548828,271.185547 C613.337891,271.185547 613.161133,271.256836 613.018555,271.399414 C612.875977,271.541992 612.804688,271.71875 612.804688,271.929688 C612.804688,272.140625 612.875,272.318359 613.015625,272.462891 C613.160156,272.603516 613.337891,272.673828 613.548828,272.673828 Z M614.123047,279.5 L614.123047,273.798828 L612.962891,273.798828 L612.962891,279.5 L614.123047,279.5 Z M618.576172,279.658203 C619.376953,279.658203 620.013672,279.380859 620.486328,278.826172 L620.486328,278.826172 L620.486328,279.5 L621.634766,279.5 L621.634766,270.617188 L620.486328,270.617188 L620.486328,274.53125 C619.998047,273.972656 619.361328,273.693359 618.576172,273.693359 C618.166016,273.693359 617.775391,273.770508 617.404297,273.924805 C617.033203,274.079102 616.712891,274.288086 616.443359,274.551758 C616.173828,274.81543 615.959961,275.132812 615.801758,275.503906 C615.643555,275.875 615.564453,276.267578 615.564453,276.681641 C615.564453,277.091797 615.642578,277.481445 615.798828,277.850586 C615.955078,278.219727 616.166992,278.536133 616.43457,278.799805 C616.702148,279.063477 617.021484,279.272461 617.392578,279.426758 C617.763672,279.581055 618.158203,279.658203 618.576172,279.658203 Z M618.576172,278.574219 C618.044922,278.574219 617.599609,278.392578 617.240234,278.029297 C616.880859,277.666016 616.701172,277.216797 616.701172,276.681641 C616.701172,276.150391 616.880859,275.701172 617.240234,275.333984 C617.599609,274.966797 618.044922,274.783203 618.576172,274.783203 C619.107422,274.783203 619.554688,274.96875 619.917969,275.339844 C620.28125,275.710938 620.462891,276.158203 620.462891,276.681641 C620.462891,277.205078 620.283203,277.651367 619.923828,278.020508 C619.564453,278.389648 619.115234,278.574219 618.576172,278.574219 Z M626.064453,279.658203 C626.556641,279.658203 627.015625,279.551758 627.441406,279.338867 C627.867188,279.125977 628.212891,278.832031 628.478516,278.457031 L628.478516,278.457031 L627.658203,277.830078 C627.482422,278.076172 627.251953,278.267578 626.966797,278.404297 C626.681641,278.541016 626.380859,278.609375 626.064453,278.609375 C625.587891,278.609375 625.180664,278.463867 624.842773,278.172852 C624.504883,277.881836 624.294922,277.511719 624.212891,277.0625 L624.212891,277.0625 L628.882812,277.0625 C628.898438,276.90625 628.90625,276.775391 628.90625,276.669922 C628.90625,276.275391 628.833008,275.896484 628.686523,275.533203 C628.540039,275.169922 628.339844,274.853516 628.085938,274.583984 C627.832031,274.314453 627.523438,274.098633 627.160156,273.936523 C626.796875,273.774414 626.408203,273.693359 625.994141,273.693359 C625.439453,273.693359 624.9375,273.831055 624.488281,274.106445 C624.039062,274.381836 623.691406,274.74707 623.445312,275.202148 C623.199219,275.657227 623.076172,276.150391 623.076172,276.681641 C623.076172,277.517578 623.366211,278.222656 623.946289,278.796875 C624.526367,279.371094 625.232422,279.658203 626.064453,279.658203 Z M627.734375,276.154297 L624.253906,276.154297 C624.359375,275.740234 624.569336,275.402344 624.883789,275.140625 C625.198242,274.878906 625.572266,274.748047 626.005859,274.748047 C626.451172,274.748047 626.833008,274.881836 627.151367,275.149414 C627.469727,275.416992 627.664062,275.751953 627.734375,276.154297 L627.734375,276.154297 Z M631.460938,279.5 L631.460938,276.59375 C631.460938,275.386719 631.945312,274.783203 632.914062,274.783203 C633.84375,274.783203 634.308594,275.359375 634.308594,276.511719 L634.308594,276.511719 L634.308594,279.5 L635.46875,279.5 L635.46875,276.271484 C635.46875,275.412109 635.254883,274.767578 634.827148,274.337891 C634.399414,273.908203 633.830078,273.693359 633.119141,273.693359 C632.740234,273.693359 632.421875,273.754883 632.164062,273.87793 C631.90625,274.000977 631.671875,274.179688 631.460938,274.414062 L631.460938,274.414062 L631.460938,273.798828 L630.3125,273.798828 L630.3125,279.5 L631.460938,279.5 Z M639.775391,279.658203 C640.306641,279.658203 640.799805,279.530273 641.254883,279.274414 C641.709961,279.018555 642.072266,278.673828 642.341797,278.240234 L642.341797,278.240234 L641.380859,277.677734 C641.216797,277.955078 640.996094,278.173828 640.71875,278.333984 C640.441406,278.494141 640.134766,278.574219 639.798828,278.574219 C639.275391,278.574219 638.832031,278.389648 638.46875,278.020508 C638.105469,277.651367 637.923828,277.208984 637.923828,276.693359 C637.923828,276.177734 638.103516,275.730469 638.462891,275.351562 C638.822266,274.972656 639.259766,274.783203 639.775391,274.783203 C640.099609,274.783203 640.401367,274.862305 640.680664,275.020508 C640.959961,275.178711 641.181641,275.388672 641.345703,275.650391 L641.345703,275.650391 L642.318359,275.09375 C642.048828,274.667969 641.688477,274.328125 641.237305,274.074219 C640.786133,273.820312 640.298828,273.693359 639.775391,273.693359 C639.228516,273.693359 638.725586,273.828125 638.266602,274.097656 C637.807617,274.367188 637.446289,274.730469 637.182617,275.1875 C636.918945,275.644531 636.787109,276.142578 636.787109,276.681641 C636.787109,277.220703 636.919922,277.71875 637.185547,278.175781 C637.455078,278.632812 637.819336,278.994141 638.27832,279.259766 C638.737305,279.525391 639.236328,279.658203 639.775391,279.658203 Z M646.109375,279.658203 C646.601562,279.658203 647.060547,279.551758 647.486328,279.338867 C647.912109,279.125977 648.257812,278.832031 648.523438,278.457031 L648.523438,278.457031 L647.703125,277.830078 C647.527344,278.076172 647.296875,278.267578 647.011719,278.404297 C646.726562,278.541016 646.425781,278.609375 646.109375,278.609375 C645.632812,278.609375 645.225586,278.463867 644.887695,278.172852 C644.549805,277.881836 644.339844,277.511719 644.257812,277.0625 L644.257812,277.0625 L648.927734,277.0625 C648.943359,276.90625 648.951172,276.775391 648.951172,276.669922 C648.951172,276.275391 648.87793,275.896484 648.731445,275.533203 C648.584961,275.169922 648.384766,274.853516 648.130859,274.583984 C647.876953,274.314453 647.568359,274.098633 647.205078,273.936523 C646.841797,273.774414 646.453125,273.693359 646.039062,273.693359 C645.484375,273.693359 644.982422,273.831055 644.533203,274.106445 C644.083984,274.381836 643.736328,274.74707 643.490234,275.202148 C643.244141,275.657227 643.121094,276.150391 643.121094,276.681641 C643.121094,277.517578 643.411133,278.222656 643.991211,278.796875 C644.571289,279.371094 645.277344,279.658203 646.109375,279.658203 Z M647.779297,276.154297 L644.298828,276.154297 C644.404297,275.740234 644.614258,275.402344 644.928711,275.140625 C645.243164,274.878906 645.617188,274.748047 646.050781,274.748047 C646.496094,274.748047 646.87793,274.881836 647.196289,275.149414 C647.514648,275.416992 647.708984,275.751953 647.779297,276.154297 L647.779297,276.154297 Z M651.341797,275.287109 C651.552734,275.287109 651.727539,275.21582 651.866211,275.073242 C652.004883,274.930664 652.074219,274.753906 652.074219,274.542969 C652.074219,274.332031 652.004883,274.155273 651.866211,274.012695 C651.727539,273.870117 651.552734,273.798828 651.341797,273.798828 C651.130859,273.798828 650.954102,273.870117 650.811523,274.012695 C650.668945,274.155273 650.597656,274.332031 650.597656,274.542969 C650.597656,274.753906 650.667969,274.931641 650.808594,275.076172 C650.953125,275.216797 651.130859,275.287109 651.341797,275.287109 Z M651.341797,279.570312 C651.552734,279.570312 651.727539,279.499023 651.866211,279.356445 C652.004883,279.213867 652.074219,279.037109 652.074219,278.826172 C652.074219,278.615234 652.004883,278.44043 651.866211,278.301758 C651.727539,278.163086 651.552734,278.09375 651.341797,278.09375 C651.130859,278.09375 650.954102,278.163086 650.811523,278.301758 C650.668945,278.44043 650.597656,278.615234 650.597656,278.826172 C650.597656,279.037109 650.667969,279.214844 650.808594,279.359375 C650.953125,279.5 651.130859,279.570312 651.341797,279.570312 Z" id="Evidence:" fill="#1A1834" fill-rule="nonzero" opacity="0.701799665"></path>
    </g>
</svg>