<svg width="24" height="24" viewBox="0 0 24 24" fill="none" xmlns="http://www.w3.org/2000/svg">
<path fill-rule="evenodd" clip-rule="evenodd" d="M12 22C17.5228 22 22 17.5228 22 12C22 6.47715 17.5228 2 12 2C6.47715 2 2 6.47715 2 12C2 17.5228 6.47715 22 12 22ZM16.3229 9.84575L17 10.537L16.3484 11.2022C16.1625 12.6093 15.4612 13.8488 14.443 14.7153C13.5017 15.5162 12.2903 16 10.9694 16C9.74212 16 8.6103 15.5837 7.70132 14.8827C8.2785 14.7087 8.81551 14.4397 9.29571 14.0918C7.90653 13.0875 7 11.4358 7 9.56675C7 9.31675 7.01714 9.07175 7.04824 8.8305C8.03705 9.883 9.42746 10.5392 10.9694 10.5392C11.1511 10.5392 11.3326 10.5305 11.5106 10.5127C11.5241 10.5115 11.5377 10.5096 11.5513 10.5077C11.565 10.5057 11.5788 10.5038 11.5926 10.5025C11.5926 10.4941 11.5919 10.486 11.5913 10.4781C11.5906 10.4704 11.59 10.463 11.59 10.4555C11.59 9.0995 12.6672 8 13.9951 8C14.4643 8 14.9007 8.13975 15.2712 8.37725C15.7852 8.7065 16.1679 9.22925 16.3229 9.84575Z" fill="white"/>
</svg>
